<svg fill="none" height="115" viewBox="0 0 153 115" width="153" xmlns="http://www.w3.org/2000/svg" xmlns:xlink="http://www.w3.org/1999/xlink"><linearGradient id="a"><stop offset="0" stop-color="#92deff"/><stop offset=".977055" stop-color="#62b4e1"/></linearGradient><linearGradient id="b" gradientUnits="userSpaceOnUse" x1="35.2955" x2="35.2955" xlink:href="#a" y1="23.8704" y2="108.398"/><linearGradient id="c" gradientUnits="userSpaceOnUse" x1="28.5867" x2="-.697613" y1="35.3338" y2="115.032"><stop offset="0" stop-color="#006da2"/><stop offset=".953125" stop-color="#29aaf3"/></linearGradient><linearGradient id="d"><stop offset="0" stop-color="#2b3582"/><stop offset="1" stop-color="#150e42"/></linearGradient><linearGradient id="e" gradientUnits="userSpaceOnUse" x1="72.6343" x2="59.2579" xlink:href="#d" y1="27.6382" y2="33.649"/><linearGradient id="f"><stop offset="0" stop-color="#53d8ff"/><stop offset="1" stop-color="#3840f7"/></linearGradient><linearGradient id="g" gradientUnits="userSpaceOnUse" x1="73.6243" x2="68.8816" xlink:href="#f" y1="34.6017" y2="23.0879"/><linearGradient id="h" gradientUnits="userSpaceOnUse" x1="49.733" x2="49.5117" xlink:href="#d" y1="105.311" y2="108.741"/><linearGradient id="i" gradientUnits="userSpaceOnUse" x1="49.8199" x2="49.0454" xlink:href="#d" y1="95.8377" y2="112.655"/><linearGradient id="j" gradientUnits="userSpaceOnUse" x1="49.7193" x2="49.0555" xlink:href="#d" y1="91.266" y2="105.317"/><linearGradient id="k"><stop offset="0" stop-color="#cb236d"/><stop offset="1" stop-color="#4c246d"/></linearGradient><linearGradient id="l" gradientUnits="userSpaceOnUse" x1="50.0781" x2="49.091" xlink:href="#k" y1="81.5929" y2="95.0835"/><linearGradient id="m" gradientUnits="userSpaceOnUse" x1="36.4191" x2="32.8992" xlink:href="#d" y1="94.9844" y2="110.099"/><linearGradient id="n" gradientUnits="userSpaceOnUse" x1="40.263" x2="36.7431" xlink:href="#d" y1="95.8797" y2="110.995"/><linearGradient id="o" gradientUnits="userSpaceOnUse" x1="42.3203" x2="38.8005" xlink:href="#d" y1="96.3586" y2="111.473"/><linearGradient id="p" gradientUnits="userSpaceOnUse" x1="44.3775" x2="40.8576" xlink:href="#d" y1="96.8375" y2="111.953"/><linearGradient id="q" gradientUnits="userSpaceOnUse" x1="27.8222" x2="31.3646" xlink:href="#d" y1="70.0157" y2="66.754"/><linearGradient id="r" gradientUnits="userSpaceOnUse" x1="27.4558" x2="36.047" xlink:href="#d" y1="64.809" y2="56.8987"/><linearGradient id="s" gradientUnits="userSpaceOnUse" x1="21.2131" x2="34.5898" xlink:href="#f" y1="37.1579" y2="67.5903"/><linearGradient id="t" gradientUnits="userSpaceOnUse" x1="42.4824" x2="56.5599" xlink:href="#f" y1="89.0385" y2="76.0766"/><linearGradient id="u" gradientUnits="userSpaceOnUse" x1="35.0414" x2="29.7231" xlink:href="#d" y1="35.6076" y2="27.8716"/><linearGradient id="v" gradientUnits="userSpaceOnUse" x1="12.6778" x2="46.3268" xlink:href="#d" y1="38.3682" y2="7.38575"/><linearGradient id="w" gradientUnits="userSpaceOnUse" x1="23.9439" x2="32.818" xlink:href="#f" y1="15.301" y2="28.9928"/><linearGradient id="x" gradientUnits="userSpaceOnUse" x1="8.19291" x2="19.4975" xlink:href="#f" y1="44.2758" y2="33.8671"/><linearGradient id="y" gradientUnits="userSpaceOnUse" x1="44.4065" x2="65.7335" xlink:href="#d" y1="4.40742" y2="21.1227"/><linearGradient id="z" gradientUnits="userSpaceOnUse" x1="58.0782" x2="31.5358" xlink:href="#f" y1="4.28943" y2="10.0299"/><linearGradient id="A" gradientUnits="userSpaceOnUse" x1="53.6629" x2="76.8852" xlink:href="#k" y1="22.8093" y2="18.7785"/><linearGradient id="B" gradientUnits="userSpaceOnUse" x1="72.7044" x2="61.6354" xlink:href="#k" y1="22.1561" y2="24.4126"/><linearGradient id="C"><stop offset="0" stop-color="#9cfffb"/><stop offset="1" stop-color="#9bfffa"/></linearGradient><linearGradient id="D" gradientUnits="userSpaceOnUse" x1="115.521" x2="115.438" xlink:href="#C" y1="93.7749" y2="88.9678"/><linearGradient id="E" gradientUnits="userSpaceOnUse" x1="136.854" x2="136.771" xlink:href="#C" y1="99.8704" y2="95.0632"/><linearGradient id="F" gradientUnits="userSpaceOnUse" x1="126.338" x2="126.212" xlink:href="#C" y1="100.551" y2="93.2218"/><linearGradient id="G" gradientUnits="userSpaceOnUse" x1="117.431" x2="117.431" xlink:href="#a" y1="56.6253" y2="87.0572"/><linearGradient id="H" gradientUnits="userSpaceOnUse" x1="117.43" x2="117.43" xlink:href="#a" y1="57.1151" y2="86.567"/><linearGradient id="I" gradientUnits="userSpaceOnUse" x1="117.43" x2="117.43" xlink:href="#a" y1="68.1962" y2="75.4868"/><linearGradient id="J" gradientUnits="userSpaceOnUse" x1="117.43" x2="117.43" xlink:href="#a" y1="68.6856" y2="74.9965"/><linearGradient id="K" gradientUnits="userSpaceOnUse" x1="139.007" x2="139.007" xlink:href="#a" y1="51.1197" y2="66.0771"/><linearGradient id="L" gradientUnits="userSpaceOnUse" x1="139.008" x2="139.008" xlink:href="#a" y1="51.6109" y2="65.5877"/><linearGradient id="M" gradientUnits="userSpaceOnUse" x1="114.241" x2="114.241" xlink:href="#a" y1="26.1742" y2="46.9965"/><linearGradient id="N" gradientUnits="userSpaceOnUse" x1="114.241" x2="114.241" xlink:href="#a" y1="26.6635" y2="46.5055"/><linearGradient id="O" gradientUnits="userSpaceOnUse" x1="124.35" x2="124.35" xlink:href="#a" y1="31.3133" y2="105.745"/><linearGradient id="P" gradientUnits="userSpaceOnUse" x1="124.351" x2="124.351" xlink:href="#a" y1="31.8032" y2="105.256"/><linearGradient id="Q" gradientUnits="userSpaceOnUse" x1="127.435" x2="127.435" xlink:href="#a" y1="27.995" y2="31.9706"/><linearGradient id="R" gradientUnits="userSpaceOnUse" x1="127.435" x2="127.435" xlink:href="#a" y1="28.4849" y2="31.4807"/><linearGradient id="S" gradientUnits="userSpaceOnUse" x1="75.1534" x2="52.1158" xlink:href="#k" y1="108.235" y2="133.293"/><linearGradient id="T"><stop offset="0" stop-color="#c4421b"/><stop offset="1" stop-color="#5c0e16"/></linearGradient><linearGradient id="U" gradientUnits="userSpaceOnUse" x1="67.6757" x2="69.7219" xlink:href="#T" y1="110.096" y2="110.096"/><linearGradient id="V"><stop offset="0" stop-color="#50e7b7"/><stop offset=".9964" stop-color="#323992"/></linearGradient><linearGradient id="W" gradientUnits="userSpaceOnUse" x1="67.438" x2="65.1003" xlink:href="#V" y1="70.6457" y2="117.398"/><linearGradient id="X" gradientUnits="userSpaceOnUse" x1="69.9852" x2="46.9485" xlink:href="#k" y1="103.484" y2="128.542"/><linearGradient id="Y" gradientUnits="userSpaceOnUse" x1="60.3009" x2="62.0678" xlink:href="#T" y1="109.991" y2="109.991"/><linearGradient id="Z" gradientUnits="userSpaceOnUse" x1="63.8209" x2="61.4833" xlink:href="#V" y1="70.4647" y2="117.217"/><linearGradient id="aa" gradientUnits="userSpaceOnUse" x1="55.665" x2="87.8635" xlink:href="#V" y1="75.8061" y2="52.634"/><linearGradient id="ab" gradientUnits="userSpaceOnUse" x1="76.0963" x2="86.5504" xlink:href="#T" y1="56.7107" y2="56.7107"/><linearGradient id="ac" gradientUnits="userSpaceOnUse" x1="84.2219" x2="77.2071" xlink:href="#T" y1="54.9582" y2="70.9185"/><linearGradient id="ad" gradientUnits="userSpaceOnUse" x1="86.5" x2="89.4272" xlink:href="#T" y1="49.6434" y2="45.1429"/><linearGradient id="ae" gradientUnits="userSpaceOnUse" x1="51.422" x2="83.6207" xlink:href="#V" y1="69.9113" y2="46.739"/><linearGradient id="af" gradientUnits="userSpaceOnUse" x1="53.2204" x2="66.4501" xlink:href="#T" y1="71.5191" y2="71.5191"/><linearGradient id="ag" gradientUnits="userSpaceOnUse" x1="70.4528" x2="77.7274" xlink:href="#C" y1="62.1123" y2="92.4234"/><linearGradient id="ah" gradientUnits="userSpaceOnUse" x1="75.0068" x2="73.4577" xlink:href="#f" y1="57.3356" y2="64.1379"/><linearGradient id="ai" gradientUnits="userSpaceOnUse" x1="74.1965" x2="73.4555" xlink:href="#f" y1="60.1891" y2="64.6347"/><linearGradient id="aj" gradientUnits="userSpaceOnUse" x1="65.4681" x2="69.5898" xlink:href="#T" y1="70.1313" y2="70.1313"/><linearGradient id="ak" gradientUnits="userSpaceOnUse" x1="63.3789" x2="68.6096" xlink:href="#T" y1="57.3755" y2="57.3755"/><linearGradient id="al" gradientUnits="userSpaceOnUse" x1="69.854" x2="64.1029" xlink:href="#T" y1="54.0482" y2="50.5404"/><linearGradient id="am" gradientUnits="userSpaceOnUse" x1="61.0587" x2="68.4883" xlink:href="#d" y1="46.8427" y2="52.7109"/><linearGradient id="an" gradientUnits="userSpaceOnUse" x1="68.3438" x2="63.1689" xlink:href="#T" y1="55.357" y2="52.2008"/><path d="m47.7245 84.775c.5583-1.3484.897-2.7657 1.5447-4.0797 1.3735-2.7866 3.4142-4.8961 5.3932-7.221 1.3597-1.5973 3.6814-4.4295 1.7771-6.4641-.935-.9984-2.4596-1.1251-3.7221-.9737-3.8176.4578-5.1969 1.3801-4.3491-3.1481.4705-2.5135 1.8082-4.7752 2.3329-7.2485.5306-2.5005.7848-9.7712-1.8825-11.4864-4.7374-3.046-7.7008 8.4649-8.4328 11.1021-.0269.097-.0448.2033-.0563.317-.0309.3069-.2633.5553-.5676.6062-.3042.0512-.6057-.1073-.7348-.3872-.1818-.3934-.3243-.7645-.34-1.0769-.0772-1.53.398-3.2162.7978-4.6801.5413-1.9824 1.288-3.9126 2.073-5.8098.8917-2.1546 1.4178-4.4026.6467-6.6706-.7586-2.2313-2.3258-4.0763-3.727-5.9284-1.8513-2.4471-3.1537-5.7846-6.0523-7.2148-3.424-1.6892-6.8614.8671-8.6978 3.7115-2.974 4.6064-1.3118 9.6693.9394 14.1645 1.5941 3.1834 5.6469 8.0161 5.5499 11.9207-.0056.2351-.132.4509-.3341.571-.2021.1205-.4522.1286-.6616.0218-.7045-.3608-1.266-.9941-1.8578-1.652-2.0936-2.328-3.9163-4.939-5.7949-7.4407-1.2928-1.7218-3.1033-4.7673-5.5019-4.9836-2.8079-.2531-2.7653 5.0918-2.5433 6.7502 1.1368 8.5019 9.0253 12.7388 13.1922 19.5561.8581 1.4039 2.7244 3.9634 2.5304 5.6717-.3736 3.2888-4.4033-.3488-6.1586-.8906-2.4368-.7523-6.7037-.7667-6.736 2.5769-.037 3.885 3.3164 7.2296 6.8104 8.3951 2.8025.9349 6.0043 1.2568 8.6609 2.5612 2.4304 1.1937.9754 3.8818-1.4626 3.1381-1.0066-.3072-2.0121-.7094-2.9919-1.0932-.9492-.3719-3.7466-1.9075-4.4415-.4804-.5308 1.0898.5707 2.9926 1.0092 3.9213 4.9135 10.4094 8.9614 8.4986 14.6365 10.5344 1.6297.585 2.732 1.908 3.3208 3.501.2541.687.2283 3.269 1.0127 3.502 1.0812.317 2.5926-1.926 3.0565-2.568.8588-1.19 1.9009-2.226 2.7582-3.418 1.4793-2.055 3.9024-5.0925 3.6307-7.8108-.1345-1.346-1.2933-1.8876-2.5434-1.9865-2.1166-.1676-5.4735-.5649-4.1252-3.4826.6682-1.4479 1.4317-2.8524 2.0419-4.3271z" fill="url(#b)"/><path d="m43.4243 108.279c-.1605 0-.2922-.128-.2954-.289-.0025-.142-.2986-14.2531-3.4218-23.7199-3.1072-9.4185-5.2646-27.8422-4.7056-32.7881.488-4.3163-1.2301-22.3981-4.9603-26.5138-.4894-.5402-.9884-.8101-1.4945-.803-.1685.0007-.2971-.1279-.2995-.291-.0022-.1631.1278-.2971.2912-.2996.679-.0061 1.3321.3256 1.9405.997 4.0824 4.5039 5.5438 23.1369 5.1098 26.9768-.4956 4.3844 1.4001 22.5955 4.6796 32.5365 3.1516 9.5528 3.4489 23.7511 3.4514 23.8931.0032.163-.1266.298-.2898.301-.0017 0-.0037 0-.0056 0z" fill="#fff" opacity=".6"/><path d="m28.9269 93.0679c-1.3289.3616-5.6139 3.9183-5.4137.8934.2572-3.8857 4.4917-6.979 4.805-10.9603.1825-2.3192-1.9758-3.7059-4.0738-4.1169-3.6797-.7204-4.9709 6.5439-6.8039 8.9913-.3856.5149-.8022-9.5633-.8887-9.9763-.2525-1.2032-.8718-3.4024-2.1306-3.9543-3.0445-1.3347-4.2208 2.621-4.5679 4.9023-.02034.1333-.11685.2423-.24667.2788-.12983.0365-.26897-.0069-.35543-.1103-1.94323-2.3219-.45194-4.7798-1.54885-7.4684-1.51137-3.7047-4.6605.0831-5.9372 1.8497-2.189157 3.0296-2.589414 7.1066.83897 9.4733 3.14839 2.1735 4.70704 3.572 2.6384 4.142-2.70968.7468-4.879246 3.6429-3.51901 6.3916 1.42269 2.8745 5.81007 4.3905 8.62849 5.4169 1.1094.4041 4.0138.3728 4.238 1.9173.1874 1.291-1.7617 1.873-2.6416 2.331-3.32257 1.728-4.06258 3.486-.4005 5.729 7.3932 4.529 15.5458 3.25 15.4642-.166-.0367-1.612 1.0501-3.575 1.5616-5.049.5479-1.58 1.0895-3.163 1.5153-4.7812.4316-1.6399 1.9527-6.5819-1.1621-5.7339z" fill="url(#c)"/><path d="m26.2355 110.611c-.12 0-.2329-.073-.277-.192-.059-.16-5.9899-16.0256-12.0613-20.7015-4.76803-3.6721-8.38576-9.3646-8.79728-13.8434-.20846-2.268.35763-4.1666 1.68259-5.6435.109-.1215.2959-.1315.41715-.0228.1215.109.13179.2959.02278.4172-1.2108 1.3497-1.72692 3.0974-1.53414 5.1952.3978 4.3271 3.92147 9.8494 8.5695 13.4289 2.6114 2.0116 5.4688 6.1543 8.4925 12.3139 2.2438 4.571 3.7471 8.61 3.7623 8.65.0566.153-.0216.323-.1744.38-.0341.012-.0686.018-.1027.018z" fill="#fff" opacity=".6"/><path d="m75.5985 28.3271c-.2224.3106-.6545.3821-.9651.1595l-2.3273-1.6672c-.3106-.2224-.3821-.6545-.1595-.9651l.0187-.0257c.2224-.3106.6545-.3822.9651-.1595l2.3273 1.6669c.3106.2224.3821.6545.1595.9651z" fill="url(#e)"/><path d="m73.8076 24.5243-5.3128-5.3784-3.6141 5.046 6.4546 3.8127c.6317.2967 1.42.1252 1.8264-.4421l.8269-1.1547c.4101-.5725.3136-1.382-.181-1.8835z" fill="url(#g)"/><path d="m73.3621 26.5852c-.2107.3187-.6399.4064-.9588.1957l-3.9065-2.5818c-.3187-.2107-.4064-.6398-.1957-.9588l.0176-.0264c.2106-.3187.6398-.4064.9587-.1957l3.9066 2.582c.3189.2107.4064.6398.1957.9588z" fill="#fff" opacity=".5"/><path d="m79.0833 111.476h-59.6207c-.533 0-.9651.432-.9651.965s.4321.965.9651.965h59.6209c.533 0 .9651-.433.9651-.965-.0002-.533-.4321-.965-.9653-.965z" fill="url(#h)"/><path d="m70.6388 101.664h-42.7316c-1.2882 0-2.3324 1.044-2.3324 2.332v7.48h47.3964v-7.48c0-1.288-1.0442-2.332-2.3324-2.332z" fill="url(#i)"/><path d="m67.4771 97.4961h-36.4083c-1.2882 0-2.3325 1.0445-2.3325 2.3325v1.8354h41.0737v-1.8354c-.0002-1.288-1.0447-2.3325-2.3329-2.3325z" fill="url(#j)"/><path d="m60.2403 97.4958h-21.9349v-9.6992c0-1.4332 1.1618-2.5951 2.5951-2.5951h16.7445c1.4333 0 2.5951 1.1619 2.5951 2.5951v9.6992z" fill="url(#l)"/><path d="m35.3986 103.702h-3.8298v7.774h3.8298z" fill="url(#m)"/><path d="m38.3055 103.702h-1.5388v7.774h1.5388z" fill="url(#n)"/><path d="m40.4747 103.702h-1.5391v7.774h1.5391z" fill="url(#o)"/><path d="m42.6432 103.702h-1.5388v7.774h1.5388z" fill="url(#p)"/><path d="m13.5038 50.03c-.5345.4921-.581 1.3201-.105 1.8688l30.0154 35.05c.4963.5724 1.3676.6212 1.9251.108l2.5537-2.3513-33.0569-35.9025z" fill="url(#q)"/><path d="m17.614 38.7685c-1.0218-1.0651-2.7078-1.1175-3.7937-.1173l-2.692 2.4784c-1.0859.9997-1.1726 2.6842-.1952 3.7904l35.814 40.8405 7.5074-6.9123c.6087-.5607.6366-1.5126.0612-2.1076z" fill="url(#r)"/><path d="m20.1824 47.3259-.2815.2594c-.8718.8024-.9279 2.16-.1251 3.032l18.8994 20.5262c.8027.8718 2.1602.9279 3.032.1252l.2815-.2594c.8718-.8025.9279-2.16.1252-3.0321l-18.8995-20.5262c-.8027-.8718-2.1602-.9279-3.032-.1251z" fill="url(#s)"/><path d="m20.4398 47.0862-.7935.7305 21.8046 23.6846.7935-.7305z" fill="#fff" opacity=".39"/><path d="m49.5213 92.1256c5.2842 0 9.5679-4.2837 9.5679-9.5679s-4.2837-9.5679-9.5679-9.5679-9.5679 4.2837-9.5679 9.5679 4.2837 9.5679 9.5679 9.5679z" fill="url(#t)"/><path d="m49.5215 89.8657c4.0365 0 7.3087-3.2722 7.3087-7.3087s-3.2722-7.3087-7.3087-7.3087-7.3087 3.2722-7.3087 7.3087 3.2722 7.3087 7.3087 7.3087z" fill="#fff" opacity=".39"/><path d="m15.0067 40.8975 1.8881 2.0508c.4123.4475 1.1126.4659 1.5479.0409l26.3404-26.0649c.4172-.4078.4348-1.0734.0397-1.5025l-.985-1.07z" fill="url(#u)"/><path d="m45.3222 6.29471 1.9902 2.16172c.8027.87204.7609 2.22567-.0943 3.04647l-31.3639 30.3148-5.5507-6.0285c-.45021-.489-.40931-1.2527.0904-1.6907l31.8847-27.96056c.888-.78483 2.2409-.71527 3.0436.15677z" fill="url(#v)"/><path d="m36.2385 13.621-17.235 15.8689c-.7625.702-.8115 1.8893-.1095 2.6521.7021.7625 1.8894.8115 2.6521.1093l17.235-15.8689c.7626-.7021.8116-1.8893.1095-2.6519-.702-.7625-1.8896-.8115-2.6521-.1095z" fill="url(#w)"/><path d="m18.5996 31.8229.5866.6372 19.9974-18.4101-.5866-.6373z" fill="#fff" opacity=".39"/><path d="m13.8454 46.755c4.2435 0 7.6835-3.4401 7.6835-7.6835 0-4.2435-3.44-7.6835-7.6835-7.6835-4.24346 0-7.68347 3.44-7.68347 7.6835 0 4.2434 3.44001 7.6835 7.68347 7.6835z" fill="url(#x)"/><path d="m13.8455 44.9406c3.2414 0 5.8691-2.6277 5.8691-5.8691s-2.6277-5.8691-5.8691-5.8691-5.86912 2.6277-5.86912 5.8691 2.62772 5.8691 5.86912 5.8691z" fill="#fff" opacity=".39"/><path d="m66.4519 20.2054-1.4227 1.8156c-.5739.7322-1.4844.9838-2.0488.5659l-20.8446-15.28246 3.968-5.06296c.3219-.41054.8358-.54061 1.1378-.28782l19.2701 16.12754c.5406.4478.5142 1.3921-.0598 2.1242z" fill="url(#y)"/><path d="m45.9738 12.9389c3.3309 0 6.0312-2.7003 6.0312-6.03123 0-3.33098-2.7003-6.031266-6.0312-6.031266-3.331 0-6.0313 2.700286-6.0313 6.031266 0 3.33093 2.7003 6.03123 6.0313 6.03123z" fill="url(#z)"/><path d="m45.9739 11.5145c2.5444 0 4.6071-2.06268 4.6071-4.60711s-2.0627-4.6071-4.6071-4.6071c-2.5445 0-4.6071 2.06267-4.6071 4.6071s2.0626 4.60711 4.6071 4.60711z" fill="#fff" opacity=".39"/><path d="m69.4695 17.6532-1.6023-.9661c-.2118-.1276-.4869-.0595-.6148.1523l-3.6253 6.012c-.1276.2116-.0595.4869.1523.6145l1.6023.9661c.2119.1277.487.0596.6148-.1523l3.6253-6.0117c.1274-.2119.0593-.487-.1523-.6148z" fill="url(#A)"/><path d="m64.5136 25.0538-.7576.9744c-.1367.1759-.095.437.0931.583l1.8068 1.4048c.1881.1462.4514.1225.5881-.0534l6.0413-7.77c.1367-.1756.0951-.4367-.0931-.583l-1.8068-1.4048c-.1883-.1462-.4514-.1224-.5881.0534l-.6942.8931z" fill="url(#B)"/><path d="m115.523 95.7371c1.008 0 1.826-.8176 1.826-1.8261s-.818-1.8261-1.826-1.8261c-1.009 0-1.826.8176-1.826 1.8261s.817 1.8261 1.826 1.8261z" fill="url(#D)"/><path d="m136.856 101.832c1.008 0 1.826-.817 1.826-1.826 0-1.0081-.818-1.8257-1.826-1.8257-1.009 0-1.826.8176-1.826 1.8257 0 1.009.817 1.826 1.826 1.826z" fill="url(#E)"/><path d="m136.941 100.369h-7.201c-.358 0-.678-.112-.926-.325l-6.661-5.7114c-.151-.1294-.316-.2034-.454-.2034h-6.091v-.7256h6.091c.314 0 .643.1345.926.3786l6.662 5.7109c.144.1247.326.1508.453.1508h7.201z" fill="url(#F)"/><path d="m117.352 87.0572c-.038 0-.077-.0025-.115-.0069l-3.254-.3943c-.406-.0488-.736-.3508-.822-.7511l-.489-2.2803c-1.019-.4107-1.978-.9521-2.859-1.6132l-2.206.762c-.1.0351-.206.0529-.313.0529-.297 0-.572-.1339-.755-.3674l-2.021-2.5794c-.253-.3218-.273-.7694-.05-1.113l1.266-1.9594c-.431-1.0136-.727-2.0745-.883-3.1614l-2.097-1.0202c-.368-.1788-.582-.572-.533-.9779l.395-3.253c.048-.4059.35-.7366.751-.8223l2.28-.4897c.411-1.0185.952-1.9777 1.613-2.8586l-.762-2.2058c-.133-.3873-.007-.8164.315-1.0685l2.579-2.0211c.168-.1318.378-.204.592-.204.185 0 .365.0529.52.1531l1.961 1.2678c1.013-.4316 2.074-.728 3.161-.883l1.02-2.0976c.159-.3277.499-.5396.864-.5396.038 0 .076.0025.114.0069l3.253.3946c.407.049.737.351.823.7508l.489 2.2805c1.019.4105 1.978.9519 2.859 1.613l2.206-.762c.101-.0351.207-.0527.313-.0527.297 0 .572.134.755.3674l2.021 2.5792c.253.3218.273.7696.051 1.113l-1.267 1.9594c.431 1.0136.728 2.0748.883 3.1614l2.097 1.0202c.368.1786.582.5718.533.9779l-.394 3.2532c-.05.4064-.352.7369-.752.8223l-2.28.4895c-.411 1.0182-.952 1.9777-1.613 2.8586l.762 2.2058c.134.387.007.8164-.315 1.0687l-2.579 2.0209c-.168.1315-.378.2043-.591.2043-.186 0-.366-.0532-.522-.1538l-1.959-1.2672c-1.014.4314-2.075.7278-3.162.8828l-1.02 2.0976c-.16.3277-.498.5396-.863.5396zm-.288-1.507 1.199-2.4953.404-.0448c1.207-.1326 2.38-.4598 3.485-.9732l.368-.1708 2.339 1.5134 2.006-1.5861-.917-2.6139.255-.3175c.762-.9507 1.361-2.0106 1.778-3.1503l.139-.381 2.722-.5842.298-2.5399-2.496-1.1988-.044-.4042c-.133-1.2069-.461-2.3792-.974-3.4847l-.171-.3679 1.514-2.3398-1.586-2.0057-2.614.9171-.318-.2548c-.951-.7625-2.01-1.3609-3.15-1.7776l-.381-.1391-.584-2.7229-2.54-.2969-1.199 2.4951-.404.0446c-1.207.1327-2.379.4602-3.485.9734l-.368.1708-2.339-1.5131-2.006 1.5858.917 2.6139-.255.3177c-.762.9502-1.361 2.0104-1.777 3.1504l-.14.3806-2.71.5818-.308 2.5431 2.494 1.1981.044.4044c.133 1.2069.46 2.379.973 3.4842l.171.3682-1.513 2.34 1.586 2.0057 2.614-.9173.317.255c.951.7623 2.011 1.3607 3.15 1.7774l.381.1393.585 2.7227zm.441-5.1051c-.351 0-.707-.0215-1.057-.0641-1.555-.1887-3.027-.7939-4.258-1.7505-.155-.1205-.254-.2942-.278-.4889s.028-.3873.149-.5423c.14-.1803.352-.2839.58-.2839.162 0 .322.0548.451.1543 1.021.7936 2.242 1.2958 3.533 1.4523.292.0355.587.0534.879.0534 1.608 0 3.133-.5283 4.408-1.528 1.508-1.1817 2.465-2.8799 2.696-4.7818.476-3.9256-2.331-7.5068-6.256-7.983-.292-.0353-.587-.0532-.879-.0532-1.608 0-3.133.5284-4.409 1.5281-1.507 1.1816-2.465 2.8799-2.695 4.7815-.062.5085-.07 1.0227-.023 1.5277.018.1953-.041.3861-.167.537s-.303.244-.498.2618c-.02.002-.044.0035-.069.0035-.375 0-.695-.2935-.73-.6683-.056-.6084-.046-1.2274.028-1.8388.277-2.2913 1.431-4.3377 3.248-5.7616 1.537-1.2044 3.374-1.8413 5.313-1.8413.351 0 .707.0218 1.057.0644 4.73.5737 8.112 4.8885 7.539 9.6189-.278 2.2913-1.432 4.3376-3.249 5.7615-1.536 1.2047-3.373 1.8413-5.313 1.8413z" fill="url(#G)"/><path d="m117.352 86.567c-.019 0-.038-.0012-.057-.0034l-3.252-.3944c-.199-.024-.361-.1717-.403-.3674l-.545-2.538c-1.149-.435-2.222-1.0405-3.193-1.8016l-2.455.8483c-.189.0656-.399.0032-.523-.1541l-2.021-2.5791c-.123-.1578-.133-.3765-.025-.5446l1.411-2.181c-.508-1.1246-.839-2.3114-.987-3.5315l-2.334-1.1356c-.18-.0872-.285-.2798-.261-.4784l.395-3.2528c.024-.1989.171-.3606.367-.4027l2.538-.5448c.435-1.1495 1.041-2.2227 1.802-3.1932l-.848-2.4549c-.065-.1894-.004-.3995.154-.523l2.579-2.0211c.157-.1235.376-.1333.544-.0248l2.182 1.4105c1.124-.5071 2.311-.8387 3.531-.9864l1.135-2.3342c.088-.1798.282-.2842.479-.2604l3.253.3944c.199.024.36.1714.402.3674l.545 2.5377c1.149.4351 2.222 1.0406 3.193 1.8019l2.455-.8483c.189-.0654.4-.0039.523.1541l2.021 2.5791c.124.1575.134.3763.025.5446l-1.41 2.1808c.507 1.1248.838 2.3116.986 3.5315l2.334 1.1356c.18.0872.285.2797.261.4784l-.395 3.253c-.024.1989-.171.3606-.367.4025l-2.538.5447c-.435 1.1496-1.041 2.2225-1.802 3.1935l.849 2.4549c.065.1891.003.3993-.155.5228l-2.579 2.0211c-.157.1237-.376.1335-.544.0247l-2.181-1.4102c-1.125.5071-2.311.8385-3.532.9862l-1.135 2.3342c-.079.1629-.244.264-.422.264zm-7.355-5.6562.105.0848c.993.7958 2.099 1.4202 3.289 1.8555l.127.0463.601 2.8015 3.235.3785 1.233-2.5654.134-.015c1.26-.1381 2.483-.4798 3.637-1.0155l.123-.0569 2.407 1.5567 2.555-2.0201-.943-2.6872.085-.1053c.796-.9926 1.42-2.0988 1.855-3.2888l.047-.1271 2.801-.6011.379-3.2354-2.566-1.2323-.014-.1343c-.139-1.2595-.48-2.4831-1.016-3.6371l-.057-.1227 1.557-2.4074-2.02-2.5553-2.688.943-.105-.0845c-.993-.7961-2.099-1.4205-3.289-1.8555l-.127-.0463-.601-2.8015-3.235-.3785-1.233 2.5652-.134.0149c-1.259.1382-2.483.4801-3.637 1.0158l-.122.0569-2.408-1.5567-2.555 2.0199.943 2.6871-.085.1056c-.795.9921-1.42 2.0985-1.855 3.2887l-.047.1269-2.787.5982-.392 3.2385 2.565 1.2322.015.1344c.138 1.2596.48 2.4831 1.015 3.6369l.057.1227-1.556 2.4074 2.02 2.5554zm-6.652-12.4282h.002zm14.16 11.4724c-.331 0-.664-.0198-.998-.0605-1.467-.1781-2.856-.7488-4.016-1.6508-.107-.083-.126-.2371-.043-.3436.083-.1071.237-.1262.343-.0431 1.091.8477 2.396 1.384 3.775 1.5513 2.031.2464 4.037-.3131 5.648-1.5756 1.611-1.2622 2.634-3.0766 2.88-5.1083.509-4.1938-2.49-8.0195-6.683-8.528-2.032-.2462-4.038.313-5.649 1.5755s-2.633 3.0766-2.88 5.1083c-.066.5428-.074 1.0917-.024 1.6314.012.1347-.087.254-.222.2662-.133.014-.254-.0867-.266-.2214-.053-.5742-.044-1.1581.026-1.735.262-2.1615 1.35-4.0917 3.064-5.4351 1.714-1.3428 3.848-1.9388 6.01-1.6764 4.462.5413 7.652 4.6115 7.111 9.0736-.262 2.1617-1.351 4.0917-3.064 5.435-1.449 1.1354-3.199 1.7365-5.012 1.7365z" fill="url(#H)"/><path d="m117.431 75.4868c-.448 0-.889-.0828-1.312-.2457-1.875-.7228-2.812-2.8363-2.09-4.7112.539-1.3957 1.906-2.3337 3.405-2.3337.447 0 .887.0821 1.307.244 1.875.7229 2.812 2.8366 2.089 4.7115-.35.9083-1.033 1.626-1.923 2.0203-.47.209-.967.3148-1.476.3148zm.002-5.8208c-.894 0-1.711.5597-2.032 1.3928-.431 1.1184.128 2.3799 1.247 2.8113.251.097.513.146.779.146.895 0 1.711-.5597 2.032-1.3928.209-.5411.194-1.1319-.042-1.6635-.236-.5318-.664-.9394-1.204-1.1481-.252-.0967-.514-.1457-.78-.1457z" fill="url(#I)"/><path d="m117.431 74.9965c-.383 0-.767-.0708-1.136-.2129-1.622-.6259-2.434-2.4549-1.808-4.078.625-1.6231 2.455-2.4344 4.078-1.8087 1.623.6258 2.434 2.4551 1.808 4.078-.303.7863-.894 1.4072-1.664 1.7489-.409.1815-.843.2727-1.278.2727zm-2.487-4.1148c-.528 1.371.157 2.9162 1.528 3.4448 1.37.5286 2.916-.1568 3.445-1.5278.528-1.3707-.157-2.9159-1.528-3.4448-1.372-.5286-2.916.1573-3.445 1.5278z" fill="url(#J)"/><path d="m140.737 66.0771c-.248 0-.483-.1085-.643-.2981l-.598-.706c-.164.0125-.328.0189-.492.0189-.259 0-.52-.0157-.778-.0473l-.628.6773c-.159.1717-.385.2699-.618.2699-.118 0-.232-.0242-.34-.0715l-1.442-.6359c-.329-.146-.53-.4838-.5-.8412l.077-.9203c-.322-.2765-.616-.5842-.878-.9193l-.953.0358c-.347 0-.663-.2165-.788-.5384l-.57-1.469c-.13-.3346-.033-.7155.241-.9477l.706-.5972c-.033-.4238-.023-.8495.028-1.2708l-.677-.6276c-.264-.2445-.343-.63-.198-.9595l.636-1.4408c.134-.3052.437-.5027.771-.5027.023 0 .046.001.07.003l.92.0766c.276-.3216.584-.6158.919-.8779l-.035-.923c-.013-.3601.203-.6883.537-.8179l1.47-.5697c.097-.0378.199-.0571.304-.0571.248 0 .483.1085.643.2976l.597.7065c.165-.0128.33-.0189.493-.0189.259 0 .52.0157.778.047l.628-.677c.158-.1715.384-.2702.618-.2702.118 0 .233.0245.341.0723l1.441.6356c.329.1448.53.4828.5.8409l-.077.9206c.322.2763.616.5842.878.919l.924-.035c.377 0 .689.2104.816.536l.571 1.4704c.129.3349.033.7158-.241.948l-.706.5972c.032.424.023.8495-.028 1.2708l.677.6278c.264.244.343.6298.198.9595l-.636 1.4406c-.135.3057-.437.5031-.769.5031-.025 0-.051-.0012-.076-.0036l-.916-.0767c-.277.3216-.585.6158-.92.8779l.036.923c.013.3603-.204.6888-.539.8182l-1.468.5697c-.097.038-.199.0571-.304.0571zm.19-1.5888.636-.2469-.049-1.2716.335-.229c.45-.3074.843-.6829 1.169-1.1162l.244-.3239 1.267.1058.276-.6241-.933-.8642.075-.3985c.1-.5333.112-1.0769.036-1.616l-.057-.402.972-.8215-.247-.6359-1.272.048-.229-.3349c-.307-.4492-.683-.8424-1.116-1.1687l-.324-.2439.106-1.2674-.624-.2751-.864.9325-.399-.0747c-.302-.0563-.61-.0852-.917-.0852-.232 0-.467.0166-.699.0492l-.402.0566-.821-.9717-.636.2466.048 1.2716-.335.229c-.449.3074-.842.6829-1.169 1.1163l-.244.324-1.267-.106-.275.6241.933.8642-.075.3988c-.1.5333-.112 1.0768-.036 1.6157l.057.402-.972.8218.247.6359 1.271-.0482.229.3348c.308.4497.683.8429 1.117 1.1687l.323.244-.106 1.2674.625.2753.864-.9328.398.0747c.302.0566.611.0855.917.0855.233 0 .468-.0167.699-.0495l.402-.0563zm-1.888-1.3592c-.63 0-1.246-.1306-1.83-.388-.753-.3322-1.4-.8613-1.873-1.5295-.233-.3315-.155-.7908.176-1.0244.126-.0885.272-.1348.424-.1348.239 0 .463.1164.601.3111.318.451.756.8081 1.265 1.0328.393.1731.808.2608 1.233.2608 1.218 0 2.322-.7184 2.812-1.83.683-1.5476-.021-3.3625-1.569-4.0452-.393-.1729-.807-.2606-1.233-.2606-1.218 0-2.322.7182-2.812 1.8298-.088.2006-.156.4103-.199.6229-.07.34-.373.5867-.72.5867-.05 0-.1-.0052-.15-.0155-.19-.0392-.356-.1511-.464-.3152-.108-.1639-.146-.3601-.106-.5524.065-.3148.164-.6241.294-.9193.725-1.6444 2.357-2.7068 4.158-2.7068.63 0 1.245.1299 1.825.3859 1.109.4891 1.961 1.381 2.4 2.511.438 1.13.41 2.363-.079 3.472-.489 1.1089-1.381 1.9611-2.511 2.3995-.529.2048-1.081.3092-1.642.3092z" fill="url(#K)"/><path d="m140.737 65.5877c-.102 0-.201-.0441-.27-.1249l-.762-.9015c-.556.0654-1.114.053-1.664-.0372l-.802.8652c-.102.1105-.263.1435-.401.083l-1.442-.6359c-.138-.0612-.222-.2026-.209-.3522l.098-1.1756c-.438-.3453-.823-.7495-1.149-1.2037l-1.18.0449c-.15.0049-.288-.0853-.343-.2254l-.569-1.469c-.055-.1403-.014-.2998.101-.3971l.901-.7622c-.065-.5554-.053-1.1139.037-1.664l-.865-.8018c-.11-.1024-.144-.2638-.082-.4017l.635-1.4415c.061-.1379.203-.222.352-.2092l1.176.0979c.345-.4374.75-.823 1.204-1.1493l-.045-1.1794c-.005-.1507.085-.2881.225-.3422l1.469-.57c.14-.0547.3-.0138.397.1009l.763.9017c.555-.0657 1.113-.0532 1.663.0369l.802-.8651c.102-.1105.264-.1441.402-.0828l1.442.6359c.138.0605.221.2021.209.3522l-.098 1.1758c.437.3454.823.7493 1.149 1.2037l1.18-.0451c.152-.0009.287.085.342.2249l.57 1.4695c.054.1403.014.2998-.101.3971l-.902.7622c.066.5556.053 1.1139-.037 1.664l.865.802c.111.1022.144.2636.083.4017l-.636 1.4416c-.061.1379-.202.2229-.352.2092l-1.176-.0982c-.345.4374-.749.8232-1.203 1.1493l.044 1.1794c.006.1509-.085.2883-.225.3425l-1.469.5697c-.041.0162-.084.0238-.127.0238zm-.831-1.5476.872 1.0317 1.288-.4992-.052-1.3504.112-.0764c.493-.3378.925-.7503 1.284-1.226l.081-.1078 1.346.1124.557-1.2632-.991-.9181.025-.1328c.11-.5857.123-1.1826.04-1.7744l-.019-.134 1.032-.8728-.5-1.287-1.35.0512-.076-.1117c-.338-.4933-.751-.9252-1.226-1.2835l-.108-.0814.112-1.3457-1.263-.5571-.918.9904-.133-.025c-.586-.1095-1.182-.1227-1.774-.0394l-.134.0188-.873-1.032-1.288.4992.052 1.3507-.112.0764c-.493.3376-.925.7501-1.283 1.2258l-.081.108-1.346-.1124-.557 1.263.99.9181-.025.133c-.11.5854-.123 1.1824-.04 1.7742l.019.1342-1.031.8728.499 1.2872 1.35-.0512.077.1115c.337.4938.75.9254 1.226 1.2835l.107.0814-.112 1.346 1.263.557.918-.9908.133.0252c.586.1097 1.183.1232 1.775.0397zm-7.323-7.414v.0004c0-.0002 0-.0002 0-.0004zm.412-1.5403h.002zm6.044 7.5539c-.555 0-1.109-.1159-1.632-.3464-.672-.2964-1.249-.7679-1.671-1.3639-.077-.1105-.051-.2633.059-.3417.111-.0777.264-.0517.342.0588.37.5237.877.9379 1.468 1.1985 1.795.7917 3.899-.0247 4.691-1.8195.791-1.795-.025-3.8994-1.82-4.6911-1.795-.7914-3.899.0247-4.691 1.8198-.102.2319-.18.4747-.231.7214-.027.1325-.157.2182-.289.1905-.133-.0274-.218-.157-.191-.2895.058-.2807.147-.5565.263-.8206.901-2.0419 3.294-2.971 5.337-2.0701.989.4363 1.749 1.2316 2.14 2.2399.391 1.0079.366 2.108-.07 3.0974s-1.232 1.7495-2.24 2.1402c-.475.1844-.97.2763-1.465.2763z" fill="url(#L)"/><path d="m95.9499 46.9965c-.2011 0-.3968-.071-.5509-.2001l-17.497-14.6686c-.1933.0683-.3974.1039-.6031.1039-1.0016 0-1.8168-.815-1.8168-1.8166 0-1.0019.8149-1.8168 1.8168-1.8168 1.0018 0 1.8168.8149 1.8168 1.8168 0 .1521-.0186.301-.0556.446l16.0888 13.4882c.1345-3.9854.305-7.4214.5073-10.2263.0657-.9083.3244-1.7941.7486-2.5615l.0223-.0404.0034-.0042c.8319-1.4646 2.1645-2.3942 3.6755-2.5708 6.971-.8159 29.159-2.7719 42.699-2.7719 2.31 0 4.262.059 5.8.1759 2.446.1857 4.336 2.4348 4.395 5.2312.01.4725-.367.8652-.839.8752l-.028.0005c-.458 0-.838-.3767-.847-.8394-.041-1.9097-1.249-3.4394-2.811-3.558-1.504-.1141-3.419-.172-5.691-.172-13.449 0-35.535 1.9489-42.479 2.7614-.9759.1142-1.8504.7488-2.3993 1.7412-.305.5518-.4914 1.1936-.5394 1.8557-.23 3.1903-.4184 7.2005-.5595 11.9188-.01.326-.2087.6229-.5061.7564-.1109.0502-.229.0754-.3508.0754z" fill="url(#M)"/><path d="m95.714 46.4195c.0674.0566.1514.086.2361.086.051 0 .1022-.0105.1504-.0321.1284-.0575.2127-.1837.2171-.3243.1413-4.7252.3299-8.7419.5607-11.9391.0529-.7326.2601-1.444.5989-2.0571 0 0 0-.0002.0002-.0005.6264-1.1324 1.6363-1.8577 2.7706-1.9905 8.929-1.045 37.293-3.424 48.265-2.5914 1.814.138 3.217 1.873 3.263 4.0362.004.2028.173.3698.375.3595.203-.0044.363-.1722.359-.375-.054-2.5431-1.748-4.5867-3.941-4.7533-11.021-.8358-39.458 1.5471-48.406 2.5943-1.3729.1607-2.5859 1.0224-3.3283 2.3645 0 .0003-.0005.0008-.0008.001-.3899.7057-.628 1.5217-.6888 2.3597-.219 3.0349-.4 6.8043-.5389 11.213l-17.1247-14.3563c.0918-.1803.1445-.3838.1445-.6001 0-.7329-.594-1.3269-1.3269-1.3269-.7327 0-1.3269.594-1.3269 1.3269 0 .7326.594 1.3266 1.3269 1.3266.2489 0 .4808-.0698.6797-.1888z" fill="url(#N)"/><path d="m116.211 105.745c-5.293 0-9.45-.138-12.357-.41-2.337-.219-4.1914-2.399-4.3146-5.07-.5002-10.8596-2.1-47.3928-1.6929-61.534.0767-2.6575 1.8896-4.8459 4.2175-5.0904 6.627-.6959 27.995-2.3273 39.312-2.3273 1.678 0 3.091.0358 4.201.1068 2.154.1377 3.845 2.0843 3.934 4.528.418 11.4457 1.749 49.8935 1.327 64.0929-.075 2.527-1.805 4.547-4.025 4.699-4.604.314-18.703 1.005-30.602 1.005zm25.165-72.7173c-11.257 0-32.533 1.6248-39.133 2.318-1.477.1551-2.6304 1.6317-2.6823 3.4345-.4056 14.0849 1.1923 50.562 1.6923 61.4068.083 1.822 1.27 3.301 2.76 3.441 2.854.267 6.958.403 12.198.403 11.857 0 25.9-.688 30.486-1.002 1.335-.092 2.379-1.398 2.428-3.0389.42-14.1449-.909-52.5468-1.326-63.9796-.057-1.5601-1.059-2.7978-2.331-2.8789-1.073-.0691-2.45-.1039-4.092-.1039z" fill="url(#O)"/><path d="m98.3366 38.7455c-.4069 14.1292 1.1927 50.6433 1.6924 61.4975.112 2.429 1.776 4.408 3.87 4.605 2.893.27 7.035.408 12.312.408 11.887 0 25.97-.69 30.569-1.005 1.967-.135 3.502-1.951 3.569-4.225.421-14.1839-.909-52.6182-1.327-64.06-.08-2.1914-1.574-3.9352-3.476-4.057-1.1-.0703-2.503-.1058-4.17-.1058-11.299 0-32.641 1.6295-39.261 2.3249-2.084.2192-3.7089 2.2041-3.7784 4.6174zm43.0394-6.2072c1.652 0 3.039.0351 4.123.1044 1.524.0972 2.723 1.5376 2.789 3.3502.418 11.436 1.747 49.8499 1.327 64.0121-.057 1.894-1.297 3.404-2.885 3.513-4.591.314-18.651 1.003-30.519 1.003-5.254 0-9.373-.136-12.243-.405-1.732-.162-3.109-1.841-3.204-3.906-.5-10.8482-2.0987-47.3395-1.6926-61.443.0591-2.0468 1.4006-3.7267 3.1206-3.9075 6.609-.6947 27.911-2.3212 39.184-2.3212z" fill="url(#P)"/><path d="m122.746 31.9706c-.444 0-.852-.1938-1.151-.5453-.33-.3887-.469-.9105-.383-1.4312l.015-.0899c.121-.7366.689-1.3027 1.38-1.3772 1.492-.1599 5.293-.532 8.348-.532.44 0 .855.0081 1.232.0238.839.035 1.496.7728 1.496 1.6796 0 .8902-.647 1.6275-1.471 1.6779-1.597.0978-6.99.4294-9.366.5906-.032.0027-.066.0037-.1.0037zm.163-1.7257c2.139-.1443 6.357-.4052 8.435-.5328-.127-.0015-.257-.0022-.389-.0022-2.891 0-6.499.3459-8.042.5093z" fill="url(#Q)"/><path d="m122.814 31.4783c2.389-.1622 7.775-.4931 9.368-.5909.567-.0347 1.011-.557 1.011-1.189 0-.6432-.451-1.1662-1.026-1.1902-.369-.0154-.777-.0233-1.212-.0233-3.03 0-6.811.3702-8.295.5294-.474.0509-.864.4495-.95.9695l-.015.0899c-.062.3787.038.7557.274 1.0347.204.24.48.3723.778.3723.022-.0002.044-.001.067-.0024zm-.284-.8454c-.096-.1124-.137-.2768-.11-.4394l.015-.0899c.032-.1955.157-.3427.303-.3584 1.473-.158 5.222-.5252 8.217-.5252.424 0 .822.0076 1.181.0226.175.0073.322.2163.322.4561 0 .2403-.144.4446-.321.4556-1.594.0975-6.981.4287-9.373.5911l-.018.0005c-.1-.0003-.173-.0615-.216-.113z" fill="url(#R)"/><path d="m67.8711 110.101s-.2386 1.351-.3555 2.688c-.0458.523.3572.976.8811.998 1.7806.074 5.5889.219 6.9558.158.2055-.01.3397-.22.2638-.411-.0637-.16-.1867-.29-.3432-.362l-6.2909-2.891z" fill="url(#S)"/><path d="m67.6759 109.308.1918 1.616s1.1021.513 1.8546-.065l-.4564-1.8z" fill="url(#U)"/><path d="m67.82 78.9353c-.0828.4221-.4444 21.0533 1.7607 30.2987.036.151-.0404.307-.1839.365-.3383.138-1.0014.338-1.7961.365-.2461.008-.4668-.151-.5362-.388-.6305-2.145-3.651-12.8928-4.0451-23.1598-.4402-11.4722 0-.3907 0-.3907l.2582-7.0914z" fill="url(#W)"/><path d="m60.6344 110.807s-.3797.681-.7474 2.493c-.0663.328.1622.641.4946.673.5879.058 1.493.133 2.2181.128.3341-.003.595-.294.5548-.626-.0804-.661-.3305-1.746-1.1033-2.591z" fill="url(#X)"/><path d="m60.301 108.728.448 2.443s.4429.33 1.3189.091l-.2139-2.629z" fill="url(#Y)"/><path d="m59.0909 79.5686c-1.8036 10.8852.3912 26.9044 1.1315 30.0394.0453.192.2001.339.3948.371.3305.055.8745.1 1.4107-.056.1847-.054.3146-.22.3221-.412.0995-2.535-.0793-18.0962 1.6013-24.2458.0853-.3116.2756-.5835.5389-.7706l3.2618-2.319.2501-3.7485z" fill="url(#Z)"/><path d="m70.5843 58.9425c-5.4052-.0894-11.3696 1.4193-11.3696 1.4193-1.6113 9.4013-.2817 20.245-.2817 20.245 4.1846 1.0971 8.9051-.671 8.9051-.671.6954-3.9295 3.9406-14.9885 3.9406-14.9885 2.6411-.3277 4.8165-1.0895 6.6081-2.097-1.3666-1.5842-2.0108-3.5999-2.2906-4.7916-1.9111.5943-3.8448.9115-5.5119.8838z" fill="url(#aa)"/><path d="m86.5505 50.9808c-.5311-.6413-1.203-.338-1.203-.338-.7956 3.36-4.9662 6.0844-9.2512 7.4159.2798 1.1915.924 3.2075 2.2906 4.7916 7.1113-3.9984 8.1636-11.8695 8.1636-11.8695z" fill="url(#ab)"/><path d="m86.4216 51.1441c.0556.1766-.5879.4453-.9666-.2768-.0132-.3463-.2239-1.8295-.0169-2.1115 1.1018-1.5023 3.2381-3.3853 3.2381-3.3853.361.3562.0637.7062.0637.7062l-1.0362 1.0796c.2168.3919.4811.7223.605 1.1961.0939.3588.0363.7422-.1447 1.0687-.182.3278-.4302.7537-.6646 1.0871-.4446.6313-1.0778.6359-1.0778.6359z" fill="url(#ac)"/><path d="m87.2499 47.8566-.9443.8008-.2964.7971.8422.934s.2831-1.5817.4936-1.9239c.2101-.3422.1009-.5075-.0951-.608z" fill="url(#ad)"/><path d="m61.2879 65.5962-2.0732-5.2339s-5.0488 3.4306-5.8792 7.78c.9541.0703 2.6899.3184 4.3891 1.1763.3733-2.0537 3.5633-3.7224 3.5633-3.7224z" fill="url(#ae)"/><path d="m65.7 70.5212s-5.6687 3.2035-7.5813.4679c-.3971-.5678-.4921-1.1325-.3942-1.6706-1.6992-.8578-3.4349-1.106-4.389-1.1763-.2504 1.3113-.1179 2.7058.6525 4.1152 3.3503 6.1288 12.4621-.3387 12.4621-.3387z" fill="url(#af)"/><path d="m65.0189 74.5732 3.0938-10.8037c.0353-.1227.1396-.2121.2665-.2268.5605-.0657 2.1848-.2491 4.0599-.4076 2.259-.1911 4.8819-.3459 6.4496-.2143.2229.0188.3574.2545.2585.4548-.8914 1.8034-4.5579 9.1393-6.3941 11.5423-.061.0796-.1548.1264-.2552.1254l-7.1779-.0669c-.209-.0022-.3584-.2026-.3011-.4032z" fill="url(#ag)"/><path d="m72.7599 62.1984 2.243-.3735c.1196-.0198.2173.0943.1793.2092l-.2219.6726c-.0193.0586-.0705.1009-.1315.109l-2.1586.2883c-.1117.0152-.2038-.0864-.1781-.1962l.1377-.5874c.0147-.0632.0661-.1112.1301-.122z" fill="url(#ah)"/><path d="m71.0806 64.0976.1847-.9625c.0186-.0967.0982-.1695.196-.1793l4.5304-.4598c.1526-.0154.2746.1242.2388.2732l-.288 1.1993c-.0231.096-.1066.1653-.2051.1702l-4.427.2227c-.1441.0078-.257-.1223-.2298-.2638z" fill="url(#ai)"/><path d="m65.7666 71.9631s-.4308-1.772-.2569-2.4008c.1737-.6288.5105-1.4372 1.6333-1.2576 1.1227.1795 2.4469.6525 2.4469.6525s-.0669.8189-.9201.5548l.5291.4094s-.0757.6557-.7963.3054l.4921.5431s-.3096.5384-.8397.193-.7846 1.2138-2.2884 1.0002z" fill="url(#aj)"/><path d="m65.109 54.5544-1.7198 4.974c-.0284.0823.0054.1735.0816.2158.4688.2592 2.158 1.0083 4.1933-.2822.2122-.1344.3564-.3534.3885-.6025l.5568-4.3049h-3.5004z" fill="url(#ak)"/><path d="m68.8513 49.9487s1.8885 3.5553 1.6465 4.9912c-.242 1.4362-2.5828 1.3328-4.6267.1668l-1.4283-3.8389z" fill="url(#al)"/><path d="m65.9615 53.2214c.0831-.0368.1137-.1384.064-.2146-.1514-.231-.4348-.7025-.5255-1.1155 0 0-.3395-.2176.8642-.5056 1.2037-.2881 2.9988-.7354 3.376-1.7598.3679-.9989-.5987-3.5109-2.1407-1.5094-.0585.0762-.1734.0777-.2322.0017-.2528-.3289-.9173-1.0119-1.8398-.5977-.8635.3873-.9607 1.02-.949 1.339.0035.0938-.0803.1668-.1727.1489-.4365-.0833-1.4841-.1546-1.9731.92-.4029.8851-.1411 1.3862.0973 1.6312.0771.0794.0433.2102-.0625.2425-.2868.0877-.6574.3312-.6205 1.0033.0512.9294 1.0903.8476 1.386.8049.0485-.0068.0972.0099.1301.0461.2537.2807 1.3965 1.4724 2.6332 1.6162.1071.0123.1901-.0936.1551-.1955l-.5352-1.5559c-.0248-.0723.0098-.1514.0796-.1825z" fill="url(#am)"/><path d="m66.1766 53.4429s-1.3448-.9228-1.443-.1458c-.0983.777 1.211 1.1256 1.8594.8358z" fill="url(#an)"/></svg>