<svg fill="none" height="376" viewBox="0 0 581 376" width="581" xmlns="http://www.w3.org/2000/svg" xmlns:xlink="http://www.w3.org/1999/xlink"><linearGradient id="a"><stop offset="0" stop-color="#ddeafc"/><stop offset="1" stop-color="#a0bfea"/></linearGradient><linearGradient id="b" gradientUnits="userSpaceOnUse" x1="113.151" x2="118.797" xlink:href="#a" y1="120.374" y2="120.374"/><linearGradient id="c" gradientUnits="userSpaceOnUse" x1="117.751" x2="123.397" xlink:href="#a" y1="123.05" y2="123.05"/><linearGradient id="d" gradientUnits="userSpaceOnUse" x1="172.967" x2="178.614" xlink:href="#a" y1="155.158" y2="155.158"/><linearGradient id="e" gradientUnits="userSpaceOnUse" x1="109.263" x2="116.174" xlink:href="#a" y1="122.267" y2="122.267"/><linearGradient id="f" gradientUnits="userSpaceOnUse" x1="113.864" x2="120.775" xlink:href="#a" y1="124.94" y2="124.94"/><linearGradient id="g" gradientUnits="userSpaceOnUse" x1="159.877" x2="166.788" xlink:href="#a" y1="151.699" y2="151.699"/><linearGradient id="h" gradientUnits="userSpaceOnUse" x1="155.278" x2="162.188" xlink:href="#a" y1="149.023" y2="149.023"/><linearGradient id="i" gradientUnits="userSpaceOnUse" x1="150.674" x2="157.586" xlink:href="#a" y1="146.352" y2="146.352"/><linearGradient id="j" gradientUnits="userSpaceOnUse" x1="146.074" x2="152.984" xlink:href="#a" y1="143.676" y2="143.676"/><linearGradient id="k" gradientUnits="userSpaceOnUse" x1="141.472" x2="148.382" xlink:href="#a" y1="140.997" y2="140.997"/><linearGradient id="l" gradientUnits="userSpaceOnUse" x1="136.87" x2="143.782" xlink:href="#a" y1="138.321" y2="138.321"/><linearGradient id="m" gradientUnits="userSpaceOnUse" x1="132.27" x2="139.181" xlink:href="#a" y1="135.646" y2="135.646"/><linearGradient id="n" gradientUnits="userSpaceOnUse" x1="127.671" x2="134.581" xlink:href="#a" y1="132.972" y2="132.972"/><linearGradient id="o" gradientUnits="userSpaceOnUse" x1="123.067" x2="129.979" xlink:href="#a" y1="130.292" y2="130.292"/><linearGradient id="p" gradientUnits="userSpaceOnUse" x1="118.468" x2="125.376" xlink:href="#a" y1="127.616" y2="127.616"/><linearGradient id="q" gradientUnits="userSpaceOnUse" x1="164.478" x2="175.99" xlink:href="#a" y1="155.714" y2="155.714"/><linearGradient id="r" gradientUnits="userSpaceOnUse" x1="105.52" x2="114.676" xlink:href="#a" y1="125.096" y2="125.096"/><linearGradient id="s" gradientUnits="userSpaceOnUse" x1="165.373" x2="172.247" xlink:href="#a" y1="159.232" y2="159.232"/><linearGradient id="t" gradientUnits="userSpaceOnUse" x1="101.778" x2="111.944" xlink:href="#a" y1="127.564" y2="127.564"/><linearGradient id="u" gradientUnits="userSpaceOnUse" x1="149.138" x2="156.05" xlink:href="#a" y1="154.159" y2="154.159"/><linearGradient id="v" gradientUnits="userSpaceOnUse" x1="144.156" x2="151.067" xlink:href="#a" y1="151.308" y2="151.308"/><linearGradient id="w" gradientUnits="userSpaceOnUse" x1="139.176" x2="146.087" xlink:href="#a" y1="148.458" y2="148.458"/><linearGradient id="x" gradientUnits="userSpaceOnUse" x1="134.192" x2="141.102" xlink:href="#a" y1="145.611" y2="145.611"/><linearGradient id="y" gradientUnits="userSpaceOnUse" x1="129.209" x2="136.121" xlink:href="#a" y1="142.759" y2="142.759"/><linearGradient id="z" gradientUnits="userSpaceOnUse" x1="124.228" x2="131.14" xlink:href="#a" y1="139.914" y2="139.914"/><linearGradient id="A" gradientUnits="userSpaceOnUse" x1="119.247" x2="126.158" xlink:href="#a" y1="137.06" y2="137.06"/><linearGradient id="B" gradientUnits="userSpaceOnUse" x1="114.264" x2="121.174" xlink:href="#a" y1="134.205" y2="134.205"/><linearGradient id="C" gradientUnits="userSpaceOnUse" x1="109.282" x2="116.193" xlink:href="#a" y1="131.356" y2="131.356"/><linearGradient id="D" gradientUnits="userSpaceOnUse" x1="154.077" x2="160.988" xlink:href="#a" y1="157.035" y2="157.035"/><linearGradient id="E" gradientUnits="userSpaceOnUse" x1="158.596" x2="168.506" xlink:href="#a" y1="160.533" y2="160.533"/><linearGradient id="F" gradientUnits="userSpaceOnUse" x1="98.0372" x2="109.551" xlink:href="#a" y1="130.134" y2="130.134"/><linearGradient id="G" gradientUnits="userSpaceOnUse" x1="107.241" x2="114.152" xlink:href="#a" y1="134.144" y2="134.144"/><linearGradient id="H" gradientUnits="userSpaceOnUse" x1="148.652" x2="155.562" xlink:href="#a" y1="158.227" y2="158.227"/><linearGradient id="I" gradientUnits="userSpaceOnUse" x1="144.05" x2="150.96" xlink:href="#a" y1="155.55" y2="155.55"/><linearGradient id="J" gradientUnits="userSpaceOnUse" x1="139.449" x2="146.359" xlink:href="#a" y1="152.874" y2="152.874"/><linearGradient id="K" gradientUnits="userSpaceOnUse" x1="134.848" x2="141.76" xlink:href="#a" y1="150.191" y2="150.191"/><linearGradient id="L" gradientUnits="userSpaceOnUse" x1="130.246" x2="137.158" xlink:href="#a" y1="147.513" y2="147.513"/><linearGradient id="M" gradientUnits="userSpaceOnUse" x1="125.644" x2="132.556" xlink:href="#a" y1="144.831" y2="144.831"/><linearGradient id="N" gradientUnits="userSpaceOnUse" x1="121.042" x2="127.954" xlink:href="#a" y1="142.15" y2="142.15"/><linearGradient id="O" gradientUnits="userSpaceOnUse" x1="116.444" x2="123.354" xlink:href="#a" y1="139.474" y2="139.474"/><linearGradient id="P" gradientUnits="userSpaceOnUse" x1="111.843" x2="118.753" xlink:href="#a" y1="136.794" y2="136.794"/><linearGradient id="Q" gradientUnits="userSpaceOnUse" x1="153.591" x2="164.766" xlink:href="#a" y1="162.338" y2="162.338"/><linearGradient id="R" gradientUnits="userSpaceOnUse" x1="94.2958" x2="101.206" xlink:href="#a" y1="130.97" y2="130.97"/><linearGradient id="S" gradientUnits="userSpaceOnUse" x1="98.8972" x2="105.807" xlink:href="#a" y1="133.645" y2="133.645"/><linearGradient id="T" gradientUnits="userSpaceOnUse" x1="103.499" x2="110.409" xlink:href="#a" y1="136.321" y2="136.321"/><linearGradient id="U" gradientUnits="userSpaceOnUse" x1="108.011" x2="114.922" xlink:href="#a" y1="138.983" y2="138.983"/><linearGradient id="V" gradientUnits="userSpaceOnUse" x1="112.699" x2="147.22" xlink:href="#a" y1="149.702" y2="149.702"/><linearGradient id="W" gradientUnits="userSpaceOnUse" x1="144.91" x2="150.313" xlink:href="#a" y1="160.846" y2="160.846"/><linearGradient id="X" gradientUnits="userSpaceOnUse" x1="149.512" x2="156.422" xlink:href="#a" y1="163.082" y2="163.082"/><linearGradient id="Y" gradientUnits="userSpaceOnUse" x1="154.115" x2="159.518" xlink:href="#a" y1="166.194" y2="166.194"/><linearGradient id="Z" gradientUnits="userSpaceOnUse" x1="160.521" x2="167.397" xlink:href="#a" y1="156.406" y2="156.406"/><linearGradient id="aa" gradientUnits="userSpaceOnUse" x1="155.672" x2="162.546" xlink:href="#a" y1="153.595" y2="153.595"/><linearGradient id="ab" gradientUnits="userSpaceOnUse" x1="150.82" x2="157.696" xlink:href="#a" y1="150.774" y2="150.774"/><linearGradient id="ac" gradientUnits="userSpaceOnUse" x1="145.967" x2="152.843" xlink:href="#a" y1="147.959" y2="147.959"/><linearGradient id="ad" gradientUnits="userSpaceOnUse" x1="141.117" x2="147.991" xlink:href="#a" y1="145.137" y2="145.137"/><linearGradient id="ae" gradientUnits="userSpaceOnUse" x1="136.267" x2="143.141" xlink:href="#a" y1="142.322" y2="142.322"/><linearGradient id="af" gradientUnits="userSpaceOnUse" x1="131.415" x2="138.289" xlink:href="#a" y1="139.502" y2="139.502"/><linearGradient id="ag" gradientUnits="userSpaceOnUse" x1="126.562" x2="133.437" xlink:href="#a" y1="136.684" y2="136.684"/><linearGradient id="ah" gradientUnits="userSpaceOnUse" x1="121.711" x2="128.587" xlink:href="#a" y1="133.868" y2="133.868"/><linearGradient id="ai" gradientUnits="userSpaceOnUse" x1="116.86" x2="123.735" xlink:href="#a" y1="131.047" y2="131.047"/><linearGradient id="aj" gradientUnits="userSpaceOnUse" x1="112.01" x2="118.885" xlink:href="#a" y1="128.234" y2="128.234"/><linearGradient id="ak" gradientUnits="userSpaceOnUse" x1="168.367" x2="174.014" xlink:href="#a" y1="152.482" y2="152.482"/><linearGradient id="al" gradientUnits="userSpaceOnUse" x1="163.767" x2="169.413" xlink:href="#a" y1="149.798" y2="149.798"/><linearGradient id="am" gradientUnits="userSpaceOnUse" x1="159.164" x2="164.811" xlink:href="#a" y1="147.12" y2="147.12"/><linearGradient id="an" gradientUnits="userSpaceOnUse" x1="154.562" x2="160.209" xlink:href="#a" y1="144.442" y2="144.442"/><linearGradient id="ao" gradientUnits="userSpaceOnUse" x1="149.96" x2="155.609" xlink:href="#a" y1="141.766" y2="141.766"/><linearGradient id="ap" gradientUnits="userSpaceOnUse" x1="145.36" x2="151.007" xlink:href="#a" y1="139.079" y2="139.079"/><linearGradient id="aq" gradientUnits="userSpaceOnUse" x1="140.76" x2="146.406" xlink:href="#a" y1="136.403" y2="136.403"/><linearGradient id="ar" gradientUnits="userSpaceOnUse" x1="136.158" x2="141.805" xlink:href="#a" y1="133.725" y2="133.725"/><linearGradient id="as" gradientUnits="userSpaceOnUse" x1="131.556" x2="137.205" xlink:href="#a" y1="131.046" y2="131.046"/><linearGradient id="at" gradientUnits="userSpaceOnUse" x1="126.954" x2="132.603" xlink:href="#a" y1="128.366" y2="128.366"/><linearGradient id="au" gradientUnits="userSpaceOnUse" x1="122.355" x2="128.002" xlink:href="#a" y1="125.688" y2="125.688"/><linearGradient id="av"><stop offset="0" stop-color="#fff"/><stop offset=".0137" stop-color="#fbfcfd"/><stop offset=".2061" stop-color="#c3d1e3"/><stop offset=".393" stop-color="#94aece"/><stop offset=".5702" stop-color="#7092be"/><stop offset=".735" stop-color="#567eb2"/><stop offset=".8831" stop-color="#4672ab"/><stop offset="1" stop-color="#416ea8"/></linearGradient><linearGradient id="aw" gradientUnits="userSpaceOnUse" x1="171.338" x2="176.081" xlink:href="#av" y1="51.8251" y2="86.4096"/><linearGradient id="ax" gradientUnits="userSpaceOnUse" x1="272.794" x2="277.537" xlink:href="#av" y1="110.634" y2="145.218"/><path d="m334.704 142.267 230.273-131.4291c.105-.0703.176-.0703.281-.1055v209.2876c-.105.071-.176.141-.281.176l-230.273 131.429z" fill="#fefefe"/><path d="m334 136.464 230.238-131.46361c.106-.07031 15.748 9.49071 15.853 9.45561l-230.448 131.253z" fill="#71a8e8"/><path d="m349.643 145.673 230.519-131.2531v8.6823l-230.519 131.6398z" fill="#9ec4ef"/><path d="m349.642 154.745-15.642-7.733v-10.545l15.642 9.209z" fill="#71a8e8"/><path d="m334 349.971 230.238-131.464c.105-.07 3.339 2.461 3.409 2.391l-230.448 131.253z" fill="#71a8e8"/><path d="m337.199 352.15 230.554-131.254v8.683l-230.554 131.639z" fill="#9ec4ef"/><path d="m337.199 361.217-3.199-.703v-10.545l3.199 2.179z" fill="#71a8e8"/><g opacity=".65"><path d="m401.911 158.47v54.203l22.215 34.975c14.412-17.646 24.184-41.091 24.184-61.514 0-29.773-20.704-42.005-46.399-27.664z" fill="#bbe0ff" opacity=".65"/><path d="m400.33 213.267v-53.886c-25.696 15.326-46.399 51.461-46.399 81.233 0 8.226 1.617 15.045 4.464 20.423z" fill="#fcb5b3" opacity=".65"/><path d="m400.787 214.785-41.725 47.524c7.804 13.217 23.692 16.169 42.041 5.589 7.803-4.499 15.115-10.967 21.618-18.56z" fill="#fee2e1" opacity=".65"/></g><path d="m483.32 214.008-10.299 5.94v-27.383l10.299-5.94z" fill="#8fd7ff"/><path d="m499.876 204.443-10.299 5.941v-38.209l10.299-5.941z" fill="#8fd7ff"/><path d="m516.432 194.882-10.299 5.975v-58.913l10.299-5.94z" fill="#8fd7ff"/><path d="m532.988 185.358-10.299 5.941v-84.257l10.299-5.94z" fill="#8fd7ff"/><path d="m342.997 301.757-122.255 73.536-81.866-47.946c-3.41 4.359-8.19 8.401-14.341 11.951-27.9805 16.17-73.4305 16.064-101.5863-.175-28.19093-16.275-28.29638-42.533-.3515-58.667 6.3975-3.726 13.7088-6.538 21.5475-8.577l-39.19319-22.953 123.87149-75.539z" fill="#ceeae8"/><path d="m219.827 368.299-11.459-6.854v-116.595l11.459 6.854z" fill="#6b9adf"/><path d="m20.4875 252.584-11.45918-6.89v-120.743l11.45918 6.855z" fill="#6b9adf"/><path d="m20.4878 252.583 128.9682-71.497-61.092-86.8223-67.8762 37.5413z" fill="#80a8e3"/><path d="m338.075 296.943-118.247 71.356v-116.595l118.247-71.356z" fill="#80a8e3"/><path d="m219.581 252.266-215.75532-126.296v-7.136l338.01032 52.797v7.135z" fill="#bbe0ff"/><path d="m219.581 245.131-215.75532-126.297 123.87132-75.5742 214.139 128.3712z" fill="#99b9e9"/><path d="m219.581 245.131-215.75532-126.297 123.87132-75.5742 214.139 128.3712z" fill="#f4f8fe"/><path d="m92.8996 134.368 63.1664 36.733c.949.562 2.425.633 3.233.14l25.379-12.162c.844-.492 1.688-11.072.563-7.662l-68.615-28.613c-.949-.563-2.425-.633-3.233-.141l-20.7043 8.05c-.8436.492-.7381 3.093.2109 3.655z" fill="#6b9adf"/><path d="m92.8996 132.611 63.1664 36.732c.949.563 2.425.633 3.233.141 0 0 28.754-17.118 26.328-18.7l-63.587-36.065c-.949-.562-7.874 3.515-8.718 3.972l-20.7036 12.057c-.7733.457-.6679 1.3.2812 1.863z" fill="#a0bfea"/><g fill="#80a8e3"><path d="m116.836 122.802-3.69-2.179 1.933-1.125 3.726 2.179z"/><path d="m121.441 125.472-3.691-2.144 1.934-1.16 3.726 2.179z"/><path d="m112.971 125.054-3.691-2.144 3.199-1.863 3.691 2.144z"/><path d="m117.575 127.724-3.726-2.144 3.234-1.863 3.691 2.144z"/><path d="m175.995 157.99-3.198 1.863-8.331-4.851v-.773l11.529 2.952z"/><path d="m114.692 126.669-3.234 1.863-5.94-3.444 3.198-1.863z"/><path d="m108.751 131.308-6.959-4.043 3.198-1.863 6.96 4.043z"/><path d="m147.91 154.089-3.726-2.144 3.233-1.898 3.691 2.179z"/><path d="m168.508 162.347-3.198 1.863-6.714-3.902 3.198-1.863z"/><path d="m106.327 134.263-8.2958-4.816 3.1988-1.898 8.331 4.851z"/><path d="m110.932 136.935-3.691-2.144 3.199-1.863 3.726 2.144z"/><path d="m147.769 158.341-3.726-2.144 3.199-1.863 3.726 2.144z"/><path d="m161.549 166.357-7.944-4.605v-.809l11.178 2.777v.774z"/><path d="m111.81 141.786-3.726-2.144 3.234-1.863 3.691 2.144z"/><path d="m147.207 158.66-3.199 1.863-31.32-18.209v-.773l34.519 16.345z"/><path d="m148.613 163.191-3.691-2.144v-.774l5.378 1.16v.774z"/><path d="m153.218 165.863-3.691-2.144v-.774l6.889.281v.774z"/><path d="m157.824 168.535-3.726-2.144v-.774l5.413 1.16v.774z"/><path d="m115.43 119.781h-2.284v.844h2.284z"/><path d="m118.806 120.869h-1.476v.633h1.476z"/><path d="m123.376 123.543h-2.46v.703h2.46z"/><path d="m120.281 122.523h-2.531v.774h2.531z"/><path d="m117.083 124.805h-3.234v.808h3.234z"/><path d="m120.774 125.053h-2.32v.808h2.32z"/><path d="m111.987 122.029h-2.636v.774h2.636z"/><path d="m116.168 122.383h-3.48v.808h3.48z"/><path d="m108.4 124.279h-2.882v.774h2.882z"/><path d="m114.692 125.863h-6.186v.809h6.186z"/><path d="m104.111 126.461h-2.319v.738h2.319z"/><path d="m111.952 128.637h-5.097v.808h5.097z"/><path d="m109.56 131.627h-6.89v.773h6.89z"/><path d="m99.9997 128.637h-1.9685v.808h1.9685z"/><path d="m114.131 134.297h-4.042v.773h4.042z"/><path d="m109.737 133.982h-2.496v.809h2.496z"/></g><path d="m116.836 122.031-3.69-2.18 1.933-1.124 3.726 2.144z" fill="url(#b)"/><path d="m121.441 124.701-3.691-2.18 1.934-1.125 3.726 2.145z" fill="url(#c)"/><path d="m176.663 157.564-3.691-2.144v-.774l5.624 1.02v.773z" fill="#80a8e3"/><path d="m176.663 156.793-3.691-2.145 1.933-1.125 3.691 2.145z" fill="url(#d)"/><path d="m112.971 124.279-3.691-2.145 3.199-1.863 3.691 2.145z" fill="url(#e)"/><path d="m117.575 126.952-3.726-2.144 3.234-1.863 3.691 2.144z" fill="url(#f)"/><path d="m163.587 154.474-3.726-2.144v-.773l6.925.281v.773z" fill="#80a8e3"/><path d="m163.587 153.701-3.726-2.145 3.234-1.863 3.691 2.145z" fill="url(#g)"/><path d="m158.983 151.804-3.691-2.144v-.773l6.89.281v.773z" fill="#80a8e3"/><path d="m158.983 151.031-3.691-2.145 3.199-1.863 3.691 2.145z" fill="url(#h)"/><path d="m154.378 149.132-3.691-2.144v-.773l6.89.281v.773z" fill="#80a8e3"/><path d="m154.378 148.359-3.691-2.144 3.199-1.863 3.691 2.144z" fill="url(#i)"/><path d="m149.773 146.462-3.691-2.144v-.773l6.89.281v.774z" fill="#80a8e3"/><path d="m149.773 145.689-3.691-2.144 3.199-1.863 3.691 2.144z" fill="url(#j)"/><path d="m145.168 143.789-3.691-2.145v-.808l6.89.316v.774z" fill="#80a8e3"/><path d="m145.168 143.015-3.691-2.179 3.199-1.863 3.691 2.179z" fill="url(#k)"/><path d="m140.562 141.119-3.69-2.144v-.809l6.924.316v.774z" fill="#80a8e3"/><path d="m140.563 140.345-3.691-2.179 3.199-1.863 3.726 2.179z" fill="url(#l)"/><path d="m135.96 138.447-3.691-2.18v-.773l6.925.281v.809z" fill="#80a8e3"/><path d="m135.96 137.638-3.691-2.144 3.199-1.863 3.726 2.144z" fill="url(#m)"/><path d="m131.39 135.775-3.726-2.179v-.774l6.925.281v.809z" fill="#80a8e3"/><path d="m131.391 134.966-3.726-2.144 3.198-1.863 3.726 2.144z" fill="url(#n)"/><path d="m126.785 133.066-3.726-2.144v-.774l6.924.282v.773z" fill="#80a8e3"/><path d="m126.785 132.292-3.726-2.144 3.199-1.863 3.726 2.144z" fill="url(#o)"/><path d="m122.18 130.396-3.726-2.144v-.773l6.925.281v.773z" fill="#80a8e3"/><path d="m122.181 129.622-3.726-2.144 3.234-1.863 3.691 2.144z" fill="url(#p)"/><path d="m175.995 157.179-3.198 1.898-8.331-4.851 3.234-1.863z" fill="url(#q)"/><path d="m114.692 125.896-3.234 1.863-5.94-3.48 3.198-1.863z" fill="url(#r)"/><path d="m169.035 161.224-3.691-2.144v.773l3.691 2.18 3.199-1.863v-.809z" fill="#80a8e3"/><path d="m172.233 159.361-3.691-2.144-3.163 1.863c-.035.035 3.655 2.179 3.655 2.179z" fill="url(#s)"/><path d="m108.751 130.536-6.959-4.077 3.198-1.863 6.96 4.077z" fill="url(#t)"/><path d="m152.831 156.16-3.69-2.144v.773l3.69 2.144 3.234-1.863v-.773z" fill="#80a8e3"/><path d="m156.065 154.296-3.726-2.144-3.198 1.863 3.69 2.144z" fill="url(#u)"/><path d="m147.875 153.314-3.726-2.144v.773l3.726 2.144 3.199-1.863v-.773z" fill="#80a8e3"/><path d="m151.074 151.451-3.726-2.144-3.199 1.863 3.726 2.144z" fill="url(#v)"/><path d="m142.885 150.466-3.726-2.144v.774l3.726 2.144 3.198-1.863v-.774z" fill="#80a8e3"/><path d="m146.083 148.603-3.69-2.144-3.234 1.863 3.726 2.144z" fill="url(#w)"/><path d="m137.892 147.621-3.69-2.144v.773l3.69 2.144 3.199-1.863v-.773z" fill="#80a8e3"/><path d="m141.091 145.757-3.691-2.144-3.198 1.863 3.69 2.144z" fill="url(#x)"/><path d="m132.901 144.771-3.691-2.144v.773l3.691 2.144 3.234-1.863v-.773z" fill="#80a8e3"/><path d="m136.135 142.908-3.726-2.144-3.199 1.863 3.691 2.144z" fill="url(#y)"/><path d="m127.945 141.927-3.726-2.144v.774l3.726 2.144 3.199-1.863v-.774z" fill="#80a8e3"/><path d="m131.144 140.064-3.726-2.179-3.198 1.898 3.726 2.144z" fill="url(#z)"/><path d="m122.953 139.076-3.691-2.18v.809l3.691 2.144 3.199-1.863v-.773z" fill="#80a8e3"/><path d="m126.152 137.213-3.691-2.18-3.198 1.863 3.691 2.18z" fill="url(#A)"/><path d="m117.962 136.23-3.691-2.179v.808l3.691 2.144 3.199-1.863v-.773z" fill="#80a8e3"/><path d="m121.161 134.367-3.691-2.179-3.199 1.862 3.691 2.18z" fill="url(#B)"/><path d="m112.971 133.382-3.691-2.179v.809l3.691 2.144 3.233-1.863v-.774z" fill="#80a8e3"/><path d="m116.205 131.519-3.726-2.179-3.199 1.863 3.691 2.179z" fill="url(#C)"/><path d="m157.787 159.045-3.726-2.145v.774l3.726 2.144 3.199-1.863v-.773z" fill="#80a8e3"/><path d="m160.986 157.181-3.691-2.144-3.233 1.863 3.726 2.144z" fill="url(#D)"/><path d="m168.508 161.536-3.198 1.863-6.714-3.901 3.198-1.863z" fill="url(#E)"/><path d="m106.327 133.491-8.2958-4.851 3.1988-1.863 8.331 4.851z" fill="url(#F)"/><path d="m110.932 136.159-3.691-2.144 3.199-1.863 3.726 2.144z" fill="url(#G)"/><path d="m152.339 160.238-3.691-2.144v.773l3.691 2.144 3.234-1.863v-.773z" fill="#80a8e3"/><path d="m155.573 158.375-3.726-2.145-3.199 1.863 3.691 2.145z" fill="url(#H)"/><path d="m147.769 157.564-3.726-2.144v.773l3.726 2.144 3.199-1.863v-.773z" fill="#80a8e3"/><path d="m150.968 155.703-3.726-2.18-3.199 1.899 3.726 2.144z" fill="url(#I)"/><path d="m143.164 154.896-3.726-2.179v.808l3.726 2.144 3.199-1.863v-.808z" fill="#80a8e3"/><path d="m146.363 152.998-3.691-2.144-3.234 1.863 3.726 2.179z" fill="url(#J)"/><path d="m138.56 152.191-3.726-2.144v.773l3.726 2.18 3.199-1.899v-.773z" fill="#80a8e3"/><path d="m141.759 150.328-3.691-2.144-3.234 1.863 3.726 2.144z" fill="url(#K)"/><path d="m133.955 149.519-3.726-2.144v.773l3.726 2.145 3.199-1.863v-.774z" fill="#80a8e3"/><path d="m137.154 147.656-3.691-2.144-3.234 1.863 3.726 2.144z" fill="url(#L)"/><path d="m129.35 146.843-3.691-2.144v.774l3.691 2.144 3.199-1.863v-.774z" fill="#80a8e3"/><path d="m132.549 144.98-3.691-2.144-3.199 1.863 3.691 2.144z" fill="url(#M)"/><path d="m124.745 144.175-3.691-2.179v.809l3.691 2.144 3.199-1.863v-.774z" fill="#80a8e3"/><path d="m127.944 142.312-3.691-2.179-3.199 1.863 3.691 2.179z" fill="url(#N)"/><path d="m120.142 141.47-3.691-2.144v.773l3.691 2.18 3.199-1.863v-.809z" fill="#80a8e3"/><path d="m123.341 139.607-3.691-2.144-3.199 1.863 3.691 2.144z" fill="url(#O)"/><path d="m115.537 138.796-3.691-2.144v.774l3.691 2.144 3.198-1.863v-.773z" fill="#80a8e3"/><path d="m118.736 136.933-3.691-2.144-3.198 1.863 3.691 2.144z" fill="url(#P)"/><path d="m161.549 165.579-7.944-4.64 3.199-1.863 7.979 4.64z" fill="url(#Q)"/><path d="m97.996 132.963-3.6908-2.145v.809c.0351 0 3.6908 2.109 3.6908 2.109l3.199-1.863v-.773z" fill="#80a8e3"/><path d="m97.5044 128.955-3.1987 1.863 3.6908 2.144 3.1985-1.863c-.07-.035-3.6906-2.144-3.6906-2.144z" fill="url(#R)"/><path d="m102.601 135.672-3.6908-2.145v.774c0 .035 3.6908 2.179 3.6908 2.179l3.199-1.863c0-.035 0-.773 0-.773z" fill="#80a8e3"/><path d="m102.109 131.627-3.1988 1.863 3.6908 2.144 3.199-1.863c-.035 0-3.691-2.144-3.691-2.144z" fill="url(#S)"/><path d="m107.205 138.34-3.69-2.145v.774c0 .035 3.69 2.179 3.69 2.179l3.199-1.863c0-.035 0-.773 0-.773z" fill="#80a8e3"/><path d="m106.714 134.297-3.199 1.863 3.691 2.144 3.199-1.863c-.035 0-3.691-2.144-3.691-2.144z" fill="url(#T)"/><path d="m111.704 141.011-3.691-2.144v.774c0 .035 3.691 2.179 3.691 2.179l3.199-1.863c0-.035 0-.773 0-.773z" fill="#80a8e3"/><path d="m111.212 136.967-3.198 1.863 3.691 2.144 3.198-1.863c-.035 0-3.691-2.144-3.691-2.144z" fill="url(#U)"/><path d="m147.207 157.884-3.199 1.863-31.32-18.208 3.234-1.863z" fill="url(#V)"/><path d="m148.613 162.419-3.691-2.144 1.687-.984 3.691 2.144z" fill="url(#W)"/><path d="m153.218 165.089-3.691-2.144 3.199-1.863 3.69 2.144z" fill="url(#X)"/><path d="m157.824 167.759-3.726-2.144 1.722-.984 3.691 2.144z" fill="url(#Y)"/><path d="m164.184 158.408-3.69-2.144v.773l3.69 2.144 3.199-1.863v-.773z" fill="#80a8e3"/><path d="m167.383 156.545-3.691-2.145-3.164 1.863c-.035.036 3.656 2.18 3.656 2.18z" fill="url(#Z)"/><path d="m159.335 155.599-3.691-2.144v.773l3.691 2.145 3.199-1.863v-.774z" fill="#80a8e3"/><path d="m162.533 153.736-3.691-2.144-3.164 1.828c-.035.035 3.656 2.179 3.656 2.179z" fill="url(#aa)"/><path d="m154.484 152.789-3.691-2.144v.773l3.691 2.144 3.199-1.863v-.773z" fill="#80a8e3"/><path d="m157.682 150.925-3.691-2.144-3.163 1.863c-.035.035 3.656 2.18 3.656 2.18z" fill="url(#ab)"/><path d="m149.632 149.976-3.691-2.144v.773l3.691 2.145 3.199-1.863v-.774z" fill="#80a8e3"/><path d="m152.83 148.113-3.691-2.144-3.163 1.863c-.035.035 3.656 2.179 3.656 2.179z" fill="url(#ac)"/><path d="m144.782 147.164-3.691-2.18v.809l3.691 2.144 3.199-1.863v-.773z" fill="#80a8e3"/><path d="m147.98 145.3-3.691-2.144-3.163 1.863c-.035.035 3.655 2.18 3.655 2.18z" fill="url(#ad)"/><path d="m139.932 144.316-3.691-2.144v.773l3.691 2.18 3.198-1.863v-.809z" fill="#80a8e3"/><path d="m143.13 142.453-3.691-2.144-3.164 1.863c-.035.035 3.656 2.179 3.656 2.179z" fill="url(#ae)"/><path d="m135.081 141.506-3.691-2.145v.774l3.691 2.144 3.199-1.863v-.773z" fill="#80a8e3"/><path d="m138.279 139.642-3.691-2.144-3.163 1.863c-.036.035 3.655 2.179 3.655 2.179z" fill="url(#af)"/><path d="m130.229 138.691-3.691-2.144v.773l3.691 2.144 3.199-1.863v-.773z" fill="#80a8e3"/><path d="m133.427 136.828-3.691-2.144-3.163 1.827c-.036.036 3.655 2.18 3.655 2.18z" fill="url(#ag)"/><path d="m125.378 135.881-3.69-2.145v.774l3.69 2.144 3.199-1.863v-.773z" fill="#80a8e3"/><path d="m128.576 134.017-3.69-2.144-3.164 1.828c-.035.035 3.656 2.179 3.656 2.179z" fill="url(#ah)"/><path d="m120.528 133.066-3.691-2.179v.808l3.691 2.144 3.198-1.863v-.773z" fill="#80a8e3"/><path d="m123.726 131.203-3.691-2.144-3.164 1.827c-.035.036 3.656 2.18 3.656 2.18z" fill="url(#ai)"/><path d="m115.678 130.256-3.691-2.18v.809l3.691 2.144 3.198-1.863v-.809z" fill="#80a8e3"/><path d="m118.876 128.357-3.691-2.144-3.164 1.828c-.035.035 3.656 2.179 3.656 2.179z" fill="url(#aj)"/><path d="m172.059 154.898-3.69-2.144v-.774l5.659 1.02v.773z" fill="#80a8e3"/><path d="m172.06 154.123-3.691-2.145 1.933-1.124 3.726 2.144z" fill="url(#ak)"/><path d="m167.455 152.224-3.691-2.144v-.773l5.659 1.019v.773z" fill="#80a8e3"/><path d="m167.455 151.451-3.691-2.144 1.933-1.161 3.726 2.18z" fill="url(#al)"/><path d="m162.885 149.554-3.726-2.144v-.808l5.659 1.019v.808z" fill="#80a8e3"/><path d="m162.886 148.779-3.726-2.18 1.933-1.124 3.726 2.144z" fill="url(#am)"/><path d="m158.28 146.882-3.726-2.179v-.773l5.659 1.019v.773z" fill="#80a8e3"/><path d="m158.281 146.072-3.726-2.144 1.968-1.125 3.691 2.144z" fill="url(#an)"/><path d="m153.675 144.177-3.726-2.144v-.773l5.66 1.019v.773z" fill="#80a8e3"/><path d="m153.675 143.402-3.726-2.144 1.969-1.125 3.691 2.144z" fill="url(#ao)"/><path d="m149.07 141.504-3.726-2.145v-.773l5.659 1.019v.774z" fill="#80a8e3"/><path d="m149.07 140.728-3.726-2.144 1.968-1.16 3.691 2.179z" fill="url(#ap)"/><path d="m144.466 138.834-3.691-2.145v-.808l5.624 1.019v.809z" fill="#80a8e3"/><path d="m144.466 138.058-3.691-2.179 1.934-1.125 3.691 2.144z" fill="url(#aq)"/><path d="m139.862 136.162-3.691-2.18v-.773l5.624 1.019v.774z" fill="#80a8e3"/><path d="m139.862 135.351-3.691-2.144 1.933-1.125 3.691 2.144z" fill="url(#ar)"/><path d="m135.256 133.457-3.691-2.145v-.773l5.624 1.019v.774z" fill="#80a8e3"/><path d="m135.256 132.681-3.691-2.144 1.934-1.125 3.691 2.144z" fill="url(#as)"/><path d="m130.651 130.787-3.691-2.145v-.773l5.659 1.02v.773z" fill="#80a8e3"/><path d="m130.651 130.011-3.691-2.144 1.934-1.125 3.726 2.144z" fill="url(#at)"/><path d="m126.047 128.113-3.691-2.144v-.809l5.659 1.055v.773z" fill="#80a8e3"/><path d="m126.047 127.339-3.691-2.179 1.933-1.125 3.726 2.179z" fill="url(#au)"/><path d="m95.0082 125.863 43.2708-24.992-26.117-15.08-43.2709 24.992z" fill="#e44a65"/><path d="m150.019 99.5724 47.946 27.8746c0-.035 10.826-8.26 17.294-10.123l-50.969-29.6326c-5.694 2.2848-11.529 5.6592-17.224 10.0179-.105.1055 2.953 1.8631 2.953 1.8631z" fill="#a0bfea"/><path d="m150.053 99.5332c4.078 2.1798 8.19 4.3238 12.198 6.5728l6.045 3.375 6.011 3.445c4.007 2.284 8.015 4.604 11.987 6.96l5.975 3.515c2.004 1.16 3.937 2.39 5.941 3.585l-.774.457c.247-.281.528-.563.844-.844.141-.14.316-.246.457-.351l.387-.246 1.511-1.02c.984-.703 2.039-1.335 3.093-1.933l1.547-.949c.527-.316 1.055-.598 1.582-.879l3.199-1.722c.035.07-3.094 1.898-3.094 1.898-.527.316-1.054.597-1.546.914l-1.512 1.019c-1.019.668-2.039 1.301-2.988 2.039l-2.917 2.074c-.07.035-48.016-27.8395-48.016-27.8395z" fill="#99b9e9" opacity=".0961"/><path d="m215.258 117.357c-5.73 2.285-11.565 5.66-17.295 10.054v3.55c5.765-3.375 11.565-6.714 17.365-10.088 0-1.196 0-2.356 0-3.551-.035 0-.07.035-.07.035z" fill="#6b9adf"/><path d="m150.019 99.5681-3.059-1.7927v3.5506l51.039 29.667c0-1.23 0-2.39 0-3.55z" fill="#80a8e3"/><path d="m177.613 85.1914v21.0556c0 .527.351 1.054 1.019 1.441 1.371.808 3.586.808 4.956 0 .668-.387 1.02-.914 1.02-1.441v-21.0556z" fill="#99b9e9"/><path d="m197.753 106.703-3.269-1.898v-.809l3.269 1.898z" fill="#a0bfea"/><path d="m201.9 109.093-3.269-1.863v-.843l3.269 1.898z" fill="#a0bfea"/><path d="m206.048 111.521-3.269-1.898v-.809l3.269 1.899z" fill="#a0bfea"/><path d="m217.964 51.517-87.982-51.179564c-.492-.2812063-.949-.3866458-1.336-.3163442-.105-.1054524-2.531 1.4060082-2.531 1.4060082l1.441 2.70663v57.92847c0 1.5818 1.09 3.4799 2.426 4.2533l86.893 50.5465.457 2.109 1.898-1.16c.703-.105 1.16-.703 1.16-1.722v-60.2836c.035-1.5818-1.055-3.5151-2.426-4.2884z" fill="#a0bfea"/><path d="m215.926 118.688-87.983-51.1798c-1.335-.7733-2.425-2.6714-2.425-4.2532v-60.28361c0-.70301.246-1.2303.598-1.51151.457-.31636 1.089-.31636 1.827.10545l87.983 51.17957c1.336.7734 2.425 2.6715 2.425 4.2533v60.2838c.036 1.546-1.089 2.179-2.425 1.406z" fill="#a0bfea"/><path d="m217.332 56.3715v57.9985c-.035.879-.633 1.195-1.406.739l-87.982-51.1449c-.774-.457-1.406-1.5467-1.406-2.4606v-57.92848c0-.49211.175-.84363.492-.94909.246-.10545.562-.07027.914.14064l87.982 51.14433c.809.4219 1.406 1.5467 1.406 2.4606z" fill="#a0bfea"/><path d="m217.332 56.3637v57.9993c-.246.105-.563.035-.914-.141l-87.948-51.1796c-.773-.457-1.406-1.5467-1.406-2.4606v-57.99882c.247-.10545.563-.07033.914.14058l87.983 51.14444c.773.457 1.371 1.5818 1.371 2.4957z" fill="#1a5096"/><path d="m161.161 28.7428-31.39-18.1378v-3.12844l31.39 18.13784z" fill="#a0bfea"/><path d="m186.328 43.2599-14.939-8.6119v-3.1285l14.939 8.612z" fill="#a0bfea"/><path d="m144.394 31.4826-14.623-8.4714v-3.1284l14.623 8.4714z" fill="#a0bfea"/><path d="m153.392 36.6903-6.328-3.6556v-3.1285l6.328 3.6557z" fill="#a0bfea"/><path d="m161.336 41.2568-5.905-3.4096v-3.1284l5.905 3.4096z" fill="#a0bfea"/><path d="m147.065 39.9569-17.294-10.0179v-3.1285l17.294 10.018z" fill="#a0bfea"/><path d="m155.291 44.7041-5.976-3.4448v-3.1636l5.976 3.4448z" fill="#8fd7ff"/><path d="m155.15 51.5578-25.379-14.6931v-3.1284l25.379 14.6579z" fill="#8fd7ff"/><path d="m162.602 55.8464-8.436-4.8859v-3.1285l8.436 4.8509z" fill="#a0bfea"/><path d="m171.67 61.0848-6.889-3.972v-3.1636l6.889 3.972z" fill="#a0bfea"/><path d="m146.538 53.4882-16.767-9.7016v-3.1284l16.767 9.7016z" fill="#a0bfea"/><path d="m154.694 58.1982-5.835-3.3745v-3.1284l5.835 3.3393z" fill="#a0bfea"/><path d="m147.803 61.1522-18.032-10.4398v-3.1284l18.032 10.4398z" fill="#a0bfea"/><path d="m154.236 64.8409-4.921-2.8472v-3.1285l4.921 2.8472z" fill="#a0bfea"/><path d="m164.676 70.8875-8.401-4.8509v-3.1284l8.401 4.8508z" fill="#8fd7ff"/><path d="m146.96 67.5878-17.189-9.9477v-3.1284l17.189 9.9125z" fill="#a0bfea"/><path d="m155.643 72.575-7.733-4.4642v-3.1284l7.733 4.4642z" fill="#8fd7ff"/><path d="m172.233 40.2359-42.462-24.5352v-3.1636l42.462 24.5353z" fill="#a0bfea"/><path d="m199.195 55.7767-23.024-13.287v-3.1635l23.024 13.3221z" fill="#a0bfea"/><path d="m210.197 113.943-3.269-1.898v-.809l3.269 1.863z" fill="#a0bfea"/><path d="m206.436 111.693-3.234-1.898v-.809l3.234 1.898z" fill="#a0bfea"/><path d="m214.52 116.158c0 .808-.562 1.125-1.23.738-.703-.386-1.23-1.371-1.23-2.179 0-.809.562-1.125 1.23-.738.668.421 1.23 1.37 1.23 2.179z" fill="#99b9e9"/><path d="m213.817 117.881c-.317 0-.633-.106-.95-.281-.949-.563-1.652-1.793-1.652-2.883 0-1.371 1.231-2.144 2.461-1.441.949.563 1.652 1.793 1.652 2.882 0 1.02-.598 1.723-1.511 1.723zm-.985-3.199c0 .527.387 1.23.844 1.476.035-.527-.352-1.195-.844-1.476.035 0 .035 0 0 0z" fill="#a0bfea"/><path d="m217.332 56.0868v57.6472c-.246.106-.562.035-.914-.141l-87.982-51.1791c-.773-.4569-1.406-1.5467-1.406-2.4606v-3.269c6.608-3.0581 22.426-8.0495 37.435-8.0495 34.729 0 48.368 6.4326 52.867 7.452z" fill="url(#aw)" opacity=".06"/><path d="m251.463 158.379 47.946 27.875s10.826-8.261 17.294-10.124l-50.969-29.632c-5.694 2.25-11.529 5.659-17.224 9.983-.105.105 2.953 1.898 2.953 1.898z" fill="#a0bfea"/><path d="m251.498 158.346c4.077 2.179 8.19 4.323 12.197 6.573l6.046 3.374 6.011 3.445c4.007 2.285 8.014 4.605 11.986 6.96l5.976 3.515c2.003 1.16 3.937 2.39 5.94 3.586l-.773.456c.246-.281.527-.562.843-.843.141-.141.317-.246.457-.352l.387-.246 1.512-1.019c.984-.703 2.038-1.336 3.093-1.933l1.546-.949c.528-.317 1.055-.598 1.617-.879l3.199-1.723c.035.071-3.093 1.899-3.093 1.899-.527.316-1.055.597-1.547.949l-1.511.984c-1.02.668-2.039 1.336-3.023 2.039l-2.918 2.073c-.07.036-48.016-27.839-48.016-27.839z" fill="#99b9e9" opacity=".0961"/><path d="m316.702 176.164c-5.73 2.285-11.565 5.659-17.294 10.053v3.55c5.764-3.374 11.564-6.713 17.364-10.088 0-1.195 0-2.39 0-3.55-.035 0-.035 0-.07.035z" fill="#6b9adf"/><path d="m251.463 158.381-3.058-1.793v3.55l51.039 29.667c0-1.23 0-2.39 0-3.55z" fill="#80a8e3"/><path d="m279.092 144.002v21.055c0 .528.351 1.055 1.019 1.441 1.371.809 3.586.809 4.956 0 .668-.386 1.02-.913 1.02-1.441v-21.055z" fill="#99b9e9"/><path d="m299.199 165.513-3.234-1.898v-.808l3.234 1.863z" fill="#a0bfea"/><path d="m303.346 167.904-3.234-1.898v-.809l3.234 1.898z" fill="#a0bfea"/><path d="m307.495 170.332-3.269-1.898v-.809l3.269 1.898z" fill="#a0bfea"/><path d="m319.445 110.328-87.982-51.18c-.492-.2812-.949-.3867-1.336-.3164-.105-.1054-2.531 1.406-2.531 1.406l1.441 2.6715v57.9289c0 1.581 1.09 3.48 2.426 4.253l86.893 50.547.457 2.109 1.898-1.16c.703-.106 1.16-.703 1.16-1.723v-60.283c0-1.582-1.09-3.48-2.426-4.253z" fill="#a0bfea"/><path d="m317.372 177.463-87.948-51.144c-1.335-.774-2.425-2.672-2.425-4.253v-60.2841c0-.7382.246-1.2303.598-1.5115.457-.3163 1.089-.3163 1.827.1055l87.983 51.1791c1.336.774 2.425 2.672 2.425 4.254v60.283c0 1.547-1.089 2.18-2.46 1.371z" fill="#a0bfea"/><path d="m318.813 115.174v57.999c-.035.879-.633 1.195-1.406.738l-87.982-51.179c-.774-.457-1.406-1.547-1.406-2.461v-57.9284c0-.4921.175-.8436.492-.9491.246-.1054.562-.0703.914.1406l87.982 51.1799c.773.422 1.406 1.546 1.406 2.46z" fill="#a0bfea"/><path d="m318.813 115.147v57.999c-.246.105-.562.035-.914-.141l-87.982-51.144c-.774-.457-1.406-1.547-1.406-2.461v-57.9635c.246-.1055.562-.0703.914.1406l87.982 51.1799c.773.386 1.406 1.511 1.406 2.39z" fill="#1a5096"/><path d="m253.889 125.759c-.176 0-.351-.035-.527-.14l-17.54-10.124c-.317-.176-.528-.527-.528-.914 0-.386.211-.738.528-.914l17.434-10.053c.317-.176.739-.176 1.055 0l17.54 10.124c.317.175.528.527.528.914 0 .386-.211.738-.528.913l-17.435 10.054c-.175.105-.351.14-.527.14zm-15.431-11.178 15.431 8.893 15.326-8.858-15.431-8.893z" fill="#ddeafc"/><path d="m253.889 111.701c-.176 0-.351-.036-.527-.141l-17.54-10.123c-.317-.176-.528-.528-.528-.914 0-.387.211-.7385.528-.9143l17.434-10.0531c.317-.1757.739-.1757 1.055 0l17.54 10.1235c.317.1757.528.5269.528.9139s-.211.738-.528.914l-17.435 10.053c-.175.105-.351.141-.527.141zm-15.431-11.178 15.431 8.893 15.326-8.858-15.431-8.8933z" fill="#ddeafc"/><path d="m253.889 125.759c-.176 0-.351-.036-.527-.141l-17.54-10.123c-.317-.176-.528-.528-.528-.914l-.07-14.061c0-.386.211-.7378.527-.9136.317-.1757.739-.1757 1.055 0l17.54 10.1236c.317.176.527.527.527.914l.071 14.06c0 .387-.211.738-.528.914-.175.105-.351.141-.527.141zm-16.486-11.776 15.432 8.893-.035-11.599-15.432-8.894z" fill="#ddeafc"/><path d="m271.324 115.708c-.176 0-.352-.035-.527-.141l-17.541-10.123c-.316-.176-.527-.528-.527-.914l-.07-14.0605c0-.3867.211-.7381.527-.9139.316-.1757.738-.1757 1.054 0l17.541 10.1235c.316.1757.527.5269.527.9139l.07 14.06c0 .387-.211.738-.527.914-.176.106-.351.141-.527.141zm-16.486-11.776 15.431 8.893-.035-11.599-15.431-8.8935z" fill="#ddeafc"/><path d="m253.959 125.759c-.176 0-.352-.036-.527-.141-.317-.176-.528-.527-.528-.914l.071-14.06c0-.387.211-.738.527-.914l17.54-10.1236c.316-.1757.738-.1757 1.055 0 .316.1758.527.5276.527.9136l-.07 14.061c0 .386-.211.738-.528.914l-17.54 10.123c-.176.105-.351.141-.527.141zm1.089-14.482-.035 11.599 15.432-8.893.035-11.6z" fill="#ddeafc"/><path d="m289.146 145.693c-.176 0-.352-.035-.528-.141l-17.54-10.123c-.316-.176-.527-.527-.527-.914s.211-.738.527-.914l17.435-10.053c.316-.176.738-.176 1.054 0l17.541 10.123c.316.176.527.528.527.914 0 .387-.211.738-.527.914l-17.435 10.053c-.176.106-.352.141-.527.141zm-15.432-11.178 15.432 8.893 15.325-8.858-15.431-8.893z" fill="#ddeafc"/><path d="m289.145 145.692c-.176 0-.351-.035-.527-.14l-17.54-10.124c-.246-.14-.457-.386-.492-.703-.071-.281 0-.597.175-.843l17.435-24.114c.281-.387.738-.527 1.195-.387.422.141.738.528.738 1.02l.106 34.237c0 .386-.211.738-.527.914-.211.105-.387.14-.563.14zm-16.029-11.494 14.939 8.612-.105-29.175z" fill="#ddeafc"/><path d="m306.545 135.639c-.175 0-.351-.035-.527-.141l-17.54-10.123c-.316-.176-.527-.527-.527-.914l-.071-14.06c0-.457.282-.879.739-1.02.421-.14.913 0 1.195.387l17.575 24.184c.281.387.246.949-.07 1.336-.176.21-.492.351-.774.351zm-16.485-11.811 12.689 7.347-12.76-17.505z" fill="#ddeafc"/><path d="m311.642 172.718-3.269-1.863v-.843l3.269 1.898z" fill="#a0bfea"/><path d="m307.916 170.504-3.27-1.899v-.808l3.27 1.898z" fill="#a0bfea"/><path d="m315.965 174.97c0 .809-.562 1.125-1.23.739-.703-.387-1.231-1.371-1.231-2.18 0-.808.563-1.125 1.231-.738s1.23 1.371 1.23 2.179z" fill="#99b9e9"/><path d="m315.297 176.691c-.316 0-.632-.105-.949-.281-.949-.562-1.652-1.792-1.652-2.882 0-1.371 1.231-2.144 2.461-1.441.949.562 1.652 1.792 1.652 2.882-.035.984-.633 1.722-1.512 1.722zm-.984-3.198c0 .527.387 1.23.844 1.476 0-.527-.387-1.23-.844-1.476z" fill="#a0bfea"/><path d="m318.813 114.897v57.648c-.246.105-.562.035-.914-.141l-87.982-51.18c-.774-.456-1.406-1.546-1.406-2.46v-3.234c6.608-3.093 22.426-8.049 37.435-8.049 34.694-.036 48.333 6.397 52.867 7.416z" fill="url(#ax)" opacity=".06"/><path d="m58.5559 174.13-8.5065 34.904s-2.9878 2.742-3.8666 2.637c-.246-.106-.2812-.317-.1406-.774.7733-2.531 2.8472-3.901 3.3745-7.17.3866-2.391 4.8859-19.72 7.2762-28.93.7382-2.812-.7733-4.499-2.9878-3.269-.9842.563-2.1091 1.16-3.3393 1.863-10.8968 6.046-29.5619 16.556-31.7412 18.841-3.0933 3.269-9.84224 11.67-9.84224 11.67s-1.19513.809-1.33573.317c-.0703-.246.0703-.809.70302-1.863 0 0 4.74535-6.538 8.57675-10.299l.2812-.247c.2109-.21.4219-.421.6328-.597.1054-.106.2109-.176.3163-.281.1055-.106.2109-.176.3164-.246.2812-.211.4218-.317.5272-.387.3164-.211.457-.316.5976-.387l31.4248-18.138 3.4097-1.968c.3163-.176.6327-.316.949-.422.4218-.14.8437-.176 1.1952-.176 2.4605-.175 3.9368 1.723 2.1793 4.922z" fill="#a0bfea"/><path d="m56.6931 174.796c-2.4254 9.21-6.9247 26.539-7.2763 28.929-.5272 3.269-2.6011 4.64-3.3744 7.171-.1406.457-.1055.703.0703.773-.8085-.211-6.6084-1.757-5.8702-4.113.7733-2.53 2.8472-3.901 3.3745-7.17.3515-2.25 4.2884-17.47 6.7841-26.996 1.2303-.668 2.3551-1.301 3.3393-1.863 2.1794-1.23 3.6908.457 2.9527 3.269z" fill="#80a8e3"/><path d="m56.3773 169.102c-.3866 0-.7733.035-1.1951.176-.3163.105-.6327.246-.9491.422l-3.4096 1.968-31.4248 18.138c-.1406.07-.2812.176-.457.281-.2812.211-.4218.281-.5272.387-.2461.211-.3515.281-.457.386-.1054.071-.2109.176-.3164.282-.2109.175-.4218.386-.6327.597-.1054.07-.1757.176-.2812.246-3.8314 3.761-8.57676 10.299-8.57676 10.299-.63272 1.09-.77333 1.617-.70302 1.863 0 .036-5.41322-3.198-5.41322-3.198-.45696.105-.73818-.246.31635-2.039 0 0 7.48712-10.299 11.24825-12.479l34.8345-20.106c.7381-.422 1.652-.387 2.6363-.035l1.9333 1.019z" fill="#a0bfea"/><path d="m76.4126 236.906-.4569 25.379-2.3551-2.531z" fill="#99b9e9"/><path d="m122.074 336.91c-.14.141-.316.246-.527.281z" fill="#135197"/><path d="m118.068 339.09c-.035 1.055-.317 1.758-.809 2.18-.668.562-1.687.562-2.812-.071-2.003-1.16-3.62-3.972-3.62-6.257 0-.597.105-1.089.281-1.476.246-.492.597-.844 1.09-.984.632-.211 1.406-.106 2.249.387.387.21.738.492 1.055.808 1.16 1.055 2.038 2.636 2.39 4.148.07.351.141.703.141 1.054.035.071.035.141.035.211z" fill="#99b9e9"/><path d="m118.385 337.367c0 .597-.106 1.089-.282 1.476 0-.351-.07-.703-.14-1.054-.352-1.512-1.266-3.094-2.39-4.148-.352-.317-.703-.598-1.055-.809-.844-.492-1.617-.597-2.25-.386-.457.14-.843.492-1.089.984 0-.07 0-.176 0-.246 0-1.336.527-2.215 1.371-2.496.597-.211 1.335-.105 2.144.352.457.281.843.562 1.16.843 1.125 1.055 2.039 2.637 2.39 4.148.07.457.141.914.141 1.336z" fill="#a0bfea"/><path d="m122.884 334.73c0 .598-.105 1.09-.281 1.476-.141.281-.316.492-.527.668l-.528.281-3.48 2.004c0-.211 0-.281 0-.387.176-.386.282-.914.282-1.476 0-.422-.071-.879-.176-1.336-.352-1.511-1.266-3.093-2.39-4.148-.352-.316-.703-.597-1.055-.808-.914-.492-1.652-.598-2.25-.387l3.937-2.284c.668-.598 1.688-.598 2.848.035 2.003 1.265 3.62 4.077 3.62 6.362z" fill="#a0bfea"/><path d="m122.603 336.488c0 1.02-.317 1.758-.809 2.18l-.527.281-4.007 2.32c.492-.422.773-1.125.808-2.039l3.48-2.004.527-.281c.211-.176.387-.386.528-.668z" fill="#80a8e3"/><path d="m35.5326 286.961c-.1406.141-.3163.246-.5272.281z" fill="#135197"/><path d="m31.5262 289.141c-.0351 1.055-.3163 1.758-.8084 2.179-.6679.563-1.6873.563-2.8121-.07-2.0036-1.16-3.6205-3.972-3.6205-6.257 0-.597.1054-1.089.2812-1.476.246-.492.5975-.844 1.0896-.984.6327-.211 1.4061-.106 2.2497.386.3866.211.7382.492 1.0545.809 1.16 1.054 2.0388 2.636 2.3903 4.148.0703.351.1406.703.1406 1.054.0351.035.0351.106.0351.211z" fill="#99b9e9"/><path d="m31.807 287.382c0 .598-.1055 1.09-.2812 1.477 0-.352-.0703-.703-.1406-1.055-.3515-1.511-1.2654-3.093-2.3903-4.148-.3515-.316-.703-.597-1.0545-.808-.8436-.492-1.6169-.598-2.2497-.387-.4569.141-.8436.492-1.0896.985 0-.071 0-.176 0-.247 0-1.335.5272-2.214 1.3709-2.495.5975-.211 1.3357-.106 2.1442.351.4921.281.8436.528 1.1599.844 1.1249 1.054 2.0388 2.636 2.3903 4.148.1054.457.1406.914.1406 1.335z" fill="#a0bfea"/><path d="m36.3426 284.781c0 .597-.1054 1.089-.2812 1.476-.1406.281-.3163.492-.5272.668l-.5273.281-3.4799 2.004c0-.211 0-.281 0-.387.1757-.387.2812-.914.2812-1.476 0-.422-.0703-.879-.1758-1.336-.3515-1.511-1.2654-3.093-2.3902-4.148-.3515-.316-.7031-.597-1.0546-.808-.9139-.492-1.652-.598-2.2496-.387l3.9369-2.285c.6678-.597 1.6872-.597 2.8472.035 2.0036 1.231 3.6205 4.043 3.6205 6.363z" fill="#a0bfea"/><path d="m36.0612 286.502c0 1.019-.3164 1.757-.8085 2.179l-.5272.281-4.0072 2.32c.4921-.421.7733-1.089.8084-2.038l3.48-2.004.5272-.281c.2109-.176.3867-.387.5273-.668z" fill="#80a8e3"/><path d="m35.5326 336.91c-.1406.141-.3163.246-.5272.281z" fill="#135197"/><path d="m31.5262 339.09c-.0351 1.055-.3163 1.758-.8084 2.18-.6679.562-1.6873.562-2.8121-.071-2.0036-1.16-3.6205-3.972-3.6205-6.257 0-.597.1054-1.089.2812-1.476.246-.492.5975-.844 1.0896-.984.6327-.211 1.4061-.106 2.2497.387.3866.21.7382.492 1.0545.808 1.16 1.055 2.0388 2.636 2.3903 4.148.0703.351.1406.703.1406 1.054.0351.071.0351.141.0351.211z" fill="#99b9e9"/><path d="m31.807 337.367c0 .597-.1055 1.089-.2812 1.476 0-.351-.0703-.703-.1406-1.054-.3515-1.512-1.2654-3.094-2.3903-4.148-.3515-.317-.703-.598-1.0545-.809-.8436-.492-1.6169-.597-2.2497-.386-.4569.14-.8436.492-1.0896.984 0-.07 0-.176 0-.246 0-1.336.5272-2.215 1.3709-2.496.5975-.211 1.3357-.105 2.1442.352.4921.281.8436.562 1.1599.843 1.1249 1.055 2.0388 2.637 2.3903 4.148.1054.457.1406.914.1406 1.336z" fill="#a0bfea"/><path d="m36.3426 334.73c0 .598-.1054 1.09-.2812 1.476-.1406.281-.3163.492-.5272.668l-.5273.281-3.4799 2.004c0-.211 0-.281 0-.387.1757-.386.2812-.914.2812-1.476 0-.422-.0703-.879-.1758-1.336-.3515-1.511-1.2654-3.093-2.3902-4.148-.3515-.316-.7031-.597-1.0546-.808-.9139-.492-1.652-.598-2.2496-.387l3.9369-2.284c.6678-.598 1.6872-.598 2.8472.035 2.0036 1.265 3.6205 4.077 3.6205 6.362z" fill="#a0bfea"/><path d="m36.0612 336.488c0 1.02-.3164 1.758-.8085 2.18l-.5272.281-4.0072 2.32c.4921-.422.7733-1.125.8084-2.039l3.48-2.004.5272-.281c.2109-.176.3867-.386.5273-.668z" fill="#80a8e3"/><path d="m122.074 286.961c-.14.141-.316.246-.527.281z" fill="#135197"/><path d="m118.068 289.141c-.035 1.055-.317 1.758-.809 2.179-.668.563-1.687.563-2.812-.07-2.003-1.16-3.62-3.972-3.62-6.257 0-.597.105-1.089.281-1.476.246-.492.597-.844 1.09-.984.632-.211 1.406-.106 2.249.386.387.211.738.492 1.055.809 1.16 1.054 2.038 2.636 2.39 4.148.07.351.141.703.141 1.054.035.035.035.106.035.211z" fill="#99b9e9"/><path d="m118.385 287.382c0 .598-.106 1.09-.282 1.477 0-.352-.07-.703-.14-1.055-.352-1.511-1.266-3.093-2.39-4.148-.352-.316-.703-.597-1.055-.808-.844-.492-1.617-.598-2.25-.387-.457.141-.843.492-1.089.985 0-.071 0-.176 0-.247 0-1.335.527-2.214 1.371-2.495.597-.211 1.335-.106 2.144.351.457.281.843.528 1.16.844 1.125 1.054 2.039 2.636 2.39 4.148.07.457.141.914.141 1.335z" fill="#a0bfea"/><path d="m122.884 284.781c0 .597-.105 1.089-.281 1.476-.141.281-.316.492-.527.668l-.528.281-3.48 2.004c0-.211 0-.281 0-.387.176-.387.282-.914.282-1.476 0-.422-.071-.879-.176-1.336-.352-1.511-1.266-3.093-2.39-4.148-.352-.316-.703-.597-1.055-.808-.914-.492-1.652-.598-2.25-.387l3.937-2.285c.668-.597 1.688-.597 2.848.035 2.003 1.231 3.62 4.043 3.62 6.363z" fill="#a0bfea"/><path d="m122.603 286.502c0 1.019-.317 1.757-.809 2.179l-.527.281-4.007 2.32c.492-.421.773-1.089.808-2.038l3.48-2.004.527-.281c.211-.176.387-.387.528-.668z" fill="#80a8e3"/><path d="m120.247 276.943c-.421-.106-1.792-1.231-2.32-1.336-13.392-2.812-28.9286.879-44.4301 9.807-15.5718 8.963-31.1788 23.27-44.6064 41.619-1.0897 1.476-1.406 3.269-.7382 3.936.4921.493 2.0036 1.02 2.32 1.336.703.703 2.0387.07 3.0933-1.336 12.7597-17.399 27.523-30.932 42.2864-39.439 14.7282-8.471 29.421-11.951 42.111-9.28 1.019.211 2.39-.738 3.058-2.179.668-1.512.316-2.917-.774-3.128z" fill="#99b9e9"/><path d="m120.246 328.367c-13.392-18.278-28.9287-32.514-44.4302-41.513-15.5718-9.034-31.1787-12.724-44.6415-9.912-.5624.105-1.8981 1.265-2.3199 1.335-1.0897.211-1.4061 1.617-.7382 3.059.703 1.476 2.0387 2.425 3.0933 2.214 12.7597-2.671 27.523.844 42.2864 9.385 14.7282 8.507 29.4211 22.005 42.1111 39.334 1.019 1.406 2.39 2.004 3.058 1.336.351-.352 1.863-.879 2.32-1.336.703-.668.351-2.425-.739-3.902z" fill="#99b9e9"/><path d="m75.1835 289.667c-1.1951.703-3.1635.703-4.3587 0-.8787-.527-1.1248-1.265-.703-1.898v-52.656l5.8351 3.375v49.457c.3163.562.0351 1.23-.7734 1.722z" fill="#80a8e3"/><path d="m70.2262 138.17s6.7841 1.195 9.0337.598c2.2497-.598 8.4362-1.652 10.5453-1.652 2.109 0 2.6011-.282 2.6011-.282l12.6187-5.94 9.772-3.761s5.062.562 6.925 0c1.828-.563 3.339-.949 2.601.527s-2.741 2.46-4.464 2.601c-1.687.106-2.566.633-2.566.633l7.382.386s.633 2.918-1.477 2.918c-2.109 0-7.698.422-7.698.422s-2.741 1.265-4.991 3.726c-2.25 2.46-3.374 4.851-3.374 4.851s1.195 2.179 4.604 1.476c3.41-.703 4.851 1.441 4.851 2.531 0 1.125-2.496 2.671-3.937 2.425-1.476-.246-2.777-1.09-3.163-1.054-.387 0-1.582.527-5.66-.211-4.0771-.703-8.5061-2.601-10.2988-2.637-1.7927-.035-5.5187.493-5.5187.493s-23.9026 3.128-28.6128 2.882-11.3185-.387-9.7367-9.35c1.5114-8.999 20.5632-1.582 20.5632-1.582z" fill="#fecdcb"/><path clip-rule="evenodd" d="m86.1846 202.18 3.0581 59.265c-.0352.527.1406.914.5624 1.16 1.9684 1.16 8.5768-.774 14.6929-4.324 2.531-1.476 4.781-44.431 6.187-45.766.738-.492.984-18.103.984-18.103z" fill="#1a5096" fill-rule="evenodd"/><path d="m61.1915 127.451 4.5696-10.967s-7.0302-10.194-4.5696-18.5246c2.4605-8.3659 7.9089-12.584 20.7389-12.6543 12.8301-.0703 15.6422 8.4363 16.1694 10.1938.5273 1.7576 2.1092 7.0301 1.0545 9.5611-1.0545 2.566-2.812 2.988-2.7417 4.57.1054 1.581 1.5818.984.1054 3.972-1.5115 2.987-2.109 9.068-6.1514 10.474-4.0423 1.406-6.3271.036-6.8544 3.27-.5272 3.233-2.1442 10.896-1.7575 11.283 34.0263 34.799-38.8768 4.007-20.5632-11.178z" fill="#fecdcb"/><path d="m60.7701 189.6h-4.5344v1.265c-.0352.387.1757.773.6678 1.055.8788.492 2.32.492 3.1988 0 .4921-.282.703-.668.6678-1.055z" fill="#80a8e3"/><path d="m60.101 190.511c-.8788.528-2.32.528-3.1988 0-.8787-.492-.8787-1.335 0-1.827.8788-.493 2.32-.493 3.1988 0 .8787.492.8787 1.335 0 1.827z" fill="#99b9e9"/><path d="m76.1657 215.641h-4.5345v1.3c-.0352.387.1758.773.6679 1.055.8787.492 2.3199.492 3.1987 0 .4921-.282.703-.668.6679-1.055z" fill="#80a8e3"/><path d="m75.5331 216.557c-.8788.492-2.32.492-3.1987 0-.8788-.527-.8788-1.335 0-1.828.8787-.527 2.3199-.527 3.1987 0 .8788.493.8788 1.336 0 1.828z" fill="#99b9e9"/><path clip-rule="evenodd" d="m119.121 188.648c-10.51-3.621-28.5421 5.835-42.3212 12.549.8436 11.635 3.4096 23.059 5.4484 34.553 10.264-3.55 18.6298-14.553 30.8978-23.305l11.635-5.941c.808-12.056-.106-15.923-5.66-17.856z" fill="#1e266d" fill-rule="evenodd"/><path clip-rule="evenodd" d="m94.7248 249.668-8.4362 6.433c.1054 7.768.0703 11.564 3.0932 13.603 3.6557 2.461 9.8071.492 13.5682-1.23l1.019-2.988c3.586-.492 2.777.563 6.644-1.582 6.503-3.62 16.029-9.174 17.329-15.607.317-1.652-.949-4.604-2.601-4.323l-15.29 5.308z" fill="#00284f" fill-rule="evenodd"/><path clip-rule="evenodd" d="m131.035 276.313-8.682 6.081c-.211 7.768-.422 11.564 2.495 13.708 3.551 2.602 9.807.879 13.604-.667l1.125-2.953c5.096-.492 3.726.281 8.893-2.39 6.292-3.269 13.919-7.839 15.325-13.533.387-1.617-.738-4.64-2.425-4.429l-10.791 4.78z" fill="#135197" fill-rule="evenodd"/><path clip-rule="evenodd" d="m143.865 202.849c-1.054 5.237-13.884 16.064-15.185 21.266 0 0-6.046 60.354-5.765 60.67 1.617 1.652 17.224 4.5 19.439-8.155 6.573-1.687 15.361-61.619 15.361-61.619 3.761-12.619-10.511-23.375-13.85-12.162z" fill="#1e266d" fill-rule="evenodd"/><path d="m144.147 238.278-28.402 8.753-17.3998 13.322-18.3838 6.186-4.0072-4.253-2.3903-2.531 2.8121-22.883.8787-7.276-4.7102-17.646-2.4957-13.603c2.4606-.211 4.5345-.035 5.6242.703.1406-.035 68.474 39.228 68.474 39.228z" fill="#99b9e9"/><path clip-rule="evenodd" d="m63.5117 203.163-21.7935-.844c-2.6363 11.881-1.16 25.907 4.3236 31.636 7.8737 8.261 23.1292 19.439 38.3847 15.959 11.3185-2.601 30.8275-14.201 44.0085-23.586l28.789-12.62c5.413-10.826 8.26-17.61-6.89-20.879-10.897-2.355-39.685 9.385-53.429 16.099z" fill="#1e266d" fill-rule="evenodd"/><path d="m91.4567 236.029c-2.0387.844-4.7454.809-7.7683.246-11.5295-2.074-42.2513-12.268-41.6889-32.057.2461-8.296 6.0811-9.632-1.863-31.003-15.3609-41.268 6.5381-52.516 10.721-52.516 4.2533 0 11.7052 3.41 11.7052 3.41s-5.2023 7.768 2.4254 12.478c12.4434 7.663 12.7949 3.867 17.1536 3.34 5.0266-.598 12.5489 6.889 16.8021 11.248 8.1552 8.331-3.6908 33.815-.3163 40.529 3.3745 6.749 6.0815 22.602 6.0815 22.602s3.409 14.974-13.2523 21.723z" fill="#b71d1b"/><path d="m91.4556 236.031c-2.0388.843-4.7454.808-7.7684.246-3.9369-7.206-2.9526-22.286-6.7841-35.116-5.7296-18.911 0-44.677 8.612-47.032.8787-.246 1.7224-.316 2.4957-.246 2.6011 2.039 4.7453 3.726 5.3781 4.359 1.3005 1.301 1.8981 4.042 2.0387 7.557.0351 1.196.0352 2.496-.0352 3.902-.1757 3.867-.1054 15.256 3.2691 21.969 3.3745 6.749 6.0815 22.602 6.0815 22.602s3.374 15.01-13.2874 21.759z" fill="#b71d1b"/><path d="m108.153 188.469s9.034-11.846 10.089-14.061c1.089-2.249 9.104-14.201 9.104-14.201l-3.058-2.39s-.563-2.32-1.442-2.882c-.878-.563-3.796-2.285-2.355-3.34 1.442-1.054 3.867-.597 5.168 1.09 1.3 1.687 2.073 2.531 2.073 2.531l3.129-7.487.035-7.347s-.176-3.339 1.16-3.515 2.918-.105 2.074 1.898c-.844 2.004.211 2.812.211 2.812l.808 6.609 1.758-6.327s1.757-2.777 2.039-3.761c.246-.985 2.249-.879 2.32.527.07 1.406-.211 5.132-.211 5.132l-1.688 5.343 3.48-5.765 3.797-3.374s2.566-.176 1.652 1.581c-.914 1.758-2.672 3.902-2.672 3.902l-2.777 6.187 4.57-1.16 4.605.14s.105 2.531-1.406 2.637c-1.512.105-2.602.386-2.602.386l-3.304 1.652s-1.019 5.519-3.058 7.276c-2.039 1.758-4.077 2.918-4.077 2.918s-17.751 40.81-23.692 44.22c-5.94 3.409-9.034-14.693-5.73-21.231z" fill="#fecdcb"/><path d="m105.728 182.881s3.41-5.308 9.315-3.656c5.871 1.617 11.671 9.983 10.827 15.22-.844 5.238-7.171 16.064-13.814 15.642-6.609-.457-13.428-19.297-6.328-27.206z" fill="#b71d1b"/><path d="m81.158 164.639c.0703 11.213 14.5172 54.554 29.843 46.856 15.326-7.698 2.214-24.711 0-30.651-2.215-5.941-3.691-30.23-14.3415-31.003-10.6507-.774-15.5718 3.585-15.5015 14.798z" fill="#d64543"/><path d="m88.3284 114.021c-.2812 0 .8436-2.566-1.3006-1.581-2.1442.949-3.3745 2.179-3.3745 4.042s-.4569 6.151.7733 5.273c1.2303-.879 2.5661-3.41 2.5661-3.41s-.7382 0-1.5115 0-.2109-3.339.4569-3.691c.7382-.386 2.3903-.633 2.3903-.633z" fill="#fecdcb"/><path d="m76.7287 120.876s2.1091-4.956 11.881-9.35c4.7805-2.144 16.0643-13.3924 6.2217-21.5825-1.6873-1.406-4.0775-3.5854-10.5453-4.5696-6.4326-.9842-21.3716 3.1987-22.1801 16.2041-1.1248 17.892 10.9319 26.926 14.6227 19.298z" fill="#00284f" opacity=".25"/><path d="m76.4126 236.907-2.8121 22.884 2.3903 2.53-.0703 4.254-65.486-37.471-.1406-.422c-.35147-.105-.66782-.246-.94903-.422-10.40464-6.01-2.0739-19.825-2.0739-30.897 0-11.073-6.995011-30.054-7.2410663-34.096-.2460557-4.043 1.0896763-7.136 1.6872463-6.785l67.91135 39.229.4921 2.706 2.4957 13.604 3.8666 21.02z" fill="#a0bfea"/><path d="m69.5936 195.639s11.3889 30.336 11.0022 36.979c-.3866 6.644-7.698 26.187-.5273 30.335 7.1708 4.148 39.7205-18.735 45.0285-21.793 5.307-3.058 19.262-5.589 19.262-1.582s-6.995-.281-12.408 2.847c-5.448 3.129-44.325 31.038-54.7297 25.028-10.4046-6.011-2.0739-19.826-2.0739-30.898 0-11.073-6.995-30.054-7.241-34.096-.2461-4.043 1.0896-7.136 1.6872-6.82z" fill="#a0bfea"/><path d="m132.302 216.694-8.507 34.905s-2.987 2.741-3.866 2.636c-.246-.106-.281-.316-.141-.773.774-2.531 2.848-3.902 3.375-7.171.386-2.391 4.886-19.72 7.276-28.929.738-2.812-.773-4.5-2.988-3.269-.984.562-2.109 1.16-3.339 1.863-10.897 6.046-29.562 16.556-31.7413 18.84-3.0933 3.269-9.8422 11.67-9.8422 11.67s-1.1952.809-1.3358.317c-.0703-.246.0703-.809.703-1.863 0 0 4.7454-6.538 8.5768-10.299l.2812-.246c.2109-.211.4219-.422.6328-.598.1054-.105.2109-.176.3163-.281.1055-.106.2109-.176.3164-.246.2812-.211.4218-.317.5272-.387.3164-.211.457-.316.5976-.386l31.425-18.138 3.409-1.969c.317-.176.633-.316.95-.422.421-.14.843-.211 1.195-.175 1.863-.036 2.917 1.968 2.179 4.921z" fill="#99b9e9"/><path d="m130.439 217.362c-2.425 9.209-6.925 26.539-7.276 28.929-.527 3.269-2.601 4.64-3.375 7.171-.14.457-.105.703.071.773-.809-.211-6.609-1.758-5.87-4.113.773-2.531 2.847-3.901 3.374-7.17.352-2.25 4.288-17.47 6.784-26.996 1.23-.668 2.355-1.301 3.339-1.863 2.18-1.195 3.691.457 2.953 3.269z" fill="#a0bfea"/><path d="m130.123 211.667c-.386 0-.773.035-1.195.175-.316.106-.632.246-.949.422l-3.409 1.969-31.4252 18.137c-.1406.071-.2812.176-.457.282-.2812.21-.4218.281-.5272.386-.2461.211-.3515.281-.457.387-.1054.07-.2109.176-.3163.281-.211.176-.4219.387-.6328.598-.1054.07-.1757.175-.2812.246-3.8314 3.761-8.5768 10.299-8.5768 10.299-.6327 1.09-.7733 1.617-.703 1.863 0 .035-5.4132-3.199-5.4132-3.199-.457.106-.7382-.246.3163-2.039 0 0 7.4872-10.299 11.2483-12.478l34.8341-20.106c.739-.422 1.652-.387 2.637-.036l1.933 1.02z" fill="#a0bfea"/><path d="m73.9171 124.108s-.3164-18.103 9.4555-22.497c4.7805-2.1438 19.8954-2.6359 15.3609-18.1726-.6327-2.109-5.132-10.4748-24.1837-3.3392-5.4835 2.0387-14.4118 5.8701-15.2203 18.8759-1.16 17.8919.8085 24.0429 14.5876 25.1329z" fill="#174fa2"/><path d="m220.461 215.634 46.75-24.887v-3.234-2.284l-80.46 7.451v5.484z" fill="#5ba8e8"/><path d="m220.461 210.152 46.75-24.922-33.709-17.47-46.751 24.922z" fill="#81bced"/><path d="m244.469 190.751 10.475-5.413-19.298-10.018-10.44 5.414z" fill="#a6d0f3"/><path d="m220.988 211.521v2.952l-32.972-16.696v-3.304z" fill="#fff"/><path d="m220.989 211.522 46.223-24.43v2.601l-46.223 24.781z" fill="#ddeafc"/></svg>