<svg fill="none" height="434" viewBox="0 0 435 434" width="435" xmlns="http://www.w3.org/2000/svg" xmlns:xlink="http://www.w3.org/1999/xlink"><mask id="a" height="78" maskUnits="userSpaceOnUse" width="78" x="3" y="74"><path d="m42 152c21.5391 0 39-17.461 39-39 0-21.5391-17.4609-39-39-39s-39 17.4609-39 39c0 21.539 17.4609 39 39 39z" fill="#819fde"/></mask><path d="m217.53 370.11c-41.02 0-79.59-15.98-108.6-44.98-29.01-29.01-44.98-67.58-44.98-108.6s15.98-79.59 44.98-108.6c29.01-29.0098 67.58-44.9798 108.6-44.9798s79.59 15.98 108.6 44.9798c29.01 29.01 44.98 67.58 44.98 108.6s-15.98 79.59-44.98 108.6c-29.01 29.01-67.58 44.98-108.6 44.98zm0-306.7398c-40.91 0-79.37 15.93-108.3 44.8598-28.93 28.93-44.86 67.39-44.86 108.3s15.93 79.37 44.86 108.3 67.39 44.86 108.3 44.86 79.37-15.93 108.3-44.86 44.86-67.39 44.86-108.3-15.93-79.37-44.86-108.3c-28.93-28.9298-67.39-44.8598-108.3-44.8598z" fill="#becbfc"/><path d="m204.82 77.6702c8.08 0 14.63-6.5501 14.63-14.63 0-8.08-6.55-14.63-14.63-14.63s-14.63 6.55-14.63 14.63c0 8.0799 6.55 14.63 14.63 14.63z" fill="#becbfc" opacity=".64"/><path d="m204.82 77.5403s-.02 0-.06-.01c-.04.01-.06.01-.06.01z" fill="#4375fa"/><path d="m213.33 73.1596c-.13-2.77-1.81-4.58-2.97-4.45s-3.87-.26-3.87-.26c-.2-.44-.22-1.01-.17-1.56 1.25-.81 2.19-2.61 2.41-4.78.28-.06.58-.39.72-.86.17-.57.04-1.11-.29-1.21-.12-.04-.25-.01-.38.07.02-2.98-.08-5.26-3.97-5.26-3.67 0-3.94 2.25-3.96 5.19-.11-.09-.22-.13-.34-.11-.34.04-.56.55-.49 1.14s.41 1.04.75.99c.04-.01.08-.02.12-.04.2 2.12 1.08 3.9 2.27 4.76.07.58.05 1.19-.16 1.66 0 0-2.71.39-3.87.26s-2.84 1.68-2.96 4.45c-.12 2.63 7.78 4.22 8.57 4.37.8-.14 8.71-1.73 8.59-4.36z" fill="#819fde"/><path d="m121.01 381.46c12.299 0 22.27-9.971 22.27-22.27s-9.971-22.27-22.27-22.27-22.27 9.971-22.27 22.27 9.971 22.27 22.27 22.27z" fill="#becbfc" opacity=".64"/><path d="m121.01 381.26s-.03-.01-.1-.02c-.06.01-.1.02-.1.02z" fill="#4375fa"/><path d="m133.96 374.59c-.2-4.22-2.75-6.96-4.51-6.77s-5.89-.39-5.89-.39c-.3-.67-.34-1.53-.26-2.38 1.91-1.24 3.33-3.97 3.66-7.28.43-.08.88-.6 1.09-1.3.26-.87.07-1.69-.44-1.84-.18-.05-.38-.01-.57.1.03-4.53-.12-8-6.03-8-5.59 0-6 3.42-6.03 7.9-.16-.13-.34-.2-.51-.17-.52.06-.86.84-.75 1.74s.62 1.58 1.14 1.51c.07-.01.13-.03.19-.06.3 3.23 1.64 5.93 3.45 7.24.1.89.08 1.82-.25 2.53 0 0-4.12.59-5.89.39s-4.32 2.55-4.51 6.77c-.19 4.01 11.84 6.42 13.05 6.65 1.22-.22 13.24-2.63 13.06-6.64z" fill="#819fde"/><path d="m384.67 193.05c9.135 0 16.54-7.405 16.54-16.54s-7.405-16.54-16.54-16.54-16.54 7.405-16.54 16.54 7.405 16.54 16.54 16.54z" fill="#becbfc" opacity=".64"/><path d="m384.67 192.9s-.03 0-.07-.01c-.05.01-.07.01-.07.01z" fill="#4375fa"/><g fill="#819fde"><path d="m394.29 187.95c-.15-3.13-2.04-5.17-3.35-5.03-1.31.15-4.37-.29-4.37-.29-.22-.5-.25-1.14-.19-1.76 1.42-.92 2.47-2.95 2.72-5.41.32-.06.66-.45.81-.97.19-.64.05-1.26-.33-1.37-.14-.04-.28-.01-.42.08.02-3.37-.09-5.94-4.48-5.94-4.15 0-4.46 2.54-4.48 5.87-.12-.1-.25-.15-.38-.13-.39.05-.64.63-.56 1.29s.46 1.17.85 1.12c.05-.01.1-.02.14-.04.23 2.4 1.21 4.4 2.56 5.38.07.66.06 1.35-.18 1.88 0 0-3.06.44-4.37.29s-3.21 1.89-3.35 5.03c-.14 2.98 8.8 4.77 9.69 4.94.9-.17 9.83-1.97 9.69-4.94z"/><path d="m57.45 283.86c2.8608 0 5.18-2.319 5.18-5.18s-2.3192-5.18-5.18-5.18-5.18 2.319-5.18 5.18 2.3192 5.18 5.18 5.18z"/><path d="m389.38 234.42c2.861 0 5.18-2.32 5.18-5.18 0-2.861-2.319-5.18-5.18-5.18s-5.18 2.319-5.18 5.18c0 2.86 2.319 5.18 5.18 5.18z"/><path d="m265.08 54.9698c1.784 0 3.23-1.4462 3.23-3.23 0-1.7839-1.446-3.23-3.23-3.23s-3.23 1.4461-3.23 3.23c0 1.7838 1.446 3.23 3.23 3.23z"/><path d="m247.66 369.95c1.784 0 3.23-1.446 3.23-3.23s-1.446-3.23-3.23-3.23-3.23 1.446-3.23 3.23 1.446 3.23 3.23 3.23z"/><path d="m190.22 417.51c1.784 0 3.23-1.446 3.23-3.23s-1.446-3.23-3.23-3.23-3.23 1.446-3.23 3.23 1.446 3.23 3.23 3.23z"/><path d="m413.87 256.95c1.784 0 3.23-1.446 3.23-3.23s-1.446-3.23-3.23-3.23-3.23 1.446-3.23 3.23 1.446 3.23 3.23 3.23z"/><path d="m87.58 66.2696c1.7839 0 3.23-1.4461 3.23-3.23s-1.4461-3.23-3.23-3.23-3.23 1.4461-3.23 3.23 1.4461 3.23 3.23 3.23z"/></g><path d="m105.033 235.964c9.035-22.074 19.32-26.212 19.32-26.212s-.324-.435-.837-1.205c-4.194 1.807-7.808 5.153-10.095 8.957-.178.301-.658.022-.479-.279 2.331-3.871 6.001-7.284 10.262-9.147-.223-.334-.469-.725-.725-1.137-3.191.647-6.291 1.874-9.18 3.29-.324.156-.603-.323-.279-.479 2.889-1.428 5.978-2.655 9.157-3.313-5.599-9.191-17.612-34.534 17.591-37.434-2.186-2.387-5.243-3.893-8.266-4.975-.334-.123-.189-.647.145-.536 3.023 1.082 6.035 2.544 8.277 4.875-.335-1.551-.859-3.079-1.439-4.54-.134-.335.402-.468.535-.145.647 1.606 1.205 3.268 1.54 4.975.546-.513 1.807-1.662 3.603-3.09.959-1.439 2.063-2.766 3.212-3.96 6.001-6.19 14.423-8.254 22.833-7.44.134.012.212.101.245.201 5.065-.044 10.207 1.428 14.981 5.41 5.889 4.919 6.737 12.471 5.231 19.732-.089 1.149-.301 2.264-.424 3.012-.881 5.432-3.257 10.541-6.157 15.214 3.603.614 10.095 2.778 8.745 10.508-1.852 10.585-10.552 23.915-.234 25.309 10.318 1.383 15.281 25.008-21.238 47.071-36.531 22.064-71.265 1.172-56.854-16.296-.022.011-18.516-6.291-9.47-28.366zm84.26-51.577c-1.874 5.398-4.785 10.239-7.484 13.139 0 0 .669.012 1.673.145 2.565-4.116 4.707-8.555 5.811-13.284zm-41.762-22.153c-.636.669-1.26 1.394-1.851 2.153 5.086-3.815 13.173-8.79 21.806-9.816-7.44-.156-14.668 2.086-19.955 7.663z" fill="#0e2a72"/><path d="m139.98 198.619s3.982 2.03 4.874 3.848c.893 1.818-.948 13.229-.948 13.229l-23.19 18.405s-6.257 47.841 9.203 60.724c15.46 12.884 72.503-45.264 72.503-45.264l-16.196-20.613-15.092-4.786-2.577-11.042s16.185-7.663 3.124-34.01c-13.062-26.347 0 0 0 0z" fill="#0e2a72" opacity=".4"/><path d="m169.305 174.838 8.098-1.461s-2.945 4.417-11.043 2.577c-8.098-1.841 2.945-1.116 2.945-1.116z" fill="#0e2a72" opacity=".5"/><g fill="#fdb3b1"><path d="m170.041 230.053 3.313-5.89s9.615.948 13.106 5.02c3.491 4.071 25.644 44.606 25.644 44.606s9.593 4.551 17.49 8.444c-1.963 1.227-4.228 3.48-5.522 7.852-6.926-2.509-15.995-6.324-19.274-8.678 0 0-21.383-16.374-23.714-27.428-2.332-11.054-11.043-23.926-11.043-23.926z"/><path d="m191.022 270.911s8.834-6.993-4.785-25.03c-12.415-16.442-10.307 5.153-10.307 5.153l9.069 19.744z" opacity=".31"/><path d="m229.594 282.232c9.871 4.853 21.104 10.385 21.751 10.709 1.16.58 10.474-2.332 11.645-1.752s7.563 4.072 9.894 4.652-5.823 1.751-9.314 0-4.651 1.751-7.563 2.331c-2.911.58-4.651 1.16-6.402 0 0 0-13.43-3.726-25.521-8.098 1.271-4.361 3.536-6.615 5.51-7.842z"/><path d="m164.04 209.707s-1.751 6.403 5.822 13.965l4.072 7.563-8.734 9.894-8.734 2.911-18.628-21.539 8.143-5.242 2.331-23.86z"/></g><path d="m165.256 213.868s-16.196-.736-16.564-10.675c-.369-9.938 18.404 6.626 16.564 10.675z" fill="#af703f" opacity=".28"/><path d="m166.917 220.18s-3.457 9.905-20.914-2.9c0 0-10.887 5.812-13.865 7.63-6.625 4.049-8.031 3.368-9.782 9.771l15.493 51.277-5.242 20.367 55.894.09-4.964-22.644c-.535-5.711 1.685-11.154 5.745-15.08 7.986-7.73-2.722-20.513-11.154-43.792-.681-1.919-11.211-4.719-11.211-4.719z" fill="#fa7269"/><path d="m138.396 244.04s9.938 12.883 8.834 37.546c0 0 30.652 10.552 43.669 9.871 13.017-.68-1.706 8.89-1.706 8.89s-36.81 2.8-53.731-8.901c-16.943-11.701 2.934-47.406 2.934-47.406z" fill="#a172ae" opacity=".31"/><path d="m188.044 292.674 14.411-6.135 6.013-4.518c.379-.29.847-.423 1.327-.379l6.938.636c.279.022.546.134.77.301 1.215.926 5.153 3.96 4.16 3.96-1.16 0-3.491-.58-5.242-1.751 0 0-5.243 0-5.823-.58 0 0-2.331 2.331-3.491 2.911s-.58 0-.58 0l7.797 2.365c.401.122.747.379.992.725.982 1.427 3.659 5.276 4.607 6.224 0 0-2.911 1.16-5.242-2.331-2.332-3.492-8.734-3.492-9.314-2.912 0 0 8.142 4.652 10.474 9.314 0 0-1.105 2.867-2.912.58-3.502-4.417-8.109-5.8-9.894-6.402l3.313 3.792c.424.48.368 1.205-.111 1.618l-3.202 2.743s-.58-2.331.58-3.491l-2.911-2.911s-3.212 6.402-12.66 2.621z" fill="#fdb3b1"/><path d="m162.646 288.089c12.425 2.599 26.38 4.729 26.38 4.729l-.257 6.213c-12.749.279-23.011-.513-31.054-1.706.279-4.741 2.644-7.585 4.931-9.236z" fill="#fdb3b1"/><path d="m124.776 229.317c7.518-3.258 13.876 14.667 13.876 14.667 8.154 16.877 6.18 39.052 6.18 39.052 2.71 1.584 9.95 3.402 17.813 5.042-2.286 1.65-4.651 4.484-4.93 9.247-16.765-2.488-23.948-6.715-23.948-6.715-6.983-10.474-16.52-58.025-8.991-61.293z" fill="#fdb3b1"/><path d="m160.838 165.647s16.196 12.148 14.066 30.831c-.971 8.533-2.9 11.21-6.336 13.698-4.049 2.944-17.534 1.115-21.059-5.689l-1.863-5.51s-3.302 2.956-6.637-1.45-2.621-11.4 2.175-8.11l-2.978-8.823 2.911-7.741z" fill="#fdb3b1"/><path d="m172.45 175.674s-6.079 2.488-11.601-8.187c0 0-1.472 17.301-12.883 16.932l3.313-2.944s-1.316 12.147-8.935 7.73c-7.629-4.417 15.561-27.607 15.561-27.607l15.482 5.521z" fill="#af703f" opacity=".28"/><path d="m138.396 173.745 11.779-5.889 16.564-4.049s20.245 6.993 11.043 11.042c-8.076 3.548-15.014-4.517-16.598-6.547.167 2.498-.056 6.436-2.376 9.805-1.985 2.889-5.12 4.829-9.325 5.811.201 5.711-6.67 6.748-6.67 6.748l-2.945-2.208-5.889-1.841zm20.1 4.161c1.372-1.997 1.985-4.194 2.22-6.169-1.796 6.816-11.3 11.567-11.3 11.567.011.079.011.157.023.246 4.104-.948 7.138-2.845 9.057-5.644z" fill="#0e2a72"/><path d="m149.428 161.765s-4.418-2.007-8.835 6.827c0 0-5.521 12.883 0 24.662h1.105c.011 0-2.198-21.751 7.73-31.489z" fill="#43464a"/><path d="m140.605 199.512c-2.847 0-5.154-2.308-5.154-5.154s2.307-5.153 5.154-5.153c2.846 0 5.153 2.307 5.153 5.153s-2.307 5.154-5.153 5.154z" fill="#c22373"/><path d="m170.041 203.137s-6.804 1.941-12.147-3.402c0 0 0 6.314 8.745 7.284 0 0 1.461 0 3.402-3.882z" fill="#fff"/><path d="m140.604 196.568c-1.219 0-2.208-.989-2.208-2.209s.989-2.209 2.208-2.209c1.22 0 2.209.989 2.209 2.209s-.989 2.209-2.209 2.209z" fill="#43464a"/><path d="m145.3 205.033h16.643v-.848h-16.208c-.669-1.283-4.127-7.964-4.461-8.711l-.681.379c.38.859 4.417 8.645 4.596 8.979z" fill="#43464a"/><path d="m162.679 205.39c-1.22 0-2.209-.41-2.209-.915s.989-.914 2.209-.914 2.208.409 2.208.914-.988.915-2.208.915z" fill="#43464a"/><path d="m92.3842 307.71h253.5828c1.829 0 3.313-1.484 3.313-3.313s-1.484-3.313-3.313-3.313h-253.5828c-1.8294 0-3.3129 1.484-3.3129 3.313s1.4835 3.313 3.3129 3.313z" fill="#1e266d"/><path d="m329.515 220.504-2.164 63.033c-.134 3.904-3.347 7.016-7.251 7.016h-90.651c-4.105 0-7.395-3.402-7.25-7.507l2.163-63.033c.134-3.904 3.347-7.016 7.251-7.016h90.651c4.105 0 7.396 3.402 7.251 7.507z" fill="#244580"/><path d="m269.047 261.708s6.993 27.239 0 34.958c-6.994 7.73 38.649-2.945 38.649-2.945s-6.257-22.454-23.558-32.024c-17.3-9.571 0 0 0 0l-8.098 5.153z" fill="#244580" opacity=".61"/><path d="m284.139 261.708h-15.092s22.822 36.809 2.398 39.375h31.466c-.011.011 6.247-14.713-18.772-39.375z" fill="#345084"/><path d="m278.985 236.076c0-.703-.111-1.372-.312-2.008.1 0 .212-.011.312-.011 4.295 0 7.775 3.48 7.775 7.774 0 4.295-3.48 7.775-7.775 7.775-4.038 0-7.35-3.068-7.73-7.005.357.056.736.089 1.116.089 3.647.011 6.614-2.956 6.614-6.614z" fill="#fff"/><path d="m270.67 65h122.83c2.15 0 3.89 1.74 3.89 3.89v30.99c0 1.29-.64 2.5-1.71 3.22l-19.64 13.27c-1.02.69-2.34-.28-1.98-1.46l3.93-12.96h-107.32c-2.15 0-3.88-1.74-3.88-3.89v-29.17c0-2.15 1.74-3.89 3.88-3.89z" fill="#9f71ac"/><path d="m371.63 105.55 4.35-3.63h12.7l-16.32 9.07z" fill="#606060" opacity=".22"/><path d="m281.63 74.8898h102.68c.91 0 1.65-.74 1.65-1.65s-.74-1.65-1.65-1.65h-102.68c-.91 0-1.65.74-1.65 1.65 0 .92.74 1.65 1.65 1.65z" fill="#fff"/><path d="m281.63 83.2502h102.68c.91 0 1.65-.74 1.65-1.65s-.74-1.65-1.65-1.65h-102.68c-.91 0-1.65.74-1.65 1.65s.74 1.65 1.65 1.65z" fill="#fff"/><path d="m334.13 91.6h50.66c.64 0 1.17-.52 1.17-1.17v-.97c0-.64-.52-1.17-1.17-1.17h-50.66c-.64 0-1.17.52-1.17 1.17v.97c.01.65.53 1.17 1.17 1.17z" fill="#fff"/><path d="m355.52 108.27h-133.64c-2.33 0-4.23 1.89-4.23 4.23v33.72c0 1.4.7 2.72 1.86 3.5l21.37 14.44c1.11.75 2.55-.31 2.16-1.59l-4.27-14.11h116.75c2.33 0 4.23-1.89 4.23-4.23v-31.73c-.01-2.34-1.9-4.23-4.23-4.23z" fill="#e6b851"/><path d="m245.68 152.389-4.74-3.95h-13.82l17.76 9.87z" fill="#e6b851" opacity=".22"/><path d="m343.6 119.029h-111.72c-.99 0-1.79-.8-1.79-1.79s.8-1.79 1.79-1.79h111.72c.99 0 1.79.8 1.79 1.79s-.8 1.79-1.79 1.79z" fill="#fff"/><path d="m343.6 128.119h-111.72c-.99 0-1.79-.8-1.79-1.79s.8-1.79 1.79-1.79h111.72c.99 0 1.79.8 1.79 1.79s-.8 1.79-1.79 1.79z" fill="#fff"/><path d="m286.47 137.209h-55.11c-.7 0-1.27-.57-1.27-1.27v-1.05c0-.7.57-1.27 1.27-1.27h55.11c.7 0 1.27.57 1.27 1.27v1.05c0 .71-.57 1.27-1.27 1.27z" fill="#fff"/><path d="m42 155c23.196 0 42-18.804 42-42s-18.804-42-42-42-42 18.804-42 42 18.804 42 42 42z" fill="#cdbdf9"/><g mask="url(#a)"><path d="m32.1417 137.947s-17.8057 0-24.03916 3.112c-6.23348 3.112-9.34525 11.135-8.0130558 16.474 1.3321958 5.338-5.7861142 18.7 1.7795658 25.818 6.80017 6.393 12.15875 5.617 14.46525 4.743.2585-.1.4872-.199.6661-.289 1.7796-.895 0 23.602 0 23.602s44.9666 2.674 47.6409 0c2.6744-2.674 3.5592-58.766-2.6743-64.999-6.2335-6.234-23.6017-8.461-23.6017-8.461z" fill="#fa7269"/><path d="m30.5808 122.139-.6661 15.807 14.6144 9.693c.5667.368 1.3322.04 1.4515-.626l2.4059-12.855-14.2465-17.368z" fill="#fdb3b1"/><path d="m29.4672 132.15s2.227 1.779 4.0066 0c0 0 10.24 17.368 19.1478 14.246 8.9078-3.121-9.3452-17.368-9.3452-17.368l-9.3254-7.049-5.3686 3.937z" fill="#fdb3b1" opacity=".45"/><path d="m31.4655 116.353c7.1283-.448 8.0131-12.02 8.0131-13.362s11.1348-4.9012 13.7992-3.559c2.545 1.273 3.2211 9.435 3.3404 10.021 3.917-2.366 7.347-10.8263 5.5674-15.8071-2.227-6.2335-4.9013-4.0066-6.6809-2.6744s-1.7796-4.9012-11.1348-10.24c-9.3452-5.3387 1.3322 6.2335-9.7926 5.3388-11.1348-.8948-12.0196 10.24-12.0196 10.24-5.7861 0-9.7926 4.9017-5.3387 9.7927s.8948 5.339 0 9.793c-.4673 2.326 4.0364 3.31 8.4505 3.728 1.2825-1.7 3.1316-3.112 5.796-3.271z" fill="#0e2a72"/><path d="m43.0476 123.024c8.192 3.559 15.8074-.567 18.5314-2.366-1.9784-3.142-3.6784-6.283-3.8375-9.216-.0795-1.432-.2784-2.764-.5667-3.987.0398-.02.0696-.049.1094-.069-.1193-.587-1.4515-6.691-3.9966-7.9636-2.6743-1.3322-13.7992 2.2266-13.7992 3.5596 0 1.063-.5666 8.589-4.3743 11.86 1.3719 3.171 3.7679 6.373 7.9335 8.182z" fill="#fdb3b1"/><path d="m61.5792 120.665c-2.7241 1.799-10.3395 5.925-18.5315 2.366-4.1556-1.81-6.5516-5.011-7.9335-8.182-.9842.845-2.1772 1.411-3.6387 1.501-2.6644.169-4.5235 1.581-5.796 3.281 4.0463.377 8.023.278 8.023.278 2.2269 25.381 28.9404 23.602 33.3944 16.921 2.903-4.365-1.7995-10.25-5.5177-16.165z" fill="#0e2a72"/><path d="m17.1768 124.087 20.4493 1.137.5837-10.503-20.4493-1.137z" fill="#61002f"/><path d="m16.3341 132.379s0-13.8 2.227-15.579c2.2269-1.78 7.5657-8.461 10.24-6.681s1.3322 2.674 3.1217 3.559c1.7796.895.8948 2.227 2.227 3.112 1.3322.895 3.1217 4.454 2.2269 4.454-.8947 0-4.0065 0-4.0065 0s-6.2335 11.572-8.9078 11.135l-.4474 1.779h-6.6809z" fill="#fdb3b1"/><path d="m22.7863 133.94s.8947 44.082-3.1118 46.746c-4.0065 2.675-14.69394-.447-12.46699-9.345 2.22696-8.908 10.23999-41.407 10.23999-41.407z" fill="#fdb3b1"/><path d="m43.2663 125.915s7.7844 2.336 11.3436 1.551c.2783-.06.5169.209.4175.477-.3877 1.084-1.0837 3.122-1.0837 3.758.01.895-8.0031-.437-10.6774-5.786z" fill="#effdff"/></g><path d="m418.81 82.62c5.97 0 10.81-4.8398 10.81-10.81s-4.84-10.81-10.81-10.81-10.81 4.8398-10.81 10.81 4.84 10.81 10.81 10.81z" fill="#becbfc" opacity=".64"/><path d="m418.81 82.5198s-.02 0-.05-.01c-.03.01-.05.01-.05.01z" fill="#4375fa"/><path d="m425.1 79.2898c-.1-2.05-1.33-3.38-2.19-3.29-.86.1-2.86-.19-2.86-.19-.15-.33-.17-.74-.13-1.15.93-.6 1.62-1.93 1.78-3.54.21-.04.43-.29.53-.63.13-.42.03-.82-.21-.9-.09-.03-.18-.01-.28.05.01-2.2-.06-3.88-2.93-3.88-2.71 0-2.91 1.66-2.93 3.84-.08-.06-.16-.1-.25-.08-.25.03-.42.41-.36.85.05.44.3.77.55.73.03 0 .06-.01.09-.03.15 1.57.79 2.88 1.68 3.52.05.43.04.88-.12 1.23 0 0-2 .29-2.86.19s-2.1 1.24-2.19 3.29c-.09 1.95 5.75 3.12 6.34 3.23.59-.13 6.43-1.3 6.34-3.24z" fill="#819fde"/><path d="m11.6704 207h25.58c.93 0 1.69.76 1.69 1.69v13.48c0 .56-.28 1.08-.74 1.4l-8.54 5.77c-.44.3-1.02-.12-.86-.64l1.71-5.64h-18.82c-.93 0-1.69-.76-1.69-1.69v-12.69c-.02001-.92.73-1.68 1.67-1.68z" fill="#819fde"/></svg>