<svg width="671" height="475" viewBox="0 0 671 475" fill="none" xmlns="http://www.w3.org/2000/svg">
<g filter="url(#filter0_d_5818_74278)">
<path d="M558 43C558 62.8823 541.882 79 522 79C502.118 79 486 62.8823 486 43C486 23.1178 502.118 7 522 7C541.882 7 558 23.1178 558 43Z" fill="url(#paint0_radial_5818_74278)"/>
</g>
<path d="M96.5834 126.049C170.447 95.039 245.519 122.454 296.434 182.167C347.35 241.881 454.204 140.953 510.874 200.569C549.548 241.254 531.834 345.855 478.804 391.162C406.725 452.743 138.198 454.592 93.644 433.46C17.5095 397.35 93.1583 330.48 57.6194 266.378C15.6916 190.753 63.9425 139.753 96.5834 126.049Z" fill="#E7F3FE"/>
<path d="M500.854 431.595C461.3 434.083 433.154 435.949 402.461 435.327C371.768 434.705 235.696 440.304 175.195 435.327C114.693 430.35 61.3411 437.193 55.2902 424.813C49.2393 412.433 182.565 407.435 205.63 412.041C228.694 416.645 273.098 419.777 311.351 418.427C349.605 417.078 475.382 413.614 512.357 415.659C533.788 416.843 540.408 429.108 500.854 431.596V431.595Z" fill="#CCE2FF"/>
<path opacity="0.5" fill-rule="evenodd" clip-rule="evenodd" d="M425.49 145.157C424.94 148.256 424.006 151.197 422.745 153.915L426.816 160.236C425.716 162.179 424.471 164.006 423.1 165.7L416.648 162.885C414.634 164.979 412.358 166.757 409.881 168.148L409.89 175.974C408.015 176.807 406.064 177.463 404.048 177.927L400.288 171.354C399.19 171.497 398.076 171.571 396.944 171.571C395.285 171.571 393.66 171.413 392.077 171.111L388.015 177.449C386.029 176.865 384.109 176.093 382.274 175.148L382.648 167.333C380.244 165.798 378.054 163.889 376.137 161.673L369.561 164.1C368.271 162.328 367.115 160.429 366.107 158.422L370.467 152.353C369.338 149.57 368.543 146.578 368.139 143.443L361.563 141.037C361.521 140.247 361.498 139.45 361.498 138.646C361.498 137.125 361.576 135.623 361.722 134.146L368.4 132.136C368.95 129.037 369.884 126.096 371.145 123.378L367.074 117.057C368.174 115.114 369.419 113.287 370.79 111.592L377.242 114.408C379.256 112.313 381.532 110.536 384.009 109.145L384 101.318C385.875 100.486 387.826 99.8295 389.842 99.3662L393.602 105.939C394.7 105.796 395.814 105.721 396.946 105.721C398.605 105.721 400.23 105.88 401.813 106.182L405.875 99.8441C407.861 100.427 409.781 101.2 411.616 102.145L411.242 109.959C413.646 111.495 415.836 113.404 417.753 115.62L424.329 113.193C425.619 114.965 426.775 116.864 427.783 118.871L423.423 124.94C424.552 127.723 425.347 130.715 425.751 133.85L432.327 136.255C432.369 137.046 432.392 137.843 432.392 138.646C432.392 140.168 432.314 141.669 432.168 143.147L425.49 145.157V145.157ZM410.848 138.646C410.848 129.963 404.624 122.924 396.946 122.924C389.268 122.924 383.043 129.963 383.043 138.646C383.043 147.33 389.268 154.368 396.946 154.368C404.624 154.368 410.848 147.33 410.848 138.646V138.646Z" fill="#9EC8FF"/>
<path d="M415.908 156.8C415.746 156.8 415.584 156.739 415.451 156.612C415.147 156.325 415.105 155.815 415.358 155.472C418.823 150.761 420.731 144.785 420.731 138.646C420.731 135.706 420.306 132.821 419.468 130.067C419.339 129.644 419.538 129.182 419.912 129.037C420.285 128.891 420.694 129.116 420.823 129.539C421.712 132.461 422.165 135.526 422.165 138.645C422.165 145.16 420.139 151.504 416.461 156.507C416.319 156.7 416.115 156.799 415.909 156.799L415.908 156.8Z" fill="white"/>
<path d="M413.895 119.693C413.719 119.693 413.543 119.62 413.404 119.473C411.076 116.994 408.378 115.115 405.387 113.887C405.015 113.734 404.823 113.27 404.958 112.848C405.092 112.427 405.503 112.21 405.876 112.364C409.05 113.666 411.914 115.661 414.385 118.293C414.673 118.599 414.687 119.113 414.415 119.438C414.275 119.607 414.084 119.693 413.894 119.693H413.895Z" fill="white"/>
<path d="M391.554 113.14C391.233 113.14 390.942 112.895 390.86 112.528C390.763 112.093 390.996 111.653 391.379 111.544C393.352 110.98 395.393 110.695 397.447 110.695C397.843 110.695 398.163 111.058 398.163 111.505C398.163 111.952 397.843 112.315 397.447 112.315C395.512 112.315 393.588 112.584 391.73 113.116C391.671 113.132 391.612 113.14 391.554 113.14Z" fill="white"/>
<path opacity="0.5" d="M375.508 249.96H153.979V99.4814H375.508V249.96Z" fill="#9EC8FF"/>
<path d="M373.188 241.296H164.77V103.153H373.188V241.296Z" fill="white"/>
<path d="M342.492 174.546C352.424 163.854 369.399 164.097 369.041 180.378C368.682 196.659 369.871 198.19 373.958 206.73C388.14 236.365 357.055 234.622 344.091 235.594C331.127 236.566 332.201 208.945 334.493 193.636C336.785 178.327 339.586 177.676 342.491 174.547L342.492 174.546Z" fill="#303C60"/>
<path d="M364.15 272.138L367.357 301.501C358.487 321.451 354.266 337.988 354.696 351.108C355.34 370.79 342.663 402.621 342.018 403.836C341.588 404.646 339.01 405.237 334.282 405.612C336.001 367.979 337.076 344.385 337.506 334.827C338.15 320.49 343.936 298.136 347.121 267.896L364.149 272.137L364.15 272.138Z" fill="#4476BD"/>
<path d="M364.62 308.188C361.202 317.012 355.691 332.969 354.799 346.174C353.044 334.372 348.951 315.07 341.026 309.275C342.346 301.629 343.847 293.007 345.201 283.417L350.18 281.06L364.62 308.186V308.188Z" fill="#3E6BAB"/>
<path d="M373.175 264.848C380.33 275.169 383.795 286.185 383.57 297.894C383.058 324.632 380.479 332.266 384.966 360.301C386.133 367.601 384.845 383.19 381.098 407.071C377.898 407.354 375.438 407.012 373.719 406.045C373.934 403.413 370.616 360.601 364.156 340.92C361.027 331.389 356.629 304.698 354.266 289.391C351.902 274.082 351.472 270.924 352.332 270.924C352.905 270.924 359.853 268.899 373.173 264.849L373.175 264.848Z" fill="#4476BD"/>
<path d="M309.354 224.983C306.744 222.32 305.215 220.519 304.77 219.584C304.324 218.648 304.197 214.364 304.387 206.732C308.781 208.173 311.232 209.716 311.741 211.367C312.251 213.016 312.345 216.512 312.027 221.853L309.353 224.985L309.354 224.983Z" fill="#F09959"/>
<path d="M349.325 245.158C349.133 246.571 333.992 258.871 326.543 258.513C321.576 258.275 315.187 246.611 307.373 223.525L312.445 219.838C320.376 229.917 325.534 237.34 327.922 242.106C329.068 242.106 333.992 234.379 349.08 216.013C349.371 234.5 349.453 244.215 349.325 245.158V245.158Z" fill="#A2DFF2"/>
<path d="M340.428 226.674C342.92 223.569 345.791 220.018 349.08 216.015C349.371 234.502 349.453 244.217 349.325 245.16C349.182 246.213 340.724 253.322 333.344 256.72C337.901 250.454 337.725 238.06 340.428 226.676V226.674Z" fill="#96CFE0"/>
<path d="M364.409 203.923C374.034 209.379 379.897 216.936 381.999 226.595C385.15 241.082 375.825 258.98 374.679 268.532C373.533 278.083 347.176 279.763 347.176 269.539C347.176 259.738 340.573 238.931 340.945 233.632C341.528 225.342 347.178 216.12 357.893 205.964L364.409 203.924V203.923Z" fill="#A2DFF2"/>
<path d="M360.214 185.155L366.412 206.771C362 210.622 356.018 217.178 348.467 226.441C348.761 220.277 351.19 213.836 355.757 207.116L351.068 186.704L360.215 185.155H360.214Z" fill="#F09959"/>
<path d="M354.624 209.238C355.074 208.373 355.452 207.665 355.757 207.116L351.068 186.704L360.215 185.155L363.106 195.238C361.752 200.918 359.042 205.532 354.625 209.24L354.624 209.238Z" fill="#E38540"/>
<path d="M356.798 190.033C355.127 196.911 348.653 200.699 344.052 199.269C339.452 197.838 338.468 191.734 340.14 184.855C341.812 177.977 346.896 173.559 351.497 174.99C356.096 176.42 358.47 183.154 356.798 190.033V190.033Z" fill="#F09959"/>
<path d="M380.151 249.741C378.438 257.908 377.54 263.623 382.124 277.101C384.709 284.704 384.559 304.045 383.57 302.905C382.582 301.766 381.551 287.353 379.545 287.772C377.54 288.192 371.666 303.229 358.344 304.687C349.463 305.659 343.541 305.764 340.578 305.003C345.546 284.487 347.361 269.436 346.023 259.847C370.805 243.43 382.182 240.06 380.151 249.74V249.741Z" fill="#A2DFF2"/>
<path d="M342.363 403.05C341.327 405.671 341.729 407.286 342.875 410.21C344.021 413.133 343.544 415.5 340.972 415.498C337.05 415.496 336.19 417.223 333.039 417.764C329.887 418.304 320.529 417.894 320.146 416.598C319.764 415.302 327.691 414.2 330.27 411.608C333.44 408.422 335.809 404.048 334.609 398.535C340.469 399.799 343.055 401.305 342.365 403.052L342.363 403.05Z" fill="#4476BD"/>
<path d="M381.376 398.533C381.185 404.257 380.597 408.522 381.839 411.174C386.633 415.71 390.618 420.862 389.097 421.218C381.839 422.912 379.07 417.994 374.963 416.594C369.923 414.879 375.44 407.717 373.466 398.531C372.734 395.126 375.271 393.834 381.075 394.648L381.376 398.531V398.533Z" fill="#4476BD"/>
<path d="M375.106 279.569C371.717 283.126 364.1 284.957 358.294 285.867C354.173 286.514 350.359 283.283 349.73 278.631L349.272 275.24C358.664 267.116 363.78 259.868 364.62 253.495C365.881 243.937 360.208 226.603 368.615 212.671L379.833 227.737L381.389 243.619C381.072 245.103 380.713 246.579 380.326 248.035C380.342 248.531 380.287 249.097 380.153 249.74C378.439 257.906 377.541 263.622 382.125 277.1C382.561 278.381 382.919 279.998 383.208 281.791C381.29 278.788 378.386 276.125 375.106 279.567V279.569Z" fill="#96CFE0"/>
<path d="M354.075 278.34C352.779 278.406 351.248 286.618 349.272 287.512C346.052 288.97 343.617 285.837 342.253 284.598C341.343 283.773 342.075 282.195 344.449 279.864C344.723 278.314 345.108 277.394 345.604 277.099C346.099 276.806 348.42 276.002 352.565 274.691C354.436 277.079 354.939 278.294 354.075 278.338V278.34Z" fill="#F09959"/>
<path d="M370.178 210.834C376.833 211.048 382.869 224.604 384.971 236.365C386.374 244.206 387.812 253.701 389.288 264.848C381.935 271.41 374.625 275.652 367.359 277.57C361.02 279.243 356.234 280.406 352.998 281.061L351.07 274.923L373.818 259.813C368.241 247.933 365.176 237.51 364.621 228.547C363.791 215.101 365.121 210.673 370.179 210.835L370.178 210.834Z" fill="#A2DFF2"/>
<path d="M308.265 215.95L291.674 219.715L289.56 207.798L306.151 204.033L308.265 215.95V215.95Z" fill="#F5DC95"/>
<path d="M304.58 216.559C305.249 213.643 303.624 209.248 304.866 209.238C306.108 209.229 308.267 215.95 308.038 220.88C305.491 219.052 304.337 217.614 304.58 216.559V216.559Z" fill="#F09959"/>
<path d="M343.351 176.275C347.872 173.898 351.055 172.771 352.902 172.89C355.671 173.07 365.031 178.867 366.412 187.832C367.794 196.795 373.052 209.324 375.057 211.365C376.394 212.726 377.194 214.351 377.458 216.235C375.699 213.175 373.943 211.552 372.192 211.365C366.256 210.734 367.461 220.186 362.117 218.944C354.84 217.253 363.311 187.939 359.491 188.771C355.671 189.604 341.728 190.639 341.36 177.138L343.353 176.275H343.351Z" fill="#303C60"/>
<path d="M361.994 221.999C361.805 221.999 361.614 221.977 361.42 221.93C359.09 221.369 357.961 218.601 357.866 213.219C357.784 208.605 358.457 202.684 359.172 196.416C359.46 193.884 359.759 191.265 360.004 188.729C360.026 188.512 360.196 188.355 360.39 188.379C360.582 188.404 360.719 188.598 360.699 188.815C360.453 191.359 360.153 193.981 359.865 196.518C358.484 208.647 357.179 220.102 361.566 221.159C361.702 221.191 361.838 221.207 361.974 221.207C364.494 221.207 366.763 215.654 368.087 210.245C368.138 210.034 368.33 209.911 368.516 209.969C368.703 210.027 368.811 210.245 368.76 210.455C367.887 214.026 365.538 221.999 361.997 222.001L361.994 221.999Z" fill="#303C60"/>
<path d="M361.062 225.137C360.268 225.137 359.576 224.789 358.999 224.1C354.246 218.419 358.946 189.908 359.148 188.698C359.184 188.484 359.367 188.343 359.556 188.384C359.745 188.424 359.87 188.63 359.834 188.846C359.785 189.139 354.996 218.168 359.506 223.559C360.03 224.186 360.65 224.435 361.403 224.324C363.871 223.954 365.296 220.168 366.552 216.826C367.771 213.585 368.919 210.524 370.962 210.604C371.153 210.612 371.305 210.795 371.298 211.012C371.291 211.231 371.129 211.406 370.937 211.393C370.92 211.393 370.903 211.391 370.887 211.391C369.356 211.391 368.306 214.182 367.194 217.134C365.863 220.67 364.356 224.677 361.493 225.104C361.345 225.127 361.201 225.137 361.06 225.137H361.062Z" fill="#303C60"/>
<path d="M360.009 191.365C359.026 192.797 357.486 193.305 356.569 192.502C355.652 191.697 355.705 189.884 356.688 188.452C357.671 187.02 359.211 186.511 360.127 187.315C361.044 188.12 360.991 189.933 360.009 191.365Z" fill="#F09959"/>
<path d="M251.673 241.354C255.077 249.052 252.259 257.917 245.565 261.048C238.826 264.201 231.458 262.411 228.054 254.712C224.65 247.014 227.179 237.783 233.701 234.095C240.223 230.406 248.271 233.655 251.674 241.354H251.673Z" fill="#303C60"/>
<path d="M233.323 261.973C232.571 261.973 231.091 261.673 229.207 259.783C227.663 258.232 226.553 255.856 226.084 253.092C225.493 249.603 225.878 245.59 227.23 241.166C227.293 240.96 227.491 240.85 227.674 240.921C227.856 240.992 227.954 241.218 227.891 241.423C226.579 245.715 226.202 249.59 226.77 252.943C227.21 255.538 228.24 257.758 229.671 259.193C232.058 261.589 233.659 261.153 233.677 261.148C233.861 261.093 234.053 261.218 234.103 261.425C234.154 261.634 234.048 261.85 233.864 261.908C233.84 261.916 233.651 261.973 233.324 261.973H233.323Z" fill="#303C60"/>
<path d="M243.733 271.31C247.608 272.291 252.498 284.466 254.893 292.266C257.309 300.133 261.404 309.891 264.086 312.924C265.873 314.946 272.639 318.299 284.386 322.986C255.365 323.049 241.15 323.049 241.746 322.984C242.34 322.92 243.004 305.696 243.734 271.311L243.733 271.31Z" fill="#A8CEFF"/>
<path d="M275.696 322.72L270.323 323.01C262.244 323.023 252.587 323.033 246.817 323.021C246.357 317.722 244.542 296.698 243.474 282.387C243.581 278.076 243.667 274.382 243.733 271.308C246.519 272.014 249.832 278.512 252.364 285.006C255.428 298.106 255.737 311.174 256.544 314.876C257.168 317.738 259.211 317.533 262.672 314.26C263.013 315.736 261.963 317.052 259.522 318.207C255.862 319.94 264.458 318.688 266.842 319.073C268.431 319.329 271.381 320.546 275.695 322.72H275.696Z" fill="#93BBF0"/>
<path d="M235.483 268.612C240.252 270.432 243.002 271.331 243.733 271.31C244.829 271.279 253.361 285.201 251.255 301.33C249.148 317.457 253.451 325.512 251.016 328.136C248.582 330.76 227.199 332.486 224.769 330.402C222.341 328.319 211.42 279.711 214.292 278.055C216.207 276.95 221.272 273.803 229.488 268.612H235.481H235.483Z" fill="#A8CEFF"/>
<path d="M213.892 279.221L214.795 278.765C224.626 287.356 229.86 298.691 229.988 302.156C230.115 305.621 227.881 313.491 233.307 316.09C236.924 317.823 239.541 319.017 241.159 319.675C242.776 323.788 245.052 326.228 247.989 326.991C249.255 327.319 252.376 326.895 253.163 327.063C253.084 328.478 249.748 329.981 249.012 330.24C242.498 332.533 227.197 332.486 224.769 330.402C222.522 328.474 213.189 287.122 213.891 279.221H213.892Z" fill="#93BBF0"/>
<path d="M311.168 295.349L298.934 324.791H266.249L279.763 292.267H309.436C310.837 292.267 311.764 293.916 311.166 295.349H311.168Z" fill="#75A1DE"/>
<path d="M268.017 325.251H250.16C249.053 325.251 248.155 324.235 248.155 322.983C248.155 321.731 249.053 320.715 250.16 320.715H266.736L277.944 293.438C278.411 292.302 279.603 291.81 280.608 292.336C281.612 292.864 282.048 294.212 281.582 295.349L269.836 323.939C269.506 324.739 268.797 325.251 268.017 325.251V325.251Z" fill="#3E6BAB"/>
<path d="M237.052 318.304C244.797 319.94 246.702 321.952 250.924 322.721C255.71 323.595 255.141 324.79 251.586 324.79C248.03 324.79 239.097 324.946 236.032 324.176C233.988 323.663 234.327 321.706 237.052 318.304V318.304Z" fill="#F09959"/>
<path d="M221.953 297.169C221.314 304.425 220.154 309.908 218.469 313.621C231.261 316.189 237.721 317.689 237.849 318.122C238.041 318.771 238.424 323.753 237.083 325.05C235.742 326.348 201.654 324.79 200.314 324.79C198.973 324.79 207.389 300.433 213.325 278.968C214.451 274.897 222.911 286.285 221.953 297.169Z" fill="#A8CEFF"/>
<path d="M241.744 253.84C239.435 263.492 238.281 268.786 238.281 269.722C238.281 271.125 241.744 281.453 239.523 282.72C238.041 283.564 234.608 279.232 229.22 269.722L234.002 249.96L241.743 253.84H241.744Z" fill="#F09959"/>
<path d="M232.42 256.5L234.003 249.96L241.744 253.84C239.435 263.492 238.281 268.786 238.281 269.722C238.281 269.91 238.344 270.262 238.447 270.73C236.297 267.756 233.803 263.255 232.42 256.5V256.5Z" fill="#E38540"/>
<path d="M251.897 249.633C252.808 255.363 252.207 262.975 247.708 264.909C243.208 266.845 237.788 263.142 235.602 256.641C233.416 250.138 235.291 243.298 239.791 241.364C244.29 239.43 250.809 242.787 251.897 249.633Z" fill="#F09959"/>
<path d="M236.668 252.858C237.298 254.862 236.751 256.911 235.444 257.438C234.138 257.964 232.568 256.766 231.936 254.763C231.306 252.759 231.853 250.71 233.159 250.184C234.466 249.657 236.036 250.856 236.668 252.858Z" fill="#F09959"/>
<path d="M251.95 242.433C250.928 251.398 245.602 255.304 235.97 254.149C233.983 251.196 232.544 250.494 231.65 252.043C230.309 254.366 233.509 238.409 241.799 237.907C243.615 237.797 246.997 239.307 251.948 242.435L251.95 242.433Z" fill="#303C60"/>
<path d="M237.265 236.747C237.265 241.331 233.761 245.049 229.439 245.049C225.117 245.049 221.613 241.331 221.613 236.747C221.613 232.162 225.117 228.444 229.439 228.444C233.761 228.444 237.265 232.162 237.265 236.747Z" fill="#303C60"/>
<path d="M223.261 361.962H227.197L215.643 422.503H213.854L223.261 361.962Z" fill="#2E5B9A"/>
<path d="M269.485 422.503H267.696L254.249 359.822H258.185L269.485 422.503V422.503Z" fill="#2E5B9A"/>
<path d="M234.27 364.23C227.101 364.23 222.56 362.773 219.662 359.582C216.07 355.624 215.326 349.494 215.316 341.508C215.307 335.222 215.176 331.128 214.873 327.819C214.76 326.573 215.561 325.458 216.663 325.33C217.764 325.202 218.75 326.108 218.863 327.354C219.178 330.822 219.317 335.054 219.326 341.5C219.337 349.595 220.244 353.891 222.46 356.332C224.732 358.835 228.842 359.869 235.779 359.673C242.479 359.486 247.09 358.425 250.796 357.573C255.67 356.454 259.192 355.644 263.368 357.901C264.368 358.44 264.79 359.794 264.313 360.925C263.836 362.056 262.639 362.534 261.639 361.994C258.675 360.392 256.161 360.97 251.596 362.02C247.735 362.908 242.932 364.011 235.878 364.209C235.328 364.223 234.791 364.231 234.268 364.231L234.27 364.23Z" fill="#2E5B9A"/>
<path d="M217.985 325.051L228.956 325.568L226.036 359.826C220.584 355.889 217.9 351.804 217.985 347.569C218.069 343.333 218.069 335.827 217.985 325.052V325.051Z" fill="#2E5B9A"/>
<path d="M272.148 328.242C281.426 326.649 284.578 327.151 290.256 339.102C295.933 351.051 303.492 372.568 307.839 375.346C314.384 379.531 316.552 389.792 319.24 389.33C321.927 388.868 323.656 390.213 320.732 392.961C317.809 395.71 313.086 398.049 311.471 397.561C309.857 397.074 308.605 389.183 304.386 386.621C300.169 384.059 301.435 381.954 301.713 379.688C301.99 377.422 289.402 366.989 279.912 354.013C274.113 346.084 271.128 340.85 270.685 336.107C270.39 332.945 270.877 330.323 272.148 328.242V328.242Z" fill="#F09959"/>
<path d="M279.911 354.013C274.112 346.085 271.126 340.851 270.684 336.107C270.389 332.945 270.876 330.324 272.146 328.242C275.895 327.599 278.643 327.298 280.962 327.955C282.88 329.375 285.908 332.532 288.798 345.835C290.829 355.189 292.991 365.392 295.145 371.574C290.76 366.971 284.906 360.846 279.909 354.013H279.911Z" fill="#E38540"/>
<path d="M274.973 338.759C273.327 352.801 271.738 360.535 270.205 361.962C268.561 363.493 267.396 363.595 266.247 357.313C265.481 353.125 266.077 343.215 268.035 327.584L274.973 338.757V338.759Z" fill="#2E5B9A"/>
<path d="M273.006 350.157L250.16 354.498L263.059 333.584L272.874 331.324L278.76 332.855L273.006 350.158V350.157Z" fill="#F09959"/>
<path d="M306.503 388.589L310.01 397.091L308.496 397.35C305.254 391.155 303.204 387.641 302.346 386.808C301.06 385.558 300.97 383.063 301.71 379.688L306.503 388.589Z" fill="#2E5B9A"/>
<path d="M304.385 386.622C300.168 384.059 301.434 381.955 301.712 379.688C301.717 379.64 301.716 379.586 301.71 379.531C304.147 381.043 310.195 388.108 311.607 391.657C313.033 395.239 317.446 392.695 318.789 389.305C318.937 389.345 319.088 389.357 319.238 389.331C321.926 388.869 323.655 390.214 320.731 392.961C317.807 395.71 313.084 398.049 311.47 397.562C309.855 397.074 308.603 389.183 304.385 386.622V386.622Z" fill="#2E5B9A"/>
<path d="M282.737 328.697C283.777 330.041 276.335 339.049 267.27 347.568C258.205 356.088 242.653 358.121 232.801 357.056C222.95 355.991 217.413 345.537 225.518 329.087C262.971 327.932 282.043 327.802 282.737 328.698V328.697Z" fill="#E38540"/>
<path d="M271.483 341.359C273.143 335.728 275.056 331.407 278.76 331.329C282.655 331.247 285.05 333.539 285.218 340.745C285.416 349.326 285.683 377.744 285.333 390.38C285.068 399.944 287.533 403.008 287.324 412.979C287.168 420.489 294.247 416.695 291.512 420.59C289.631 423.268 284.033 422.393 280.595 421.897C277.531 421.456 282.181 411.072 277.941 408.296C274.302 405.912 274.231 402.046 276.528 399.117C278.826 396.189 276.783 387.525 275.252 381.46C273.719 375.397 271.344 368.836 269.783 354.495C269.337 350.408 270.469 344.795 271.483 341.355V341.359Z" fill="#F09959"/>
<path d="M291.512 420.59C289.631 423.268 284.033 422.393 280.595 421.898C277.531 421.457 282.181 411.073 277.941 408.296C274.302 405.913 274.231 402.046 276.528 399.117C276.578 399.054 276.624 398.988 276.67 398.918C279.151 401.324 281.572 407.258 281.72 411.026C281.89 415.342 282.657 418.518 285.209 418.421C286.47 418.374 287.915 417.927 289.088 417.524C291.082 417.857 293.289 418.058 291.511 420.589L291.512 420.59Z" fill="#2E5B9A"/>
<path d="M278.061 407.025C277.564 416.389 277.28 421.215 277.21 421.502C277.139 421.788 276.657 421.932 275.763 421.932C275.65 419.208 275.528 416.658 275.401 414.283C275.209 410.72 274.06 406.1 273.721 404.271C273.494 403.051 274.622 400.976 277.104 398.044L278.063 407.025H278.061Z" fill="#2E5B9A"/>
<path d="M268.035 327.586L272.148 328.24C270.088 328.707 268.419 332.405 267.143 339.335C265.866 346.266 266.164 354.022 268.037 362.605C265.441 358.903 262.802 357.141 260.12 357.313C254.18 357.697 228.956 363.448 222.883 357.053C218.833 352.79 218.41 342.968 221.616 327.584H268.037L268.035 327.586Z" fill="#75A1DE"/>
<path d="M251.717 326.463C244.635 327.211 239.223 329.29 235.482 332.695C229.869 337.805 221.304 339.914 219.808 337.46C218.313 335.005 222.582 326.486 220.525 321.553L251.717 326.463Z" fill="#A8CEFF"/>
<path d="M224.115 359.119C228.073 360.13 237.01 358.54 250.16 357.385C263.311 356.23 264.077 358.252 264.077 361.113C264.077 363.976 246.202 364.316 229.22 363.593C223.176 359.935 221.475 358.443 224.113 359.117L224.115 359.119Z" fill="#2E5B9A"/>
<path d="M410.31 330.017H171.052C170.03 330.017 169.203 329.08 169.203 327.925V326.88C169.203 325.725 170.03 324.789 171.052 324.789H410.31C411.331 324.789 412.159 325.725 412.159 326.88V327.925C412.159 329.08 411.331 330.017 410.31 330.017Z" fill="#2E5B9A"/>
<path d="M442.101 254.724C443.747 261.284 439.729 268.042 435.302 269.463C430.876 270.882 427.717 266.425 426.073 259.868C424.428 253.308 426.682 246.841 431.108 245.42C435.534 244 440.456 248.166 442.101 254.726V254.724Z" fill="#F09959"/>
<path d="M417.284 381.821C424.847 395.104 429.138 402.034 430.16 402.612C431.692 403.479 435.522 403.695 434.086 406.944C432.649 410.192 432.075 422.971 430.734 423.621C429.393 424.27 417.903 425.786 419.626 423.621C421.35 421.455 422.41 422.538 423.279 418.639C424.149 414.741 425.371 407.377 423.743 405.86C422.659 404.85 418.797 399.797 412.157 390.701L417.283 381.821H417.284Z" fill="#F09959"/>
<path d="M365.187 397.488C360.784 402.687 359.934 410.882 361.977 414.636C364.02 418.389 358.658 419.256 354.316 420.699C349.976 422.143 346.655 425.32 339.761 424.743C332.866 424.164 341.293 420.699 343.846 418.389C345.548 416.849 350.996 407.513 360.189 390.378C366.457 391.653 368.123 394.023 365.186 397.488H365.187Z" fill="#F09959"/>
<path d="M430.56 357.059C425.198 357.059 407.321 359.948 399.405 360.813C391.489 361.68 389.985 366.588 385.105 376.407C381.145 384.374 371.188 393.156 363.654 403.314C361.1 403.602 355.356 401.519 354.333 400.364C355.822 395.951 374.973 355.904 382.889 342.332C391.912 333.958 407.801 330.107 430.558 330.781C434.134 348.3 434.134 357.061 430.558 357.061L430.56 357.059Z" fill="#6791C9"/>
<path d="M460.327 424.812H458.537L445.707 364.271H449.643L460.327 424.812Z" fill="#2E5B9A"/>
<path d="M419.303 362.132H423.239L408.516 424.813H406.727L419.303 362.132V362.132Z" fill="#2E5B9A"/>
<path d="M450.831 359.476C443.066 369.765 404.015 352.274 402.484 355.089C402.61 356.68 411.735 362.556 418.572 378.717C419.291 380.416 421.606 389.098 422.502 390.485C421.633 396.765 420.43 397.754 417.286 400.363C404.926 390.449 398.883 381.656 391.734 370.632C379.151 351.226 380.767 337.133 391.734 334.823C399.771 333.13 412.58 332.192 430.162 332.009L450.008 328.136C455.499 342.481 455.774 352.927 450.832 359.476H450.831Z" fill="#75A1DE"/>
<path d="M453.141 282.418C462.142 303.118 450.985 317.028 454.479 335.688C459.305 361.461 438.813 337.422 426.832 331.826C423.96 327.062 426.713 325.949 426.331 308.623C426.028 294.981 430.952 286.711 435.302 281.695C440.28 277.619 445.605 276.495 450.831 277.325C451.494 279.098 452.409 280.733 453.141 282.416V282.418Z" fill="#F37168"/>
<path d="M448.689 281.399C453.456 291.507 451.157 301.325 446.305 315.86C441.454 330.395 444.604 334.631 445.794 337.615C446.986 340.599 444.432 340.022 441.879 335.979C439.646 332.444 430.711 330.234 425.828 329.669C424.966 326.837 426.093 324.175 426.326 315.144L448.689 281.399Z" fill="#D54A41"/>
<path d="M435.301 281.695C436.476 280.341 437.609 279.223 438.586 278.303C441.65 275.415 441.587 269.929 438.394 261.844L446.82 259.028C447.347 265.482 448.683 271.582 450.829 277.326C445.602 276.497 440.279 277.619 435.301 281.697V281.695Z" fill="#F09959"/>
<path d="M447.41 263.67C444.846 267.673 442.604 269.963 440.555 271.37C440.325 266.926 438.574 262.306 438.408 261.876C438.412 261.862 438.418 261.849 438.422 261.834L445.295 259.537C445.952 260.193 446.576 260.82 447.075 261.322C447.161 261.99 447.269 262.782 447.41 263.67V263.67Z" fill="#E38540"/>
<path d="M450.831 293.96C450.072 300.434 435.331 325.299 426.713 326.383C418.095 327.465 407.407 322.983 397.108 318.819C392.001 316.754 392.466 314.283 399.809 315.297C407.627 316.378 414.766 316.89 421.23 316.832C423.789 316.909 426.447 314.319 429.203 309.057C437.19 293.808 436.228 283.469 444.906 280.037C449.276 278.308 451.881 285.01 450.831 293.962V293.96Z" fill="#F09959"/>
<path d="M440.439 366.542C439.901 366.542 439.351 366.533 438.783 366.517C431.73 366.32 426.927 365.216 423.066 364.329C418.502 363.279 415.986 362.702 413.023 364.303C412.023 364.842 410.827 364.364 410.348 363.234C409.871 362.103 410.294 360.75 411.294 360.209C415.469 357.952 418.99 358.762 423.865 359.882C427.571 360.734 432.182 361.793 438.882 361.981C446.427 362.192 451.043 360.914 453.401 357.956C455.506 355.315 456.127 350.912 455.352 344.101C455.089 341.794 454.827 339.876 454.595 338.183C453.946 333.435 453.517 330.299 454.047 325.463C454.541 320.955 455.863 314.941 458.927 303.272C459.242 302.072 460.358 301.388 461.421 301.743C462.483 302.1 463.089 303.361 462.773 304.564C457.043 326.39 457.334 328.52 458.56 337.49C458.795 339.209 459.062 341.158 459.331 343.521C460.267 351.743 459.328 357.295 456.38 360.991C453.342 364.802 448.388 366.537 440.439 366.537V366.542Z" fill="#2E5B9A"/>
<path d="M361.978 414.636C364.021 418.39 358.659 419.256 354.318 420.7C349.977 422.143 346.657 425.32 339.762 424.743C333.902 424.253 339.11 421.675 342.373 419.495C342.855 419.579 343.429 419.66 344.121 419.725C347.055 420.002 351.978 417.1 361.128 412.041C361.302 413.034 361.586 413.917 361.977 414.636H361.978Z" fill="#D54A41"/>
<path d="M434.086 406.944C432.649 410.192 432.075 422.971 430.734 423.62C429.393 424.27 417.903 425.786 419.626 423.62C420.768 422.187 421.618 422.175 422.315 421.202C423.262 421.344 424.332 421.286 425.507 420.879C429.938 419.345 430.933 411.227 431.157 403.035C432.892 403.652 435.265 404.274 434.085 406.944H434.086Z" fill="#D54A41"/>
<path d="M395.914 325.251H366.848C366.067 325.251 365.358 324.739 365.028 323.939L353.282 295.349C352.815 294.213 353.252 292.864 354.256 292.336C355.26 291.808 356.453 292.302 356.92 293.437L368.128 320.715H395.916C397.023 320.715 397.921 321.731 397.921 322.983C397.921 324.235 397.023 325.251 395.916 325.251H395.914Z" fill="#75A1DE"/>
<path d="M403.494 321.243C391.092 317.009 395.065 321.54 391.064 320.399C387.063 319.257 385.446 316.15 385.191 316.216C384.936 316.283 377.445 320.675 376.253 320.385C375.061 320.096 384.51 312.683 387.404 312.107C390.297 311.528 396.122 315.487 401.995 315.585C408.369 321.193 408.868 323.08 403.492 321.243H403.494Z" fill="#F09959"/>
<path d="M449.967 269.463L450.831 277.326C445.764 277.667 441.969 278.64 439.448 280.244C436.927 281.848 433.805 284.968 430.085 289.603L434.645 280.725L435.301 275.045L449.965 269.463H449.967Z" fill="#F2E5DE"/>
<path d="M452.01 292.757C451.159 301.323 437.454 325.196 436.774 326.062C436.093 326.929 431.496 327.41 426.474 327.699C421.452 327.987 410.642 326.158 409.366 325.184C408.515 324.535 407.635 323.801 406.727 322.981C404.457 323.046 403.123 322.821 402.726 322.307C402.329 321.794 402.329 319.388 402.726 315.089C415.858 316.064 422.837 316.064 423.665 315.089C424.907 313.626 431.155 302.286 434.815 292.948C438.475 283.61 441.087 277.89 446.732 279.087C449.613 279.698 452.861 284.189 452.01 292.757V292.757Z" fill="#F2E5DE"/>
<path d="M437.538 236.156C444.561 233.629 448.62 238.414 451.063 243.76C452.69 247.322 454.375 265.034 451.31 266.766C448.246 268.499 445.502 267.399 442.909 266.477C440.562 265.643 437.134 263.205 435.921 257.433C433.559 258.078 432.169 258.643 430.942 258.006C430.37 256.37 429.86 254.204 429.409 251.509C429.282 254.83 429.366 257.14 429.664 258.439C425.791 259.161 422.93 259.199 421.082 258.554C419.966 246.444 422.966 240.198 430.084 239.812C432.705 238.218 435.189 237 437.537 236.154L437.538 236.156Z" fill="#303C60"/>
<path d="M449.98 260.087L454.206 267.056C461.892 263.35 467.771 264.241 471.842 269.728C477.949 277.957 480.695 270.363 489.717 279.533C500.62 290.616 496.487 312.781 481.89 315.23C474.753 316.427 470.78 320.2 469.97 326.547C464.664 321.545 463.671 316.178 466.991 310.448C471.97 301.854 473.268 293.308 462.249 288.458C452.869 284.33 449.792 277.709 453.017 268.597L448.652 261.386L449.98 260.087V260.087Z" fill="#303C60"/>
<path d="M494.738 301.816C494.681 301.816 494.623 301.8 494.57 301.767C494.401 301.662 494.34 301.422 494.432 301.231C498.11 293.627 495.109 284.414 493.598 281.919C493.439 281.655 493.287 281.388 493.127 281.106C491.642 278.486 489.795 275.225 479.949 273.221C477.591 272.742 475.677 271.153 473.652 269.471C469.452 265.983 464.691 262.032 454.349 267.415C454.174 267.506 453.966 267.42 453.886 267.223C453.806 267.025 453.882 266.79 454.057 266.699C464.773 261.122 469.709 265.22 474.064 268.836C476.023 270.463 477.872 271.998 480.072 272.445C490.217 274.511 492.157 277.932 493.714 280.681C493.871 280.959 494.019 281.221 494.174 281.475C495.083 282.979 496.208 286.094 496.668 289.663C497.067 292.759 497.109 297.343 495.043 301.612C494.98 301.743 494.86 301.818 494.737 301.818L494.738 301.816Z" fill="#303C60"/>
<path d="M451.61 265.982C451.709 265.794 451.654 265.553 451.49 265.441C451.325 265.329 451.11 265.391 451.011 265.577C449.941 267.604 447.636 268.331 444.162 267.743C441.681 267.323 439.901 266.22 438.556 264.271C436.789 261.712 435.812 257.592 435.65 252.026C435.645 251.809 435.489 251.634 435.291 251.645C435.099 251.652 434.947 251.835 434.954 252.052C435.347 265.499 440.339 267.892 444.061 268.522C444.871 268.66 445.625 268.728 446.323 268.728C448.872 268.728 450.647 267.808 451.613 265.98L451.61 265.982Z" fill="#303C60"/>
<path d="M110.304 316.172C97.2811 325.701 89.557 328.654 87.1318 325.031C83.4933 319.595 100.729 286.285 113.12 278.272L110.304 316.172V316.172Z" fill="#96CFE0"/>
<path d="M128.783 252.145L122.333 266.131C120.9 266.226 119.673 265.732 118.651 264.649C117.118 263.022 119.163 262.666 118.098 260.79C117.035 258.912 115.076 258.768 115.65 256.746C116.224 254.724 117.487 253.714 114.891 251.259C112.297 248.805 113.103 245.196 114.891 244.761C116.679 244.329 116.905 243.462 117.373 240.718C117.842 237.975 119.671 238.408 123.387 238.84C127.103 239.273 124.991 237.943 127.852 237.107C133.294 235.519 131.538 239.496 136.269 239.642L128.78 252.145H128.783Z" fill="#303C60"/>
<path d="M232.675 407.51C237.271 407.654 241.356 406.931 244.932 405.344C250.294 402.961 253.932 399.28 252.975 403.61C252.018 407.942 247.613 415.373 243.783 416.097C239.952 416.821 238.612 421.586 236.506 421.586C234.399 421.586 231.334 416.097 225.973 413.353C222.715 411.686 224.948 409.737 232.675 407.508V407.51Z" fill="#2E5B9A"/>
<path d="M178.343 406.78C180.277 409.794 182.924 412.351 186.289 414.447C191.501 417.695 197.514 419.26 193.786 420.729C190.057 422.199 184.606 423.341 179.289 421.595C175.56 420.37 171.188 420.114 170.032 418.121C168.877 416.129 171.391 411.124 170.346 403.646C169.787 399.652 172.453 400.696 178.343 406.781V406.78Z" fill="#2E5B9A"/>
<path d="M146.061 334.097C172.685 345.37 187.07 352.584 189.216 355.735C192.433 360.462 234.414 403.528 234.414 406.705C234.414 408.822 232.031 411.806 227.265 415.657C203.262 399.004 188.281 386.442 182.321 377.971C173.384 365.265 151.571 359.139 139.975 357.963C132.244 357.178 134.272 349.223 146.062 334.097H146.061Z" fill="#3E6BAB"/>
<path d="M147.592 334.097C165.808 333.327 176.872 333.327 180.789 334.097C186.662 335.252 199.544 335.239 191.118 362.132C186.715 376.186 183.787 392.107 182.334 409.9L169.203 413.548C169.549 381.554 171.813 361.3 175.99 352.78C171.426 353.631 163.05 355.291 151.442 359.045C137.086 363.688 125.971 364.846 118.1 362.521L114.894 349.815L147.593 334.097H147.592Z" fill="#4476BD"/>
<path d="M131.313 263.631L126.533 282.906L118.098 276.625L124.775 254.317L131.313 263.631Z" fill="#A86B48"/>
<path d="M122.333 262.477L124.775 254.317L131.313 263.631L127.288 279.865C125.212 275.943 123.176 269.847 122.333 262.479V262.477Z" fill="#7A4E34"/>
<path d="M141.805 258.094C142.021 264.879 139.074 270.751 134.39 271.273C129.706 271.795 125.431 266.742 124.842 259.985C124.254 253.229 127.573 247.328 132.257 246.806C136.941 246.284 141.462 247.388 141.805 258.094Z" fill="#A86B48"/>
<path d="M133.618 292.754C137.516 304.883 136.738 309.038 138.448 316.691C140.693 326.742 145.251 332.459 152.121 333.842C148.496 339.156 144.002 344.557 138.64 350.044C130.597 358.273 116.504 360.656 115.929 360.656C115.355 360.656 115.48 351.144 111.648 335.4C107.148 316.918 94.4018 291.626 114.895 275.976C124.781 279.076 131.022 284.669 133.621 292.754H133.618Z" fill="#A2DFF2"/>
<path d="M114.892 275.976L117.087 269.902C121.725 273.368 124.971 275.919 126.822 277.555C128.673 279.191 130.17 280.202 131.312 280.588C131.981 286.392 132.098 289.031 131.664 288.503C126.189 281.868 120.598 277.691 114.892 275.976V275.976Z" fill="#A2DFF2"/>
<path d="M116.494 364.272H120.43L107.599 424.813H105.81L116.494 364.272V364.272Z" fill="#2E5B9A"/>
<path d="M159.41 424.813H157.621L142.898 362.132H146.834L159.41 424.813Z" fill="#2E5B9A"/>
<path d="M125.743 366.54C118.575 366.54 114.034 365.084 111.136 361.892C107.543 357.935 106.8 351.805 106.79 343.818C106.767 327.027 105.946 323.555 101.766 313.302C101.302 312.165 101.742 310.817 102.747 310.292C103.753 309.767 104.945 310.265 105.409 311.402C109.827 322.24 110.778 326.223 110.801 343.81C110.812 351.905 111.719 356.201 113.935 358.643C116.207 361.146 120.316 362.178 127.255 361.983C133.954 361.797 138.566 360.736 142.272 359.884C147.145 358.763 150.667 357.954 154.843 360.211C155.843 360.75 156.266 362.105 155.789 363.235C155.312 364.366 154.114 364.844 153.114 364.305C150.15 362.702 147.636 363.281 143.071 364.331C139.21 365.218 134.407 366.322 127.354 366.519C126.803 366.534 126.265 366.542 125.743 366.542V366.54Z" fill="#2E5B9A"/>
<path d="M214.291 324.988H185.224C184.116 324.988 183.218 323.973 183.218 322.72C183.218 321.468 184.116 320.452 185.224 320.452H213.011L224.219 293.175C224.686 292.039 225.878 291.547 226.884 292.073C227.888 292.601 228.323 293.949 227.858 295.087L216.111 323.676C215.782 324.477 215.073 324.988 214.292 324.988H214.291Z" fill="#3E6BAB"/>
<path d="M131.885 294.36C129.773 288.766 122.903 281.416 117.406 276.951C121.81 278.869 130.724 283.752 133.618 292.754C137.516 304.883 136.738 309.039 138.448 316.691C140.879 327.575 146.926 331.683 150.1 333.126C146.118 333.413 133.399 330.964 127.079 323.672C122.866 318.81 119.057 310.508 115.651 298.765C128.037 299.968 133.447 298.5 131.885 294.361V294.36Z" fill="#96CFE0"/>
<path d="M186.142 314.223C192.015 311.19 195.27 309.82 195.909 310.108C196.866 310.54 206.634 317.21 206.634 318.315C206.634 319.052 203.762 317.678 198.016 314.197C198.655 316.121 198.782 317.545 198.398 318.469C197.824 319.854 191.199 319.854 185.224 319.42C181.24 319.131 181.546 317.398 186.142 314.221V314.223Z" fill="#A86B48"/>
<path d="M152.195 308.651C152.753 309.108 164.069 310.965 186.142 314.222L188.355 320.333C175.265 324.411 163.212 325.883 152.195 324.752C135.669 323.056 107.813 303.976 115.934 285.153C118.908 278.26 151.357 307.968 152.195 308.651Z" fill="#A2DFF2"/>
<path d="M126.491 254.953C127.243 257.191 126.692 259.505 125.259 260.122C123.825 260.739 122.053 259.424 121.301 257.185C120.549 254.946 121.101 252.633 122.535 252.016C123.969 251.398 125.741 252.714 126.493 254.953H126.491Z" fill="#A86B48"/>
<path d="M141.816 240.623C144.059 239.563 146.586 238.429 145.804 242.74C145.463 244.618 145.804 244.088 146.4 245.82C146.996 247.553 144.899 248.912 144.217 249.876C143.536 250.838 145.208 251.885 143.846 253.04C142.484 254.195 140.689 252.612 139.419 253.04C135.632 254.318 136.1 250.948 133.972 250.249C131.844 249.547 130.8 249.656 130.396 251.196C129.992 252.737 131.886 257.804 130.269 257.323C128.651 256.842 128.287 260.933 127.852 263.243C127.417 265.553 126.308 261.649 126.379 259.005C126.49 254.952 125.6 253.249 124.279 252.115C122.959 250.981 122.397 240.67 128.78 240.284C135.163 239.898 135.205 239.202 137.928 238.551C140.651 237.899 140.79 241.102 141.813 240.621L141.816 240.623Z" fill="#303C60"/>
<path d="M508.751 363.78C505.743 361.179 504.326 365.182 500.964 373.188C498.722 378.524 497.719 391.068 497.956 410.814L495.478 411.214C495.831 392.001 497.012 379.792 499.017 374.587C502.025 366.782 503.796 362.578 499.725 358.376C507.748 363.714 510.757 365.514 508.751 363.78V363.78Z" fill="#74B570"/>
<path d="M497.49 352.935C497.984 350.443 500.921 347.749 504.846 345.462C504.263 349.136 502.391 355.143 504.327 356.374C506.939 358.036 504.582 349.649 505.589 345.039C509.275 343.002 513.71 341.339 517.794 340.511C517.788 340.529 517.784 340.545 517.777 340.561C515.476 347.166 512.468 349.768 513.707 350.769C514.64 351.522 517.675 343.892 521.683 339.981C524.692 339.8 527.237 340.261 528.744 341.609C531.072 343.693 532.633 345.543 530.293 351.888C528.955 352.969 527.223 353.743 525.21 353.971C519.901 354.572 517.423 354.772 521.139 356.774C522.96 357.754 526.01 356.719 528.483 356.087C527.681 357.759 526.694 359.651 525.497 361.807C524.736 363.175 523.899 364.361 523.01 365.388C521.298 365.759 519.807 365.762 519.018 365.38C516.539 364.179 510.169 360.375 508.576 361.978C507.018 363.544 520.376 364.537 519.45 368.519C512.975 372.738 505.566 370.73 504.257 366.857C502.498 361.655 496.004 360.43 497.491 352.933L497.49 352.935Z" fill="#9CD499"/>
<path d="M506.628 389.198C508.516 386.53 509.282 384.461 508.928 382.994C508.397 380.792 504.244 378.561 498.487 383.194C489.285 390.599 493.178 407.012 493.178 407.611C493.178 408.011 492.707 408.212 491.763 408.212C489.994 398.605 490.348 391.667 492.824 387.397C496.542 380.993 503.797 375.388 510.877 381.393L506.629 389.198H506.628Z" fill="#74B570"/>
<path d="M494.594 369.051C501.673 369.051 503.974 381.46 502.027 388.664C500.729 393.467 499.195 400.339 497.426 409.279L495.657 407.278C500.14 394.736 501.851 385.662 500.789 380.059C499.196 371.652 495.303 370.251 494.595 370.251C494.124 370.251 494.124 369.851 494.595 369.051H494.594Z" fill="#9CD499"/>
<path d="M500.531 388.721C501.03 387.976 501.644 387.358 502.395 386.95C502.296 387.546 502.174 388.121 502.027 388.666C501.14 391.948 500.106 396.52 499.243 400.523C499.165 400.009 499.044 399.22 498.858 398C498.814 397.712 498.779 397.399 498.755 397.069C499.448 394.402 500.103 391.498 500.531 388.721V388.721Z" fill="#74B570"/>
<path d="M502.467 388.78C515.916 382.376 508.831 373.586 520.688 379.391C521.523 379.799 522.542 380.831 523.56 382.252C522.504 382.59 521.225 382.833 519.803 382.592C516.263 381.991 517.502 385.193 523.342 385.994C524.443 386.144 525.336 386.352 526.078 386.647C528.86 392.689 530.115 400.642 524.226 403.406C523.066 403.95 521.632 404.263 520.036 404.378C518.22 402.745 520.479 393.295 517.678 394.599C514.989 395.851 518.521 402.701 518.036 404.426C515.382 404.371 512.442 403.882 509.635 403.094C508.523 402.39 507.675 401.445 507.413 400.204C506.528 396.002 512.368 393.4 512.546 389.798C512.709 386.486 510.405 397.084 504.303 398.643C498.785 395.728 496.178 391.772 502.465 388.779L502.467 388.78Z" fill="#9CD499"/>
<path d="M492.882 377.456C494.297 374.054 490.581 373.254 490.757 375.856C490.915 378.161 490.932 383.766 488.841 385.291C485.235 384.848 480.329 383.206 476.62 380.701C476.573 380.363 476.619 380.014 476.776 379.658C478.369 376.055 488.634 373.053 485.449 371.853C482.912 370.897 478.466 376.541 474.884 379.386C472.732 377.539 471.291 375.339 471.291 372.883C471.291 369.559 474.864 365.794 479.484 363.996C481.562 364.232 483.495 365.519 486.511 367.451C490.968 370.307 489.938 365.69 485.724 362.949C489.361 363.161 492.988 364.919 495.662 369.118C495.493 370.315 495.969 371.838 497.089 373.69C501.672 381.263 496.383 385.686 490.061 385.398C490.419 383.402 491.903 379.809 492.882 377.458V377.456Z" fill="#9CD499"/>
<path d="M510.45 381.053C513.911 384.078 517.756 387.614 522.476 390.015C525.622 391.616 526.881 395.026 526.252 400.245C526.723 395.738 525.649 392.714 523.027 391.172C519.094 388.858 516.498 386.101 513.51 385.568C511.517 385.212 509.97 384.857 508.868 384.5C509.497 383.076 509.629 382.098 509.262 381.565C508.896 381.032 509.292 380.86 510.453 381.053H510.45Z" fill="#74B570"/>
<path d="M519.8 349.096C515.945 350.963 510.332 355.201 505.72 360.572C503.936 362.647 503.386 364.486 504.068 366.086L503.439 366.443L502.101 363.596C502.101 363.181 502.678 362.232 503.832 360.75C505.562 358.526 514.845 349.363 527.508 345.538C524.938 346.666 522.368 347.851 519.8 349.096Z" fill="#74B570"/>
<path d="M486.321 417.767V405.195H503.618V417.767C503.618 421.658 500.829 424.812 497.388 424.812H492.549C489.108 424.812 486.319 421.658 486.319 417.767H486.321Z" fill="#75A1DE"/>
<path d="M503.618 408.819H486.321V407.442H503.618V408.819Z" fill="white"/>
<path d="M503.618 410.764H486.321V409.954H503.618V410.764Z" fill="white"/>
<path d="M281.057 160.949C279.199 163.24 278.139 166.216 278.139 169.324V181.452C278.139 189.299 272.462 195.719 265.523 195.719H261.317C254.378 195.719 248.702 189.299 248.702 181.452V169.323C248.702 166.24 247.676 163.269 245.827 161.002C241.815 156.082 239.397 149.474 239.498 142.227C239.707 127.379 250.603 115.422 263.733 115.612C276.804 115.801 287.347 127.841 287.347 142.666C287.347 149.714 284.963 156.133 281.058 160.947L281.057 160.949Z" fill="#F5DC95"/>
<path opacity="0.5" d="M278.593 160.212C276.994 162.183 276.082 164.743 276.082 167.417V177.85C276.082 184.601 271.198 190.123 265.229 190.123H261.61C255.641 190.123 250.758 184.601 250.758 177.85V167.416C250.758 164.764 249.875 162.208 248.285 160.257C244.833 156.024 242.753 150.339 242.84 144.104C243.019 131.33 252.394 121.043 263.689 121.207C274.933 121.369 284.003 131.727 284.003 144.482C284.003 150.545 281.953 156.068 278.593 160.21V160.212Z" fill="white"/>
<path d="M266.956 174.187H259.078C258.708 174.187 258.399 173.868 258.364 173.452C258.35 173.278 256.88 156.079 250.079 151.261C249.744 151.023 249.642 150.524 249.852 150.145C250.062 149.766 250.504 149.651 250.839 149.889C257.473 154.587 259.358 169.081 259.722 172.569H266.2C266.174 171.372 266.236 169.063 266.845 166.074C267.66 162.079 269.658 156.053 274.55 150.028C274.818 149.699 275.271 149.677 275.563 149.979C275.854 150.282 275.874 150.794 275.606 151.123C266.664 162.133 267.658 173.176 267.67 173.286C267.693 173.516 267.628 173.745 267.492 173.917C267.356 174.088 267.163 174.187 266.958 174.187H266.956Z" fill="#94BDF2"/>
<path fill-rule="evenodd" clip-rule="evenodd" d="M272.854 152.369C270.194 152.369 266.568 150.232 262.748 147.916C257.814 150.887 253.207 153.552 250.629 151.783C249.417 150.952 248.837 149.325 248.857 146.811C248.875 144.444 249.476 142.848 250.64 142.067C253.225 140.337 257.84 143.098 262.749 146.077C267.756 143.057 272.469 140.247 275.043 142.019C276.199 142.814 276.77 144.433 276.745 146.827C276.716 149.319 276.083 150.995 274.862 151.808C274.282 152.196 273.606 152.366 272.854 152.366V152.369ZM264.27 146.999C268.204 149.362 272.318 151.627 274.136 150.415C274.897 149.908 275.292 148.695 275.314 146.808C275.334 145.026 274.993 143.88 274.299 143.404C272.543 142.195 268.279 144.593 264.27 146.999V146.999ZM252.577 143.146C252.104 143.146 251.697 143.245 251.371 143.462C250.668 143.934 250.304 145.064 250.289 146.825C250.275 148.693 250.639 149.895 251.371 150.397C253.139 151.609 257.267 149.357 261.226 146.994C258.025 145.063 254.664 143.146 252.576 143.146H252.577Z" fill="#94BDF2"/>
<path d="M265.954 199.568H261.37C259.755 199.568 258.433 198.073 258.433 196.247V195.761C258.433 193.936 259.755 192.44 261.37 192.44H265.954C267.568 192.44 268.89 193.936 268.89 195.761V196.247C268.89 198.073 267.568 199.568 265.954 199.568Z" fill="#94BDF2"/>
<path d="M278.833 172.729V181.309C278.833 189.526 272.888 196.25 265.621 196.25H261.216C253.951 196.25 248.005 189.527 248.005 181.309V172.729H278.832H278.833Z" fill="#94BDF2"/>
<path d="M278.703 175.43H248.525C247.579 175.43 246.806 174.555 246.806 173.486V173.27C246.806 172.201 247.579 171.326 248.525 171.326H278.703C279.648 171.326 280.422 172.201 280.422 173.27V173.486C280.422 174.555 279.648 175.43 278.703 175.43Z" fill="#9EC8FF"/>
<path d="M278.81 178.506L248.86 182.691C247.921 182.822 247.059 182.061 246.943 181L246.92 180.786C246.804 179.725 247.477 178.749 248.416 178.618L278.366 174.434C279.305 174.302 280.167 175.064 280.283 176.125L280.306 176.339C280.422 177.4 279.749 178.375 278.81 178.506Z" fill="#9EC8FF"/>
<path d="M278.81 184.434L248.86 188.618C247.921 188.75 247.059 187.988 246.943 186.927L246.92 186.713C246.804 185.652 247.477 184.677 248.416 184.546L278.366 180.361C279.305 180.23 280.167 180.992 280.283 182.053L280.306 182.267C280.422 183.328 279.749 184.303 278.81 184.434Z" fill="#9EC8FF"/>
<path d="M276.963 190.778L252.018 194.263C251.157 194.383 250.365 193.685 250.259 192.711L250.2 192.18C250.094 191.206 250.712 190.31 251.573 190.19L276.517 186.706C277.378 186.586 278.17 187.284 278.276 188.258L278.335 188.789C278.441 189.763 277.823 190.659 276.963 190.778Z" fill="#9EC8FF"/>
<path d="M492.932 198.47H509.01C509.01 208.444 501.753 216.653 492.932 216.653C484.112 216.653 476.853 208.444 476.853 198.47C476.853 188.496 484.11 180.287 492.932 180.287V198.47Z" fill="#9EC8FF"/>
<path d="M495.625 195.923V177.74C504.505 177.74 511.703 185.881 511.703 195.923H495.625Z" fill="#F39892"/>
<path d="M479.547 195.923C479.547 205.965 486.745 214.106 495.625 214.106C486.805 214.106 479.547 205.897 479.547 195.923Z" fill="#F39892"/>
<path d="M495.625 177.74C486.745 177.74 479.547 185.881 479.547 195.923C479.547 185.949 486.805 177.74 495.625 177.74Z" fill="#F39892"/>
<path d="M495.625 214.106C504.505 214.106 511.703 205.965 511.703 195.923C511.703 205.897 504.446 214.106 495.625 214.106Z" fill="#F39892"/>
<path d="M181.779 197.932H178.268V186.441H181.779V197.932Z" fill="#9EC8FF"/>
<path d="M226.788 197.931H223.277V190.18H226.788V197.931Z" fill="#9EC8FF"/>
<path d="M196.661 197.932H193.15V171.048H196.661V197.932Z" fill="#9EC8FF"/>
<path d="M204.101 197.932H200.59V185.849H204.101V197.932Z" fill="#9EC8FF"/>
<path d="M211.542 197.932H208.031V182.427H211.542V197.932Z" fill="#9EC8FF"/>
<path d="M189.219 197.932H185.708V178.854H189.219V197.932Z" fill="#9EC8FF"/>
<path d="M219.008 197.932H215.497V174.436H219.008V197.932Z" fill="#9EC8FF"/>
<path d="M62.9312 175.998L66.2618 151.88L84.6766 164.615C80.1614 172.956 71.5807 177.541 62.9298 175.998H62.9312Z" fill="#A2DFF2"/>
<path d="M66.2617 151.878C82.651 141.857 78.7703 144.203 85.2868 140.341C88.8551 147.853 88.6976 157.003 84.8083 164.372C84.8112 164.367 84.7453 164.493 84.6966 164.586C81.843 162.668 84.708 164.636 66.2617 151.878V151.878Z" fill="#9CD499"/>
<path d="M85.2524 140.266L66.2618 151.879L46.0177 143.443C52.4582 123.917 76.3681 121.688 85.251 140.266H85.2524Z" fill="#9EC8FF"/>
<path d="M46.019 143.443L66.2631 151.879L62.9326 175.997C49.7507 173.647 41.2058 158.038 46.0205 143.443H46.019Z" fill="#F39892"/>
<path d="M44.303 147.482C44.4935 146.285 44.7599 145.097 45.108 143.927L45.0966 143.923L45.3473 143.161L45.5965 142.405L45.608 142.409C46.4775 140.001 47.6378 137.812 49.0331 135.881C49.2838 136.357 49.6648 136.73 50.1304 136.923C48.8368 138.714 47.761 140.741 46.9517 142.97L56.8202 147.082L57.9203 147.54C57.6095 147.96 57.4204 148.489 57.4433 149.056C57.4433 149.06 57.4447 149.064 57.4447 149.068L46.4532 144.488C46.1366 145.557 45.8931 146.643 45.7183 147.736C45.4189 147.547 45.0722 147.436 44.6955 147.436C44.5637 147.436 44.4333 147.453 44.3044 147.482H44.303Z" fill="white"/>
<path fill-rule="evenodd" clip-rule="evenodd" d="M85.652 164.339L85.6621 164.346L85.4343 164.765C85.43 164.772 85.4271 164.78 85.4229 164.788L85.4071 164.817C85.3827 164.863 85.3412 164.944 85.3068 165.008C85.1564 165.292 85.0805 165.433 85.079 165.431L84.9387 165.69L84.9243 165.681C82.6452 169.621 79.4551 172.747 75.6561 174.746C72.6894 176.308 69.4992 177.105 66.2789 177.105C65.3636 177.105 64.4453 177.04 63.5285 176.911L63.5271 176.925C63.0544 176.841 62.818 176.799 62.818 176.799L62.1118 176.672L62.1132 176.658C55.7787 175.292 50.2965 170.899 46.9946 164.506C45.0192 160.683 43.9978 156.429 43.9563 152.144C44.1841 152.24 44.4305 152.296 44.6926 152.296C44.9304 152.296 45.1653 152.244 45.3888 152.152C45.4318 156.15 46.3887 160.121 48.2309 163.69C51.315 169.661 56.4262 173.769 62.3338 175.059L65.4624 152.411L61.2107 150.639C61.5374 150.228 61.7422 149.701 61.7393 149.132L65.6887 150.778L65.7188 150.556L66.2832 150.947L66.4566 150.841C69.2542 149.131 71.4388 147.794 73.175 146.732C75.8853 145.073 77.504 144.083 78.6615 143.378L84.2697 139.949C80.2487 132.16 72.8956 127.737 64.9052 128.366C60.3269 128.725 56.1569 130.668 52.8464 133.809C52.6702 133.284 52.3507 132.84 51.9368 132.555C55.4722 129.205 59.9215 127.134 64.8063 126.75C68.9606 126.423 73.0632 127.376 76.6717 129.501C80.3575 131.672 83.4202 135.04 85.569 139.262L85.579 139.255L85.8569 139.842C85.8641 139.856 85.8712 139.869 85.8784 139.884L86.2193 140.597L86.2079 140.603C89.5169 148.084 89.3092 157.067 85.6492 164.341L85.652 164.339ZM83.6824 164.876L80.9391 162.979C79.786 162.183 77.9524 160.915 74.7493 158.699L66.8032 153.203L63.7506 175.31C71.6179 176.403 79.3061 172.379 83.6824 164.876V164.876ZM84.9802 141.437C84.4029 141.779 83.9173 142.066 83.4918 142.317C81.7542 143.344 81.0537 143.759 79.3433 144.799L67.6971 151.92L81.727 161.623C83.2268 162.656 83.5534 162.876 84.3055 163.38C84.3958 163.442 84.4416 163.471 84.4416 163.471C87.8166 156.712 88.0142 148.39 84.9788 141.436L84.9802 141.437Z" fill="#E7F3FE"/>
<path d="M184.353 156.343H124.967C124.321 156.343 123.797 155.75 123.797 155.02V126.12C123.797 125.39 124.321 124.797 124.967 124.797H184.353C184.999 124.797 185.523 125.39 185.523 126.12V155.02C185.523 155.75 184.999 156.343 184.353 156.343Z" fill="#9EC8FF"/>
<path d="M182.89 154.863H126.43C125.908 154.863 125.484 154.385 125.484 153.793V134.154C125.484 133.563 125.908 133.085 126.43 133.085H182.89C183.412 133.085 183.836 133.563 183.836 134.154V153.793C183.836 154.385 183.412 154.863 182.89 154.863Z" fill="white"/>
<path d="M128.235 129.58H126.864C126.574 129.58 126.339 129.314 126.339 128.987V127.71C126.339 127.383 126.574 127.117 126.864 127.117H128.235C128.524 127.117 128.759 127.383 128.759 127.71V128.987C128.759 129.314 128.524 129.58 128.235 129.58Z" fill="white"/>
<path d="M132.632 129.58H131.261C130.972 129.58 130.737 129.314 130.737 128.987V127.71C130.737 127.383 130.972 127.117 131.261 127.117H132.632C132.922 127.117 133.157 127.383 133.157 127.71V128.987C133.157 129.314 132.922 129.58 132.632 129.58Z" fill="white"/>
<path d="M137.029 129.58H135.658C135.368 129.58 135.133 129.314 135.133 128.987V127.71C135.133 127.383 135.368 127.117 135.658 127.117H137.029C137.318 127.117 137.553 127.383 137.553 127.71V128.987C137.553 129.314 137.318 129.58 137.029 129.58Z" fill="white"/>
<path d="M181.46 137.857H150.596C150.089 137.857 149.672 137.388 149.672 136.812C149.672 136.239 150.087 135.768 150.596 135.768H181.46C181.968 135.768 182.384 136.237 182.384 136.812C182.384 137.388 181.969 137.857 181.46 137.857Z" fill="#9EC8FF"/>
<path d="M158.247 153.967H127.382C126.874 153.967 126.458 153.497 126.458 152.922C126.458 152.348 126.874 151.877 127.382 151.877H158.247C158.754 151.877 159.171 152.347 159.171 152.922C159.171 153.497 158.755 153.967 158.247 153.967Z" fill="#9EC8FF"/>
<path d="M163.932 153.966H160.739C160.566 153.966 160.424 153.806 160.424 153.61V152.236C160.424 152.04 160.566 151.88 160.739 151.88H163.932C164.106 151.88 164.248 152.04 164.248 152.236V153.61C164.248 153.806 164.106 153.966 163.932 153.966Z" fill="#9EC8FF"/>
<path d="M168.747 153.966H165.554C165.381 153.966 165.239 153.806 165.239 153.61V152.236C165.239 152.04 165.381 151.88 165.554 151.88H168.747C168.92 151.88 169.062 152.04 169.062 152.236V153.61C169.062 153.806 168.92 153.966 168.747 153.966Z" fill="#9EC8FF"/>
<path d="M181.758 142.406H130.647C130.302 142.406 130.021 142.087 130.021 141.698C130.021 141.308 130.303 140.99 130.647 140.99H181.758C182.104 140.99 182.384 141.309 182.384 141.698C182.384 142.089 182.102 142.406 181.758 142.406Z" fill="#9EC8FF"/>
<path d="M181.758 145.465H130.647C130.302 145.465 130.021 145.146 130.021 144.757C130.021 144.366 130.303 144.049 130.647 144.049H181.758C182.104 144.049 182.384 144.368 182.384 144.757C182.384 145.147 182.102 145.465 181.758 145.465Z" fill="#9EC8FF"/>
<path d="M335.954 136.256H309.596V118.883H329.419C331.972 121.77 333.403 123.388 335.954 126.273V136.256Z" fill="#FFB8B3"/>
<path d="M329.375 118.933L335.954 126.374V128.156H328.935V118.883L329.375 118.933Z" fill="#F39892"/>
<path d="M335.954 126.374H329.419V118.883L335.954 126.374Z" fill="#FFB8B3"/>
<path d="M324.315 125.402H312.569C312.312 125.402 312.103 125.165 312.103 124.875C312.103 124.585 312.312 124.349 312.569 124.349H324.315C324.572 124.349 324.781 124.585 324.781 124.875C324.781 125.165 324.572 125.402 324.315 125.402Z" fill="white"/>
<path d="M324.315 128.096H312.569C312.312 128.096 312.103 127.859 312.103 127.569C312.103 127.279 312.312 127.043 312.569 127.043H324.315C324.572 127.043 324.781 127.279 324.781 127.569C324.781 127.859 324.572 128.096 324.315 128.096Z" fill="white"/>
<path d="M324.315 130.931H312.569C312.312 130.931 312.103 130.694 312.103 130.404C312.103 130.114 312.312 129.878 312.569 129.878H324.315C324.572 129.878 324.781 130.114 324.781 130.404C324.781 130.694 324.572 130.931 324.315 130.931Z" fill="white"/>
<path d="M322.775 120.217C322.775 120.71 322.423 121.108 321.987 121.108C321.552 121.108 321.199 120.71 321.199 120.217C321.199 119.725 321.552 119.326 321.987 119.326C322.423 119.326 322.775 119.725 322.775 120.217Z" fill="#3E6BAB"/>
<path d="M218.786 142.158L202.338 138.565L206.17 116.138L222.618 119.731L218.786 142.158Z" fill="#FAE8B6"/>
<path d="M219.137 129.427L210.417 127.521C210.185 127.471 210.032 127.215 210.076 126.953C210.121 126.69 210.347 126.517 210.579 126.567L219.299 128.472C219.531 128.523 219.684 128.779 219.64 129.041C219.595 129.303 219.369 129.477 219.137 129.427Z" fill="#9EC8FF"/>
<path d="M218.716 131.892L209.996 129.987C209.764 129.937 209.611 129.681 209.655 129.419C209.699 129.156 209.926 128.983 210.158 129.033L218.877 130.938C219.109 130.988 219.263 131.244 219.218 131.507C219.174 131.769 218.948 131.943 218.716 131.892Z" fill="#9EC8FF"/>
<path d="M218.283 134.427L209.563 132.521C209.331 132.471 209.178 132.215 209.222 131.953C209.267 131.69 209.493 131.517 209.725 131.567L218.445 133.472C218.677 133.523 218.83 133.779 218.786 134.041C218.741 134.303 218.515 134.477 218.283 134.427Z" fill="#9EC8FF"/>
<path d="M213.233 119.145C213.159 119.584 212.782 119.87 212.394 119.786C212.006 119.702 211.752 119.276 211.827 118.837C211.901 118.398 212.278 118.111 212.666 118.195C213.054 118.28 213.308 118.706 213.233 119.145Z" fill="#3E6BAB"/>
<path d="M348.119 160.564L322.664 157.531L324.344 139.487L344.526 141.891C346.369 144.466 347.401 145.907 349.244 148.482L348.118 160.564H348.119Z" fill="#9EC8FF"/>
<path d="M343.579 149.489L348.188 150.039L347.357 158.953L323.801 156.148L325.219 140.923L344.167 143.18L343.579 149.489V149.489Z" fill="white"/>
<path d="M341.598 148.71L329.324 147.247C329.044 147.213 328.837 146.926 328.867 146.607C328.897 146.289 329.151 146.056 329.433 146.09L341.707 147.553C341.988 147.587 342.194 147.874 342.164 148.193C342.134 148.51 341.88 148.744 341.598 148.71Z" fill="#9EC8FF"/>
<path d="M341.313 151.768L329.04 150.305C328.759 150.271 328.553 149.985 328.583 149.666C328.613 149.348 328.866 149.115 329.148 149.149L341.422 150.612C341.703 150.646 341.909 150.932 341.879 151.252C341.849 151.569 341.595 151.802 341.313 151.768Z" fill="#9EC8FF"/>
<path d="M341.017 154.963L328.743 153.5C328.462 153.466 328.256 153.179 328.286 152.86C328.316 152.542 328.57 152.309 328.852 152.343L341.126 153.806C341.406 153.84 341.613 154.127 341.583 154.446C341.552 154.763 341.299 154.997 341.017 154.963V154.963Z" fill="#9EC8FF"/>
<path d="M334.658 143.654C334.658 144.146 334.305 144.545 333.87 144.545C333.434 144.545 333.082 144.146 333.082 143.654C333.082 143.161 333.434 142.763 333.87 142.763C334.305 142.763 334.658 143.161 334.658 143.654Z" fill="#3E6BAB"/>
<path d="M474.596 129.579C474.596 135.068 470.661 139.518 465.807 139.518C460.954 139.518 457.019 135.068 457.019 129.579C457.019 124.091 460.954 119.641 465.807 119.641C470.661 119.641 474.596 124.091 474.596 129.579Z" fill="#9CD499"/>
<path d="M464.935 132.981C464.929 132.981 464.925 132.981 464.919 132.981C464.802 132.977 464.69 132.917 464.613 132.816L462.226 129.748C462.07 129.547 462.087 129.239 462.265 129.063C462.443 128.886 462.715 128.905 462.871 129.106L464.958 131.789L469.734 126.503C469.903 126.315 470.175 126.318 470.342 126.511C470.508 126.702 470.505 127.01 470.336 127.198L465.236 132.842C465.156 132.931 465.047 132.981 464.935 132.981V132.981Z" fill="white"/>
<path d="M67.4766 219.168V198.696C67.4766 197.227 68.5395 196.026 69.8373 196.026H120.505C121.804 196.026 122.866 197.228 122.866 198.696V219.168C122.866 220.637 121.803 221.838 120.505 221.838H69.8373C68.538 221.838 67.4766 220.636 67.4766 219.168Z" fill="#9EC8FF"/>
<path d="M116.176 217.944V232.185L101.665 215.774C111.142 217.221 115.98 217.944 116.176 217.944Z" fill="#9EC8FF"/>
<path d="M70.3416 217.015V200.849C70.3416 199.603 71.2426 198.586 72.3428 198.586H117.999C119.101 198.586 120.001 199.605 120.001 200.849V217.015C120.001 218.261 119.1 219.278 117.999 219.278H72.3428C71.2412 219.278 70.3416 218.259 70.3416 217.015V217.015Z" fill="white"/>
<path d="M91.9738 202.589C91.9738 201.976 92.4164 201.476 92.9579 201.476H115.389C115.931 201.476 116.374 201.976 116.374 202.589C116.374 203.201 115.931 203.701 115.389 203.701H92.9579C92.4164 203.701 91.9738 203.201 91.9738 202.589Z" fill="#9EC8FF"/>
<path d="M73.675 207.337V207.324C73.675 206.984 73.9214 206.705 74.2223 206.705H115.826C116.127 206.705 116.374 206.984 116.374 207.324V207.337C116.374 207.677 116.127 207.956 115.826 207.956H74.2223C73.9214 207.956 73.675 207.677 73.675 207.337V207.337Z" fill="#9EC8FF"/>
<path d="M73.675 209.759V209.746C73.675 209.406 73.9214 209.127 74.2223 209.127H115.826C116.127 209.127 116.374 209.406 116.374 209.746V209.759C116.374 210.099 116.127 210.378 115.826 210.378H74.2223C73.9214 210.378 73.675 210.099 73.675 209.759V209.759Z" fill="#9EC8FF"/>
<path d="M443.561 202.655V200.181C443.561 199.547 444.015 199.032 444.576 199.032H447.232C447.792 199.032 448.248 199.546 448.248 200.181V202.655C448.248 203.288 447.794 203.803 447.232 203.803H444.576C444.016 203.803 443.561 203.29 443.561 202.655Z" fill="#9EC8FF"/>
<path d="M435.04 202.655V200.181C435.04 199.547 435.494 199.032 436.056 199.032H438.712C439.272 199.032 439.728 199.546 439.728 200.181V202.655C439.728 203.288 439.273 203.803 438.712 203.803H436.056C435.496 203.803 435.04 203.29 435.04 202.655Z" fill="#9EC8FF"/>
<path d="M426.52 202.655V200.181C426.52 199.547 426.974 199.032 427.535 199.032H430.191C430.751 199.032 431.207 199.546 431.207 200.181V202.655C431.207 203.288 430.753 203.803 430.191 203.803H427.535C426.975 203.803 426.52 203.29 426.52 202.655Z" fill="#9EC8FF"/>
<defs>
<filter id="filter0_d_5818_74278" x="486" y="0.73" width="184.54" height="184.54" filterUnits="userSpaceOnUse" color-interpolation-filters="sRGB">
<feFlood flood-opacity="0" result="BackgroundImageFix"/>
<feColorMatrix in="SourceAlpha" type="matrix" values="0 0 0 0 0 0 0 0 0 0 0 0 0 0 0 0 0 0 127 0" result="hardAlpha"/>
<feOffset dx="56.27" dy="50"/>
<feGaussianBlur stdDeviation="28.135"/>
<feColorMatrix type="matrix" values="0 0 0 0 0.698039 0 0 0 0 0.74902 0 0 0 0 0.827451 0 0 0 0.6 0"/>
<feBlend mode="normal" in2="BackgroundImageFix" result="effect1_dropShadow_5818_74278"/>
<feBlend mode="normal" in="SourceGraphic" in2="effect1_dropShadow_5818_74278" result="shape"/>
</filter>
<radialGradient id="paint0_radial_5818_74278" cx="0" cy="0" r="1" gradientUnits="userSpaceOnUse" gradientTransform="translate(537.766 15.146) rotate(103.87) scale(65.7717)">
<stop stop-color="#62D0FF"/>
<stop offset="1" stop-color="#3071AD"/>
</radialGradient>
</defs>
</svg>
