<svg fill="none" height="470" viewBox="0 0 459 470" width="459" xmlns="http://www.w3.org/2000/svg" xmlns:xlink="http://www.w3.org/1999/xlink"><linearGradient id="a"><stop offset="0" stop-color="#9cb6ff"/><stop offset="1" stop-color="#86acfa"/></linearGradient><linearGradient id="b" gradientUnits="userSpaceOnUse" x1="145.422" x2="388.715" xlink:href="#a" y1="67.9601" y2="141.776"/><linearGradient id="c" gradientUnits="userSpaceOnUse" x1="398.332" x2="422.762" xlink:href="#a" y1="305.542" y2="311.573"/><linearGradient id="d" gradientUnits="userSpaceOnUse" x1="307.406" x2="338.275" xlink:href="#a" y1="349.605" y2="366.376"/><linearGradient id="e" gradientUnits="userSpaceOnUse" x1="307.543" x2="345.239" xlink:href="#a" y1="324.479" y2="336.673"/><path d="m428.068 407.57c-1.614 0-2.918-1.304-2.918-2.918v-328.8788l-103.312 115.8248c-1.073 1.206-2.918 1.313-4.115.24-1.206-1.073-1.303-2.918-.239-4.115l113.502-127.2472v344.1852c0 1.605-1.304 2.909-2.918 2.909z" fill="#7fcdff"/><path d="m112.943 418.343-12.797-6.624c-8.1319-12.974-14.4459-28.209-14.9957-44.677 0 0 12.0516-.763 25.7087 1.321l8.611 10.234.691-8.363c6.687 1.712 13.205 4.266 18.366 8.088l.931 16.725 5.33-10.473c1.011 1.41 1.871 2.944 2.563 4.585 10.641 25.362 18.516 58.174 18.516 58.174l-26.462 6.828s-16.388-11.874-31.162-30.887z" fill="#d64543"/><path d="m135.875 443.405c7.237 1.516 11.821.355 13.444-.195-10.987-8.584-21.62-20.317-30.302-31.118-.39.124-.78.231-1.17.328-7.219 1.862-13.648.275-18.5169-2.004-.2749-.452-.5497-.905-.8246-1.366 5.0105 2.598 12.0075 4.629 19.9265 2.315-2.536-3.175-4.984-6.367-7.396-9.613-6.252.78-13.1691-1.339-18.1352-3.405-.1773-.391-.3547-.79-.532-1.189 4.8064 2.075 11.8212 4.408 18.0732 3.796-12.2292-16.575-20.7691-30.311-20.8578-30.462l-2.3499-2.971 2.6958 1.792c.1596.266 7.1387 11.386 16.9379 25.176 1.419-7.378-4.416-23.013-6.066-27.216.32.027.639.044.958.071 1.933 4.939 7.786 20.884 5.773 28.076 6.217 8.7 13.754 18.516 21.94 27.633 1.356-3.929-7.928-24.644-3.938-34.798 2.43-6.19 1.366-12.398.124-16.379.337.115.674.23 1.002.354 1.198 4.133 2.076 10.234-.328 16.344-4.017 10.225 6.039 31.481 3.76 35.171 1.605 1.773 3.228 3.511 4.869 5.214 1.188-21.097.922-21.762-1.916-29.273-1.631-4.319-3.174-8.398-.966-12.132 1.915-3.237 1.454-8.558.629-12.752.337.168.665.337.994.514.771 4.213 1.081 9.365-.878 12.673-3.521 5.941 3.574 13.098 3.6 22.019.027 8.079-.55 18.135-.647 19.784 3.37 3.441 6.81 6.696 10.278 9.658.825-1.153 4.115-6.598.532-15.324-2.918-7.086 1.57-18.224 4.789-24.715.141.381.283.762.425 1.153-3.104 6.455-7.059 16.787-4.407 23.234 3.831 9.32.222 15.013-.665 16.21 4.185 3.512 8.415 6.589 12.619 9.028l-1.179.302c-.745-.444-1.481-.905-2.226-1.384-3.007 1.862-8.203 2.625-14.189.204-3.627-1.472-6.97-.922-9.587.169-.239-.204-.478-.408-.718-.621 2.838-1.268 6.554-1.987 10.624-.337 6.802 2.749 11.502.869 13.045.062-1.676-1.109-3.343-2.314-5.011-3.583-4.035 1.703-10.003 1.348-14.419.417-2.847-.594-5.551-.399-7.919.151-.248-.231-.497-.461-.754-.692 2.616-.7 5.649-.984 8.859-.319z" fill="#cfe6f9"/><path d="m142.535 389.017 2.262-4.434c1.011 1.41 1.871 2.944 2.562 4.585 10.642 25.362 18.517 58.174 18.517 58.174s-16.521-21.274-23.341-58.325z" fill="#195f6d" opacity=".34"/><path d="m247.435 404.182c-1.118.283-17.187-3.264-39.552 10.207-22.374 13.461-36.554 31.552-36.554 31.552s29.078-1.809 53.359-12.504c24.263-10.704 22.747-29.255 22.747-29.255z" fill="#174fa2"/><path d="m173.706 443.218c13.089-15.013 34.523-32.687 55.115-37.644-1.18 13.24-4.692 23.562-14.828 31.96-17.106 5.711-34.195 7.768-40.323 8.371-.008-.833 0-1.729.036-2.687z" fill="#1e266d"/><path d="m146.304 339.622 13.213 8.239-9.986-21.753c2.129-7.352 4.816-14.358 8.035-20.654 8.886-17.381 26.027-44.216 26.027-44.216 7.982 9.232 14.207 18.587 18.969 27.925l-8.584 14.899 13.169-4.833c29.779 74.101-26.844 144.398-26.844 144.398l-14.41 3.715s-22.578-60.746-22.294-81.24c.097-8.61 1.02-17.629 2.705-26.48z" fill="#cfe6f9"/><path d="m144.14 373.409c-.177-1.277-.319-2.491-.417-3.635 5.188 7.555 18.41 25.566 28.511 28.572.08-.913.168-1.826.266-2.74-9.533-.966-22.117-20.68-28.857-32.501.036-1.073.089-2.155.151-3.246 7.21 12.992 20.246 33.264 28.892 34.044.825-7.129 2.111-14.197 4.062-20.618 1.596-5.276 2.82-12.273 3.742-20.192-8.992-3.787-21.017-26.613-26.897-38.842.284-.701.568-1.401.86-2.093 5.445 11.422 17.719 34.958 26.25 39.135.638-5.827 1.126-12.105 1.49-18.526-8.842-7.892-16.176-27.553-19.342-37.086.382-.683.772-1.365 1.153-2.048 2.714 8.327 9.844 28.28 18.304 36.873 1.694-32.182 1.082-66.962 1.064-67.503l.328-1.313.319 1.259c.018.603 2.005 44.341-.745 79.192 13.489.922 24.84-11.307 30.666-19.12.142.79.275 1.579.39 2.368-1.481 1.907-3.237 3.991-5.25 6.066-5.959 6.145-12.175 10.083-18.312 11.661-2.563.665-5.117.914-7.635.736-.79 9.436-1.898 18.127-3.441 24.99 12.184 1.002 27.34-7.52 35.596-12.92-.062.745-.133 1.49-.213 2.226-6.012 3.866-14.96 8.868-23.988 11.2-3.999 1.029-8.017 1.534-11.794 1.188-.284 1.144-.577 2.226-.887 3.246-8.389 27.642-4.408 67.663-4.017 71.37l-1.685.434c-.115-1.055-2.457-22.693-.612-45.484-9.737-2.643-21.753-17.966-27.952-26.693z" fill="#cfd5f1"/><path d="m180.321 443.618-13.426 3.467s-4.274-29.504 17.461-55.478l4.505 4.194-1.454-7.626c1.295-1.375 2.669-2.74 4.123-4.079l6.678 8.646-1.445-13.089c4.788-3.743 10.322-7.272 16.716-10.465-7.707 42.177-32.235 73.268-33.158 74.43z" fill="#6670a4" opacity=".44"/><path d="m109.555 408.181 6.003 11.679 1.091-9.772c4.097 1.268 8.194 2.847 12.158 4.806l2.59 5.915 2.731-2.997c10.855 6.571 20.21 16.459 25.052 31.26l-22.276 5.746s-51.3284-.887-65.597-49.279c0 0 18.1351-1.996 38.248 2.642z" fill="#469aa8"/><path d="m150.613 451.279-3.724.958c-29.859-7.414-70.1816-42.638-71.9552-44.19l-2.5363-2.323 3.6802 1.029c.4434.408 44.9163 39.249 74.5353 44.526z" fill="#cfe6f9"/><path d="m186.307 398.568 3.858 3.591-1.242-6.535c1.109-1.18 2.288-2.342 3.539-3.494l5.72 7.404-1.242-11.209c6.491-5.072 14.579-9.693 24.662-13.435 0 0 5.578 30.816-4.363 47.577s-31.419 19.864-31.419 19.864l-14.482 3.734c0 .009-3.653-25.247 14.969-47.497z" fill="#cfe6f9"/><path d="m184.206 442.757-2.19.568c26.258-30.16 37.715-65.898 37.83-66.262l1.428-1.419-.186 1.809c-.115.355-11.298 35.233-36.882 65.304z" fill="#f3dda3"/><path d="m170.886 445.817s11.892-33.654 28.076-48.109 48.925-14.109 48.925-14.109-3.042 6.891-8.238 16.042l-12.167 1.739 8.54 4.389c-8.54 13.896-20.973 30.284-34.869 36.359-25.93 11.324-30.267 3.689-30.267 3.689z" fill="#d64543"/><path d="m170.886 445.819c0-.009.151-.435.639-1.738 4.159-4.967 17.718-20.849 30.71-33.575.39-3.813-2.475-8.274-4.896-11.28.355-.355.719-.7 1.082-1.029 2.279 2.82 4.984 6.944 5.286 10.882.603-.586 5.019-4.541 6.633-5.8.541-3.902-2.368-7.609-5.011-10.119.453-.257.905-.514 1.366-.753 2.492 2.438 5.09 5.879 5.179 9.701 1.579-1.179 3.184-2.279 4.771-3.307 2.359-3.468 1.525-7.689.399-10.642.479-.151.958-.293 1.437-.435.993 2.634 1.756 6.199.558 9.578 1.428-.869 2.847-1.676 4.23-2.43 2.625-4.922 2.776-7.618 2.528-8.948.488-.097.975-.195 1.454-.292.284 1.498.115 4.026-1.756 8.061 9.986-5.135 18.056-7.928 18.189-7.973l3.086-.878-2.953 2.599c-.204.053-19.173 5.64-34.843 18.818 6.802-.94 14.899 3.609 19.572 6.234.78.434 1.614.904 2.27 1.241-.284.408-.559.816-.851 1.224-.568-.293-1.268-.683-2.146-1.179-5.197-2.918-14.81-8.319-21.39-5.277-.798.736-4.7 4.541-5.631 5.481 6.713-.674 18.171 4.85 23.961 7.936-.31.391-.62.781-.94 1.162-7.653-4.053-20.476-9.728-25.105-6.988-13.932 14.26-27.828 29.726-27.828 29.726z" fill="#de9c8c"/><path d="m109.653 280.251c-14.7919 0-26.8346-12.034-26.8346-26.826s12.0339-26.835 26.8346-26.835c14.792 0 26.835 12.034 26.835 26.835 0 14.792-12.043 26.826-26.835 26.826z" fill="#fff"/><path d="m428.068 94.9525c-14.792 0-26.834-12.0339-26.834-26.8347 0-14.7918 12.033-26.8346 26.834-26.8346 14.792 0 26.835 12.0339 26.835 26.8346 0 14.7919-12.034 26.8347-26.835 26.8347z" fill="#fff"/><path d="m201.996 93.7365c-.195 0-.39-.0709-.568-.2217-.86-.7449-1.747-1.4809-2.634-2.1992-.496-.3991-.656-1.2593-.354-1.9244.301-.6651.94-.878 1.436-.4789.914.736 1.818 1.4898 2.696 2.2525.488.4168.63 1.2859.311 1.9421-.204.3991-.541.6296-.887.6296z" fill="#99d7ff"/><path d="m62.839 297.986c-.1685 0-.337-.054-.4966-.169-2.2525-1.632-4.0794-2.98-5.4539-4.026-.5055-.381-.6828-1.242-.399-1.915.2838-.674.9222-.914 1.4277-.533 1.3568 1.029 3.1836 2.377 5.4184 3.991.5054.373.7005 1.224.4256 1.907-.1951.479-.5497.745-.9222.745zm-12.8764-10.669c-.2128 0-.4346-.088-.6208-.275-1.6849-1.676-3.3343-3.405-4.9128-5.143-.4434-.497-.5144-1.375-.1419-1.978.3636-.603 1.0287-.682 1.4721-.195 1.5519 1.712 3.1747 3.415 4.833 5.064.4612.461.5587 1.339.2217 1.969-.2128.363-.532.558-.8513.558zm-11.5461-13.053c-.2572 0-.5232-.133-.7272-.39-1.5075-1.943-2.9797-3.947-4.372-5.978-.3901-.567-.3724-1.454.0533-1.986.4257-.523 1.0818-.497 1.4809.071 1.3657 1.986 2.8111 3.955 4.2921 5.853.4168.541.4345 1.428.0266 1.986-.2039.302-.4788.444-.7537.444zm-10.1096-15.049c-.3104 0-.6207-.187-.8247-.55-1.277-2.217-2.5096-4.505-3.6625-6.802-.3192-.647-.1951-1.516.2838-1.951.4788-.434 1.1262-.257 1.4543.381 1.1263 2.244 2.3235 4.479 3.5739 6.651.3547.612.2659 1.499-.1863 1.969-.1863.204-.4079.302-.6385.302zm-8.2207-16.992c-.3724 0-.7359-.266-.9222-.744-.9843-2.466-1.9067-5.002-2.7491-7.547-.2395-.71 0-1.543.5321-1.853.5232-.32 1.1439 0 1.3834.709.8247 2.483 1.7293 4.957 2.687 7.36.2749.683.0798 1.535-.4256 1.898-.1685.124-.3371.177-.5056.177zm-5.906-18.64c-.4434 0-.8513-.381-.9932-.976-.6385-2.651-1.2061-5.374-1.6938-8.087-.1331-.754.2128-1.517.7715-1.694.5675-.177 1.1262.284 1.268 1.038.4789 2.642 1.0288 5.303 1.6496 7.892.1774.736-.1242 1.534-.674 1.765-.1153.035-.2217.062-.3281.062zm-3.3079-19.767c-.5143 0-.96651-.514-1.03745-1.224-.06208-.638-.12422-1.277-.17743-1.915-.18622-2.128-.32809-4.301-.41677-6.447-.03547-.772.40792-1.437.98435-1.49.5675-.044 1.073.541 1.1085 1.321.0975 2.093.2306 4.213.408 6.297.0532.62.1064 1.25.1684 1.862.071.771-.3281 1.472-.9045 1.578-.0444.009-.0887.018-.1331.018zm-.6738-20.245c-.0178 0-.0267 0-.0444 0-.57644-.036-1.02871-.683-1.0021-1.464.07981-2.775.23945-5.587.46115-8.371.06208-.772.57635-1.33 1.15275-1.251.5764.08.9933.781.9312 1.552-.2217 2.714-.3725 5.472-.4523 8.177-.0266.762-.4876 1.357-1.0463 1.357zm1.8445-20.104c-.071 0-.1419-.009-.2128-.027-.5676-.16-.9312-.904-.8159-1.658.4168-2.714.9134-5.454 1.4721-8.15.1507-.745.7271-1.188 1.2858-.975.5587.203.8869.984.7272 1.729-.5409 2.643-1.0286 5.321-1.4366 7.972-.0975.648-.5409 1.109-1.0198 1.109zm4.23-19.457c-.1241 0-.2483-.026-.3725-.088-.5409-.275-.8158-1.091-.6029-1.809.736-2.599 1.543-5.197 2.4032-7.742.2394-.701.8601-1.02 1.3833-.701s.7539 1.153.5144 1.862c-.8424 2.483-1.6317 5.037-2.3589 7.574-.1507.558-.5498.904-.9666.904zm6.4471-18.321c-.1774 0-.3548-.062-.5144-.186-.5055-.382-.6739-1.242-.3901-1.916 1.0286-2.412 2.1282-4.815 3.2633-7.147.3193-.648.9666-.825 1.4455-.399.4789.425.6209 1.294.3016 1.942-1.1174 2.279-2.1905 4.638-3.2014 6.996-.1863.453-.5409.71-.9045.71zm8.4689-16.778c-.2306 0-.4611-.098-.6473-.302-.4523-.479-.5321-1.366-.1685-1.977 1.2947-2.182 2.6515-4.337 4.0438-6.394.3902-.5768 1.0553-.6211 1.481-.098.4256.523.4611 1.41.0709 1.987-1.3657 2.021-2.6959 4.123-3.9551 6.26-.2129.337-.5144.524-.8248.524zm10.2958-14.8277c-.2838 0-.5676-.1508-.7804-.4611-.3902-.5765-.3547-1.4633.071-1.9865 1.543-1.88 3.1658-3.6891 4.8153-5.3829.4611-.47 1.1174-.3547 1.4721.2661.3547.6207.266 1.4986-.1951 1.9686-1.6051 1.6495-3.1748 3.4054-4.6823 5.2322-.1951.2394-.4435.3636-.7006.3636zm146.9692-9.4977c-.159 0-.319-.0443-.47-.1507-1.8-1.206-3.671-2.3678-5.56-3.4674-.532-.3104-.771-1.1351-.541-1.8445.231-.7095.852-1.0376 1.375-.7273 1.915 1.1174 3.822 2.3057 5.658 3.5295.514.3458.727 1.1884.47 1.8801-.178.4966-.55.7803-.932.7803zm-134.8111-2.4919c-.3547 0-.7095-.2483-.9046-.6917-.2926-.6651-.1242-1.5252.3724-1.9243 1.7736-1.4011 3.636-2.7403 5.5249-3.9641.5232-.337 1.1439-.0443 1.4011.6474.2483.7006.0354 1.5431-.4878 1.8801-1.8357 1.1972-3.6447 2.4919-5.374 3.8576-.1684.1241-.3547.195-.532.195zm123.9481-4.2389c-.115 0-.23-.0266-.346-.0798-1.906-.9045-3.866-1.7736-5.826-2.5806-.55-.2306-.86-1.0109-.692-1.7559.169-.7449.754-1.1617 1.304-.9311 1.995.8158 3.982 1.6938 5.915 2.6161.55.2572.833 1.0642.638 1.7913-.159.5853-.567.94-.993.94zm-110.2737-4.3098c-.4257 0-.8336-.3548-.9843-.9312-.1951-.7272.0886-1.5341.6296-1.8002 1.9243-.9222 3.9197-1.7913 5.9505-2.5628.5587-.2129 1.135.2216 1.2947.9666.1596.7449-.1685 1.5252-.7183 1.7381-1.9864.7626-3.9374 1.6051-5.8175 2.5097-.1152.0532-.2306.0798-.3547.0798zm95.7837-1.4455c-.08 0-.169-.0089-.249-.0355-1.951-.6385-3.972-1.2415-5.994-1.7913-.568-.1596-.931-.8957-.816-1.6583.115-.7627.665-1.2505 1.233-1.0997 2.048.5586 4.097 1.1706 6.074 1.8179.559.1863.905.9401.772 1.6939-.116.6385-.55 1.073-1.02 1.073zm-81.2135-3.8665c-.4877 0-.9312-.4611-1.0287-1.1351-.1153-.7627.2572-1.4987.8248-1.6495 1.9953-.5232 4.0615-.9931 6.1543-1.3922.5676-.1064 1.0996.4257 1.1883 1.1883.0798.7715-.3193 1.481-.8868 1.5874-2.0574.3902-4.0881.8513-6.048 1.3656-.062.0266-.133.0355-.2039.0355zm66.3855-.0444c-.053 0-.106-.0087-.159-.0176-2.004-.4079-4.053-.7893-6.093-1.1263-.576-.0975-.984-.7892-.913-1.5607.071-.7716.594-1.3125 1.162-1.2238 2.066.337 4.132.7183 6.163 1.1351.568.1153.967.8335.878 1.6051-.08.6917-.523 1.1882-1.038 1.1882zm-15.013-2.3323c-.027 0-.053 0-.089 0-2.013-.2128-4.079-.4079-6.145-.5586-.577-.0444-1.02-.7005-.985-1.4809.036-.7716.515-1.348 1.1-1.3302 2.084.1507 4.168.337 6.199.5587.576.062 1.002.736.957 1.5163-.035.7361-.496 1.2947-1.037 1.2947zm-36.3855-.3192c-.541 0-1.0022-.5586-1.0465-1.2947-.0443-.7715.3813-1.4543.9577-1.5164 2.0042-.2128 4.0973-.3902 6.2073-.5144.568-.0443 1.065.5676 1.091 1.3391.027.7715-.425 1.4278-1.002 1.4632-2.093.1242-4.1591.2926-6.1366.5055-.0178.0177-.0443.0177-.0709.0177zm21.2835-.6828c-.009 0-.018 0-.027 0-2.004-.0621-3.964-.0887-5.826-.0887h-.337c-.577 0-1.047-.6296-1.047-1.4011s.47-1.4011 1.047-1.4011h.337c1.88 0 3.857.0266 5.87.0886.577.0178 1.038.6563 1.02 1.4367 0 .7626-.47 1.3656-1.037 1.3656z" fill="#99d7ff"/><path d="m200.364 469.583c110.658 0 200.364-6.889 200.364-15.386 0-8.498-89.706-15.386-200.364-15.386s-200.364 6.888-200.364 15.386c0 8.497 89.706 15.386 200.364 15.386z" fill="#cfe6f9"/><path d="m428.068 298.519c-14.792 0-26.834-12.034-26.834-26.835 0-14.792 12.033-26.834 26.834-26.834s26.835 12.034 26.835 26.834c0 14.801-12.034 26.835-26.835 26.835z" fill="#fff"/><path d="m428.068 295.256c13.013 0 23.563-10.549 23.563-23.562s-10.55-23.563-23.563-23.563-23.562 10.55-23.562 23.563 10.549 23.562 23.562 23.562z" fill="#99d7ff"/><path d="m428.202 256.573c-4.434 0-8.026 3.592-8.026 8.026s8.026 22.205 8.026 22.205 8.025-17.771 8.025-22.205c-.009-4.434-3.6-8.026-8.025-8.026zm-.133 10.012c-2.129 0-3.849-1.72-3.849-3.849 0-2.128 1.72-3.848 3.849-3.848 2.128 0 3.848 1.72 3.848 3.848 0 2.129-1.72 3.849-3.848 3.849z" fill="#fff"/><path d="m109.653 195.064c-14.7919 0-26.8346-12.034-26.8346-26.835s12.0339-26.834 26.8346-26.834c14.792 0 26.835 12.033 26.835 26.834s-12.043 26.835-26.835 26.835z" fill="#fff"/><path d="m109.653 192.405c13.013 0 23.563-10.55 23.563-23.563s-10.55-23.562-23.563-23.562c-13.0128 0-23.5619 10.549-23.5619 23.562s10.5491 23.563 23.5619 23.563z" fill="#99d7ff"/><path d="m96.4748 157.039c1.0376 2.253 6.5712 13.87 11.9632 16.521.221.107 5.737.852 5.968.958 6.03 2.864 6.429 2.767 6.429 3.29 0 .435.187 1.082-.399 1.259-1.055.32-4.54.993-14.242.559-.204-.009-.381-.124-.479-.302-4.478-8.726-9.4086-11.767-9.4086-9.834 0 10.038.2394 10.278-.5587 10.278-.3991-.062-1.3834.239-1.4455-.515-.2128-2.509-1.1706-13.364-2.1283-14.321-1.0553-1.056-2.0219-7.281 3.7069-8.212.2394-.044.4876.089.594.319z" fill="#fff"/><path d="m101.077 174.065c.505 4.851.275 5.17.993 5.17.381-.062 1.454.249 1.454-.558v-.887c-.745-1.277-1.578-2.563-2.447-3.725z" fill="#fff"/><path d="m121.474 173.95c-5.959-.914-5.667-.843-5.809-.914-5.4-2.651-10.925-14.268-11.963-16.521-.106-.23-.354-.363-.603-.319-2.403.39-3.6267 1.72-4.1588 3.21 1.6498 3.237 3.6718 6.616 5.7198 9.188 1.499.674 2.997 2.199 4.319 3.893 7.334 1.117 4.132.15 11.457 3.6.887.08 1.588.825 1.588 1.738-.027.577.071.887-.133 1.392 3.502-.115 5.116-.461 5.773-.656.594-.177.408-.869.399-1.259-.009-.621-6.438-3.326-6.589-3.352z" fill="#fff"/><path d="m428.068 91.681c13.013 0 23.562-10.5492 23.562-23.5623s-10.549-23.5623-23.562-23.5623-23.562 10.5492-23.562 23.5623 10.549 23.5623 23.562 23.5623z" fill="#99d7ff"/><path d="m109.653 276.507c13.013 0 23.562-10.549 23.562-23.562s-10.549-23.563-23.562-23.563c-13.0134 0-23.5625 10.55-23.5625 23.563s10.5491 23.562 23.5625 23.562z" fill="#99d7ff"/><path d="m116.091 251.048-5.019-6.021c-1.224-1.463-3.397-1.667-4.86-.444l-15.9089 13.258 9.4356 11.325 15.9093-13.258c1.463-1.224 1.658-3.396.443-4.86zm-6.402.231c-.683-.825-.577-2.049.248-2.732.825-.682 2.048-.576 2.731.249s.577 2.048-.248 2.731c-.825.692-2.049.577-2.731-.248z" fill="#fff"/><path d="m111.923 248.929c.08-.018 7.627-1.473 10.447-3.823 2.439-2.03 2.616-6.127-1.942-5.64-3.565.382-6.545 5.773-7.662 8.07-.373.772-1.534.204-1.162-.567 1.508-3.095 4.629-8.363 8.691-8.797 5.693-.603 6.482 4.939 2.908 7.928-3.077 2.562-10.712 4.035-11.031 4.097-.852.159-1.091-1.109-.249-1.268z" fill="#fff"/><path d="m428.068 195.677c-14.792 0-26.834-12.034-26.834-26.834 0-14.792 12.033-26.835 26.834-26.835 14.792 0 26.835 12.034 26.835 26.835 0 14.792-12.034 26.834-26.835 26.834z" fill="#fff"/><path d="m428.068 192.403c13.013 0 23.562-10.549 23.562-23.562s-10.549-23.562-23.562-23.562-23.562 10.549-23.562 23.562 10.549 23.562 23.562 23.562z" fill="#99d7ff"/><path d="m332.719 126.709h-123.372c-16.707 0-30.257 13.542-30.257 30.258v259.381c0 16.707 13.541 30.257 30.257 30.257h123.372c16.707 0 30.249-13.541 30.249-30.257v-259.381c0-16.716-13.542-30.258-30.249-30.258z" fill="#331579"/><path d="m209.347 438.403c-12.158 0-22.055-9.72-22.055-21.656v-254.698c0-11.945 9.897-21.656 22.055-21.656h123.372c12.158 0 22.055 9.719 22.055 21.656v254.698c0 11.945-9.897 21.656-22.055 21.656z" fill="url(#b)"/><path d="m328.914 138.336h-117.128c-2.643 0-4.78-2.137-4.78-4.78 0-2.642 2.137-4.78 4.78-4.78h117.128c2.643 0 4.78 2.138 4.78 4.78 0 2.643-2.137 4.78-4.78 4.78z" fill="#1e266d"/><path d="m326.441 137.528c2.145 0 3.884-1.739 3.884-3.884s-1.739-3.884-3.884-3.884-3.884 1.739-3.884 3.884 1.739 3.884 3.884 3.884z" fill="#331579"/><path d="m309.92 135.311h-68.763c-.922 0-1.667-.744-1.667-1.667 0-.922.745-1.667 1.667-1.667h68.763c.922 0 1.667.745 1.667 1.667 0 .914-.745 1.667-1.667 1.667z" fill="#1e266d"/><path d="m341.898 167.706h-141.534v207.964h141.534z" fill="#fff"/><g fill="#cfe6f9"><path d="m333.695 176.583h-70.341v85.027h70.341z"/><path d="m333.695 273.99h-70.341v85.026h70.341z"/><path d="m255.16 182.391h-44.739v8.54h44.739z"/><path d="m255.16 199.808h-44.739v8.54h44.739z"/><path d="m255.16 217.225h-44.739v8.54h44.739z"/><path d="m255.16 276.294h-44.739v8.54h44.739z"/><path d="m255.16 293.712h-44.739v8.54h44.739z"/><path d="m255.16 311.129h-44.739v8.54h44.739z"/></g><path d="m257.678 389.931c1.391 0 2.518-1.128 2.518-2.519s-1.127-2.518-2.518-2.518-2.519 1.127-2.519 2.518 1.128 2.519 2.519 2.519z" fill="#331579"/><path d="m267.069 389.931c1.391 0 2.518-1.128 2.518-2.519s-1.127-2.518-2.518-2.518-2.519 1.127-2.519 2.518 1.128 2.519 2.519 2.519z" fill="#331579"/><path d="m276.46 389.931c1.391 0 2.519-1.128 2.519-2.519s-1.128-2.518-2.519-2.518-2.518 1.127-2.518 2.518 1.127 2.519 2.518 2.519z" fill="#331579"/><path d="m329.73 165.072c1.279 0 2.315-1.036 2.315-2.314 0-1.279-1.036-2.315-2.315-2.315-1.278 0-2.314 1.036-2.314 2.315 0 1.278 1.036 2.314 2.314 2.314z" fill="#331579"/><path d="m329.731 164.008c.69 0 1.25-.56 1.25-1.25 0-.691-.56-1.25-1.25-1.25-.691 0-1.251.559-1.251 1.25 0 .69.56 1.25 1.251 1.25z" fill="#1e266d"/><path d="m319.665 165.072c1.279 0 2.315-1.036 2.315-2.314 0-1.279-1.036-2.315-2.315-2.315-1.278 0-2.314 1.036-2.314 2.315 0 1.278 1.036 2.314 2.314 2.314z" fill="#331579"/><path d="m319.666 164.008c.69 0 1.25-.56 1.25-1.25 0-.691-.56-1.25-1.25-1.25-.691 0-1.251.559-1.251 1.25 0 .69.56 1.25 1.251 1.25z" fill="#1e266d"/><path d="m318.229 156.63-4.319-7.458c-.204-.355-.186-.772.044-1.118.231-.346.648-.55 1.109-.55h17.151c.239 0 .434.169.434.382 0 .212-.195.381-.434.381h-17.151c-.213 0-.328.124-.364.177-.035.053-.115.195-.018.364l4.319 7.458c.071.124.213.204.381.204h11.219l2.837-9.977c.337-1.17 1.419-1.995 2.634-1.995h3.166c.239 0 .434.195.434.435 0 .239-.195.434-.434.434h-3.166c-.833 0-1.57.559-1.8 1.357l-3.716 13.054h-12.176c-.239 0-.434-.195-.434-.435 0-.239.195-.434.434-.434h11.52l.479-1.676h-10.997c-.487.026-.931-.213-1.152-.603z" fill="#331579"/><path d="m296.183 162.757c4.643 0 8.407-3.764 8.407-8.407s-3.764-8.407-8.407-8.407-8.407 3.764-8.407 8.407 3.764 8.407 8.407 8.407z" fill="#d64543"/><path d="m294.419 151.974h-.905c.656-2.9 3.795-2.74 4.798-1.108.576.94.461 2.181-.807 2.926 1.463.594 2.092 2.261 1.223 3.76-1.152 1.978-4.895 2.199-5.507-1.162h.861c.922 3.459 5.409 1.197 3.884-1.161-.506-.79-1.339-.914-2.297-.958v-.807c1.002 0 2.057-.479 2.057-1.481 0-1.251-1.667-1.827-2.607-1.1-.275.213-.505.577-.7 1.091z" fill="#fff"/><path d="m341.897 395.819h-106.203v4.78h106.203z" fill="#cfe6f9"/><path d="m341.897 406.488h-106.203v4.78h106.203z" fill="#cfe6f9"/><path d="m109.653 137.308c-17.0793 0-30.9312 13.851-30.9312 30.931s13.8519 30.932 30.9312 30.932c17.08 0 30.932-13.852 30.932-30.932s-13.852-30.931-30.932-30.931zm0 57.757c-14.7914 0-26.8342-12.034-26.8342-26.835 0-14.8 12.0339-26.834 26.8342-26.834 14.792 0 26.835 12.034 26.835 26.834 0 14.801-12.043 26.835-26.835 26.835z" fill="#7fcdff"/><path d="m428.069 137.909c-17.08 0-30.932 13.852-30.932 30.932 0 17.079 13.852 30.931 30.932 30.931 17.079 0 30.931-13.852 30.931-30.931 0-17.08-13.852-30.932-30.931-30.932zm0 57.766c-14.792 0-26.835-12.034-26.835-26.834 0-14.792 12.034-26.835 26.835-26.835 14.791 0 26.834 12.034 26.834 26.835 0 14.791-12.034 26.834-26.834 26.834z" fill="#7fcdff"/><path d="m428.069 37.1865c-17.08 0-30.932 13.8519-30.932 30.9317s13.852 30.9316 30.932 30.9316c17.079 0 30.931-13.8518 30.931-30.9316s-13.852-30.9317-30.931-30.9317zm0 57.7663c-14.792 0-26.835-12.0339-26.835-26.8346 0-14.7919 12.034-26.8347 26.835-26.8347 14.791 0 26.834 12.034 26.834 26.8347 0 14.7918-12.034 26.8346-26.834 26.8346z" fill="#7fcdff"/><path d="m428.069 240.76c-17.08 0-30.932 13.852-30.932 30.932s13.852 30.932 30.932 30.932c17.079 0 30.931-13.852 30.931-30.932s-13.852-30.932-30.931-30.932zm0 57.758c-14.792 0-26.835-12.034-26.835-26.835 0-14.792 12.034-26.835 26.835-26.835 14.8 0 26.834 12.034 26.834 26.835s-12.034 26.835-26.834 26.835z" fill="#7fcdff"/><path d="m109.653 222.494c-17.0793 0-30.9312 13.852-30.9312 30.931 0 17.08 13.8519 30.932 30.9312 30.932 17.08 0 30.932-13.843 30.932-30.932 0-17.088-13.852-30.931-30.932-30.931zm0 57.757c-14.7914 0-26.8342-12.034-26.8342-26.826s12.0339-26.834 26.8342-26.834c14.792 0 26.835 12.034 26.835 26.834 0 14.792-12.043 26.826-26.835 26.826z" fill="#7fcdff"/><path d="m214.659 200.429c-.257 0-.514-.035-.771-.106l-75.68-20.698c-1.596-.435-2.554-2.119-2.119-3.76.425-1.641 2.066-2.616 3.671-2.182l75.68 20.698c1.596.435 2.554 2.12 2.119 3.76-.364 1.375-1.579 2.288-2.9 2.288z" fill="#7fcdff"/><path d="m221.754 264.686h-.009l-82.774-.275c-1.659-.009-2.998-1.384-2.998-3.086.009-1.694 1.348-3.06 3.007-3.06h.009l82.774.275c1.658.009 2.997 1.384 2.997 3.086-.009 1.694-1.348 3.06-3.006 3.06z" fill="#7fcdff"/><path d="m112.482 314.612-30.8426-23.607-7.5555 9.729z" fill="#174fa2"/><path d="m81.6302 320.085.4434-18.268 30.4084 12.797z" fill="#99d7ff"/><path d="m81.5951 275.878 30.8869 38.735-30.8425-23.607z" fill="#99d7ff"/><path d="m74.0839 300.735 7.9901 1.081-.071 2.652z" fill="#174fa2"/><path d="m419.688 175.909c.168-.009 1.88.053 1.88.159 0-6.012 0-11.998 0-18.028 5.01-.816 9.994-1.623 15.031-2.439v.541c0 6.411-.044 12.823.027 19.226.035 2.678-1.792 3.848-3.618 4.176-3.503.63-5.578-2.403-3.548-4.584 1.464-1.57 3.095-1.836 5.117-1.393 0-4.07 0-8.132 0-12.237-3.653.665-7.289 1.33-10.969 2.004 0 .177-.027 9.879-.045 14.561-.009 2.519-1.702 4.044-4.079 4.159-5.489.284-4.523-5.959.204-6.145z" fill="#fff"/><path d="m211.67 193.92h-3.556l-14.144-60.923 5.152-.266z" fill="#1e266d"/><path d="m232.732.801059s-12.185-2.075099-16.45 6.340651c-4.257 8.41579-3.858 27.44649 1.942 32.37719 5.8 4.9306 4.833 17.5498 9.914 21.2832 5.082 3.7246 18.029 5.4094 18.029-3.3699 0 0-6.314 1.0731-7.91-4.3985 0 0 9.054 5.7819 13.479-.6917 4.426-6.4737-5.081-8.6197-5.081-8.6197s3.733 1.8357-1.836.869c-5.569-.9577-1.933-2.35-1.933-7.0677 0-4.709 3.441-1.3834 2.465-10.0386-.975-8.6552-8.469-26.985454-12.619-26.683941z" fill="#1e266d"/><path d="m203.317 186.569-1.179 8.248s-2.2 6.234-2.2 7.147c0 .603 1.038 5.525 3.787 6.35 1.41.425 7.192-5.88 7.963-8.735.896-3.335-1.294-13.746-1.294-13.746z" fill="#d64543"/><path d="m222.294 185.106s-1.57 12.096-1.57 13.932-.248 4.469.781 5.498 10.313-2.013 10.313-5.321-2.013-14.118-2.013-14.118h-7.511z" fill="#d64543"/><path d="m242.345 76.9254c0-8.265-.337-35.1351-.337-35.1351s-4.886-3.3079-14.668-3.3079c-3.148 0-6.039-.5409-9.169.0355-6.607 1.1972-12.611 4.0261-12.611 4.0261s2.031 25.3537-1.144 42.6552c-.558 3.0595 1.827 5.8617 4.94 5.8617h30.896c2.084 0 3.663-1.8711 3.326-3.9284-.719-4.3808-1.233-8.0611-1.233-10.2071z" fill="#ffda88"/><path d="m207.547 90.5288c-5.011 3.8842-6.084 5.2144-7.502 6.9703-11.13 13.6569-7.928 32.1999-2.865 31.5079 5.064-.692 15.51-2.51 23.607-.825 8.096 1.685 26.302 1.18 27.987-5.391 1.126-4.381-4.859-19.625-8.105-31.7213z" fill="#464a7f"/><path d="m224.511 107.607-3.787 5.942c-1.862 4.265-.771 14.464-.771 14.464l-16.636-.843-.79-15.678z" fill="#35385f"/><path d="m221.629 113.177s9.445-1.011 12.983 2.528c3.538 3.538-3.201 51.762-2.359 54.458.843 2.696 4.887 2.359 2.528 4.718s-2.953 3.964-1.854 5.054c1.1 1.1 1.517 2.696.506 3.707s-1.348 3.707-1.348 3.707h-11.298s-.843-6.908-.843-8.096c0-1.189-1.347-4.55-1.347-4.55s4.212-2.19 2.19-4.212 0-5.055 0-9.444c-.009-4.372-6.243-47.027.842-47.87z" fill="#6b6e99"/><path d="m193.012 113.043c3.264-3.263 8.549-3.671 13.772 0 5.224 3.672 3.37 12.779 3.37 21.044s-.541 28.662.319 31.189c.861 2.527 3.556 5.055 2.546 7.76-1.011 2.704-1.517 2.137.221 3.875s.79 3.033.79 4.886c0 1.854-.843 7.582-.843 7.582h-10.792s-.506-10.287-3.202-14.33c-2.696-4.044-.674-12.815-.674-14.163s-3.37-3.032-3.37-8.939c0-5.906-3.91-37.13-2.137-38.904z" fill="#6b6e99"/><path d="m206.092 42.5439s-1.924 3.3521-4.62 10.9431c-2.696 7.5911 1.836 37.6537 1.836 42.7085 0 5.0545 6.341 11.4135 6.341 11.4135l5.391-6.066-3.538-21.9219z" fill="#d64543"/><path d="m242.008 41.7983s7.778 1.9156 10.145 12.708c2.377 10.7924 4.301 36.0839 3.557 39.1168-.745 3.0329-20.299 12.4149-20.299 12.4149l-1.65-3.316s14.828-12.8146 14.828-14.6681c0-1.8534-6.35-25.061-6.35-25.061z" fill="#d64543"/><path d="m182.176 80.3037 4.38 31.1093 54.627-1.942-1.082-31.1893z" fill="#1e266d"/><path d="m211.378 200.385c-5.09 3.228-8.877 2.882-11.44 1.659.071.851 1.127 5.48 3.787 6.278 1.286.39 6.225-4.851 7.653-7.937z" fill="#d64543"/><path d="m231.828 199.223c0-.736-.098-1.836-.258-3.113-2.935 2.643-6.863 4.381-10.659.506-.115 1.144-.195 2.031-.195 2.43 0 1.835-.248 4.469.78 5.498 1.029 1.029 10.332-2.022 10.332-5.321z" fill="#d64543"/><path d="m232.883 25.9865s-.426.9312-1.073 2.3944c-2.226 5.0548-.807 12.8142-.701 14.1622.222 2.7047-1.223 8.2561-1.223 8.2561s-10.598-7.4137-11.192-12.2822l5.747-17.5941z" fill="#d64543"/><path d="m224.441 20.9229 8.442 5.0636s-.426.9312-1.073 2.3944c-2.971-.8159-7.502-2.3146-8.487-4.035z" fill="#d64543"/><path d="m226.48 6.57436 12.743 7.03234s2.643.0621 2.643-2.8821c0-2.94414-3.246-5.82622-6.554-7.51115-3.307-1.68492-7.449-2.41218-7.449-2.41218z" fill="#1e266d"/><path d="m231.109 3.38257s4.931.84243 6.252 3.18359c1.322 2.34115 1.685 7.93694 3.006 9.25824 1.322 1.3214 2.475 1.614 2.475 1.614s.346.6119-.976 1.277c-1.321.6651-.319 1.3834.497 1.3834.825 0 .133 1.5607-.497 1.7469 0 0 .807.2395.656 1.0199-.15.7804-.54.9312-.54.9312s-.036 1.0198.381 1.9864-.603 3.8132-7.05 2.554c0 0-9.587-2.2525-10.163-4.9572-.576-2.7048-4.833-12.5394-1.197-16.17526 3.645-3.63589 7.156-3.82217 7.156-3.82217z" fill="#d64543"/><path d="m226.666.651125s1.508-1.56084 7.512.150687c6.012 1.711528 7.449 8.513388 7.449 8.513388s-3.876-2.61613-6.305-2.61613c-2.439 0-7.946-.92221-8.833-1.81788s.177-4.230065.177-4.230065z" fill="#1e266d"/><path d="m227.455.242432c.843 0 6.155 5.906098 4.709 10.419968-1.445 4.5049-4.868 2.4919-7.032 3.698-2.164 1.206.417 6.7663.026 9.0188-.39 2.2524-6.464 15.1465-6.464 15.1465s-5.108-27.2515-2.013-32.30623c3.103-5.05477 10.774-5.977038 10.774-5.977038z" fill="#1e266d"/><path d="m236.368 20.1254c1.391 0 2.519-.5439 2.519-1.2149s-1.128-1.2149-2.519-1.2149-2.518.5439-2.518 1.2149 1.127 1.2149 2.518 1.2149z" fill="#d64543"/><path d="m239.907 13.6074s-.825 1.6671-4.204 1.5873z" fill="#1e266d"/><path d="m238.886 12.7908s-1.25-.7449-2.225-.7449c-.976 0-1.872.3902-1.872.7449 0 0 1.064-.5054 1.907-.3724.842.133 1.233.7803 1.57.7803s.62-.4079.62-.4079z" fill="#1e266d"/><path d="m224.884 18.8653s4.673 10.8278-4.709 22.9327c-9.391 12.1048-22.126 7.2009-23.837 2.3057-1.712-4.8951 4.283-6.5712 4.283-6.5712s-1.144 5.5425 1.907 5.2764c3.05-.266 4.097-.9843 2.873-6.9436-1.224-5.9682 3.201-3.5737 5.64-7.4845s0-6.8906 0-11.5019c0-4.6114 5.649-10.65942 5.649-10.65942z" fill="#1e266d"/><path d="m225.789 14.8923s-1.738-3.7867-2.554-2.9797c-.807.8159-1.215 6.4027 1.649 6.9436 2.865.5499.905-3.9639.905-3.9639z" fill="#d64543"/><path d="m225.664 15.354s-.895-2.0663-1.383-1.5786c-.488.4878.035 3.7336.692 3.7336.656.0088.851-1.1086.691-2.155z" fill="#d64543"/><path d="m238.612 16.0198c.22 0 .399-.3137.399-.7006 0-.387-.179-.7005-.399-.7005s-.399.3135-.399.7005c0 .3869.179.7006.399.7006z" fill="#1e266d"/><path d="m385.377 311.947s-10.943 3.476-12.557 6.065c-1.614 2.59-7.387 19.758-8.868 21.23-1.481 1.481-11.918 2.35-14.339 2.9l5.542 9.613s11.263.231 14.42 0c3.148-.23 15.802-39.808 15.802-39.808z" fill="#50284c"/><path d="m403.805 314.226s17.354 16.778 14.667 35.729c0 0-3.893-6.669-11.289-5.347 0 0-3.458-7.281-4.487-11.848-1.028-4.576 1.109-18.534 1.109-18.534z" fill="url(#c)"/><path d="m390.281 466.25h3.556l14.145-60.915-5.152-.275z" fill="#1e266d"/><path d="m447.924 467.35h-3.557l-14.144-60.914 5.152-.275z" fill="#1e266d"/><path d="m352.85 460.778h-3.548l-14.144-60.923 5.152-.266z" fill="#1e266d"/><path d="m305.663 464.911h3.556l14.144-60.914-5.152-.275z" fill="#1e266d"/><path d="m308.296 358.158v44.81c0 3.539 3.37 6.403 7.538 6.403h115.71c4.159 0 7.538-2.864 7.538-6.403v-44.81c0-3.538-3.37-6.403-7.538-6.403h-115.71c-4.168 0-7.538 2.865-7.538 6.403z" fill="#174fa2"/><path d="m315.834 351.755c4.16 0 7.538 2.865 7.538 6.403v28.005c0 3.539 3.37 6.403 7.538 6.403h45.821c4 0 7.272-2.652 7.52-5.995.018-38.939.018-25.504.018-28.413 0-3.538 3.37-6.403 7.538-6.403h39.746c4.159 0 7.538 2.865 7.538 6.403v44.81c0 3.539-3.37 6.403-7.538 6.403h-115.71c-4.159 0-7.537-2.864-7.537-6.403v-44.81c-.009-3.538 3.361-6.403 7.528-6.403z" fill="#cfe6f9"/><path d="m294.542 447.406s-1.117.833-1.348 2.793c-.168 1.428.532 3.663.532 5.534 0 4.443-1.028 5.808-1.028 5.808s-26.321-.168-26.321-1.365c0-1.198 9.737-8.035 13.675-8.035 3.937 0 7.006-9.054 7.006-9.054l6.668 2.909z" fill="#174fa2"/><path d="m295.003 464.068s-6.225-.106-10.588-.177-11.316.337-13.497.293c-2.182-.036-9.977-5.312-9.436-6.979.541-1.668 7.698-1.127 11.466-2.953 3.769-1.827 10.669-7.742 11.635-6.731.967 1.011 7.379 1.401 8.611 2.678 1.233 1.277 2.918 12.788 1.809 13.869z" fill="#3a758d"/><path d="m293.496 461.168c-17.337-3.033-12.469 2.341-29.389-2.696 4.106 1.747 10.198 3.512 14.597 2.723 2.394-.435 4.895-.39 7.361-.364 2.474.045 4.948.186 7.431.337z" fill="#acfcdd"/><path d="m281.879 456.298c-.248.284-.665.31-.94.062-.967-.86-3.113-2.581-5.197-3.76.408-.266.825-.55 1.242-.834 2.483 1.508 4.682 3.441 4.833 3.574.275.257.301.683.062.958z" fill="#acfcdd"/><path d="m282.916 453.54c-.328.178-.727.054-.904-.274-.018-.027-.914-1.677-2.448-3.273.39-.266.772-.523 1.135-.771 1.543 1.649 2.421 3.272 2.492 3.396.169.337.044.745-.275.922z" fill="#acfcdd"/><path d="m367.224 369.597-10.597-1.365s-37.813-19.962-44.127-12.646c-5.321 6.163-4.514 8.159 2.146 14.827 6.668 6.669 18.614 13.24 18.614 13.24l9.01 3.042-18.144-16.867 26.347 11.395h30.31z" fill="#1e266d"/><path d="m388.756 381.215s.204 6.217-3.423 9.844-48.198-.142-48.198-.142l-38.283 60.028-14.694-5.153s29.131-56.959 39.649-64.577c10.517-7.617 45.901-8.274 45.901-8.274z" fill="#3f50ae"/><path d="m295.854 447.621-.78-.435s.559-.993 1.534-2.713l.78.443c-.975 1.721-1.534 2.705-1.534 2.705z" fill="#9cabfc"/><path d="m300.492 439.45-.771-.443c.94-1.649 1.995-3.485 3.139-5.463l.772.444c-1.144 1.986-2.2 3.822-3.14 5.462zm6.297-10.889-.772-.453c1.029-1.764 2.093-3.582 3.184-5.427l.771.452c-1.099 1.854-2.164 3.663-3.183 5.428zm6.385-10.837-.763-.461c1.073-1.801 2.164-3.61 3.246-5.392l.762.461c-1.082 1.791-2.164 3.592-3.245 5.392zm6.535-10.739-.762-.47c1.144-1.845 2.27-3.627 3.352-5.33l.754.479c-1.082 1.694-2.209 3.476-3.344 5.321zm6.784-10.58-.745-.496c1.375-2.04 2.599-3.778 3.636-5.171l.71.533c-1.029 1.383-2.244 3.103-3.601 5.134zm47.905-7.298c-.815 0-1.693-.009-2.607-.036l.018-.895c2.536.062 4.709.035 6.234-.08l.071.887c-1.002.079-2.252.124-3.716.124zm-8.912-.302c-2.031-.115-4.141-.248-6.279-.39l.063-.887c2.137.142 4.247.275 6.269.39zm-12.548-.824-1.251-.089c-1.729-.124-3.414-.248-5.019-.355l.062-.887c1.605.116 3.29.231 5.019.355l1.251.089zm-12.54-.843c-3.236-.16-5.241-.177-6.198-.044l-.124-.887c1.046-.142 3.032-.133 6.367.035z" fill="#9cabfc"/><path d="m384.028 386.899-.407-.789c2.057-1.064 2.669-1.49 2.669-1.49l.514.727c-.026.009-.647.444-2.776 1.552z" fill="#9cabfc"/><path d="m339.193 379.175s4.159 6.687 4.159 7.432c0 .744 1.259 3.937 0 5.205-1.268 1.259-27.943-7.13-27.943-7.13s8.318-2.084 11.892-2.084c3.565 0 5.87-2.9 4.611-4.159-1.268-1.268 7.281.736 7.281.736z" fill="#095270"/><path d="m342.731 394.339s-1.969.886-10.074-2.537c-8.106-3.423-21.807-3.325-21.869-6.394-.062-3.068 9.941-3.786 15.83-2.367 5.888 1.419 13.186 3.636 16.006 6.34 2.82 2.705.107 4.958.107 4.958z" fill="#653870"/><path d="m310.797 385.409c-.514-3.769 14.18-6.43 28.502 1.028 5.915 3.193 5.693 6.27 3.441 7.902 5.782-6.563-17.834-11.085-23.057-11.307-2.403-.044-8.682 0-8.886 2.377z" fill="#cdfdeb"/><path d="m391.833 308.408s10.863 3.574 12.646 6.633c7.334 12.566 1.906 66.962-15.723 73.347-8.921 3.228-32.129-20.165-32.129-20.165s17.027-13.773 18.117-34.87c1.038-20.112 17.089-24.945 17.089-24.945z" fill="#174fa2"/><path d="m356.627 368.232c9.116-6.899 16.681-17.967 18.756-30.621.55-4.452-.098-21.833 16.45-29.194-5.817 1.676-11.023 5.773-14.153 11.165-7.263 12.309.221 21.168-15.174 41.831-1.773 2.403-3.742 4.682-5.879 6.819z" fill="#edeeff"/><path d="m315.408 355.533s16.22 10.163 21.044 16.965 6.944 10.588 6.944 10.588l-18.295-2.704s-14.615-9.25-16.273-14.908c-1.649-5.657 3.432-11.998 6.58-9.941z" fill="#546be8"/><path d="m338.12 380.735c-.372-.709-.833-1.463-1.357-2.243l.736-.497c.55.816 1.029 1.596 1.41 2.332zm-2.926-4.381c-.506-.647-1.082-1.339-1.694-2.048l.674-.585c.63.718 1.206 1.418 1.729 2.083zm-3.477-4.026c-.603-.638-1.223-1.286-1.853-1.915l.63-.63c.638.639 1.259 1.286 1.871 1.942zm-3.76-3.786c-.647-.621-1.294-1.233-1.951-1.827l.603-.656c.657.603 1.313 1.215 1.96 1.844zm-3.928-3.627c-.683-.612-1.357-1.198-2.013-1.756l.585-.674c.656.567 1.339 1.162 2.022 1.773zm-4.053-3.486c-.727-.611-1.419-1.179-2.066-1.702l.559-.692c.638.523 1.339 1.091 2.075 1.712zm-4.15-3.378c-1.313-1.038-2.119-1.641-2.119-1.641l.532-.718s.807.603 2.137 1.658z" fill="url(#d)"/><path d="m391.034 290.609-4.327 19.084c-.24 1.038.479 5.472 1.179 6.279 1.623 1.871 5.321 3.503 8.7 1.818 2.944-1.463 3.148-25.54 3.148-25.54s-4.922-1.658-8.7-1.641z" fill="#d64543"/><path d="m399.734 292.25s0 .798-.009 2.102c-.541 1.755-1.472 4.442-2.563 6.358-1.463 2.545-6.128 6.323-9.746 5.862l3.618-15.963c3.778-.017 8.7 1.641 8.7 1.641z" fill="#d64543"/><path d="m404.389 269.095c1.224 2.803 1.907 6.483-.878 7.689 3.06-.887 2.847-5.064 1.925-8.105z" fill="#1e266d"/><path d="m390.884 276.35s-4.088-.319-5.56 4.638c-1.464 4.957-1.898 19.438 1.827 21.54 3.724 2.102 9.408-1.765 10.951-4.327 1.606-2.679 2.723-7.175 2.723-7.175s3.911-18.188-9.941-14.676z" fill="#d64543"/><path d="m403.37 298.804s-1.17.922-1.924-.745c0 0-1.756-3.849.851-5.977 2.616-2.128 6.501-4.975 6.891-9.746s-5.215-5.871-5.215-5.871.55-7.316-7.768-6.535c0 0-1.162-1.845-5.782-2.572-4.611-.736-4.035 1.995-6.58 1.037-2.545-.957-2.492-3.094-1.224-3.671 0 0-4.948 1.144-6.27 4.665-1.321 3.511 5.596 5.117 5.596 5.117s-5.764-.408-1.977 2.846c3.795 3.255 5.879 3.636 9.036 1.614s4.682-2.35 5.959-1.472.151 3.867 2.173 4.629c2.022.763 2.244 6.563 2.244 6.563s1.729-.213.851 3.653c-.869 3.867-1.88 6.146.408 6.997s2.731-.532 2.731-.532z" fill="#1e266d"/><path d="m401.419 284.43c1.259.106 4.035 1.623.772 5.002-3.264 3.378-4.576-1.127-3.955-2.776.62-1.65 2.217-2.306 3.183-2.226z" fill="#d64543"/><path d="m388.543 287.604c-.186 2.394-.665 4.655-.621 6.943.541.116 1.073.249 1.597.417-.985.116-1.756.107-2.12.116 0-.116-.319-3.291 1.144-7.476z" fill="#1e266d"/><path d="m389.625 287.115c.133.053.292-.009.354-.142.018-.035.479-.931 1.774-1.17 1.117-.213 3.53.957 4.372 1.418.142.08.31.027.381-.106.08-.133.027-.31-.106-.381s-3.201-1.774-4.753-1.481c-1.588.301-2.155 1.436-2.173 1.481-.071.142-.009.31.133.372.009 0 .009.009.018.009z" fill="#1e266d"/><path d="m392.17 296.674s-4.275.497-6.447-.505c0 0 .035 1.898 1.294 2.669 1.242.772 4.151.506 5.153-2.164z" fill="#fff"/><path d="m402.519 287.195s-.79 2.705-2.129 2.403c-1.339-.301-1.241-2.421-.124-3.255 1.109-.833 2.536.089 2.253.852z" fill="#d64543"/><path d="m391.249 287.405c-.435-.034-.822.381-.865.928-.044.547.274 1.018.708 1.053.435.034.822-.382.865-.928.043-.547-.274-1.018-.708-1.053z" fill="#1e266d"/><path d="m385.541 286.685c-.435-.035-.822.38-.866.927-.043.547.274 1.018.708 1.053.435.035.822-.381.866-.928.043-.546-.274-1.018-.708-1.052z" fill="#1e266d"/><path d="m387.098 286.496c.079.133.035.31-.098.381-.08.044-.168.053-.239.018-.062-.027-.116-.062-.142-.124-.222-.382-.931-1.411-1.561-1.65-.151-.053-.31-.106-.47-.142.026-.195.044-.381.071-.567.195.044.399.106.594.177.94.372 1.809 1.845 1.845 1.907z" fill="#1e266d"/><path d="m384.242 386.571c.009-20.441.017-26.453.017-27.969 0-.009 0-.009 0-.018v-.089c0-.009 0-.009 0-.018v-.008-.009c0-.036 0-.071 0-.107 0-.009 0-.026 0-.035 0-.036 0-.071 0-.089 0-.009 0-.027 0-.035v-.036c0-3.538 3.37-6.403 7.538-6.403h39.747c4.159 0 7.538 2.865 7.538 6.403v44.81c0 3.539-3.37 6.403-7.538 6.403h-54.423l-.399-16.805c3.999 0 7.271-2.643 7.52-5.995z" fill="#fabf44"/><path d="m408.807 409.371h22.728c4.159 0 7.538-2.864 7.538-6.403v-44.81c0-3.538-3.37-6.403-7.538-6.403h-22.728c-4.159 0-7.538 2.865-7.538 6.403v44.81c0 3.539 3.379 6.403 7.538 6.403z" fill="#174fa2"/><path d="m407.095 344.102-19.323 5.072s-5.684 4.106-8.238 4.922-5.676 3.636-5.064 4.496c.612.869 3.822-2.075 4.345-1.986.523.088-1.889 3.564-2.279 5.844-.39 2.279-1.17 4.496.133 4.318 1.304-.177 2.253-5.312 2.253-5.312s2.004-3.884 2.332-3.423-1.339 3.122-1.339 3.122-.399 2.882-.568 3.893c-.133.754.568 3.024 1.153 2.19.346-.487.186-2.367.585-3.432.834-2.19 2.182-3.928 2.182-3.928s-1.454 6.571-.541 6.722c.913.15 1.853-5.286 1.853-5.286s2.226-4.531 3.202-4.939c.975-.408 3.645-2.128 5.72-2.847 2.066-.718 10.615 1.65 14.437 1.703s10.003-2.315 10.517-5.312c.16-.913-.417-1.924-1.286-2.891-2.5-2.802-6.42-3.884-10.074-2.926z" fill="#d64543"/><path d="m349.613 342.142-21.825 5.41s-5.675 4.106-8.238 4.922c-2.563.815-5.675 3.635-5.064 4.496.612.869 3.822-2.076 4.346-1.987.523.089-1.889 3.565-2.279 5.844-.391 2.279-1.171 4.496.133 4.319 1.303-.177 2.252-5.321 2.252-5.321s2.004-3.884 2.332-3.423-1.339 3.122-1.339 3.122-.399 2.882-.567 3.893c-.133.753.567 3.024 1.153 2.19.345-.488.186-2.368.585-3.432.833-2.19 2.181-3.928 2.181-3.928s-1.454 6.571-.541 6.722c.914.15 1.854-5.286 1.854-5.286s2.226-4.531 3.201-4.939c.976-.408 3.645-2.129 5.72-2.847 2.066-.718 10.207.532 14.02.577 3.814.053 8.008-.737 8.008-.737s-2.288-10.552-5.932-9.595z" fill="#d64543"/><path d="m413.578 282.478c.133 0 .257-.08.319-.204 7.396-16.681-12.22-31.358-12.424-31.509-.151-.115-.373-.079-.479.072-.115.15-.08.372.071.478.195.142 19.368 14.491 12.202 30.666-.08.177 0 .381.178.452.044.036.088.045.133.045z" fill="#174fa2"/><path d="m374.479 376.771-33.991-2.918-27.545 1.774 26.427 1.649z" fill="#3751ff"/><path d="m374.479 378.935h-34.124v-3.308l34.124 1.144z" fill="#1e266d"/><path d="m315.923 335.127 24.431 40.5v3.308l-26.249-43.808z" fill="url(#e)"/><path d="m290.347 343.826 23.758-8.699 26.249 43.808-29.122-.816z" fill="#1e266d"/><path d="m282.553 294.538h41.892c1.907 0 3.441 2.483 3.441 5.543v12.903c0 3.059-1.543 5.542-3.441 5.542h-1.897l5.338 17.559-16.707-17.559h-28.626c-1.898 0-3.441-2.483-3.441-5.542v-12.903c-.009-3.06 1.534-5.543 3.441-5.543z" fill="#ed4790"/><path d="m430.985 58.3906c-9.355 0-16.947 3.2634-16.947 7.2984 0 2.013 1.898 3.8398 4.967 5.1611l-1.57 6.9969 5.764-5.6755c2.332.5232 4.984.8158 7.786.8158 9.356 0 16.947-3.2634 16.947-7.2983 0-4.035-7.591-7.2984-16.947-7.2984z" fill="#fff"/><path d="m439.029 68.9354c.769 0 1.392-.6234 1.392-1.3923s-.623-1.3922-1.392-1.3922-1.392.6233-1.392 1.3922.623 1.3923 1.392 1.3923z" fill="#99d7ff"/><path d="m435.348 68.9354c.769 0 1.393-.6234 1.393-1.3923s-.624-1.3922-1.393-1.3922-1.392.6233-1.392 1.3922.623 1.3923 1.392 1.3923z" fill="#99d7ff"/><path d="m431.668 68.9354c.769 0 1.393-.6234 1.393-1.3923s-.624-1.3922-1.393-1.3922-1.392.6233-1.392 1.3922.623 1.3923 1.392 1.3923z" fill="#99d7ff"/></svg>