<svg fill="none" height="115" viewBox="0 0 117 115" width="117" xmlns="http://www.w3.org/2000/svg" xmlns:xlink="http://www.w3.org/1999/xlink"><linearGradient id="a"><stop offset="0" stop-color="#aa80f9"/><stop offset=".9964" stop-color="#6165d7"/></linearGradient><linearGradient id="b" gradientUnits="userSpaceOnUse" x1="101.872" x2="43.0261" xlink:href="#a" y1="54.7078" y2="71.8185"/><linearGradient id="c"><stop offset="0" stop-color="#ffc444"/><stop offset=".9964" stop-color="#f36f56"/></linearGradient><linearGradient id="d" gradientUnits="userSpaceOnUse" x1="106.283" x2="42.9036" xlink:href="#c" y1="45.4791" y2="141.48"/><linearGradient id="e"><stop offset="0" stop-color="#444b8c"/><stop offset=".9964" stop-color="#26264f"/></linearGradient><linearGradient id="f" gradientUnits="userSpaceOnUse" x1="20.4946" x2="63.441" xlink:href="#e" y1="56.6172" y2="55.0657"/><linearGradient id="g" gradientUnits="userSpaceOnUse" x1="76.2203" x2="-27.5786" xlink:href="#e" y1="52.25" y2="61.9725"/><linearGradient id="h" gradientUnits="userSpaceOnUse" x1="30.8732" x2="72.8359" xlink:href="#e" y1="56.213" y2="54.6971"/><linearGradient id="i" gradientUnits="userSpaceOnUse" x1="30.8736" x2="39.6592" xlink:href="#e" y1="56.2182" y2="55.9008"/><linearGradient id="j" gradientUnits="userSpaceOnUse" x1="60.4931" x2="53.0256" y1="-18.474" y2="43.6678"><stop offset="0" stop-color="#444b8c"/><stop offset=".4836" stop-color="#35396e"/><stop offset=".9964" stop-color="#26264f"/></linearGradient><linearGradient id="k" gradientUnits="userSpaceOnUse" x1="56.9449" x2="61.5378" xlink:href="#e" y1="67.276" y2="154.899"/><linearGradient id="l"><stop offset="0" stop-color="#ff9085"/><stop offset="1" stop-color="#fb6fbb"/></linearGradient><linearGradient id="m" gradientUnits="userSpaceOnUse" x1="75.1758" x2="37.9606" xlink:href="#l" y1="26.5432" y2="82.9251"/><linearGradient id="n" gradientUnits="userSpaceOnUse" x1="32.4232" x2="80.15" xlink:href="#l" y1="56.9485" y2="55.2244"/><linearGradient id="o" gradientUnits="userSpaceOnUse" x1="32.979" x2="26.7617" xlink:href="#e" y1="15.3991" y2="67.1366"/><linearGradient id="p" gradientUnits="userSpaceOnUse" x1="85.5723" x2="118.624" xlink:href="#e" y1="86.7323" y2="77.6649"/><linearGradient id="q"><stop offset="0" stop-color="#92deff"/><stop offset=".977055" stop-color="#62b4e1"/></linearGradient><linearGradient id="r" gradientUnits="userSpaceOnUse" x1="99.3657" x2="99.3657" xlink:href="#q" y1="73.1208" y2="92.0463"/><linearGradient id="s" gradientUnits="userSpaceOnUse" x1="88.7992" x2="123.215" xlink:href="#e" y1="57.6478" y2="48.2064"/><linearGradient id="t" gradientUnits="userSpaceOnUse" x1="103.162" x2="103.162" xlink:href="#q" y1="43.6755" y2="62.9985"/><linearGradient id="u" gradientUnits="userSpaceOnUse" x1="81.2171" x2="117.085" xlink:href="#e" y1="30.0371" y2="20.1972"/><linearGradient id="v"><stop offset="0" stop-color="#006da2"/><stop offset=".953125" stop-color="#29aaf3"/></linearGradient><linearGradient id="w" gradientUnits="userSpaceOnUse" x1="105.372" x2="95.3665" xlink:href="#v" y1="-.696306" y2="39.5938"/><linearGradient id="x" gradientUnits="userSpaceOnUse" x1="5.40494" x2="3.05639" xlink:href="#e" y1="105.423" y2="105.423"/><linearGradient id="y" gradientUnits="userSpaceOnUse" x1="13.6707" x2="23.4028" xlink:href="#c" y1="78.2053" y2="100.057"/><linearGradient id="z" gradientUnits="userSpaceOnUse" x1="38.8834" x2="51.2985" xlink:href="#c" y1="89.904" y2="111.448"/><linearGradient id="A"><stop offset="0" stop-color="#311944"/><stop offset="1" stop-color="#893976"/></linearGradient><linearGradient id="B" gradientUnits="userSpaceOnUse" x1="28.8211" x2="40.0676" xlink:href="#A" y1="68.8042" y2="94.0559"/><linearGradient id="C" gradientUnits="userSpaceOnUse" x1="32.732" x2="37.084" xlink:href="#A" y1="84.802" y2="92.3541"/><linearGradient id="D" gradientUnits="userSpaceOnUse" x1="49.9121" x2="44.8371" xlink:href="#e" y1="111.552" y2="111.552"/><linearGradient id="E" gradientUnits="userSpaceOnUse" x1="46.6658" x2="47.2273" xlink:href="#e" y1="109.704" y2="111.002"/><linearGradient id="F" gradientUnits="userSpaceOnUse" x1="21.3785" x2="30.8122" xlink:href="#A" y1="73.3361" y2="94.5174"/><linearGradient id="G" gradientUnits="userSpaceOnUse" x1="44.8752" x2="41.5147" xlink:href="#c" y1="71.0557" y2="17.768"/><linearGradient id="H" gradientUnits="userSpaceOnUse" x1="38.5387" x2="19.1711" xlink:href="#v" y1="28.8981" y2="82.8786"/><linearGradient id="I" gradientUnits="userSpaceOnUse" x1="30.7452" x2="33.3" xlink:href="#c" y1="56.1017" y2="46.9006"/><linearGradient id="J" gradientUnits="userSpaceOnUse" x1="31.8555" x2="32.0366" y1="52.9237" y2="47.3263"><stop offset="0" stop-color="#311944"/><stop offset="1" stop-color="#6b3976"/></linearGradient><linearGradient id="K" gradientUnits="userSpaceOnUse" x1="32.2579" x2="35.0807" xlink:href="#c" y1="48.786" y2="55.6215"/><linearGradient id="L" gradientUnits="userSpaceOnUse" x1="35.7071" x2="27.4042" xlink:href="#a" y1="53.2774" y2="76.5255"/><linearGradient id="M" gradientUnits="userSpaceOnUse" x1="14.3163" x2="39.7739" xlink:href="#c" y1="78.0761" y2="7.07524"/><linearGradient id="N" gradientUnits="userSpaceOnUse" x1="12.5081" x2="12.3179" xlink:href="#e" y1="71.7684" y2="68.752"/><linearGradient id="O" gradientUnits="userSpaceOnUse" x1="12.3781" x2="12.1233" xlink:href="#e" y1="72.0347" y2="67.9937"/><path d="m60.1179.902465c-29.8138-.8803744-55.63882 20.752435-59.540561 49.137335-4.265899 31.035 19.213361 58.9592 48.103661 63.4312 35.9347 5.563 70.789-26.6192 67.66-61.5325-2.358-26.3041-25.9168-50.14112-56.2231-51.036035z" fill="#f4f7fa"/><path d="m51.5848 101.159c.5317.518 2.9608-2.5282 8.0971-3.8851 1.2832-.339 8.1538-2.6734 11.704 1.4694.6891.8041 1.3784 1.6087 2.0675 2.4127 2.4267-.77 4.5714-1.9457 3.2815-5.0245-2.0033-4.7812 4.5025-9.9736 7.6868-10.7039 3.9411-.9039 13.0638-3.1997 10.0806-10.6333-2.4833-6.1885-5.3242-9.7474.5673-14.8786 5.8914-5.1312 6.9314-11.6372 1.8937-17.2077-5.301-5.8621-1.491-16.987-8.1399-20.0036-11.5855-5.2561-18.8297 13.2462-14.2371 26.9946 4.5924 13.7482-3.9868 10.4663-9.2675 14.0896-.4711.3641-1.1735.965-1.8679 1.8315-4.2749 5.3351-.8337 11.4944-1.9993 18.7911-1.5896 9.9512-10.7626 15.8768-9.8668 16.7478z" fill="url(#b)"/><g fill="#fcfdfe" opacity=".5"><path d="m67.8929 93.2034.2831.2418c16.5104-19.6993 22.8915-47.879 16.6531-73.5421l-.3517.066c6.2121 25.555-.1428 53.6168-16.5845 73.2343z" opacity=".5"/><path d="m75.9275 81.638.2329.2903c7.9676-6.2179 19.9099-3.9273 20.0296-3.9033l.0508-.3549c-.1212-.0243-12.2202-2.3479-20.3133 3.9679z" opacity=".5"/><path d="m70.8263 89.491.3367.1526c3.8861-9.5612-7.4408-25.7043-7.5558-25.8663l-.2914.1978c.1136.1602 11.3227 16.1364 7.5105 25.5159z" opacity=".5"/><path d="m84.9105 57.8636.3241.1803c3.7358-7.2562 16.0064-10.3007 16.1294-10.3307l-.104-.3521c-.125.0302-12.5447 3.1122-16.3495 10.5025z" opacity=".5"/><path d="m86.8339 41.3053.3584-.0323c-1.4039-9.4929-11.6122-17.9263-11.7154-18.0104l-.2193.2749c.1019.083 10.1944 8.4228 11.5763 17.7678z" opacity=".5"/></g><path d="m54.6825 95.6622c3.6744 1.0584 6.3185-2.8034 8.5071-7.6308 2.1887-4.8274 10.5-3.182 13.5327-3.3163 4.3298-.1915 6.0379-.609 10.363-8.7021 4.7227-11.9184 12.4538-17.7472 17.5117-14.9763 5.125 2.8076 4.836 9.0942 1.338 13.5573-1.74 2.2204.143 3.9992-.109 6.687-.103 1.089-.485 1.8401-.876 2.5608-2.28 4.2039-8.5771 2.1125-11.8175 5.8306-2.8695 3.2928.3632 6.8909-2.4269 9.7705-2.5273 2.6081-5.8352.3323-15.0555 2.6901-.871.222-1.9008 1.094-4.3066 1.314-2.8316.258-7.4642.209-10.2538 1.757-2.3258-1.174-4.6519-2.393-7.0815-3.231-2.1357-1.329-4.2025-2.7681-6.2107-4.285 1.6828-1.4752 4.0596-2.8397 6.885-2.0258z" fill="url(#d)"/><g fill="#fcfdfe" opacity=".5"><path d="m46.9705 106.057.0688.208c1.1554-.369 2.3156-.756 3.4483-1.151 8.3865-2.927 16.17-6.5922 23.1343-10.8929 5.901-3.6443 11.2978-7.7951 16.0404-12.3372 3.8139-3.6527 7.2275-7.5772 10.1458-11.6644 2.0519-2.8733 3.8389-5.7967 5.3119-8.6891.257-.5041.493-1.0362.72-1.5509.303-.6856.617-1.3946.984-2.0425l-.178-.1188c-.372.6567-.688 1.3705-.993 2.0608-.226.5121-.461 1.0416-.715 1.5404-1.469 2.8834-3.251 5.7981-5.2965 8.6632-2.9111 4.0771-6.3165 7.9923-10.1217 11.6366-4.7329 4.5327-10.1189 8.6752-16.0085 12.3124-6.9525 4.2936-14.7236 7.9524-23.0973 10.8744-1.131.395-2.2896.782-3.4435 1.151z" opacity=".5"/><path d="m83.5219 86.9802.1253.1793c7.0009-5.3 22.1338-4.4213 22.2858-4.4118l.002-.2173c-.153-.0096-15.3562-.8926-22.4131 4.4498z" opacity=".5"/><path d="m62.6175 99.9196.1056.1924c5.1859-2.99 7.1986-14.9548 7.2184-15.0753l-.2029-.0479c-.0196.1195-2.0162 11.9876-7.1211 14.9308z" opacity=".5"/><path d="m59.5229 101.339.0728.207c3.6899-1.268 9.4667-.875 16.2661 1.109.3419.1.3419.1.3787.088l-.0704-.208.0352.104.0035-.108c-.0233-.004-.1524-.042-.302-.086-6.8382-1.995-12.6568-2.388-16.3839-1.106z" opacity=".5"/><path d="m49.0686 105.352.1248.179c3.4547-2.592 3.6285-9.3874 3.6299-9.4556l-.2057-.016c-.0014.0673-.1733 6.7596-3.549 9.2926z" opacity=".5"/><path d="m97.884 72.4586.1343.172c3.7257-3.1851 8.3837-5.5777 9.9147-6.3639.37-.1904.5-.2578.541-.2898l-.127-.1775c-.032.0241-.244.1328-.512.2706-1.536.7886-6.208 3.1889-9.951 6.3886z" opacity=".5"/><path d="m92.5984 78.6265.1742.1251c2.4524-3.9903.3678-13.5967.2779-14.0037l-.2003.039c.0218.0987 2.1547 9.9238-.2518 13.8396z" opacity=".5"/></g><path d="m65.226 104.478c-1.4908 1.251-3.3442 2.063-5.3569 2.305l-22.5515 2.712c-2.1309.256-4.156-.111-5.8438-1.024-2.0717-1.122-3.6287-2.995-4.2388-5.379-7.7008-30.1421-8.981-61.8321-3.7481-92.7469.4675-2.76523 2.1964-5.06298 4.5853-6.40699 1.4695-.8257 3.1861-1.29594 5.0097-1.2924l23.3863.04569c1.722.00334 3.3609.45163 4.7834 1.25151-7.489 33.35779-6.1135 68.21819 3.9744 100.53509z" fill="url(#f)"/><path d="m66.4115 104.338c-1.4866 1.248-3.3347 2.059-5.3418 2.301l-22.4871 2.703c-2.1247.256-4.144-.111-5.8269-1.023-2.0658-1.12-3.6183-2.991-4.2267-5.372-7.6799-30.0982-8.958-61.7416-3.7422-92.6107.4661-2.7612 2.1898-5.05557 4.5716-6.3976 1.4653-.8245 3.1768-1.29409 4.9951-1.29055l23.3196.04557c1.7171.00334 3.3515.45098 4.7699 1.24977-7.466 33.31051-6.0926 68.12161 3.9685 100.39451z" fill="url(#g)"/><path d="m69.8917 98.346c-.3893 2.38-1.6704 4.472-3.4803 5.992-1.4866 1.248-3.3348 2.059-5.3418 2.301l-22.4871 2.703c-2.1247.256-4.144-.111-5.827-1.023 8.1511-35.0314 6.994-70.4612-3.3977-104.39303 1.4653-.8245 3.1772-1.28136 4.9955-1.27782l23.3197.04557c1.717.00334 3.352.46734 4.7705 1.26613 2.2857 1.2858 4.0137 3.4711 4.6222 6.09575 6.7066 28.9267 7.6607 58.6682 2.826 88.2904z" fill="url(#h)"/><path d="m34.5373 109.086c8.0065-35.512 6.8081-71.4553-3.5223-105.87323-.579.19773-1.1335.44518-1.6561.7392 10.3917 33.93163 11.5492 69.36973 3.3981 104.40203.5588.302 1.1555.547 1.7803.732z" fill="url(#i)"/><path d="m78.1836 31.7559 1.6301 45.1493c.1435 3.9744-2.9627 7.5159-7 7.9031l-39.0456 3.7488c-.7112.0682-1.5023.0531-2.1679-.0492-3.511-.5328-6.3066-3.2831-6.435-6.841l-1.7371-48.1109c-.0371-1.0275.2653-1.9507.6272-2.8584 1.1242-2.8297 4.0427-4.8085 7.43-4.891l39.1324-.9542c4.0477-.0986 7.4223 2.929 7.5659 6.9035z" fill="url(#j)"/><path d="m84.1226 76.7282c.143 3.9611-2.9292 7.4813-6.9318 7.8662l-38.6633 3.7238c-4.4263.4257-8.1033-2.6472-8.2557-6.8669l-1.7302-47.9236c-.1523-4.2197 3.3007-7.7286 7.7385-7.8367l38.777-.9452c4.0129-.0978 7.2983 3.0356 7.4413 6.9967z" fill="url(#k)"/><path d="m80.898 31.6825c-.1093-3.0271-2.7338-5.4154-5.7979-5.3348l-38.8755 1.0208c-3.3808.0888-6.0475 2.7637-5.9316 5.9749l1.7204 47.6501c.116 3.2112 2.93 5.5573 6.3025 5.2412l38.8319-3.6355c3.0565-.2865 5.4812-2.9712 5.3719-5.9983z" fill="url(#m)"/><path d="m79.3477 33.0159c-.1033-2.8618-2.4922-5.1159-5.3921-5.0342l-36.6604 1.0322c-3.1809.0897-5.7856 2.6166-5.6764 5.6419l1.6191 44.8435c.1092 3.0252 2.8997 5.2411 6.0733 4.9496l36.5042-3.3501c2.8931-.2657 5.1672-2.8003 5.0638-5.662z" fill="url(#n)" opacity=".2"/><path d="m31.6225 88.513c-3.5109-.5329-6.3289-3.2878-6.4573-6.8457l-1.737-48.1109c-.0371-1.0275.2628-2.0179.6248-2.9255 1.0901 1.8389 2.0917 4.6826 1.7872 8.9013-.6514 9.0267.2487 11.5358 1.9042 17.8822 1.6502 6.3259-.8566 13.3034-.6223 18.0303.1993 4.0466-.8357 10.7017 4.5004 13.0683z" fill="url(#o)" opacity=".3"/><path d="m74.3768 51.7576c-.0986-2.7315-1.2657-5.2771-3.2873-7.1688-2.0237-1.8939-4.6741-2.9129-7.4574-2.8595-2.5688.0493-4.9713 1.0034-6.833 2.7039-1.9595-1.5311-4.3834-2.3392-6.9043-2.2906-2.7377.0529-5.2889 1.1043-7.2208 2.9729-.0794.0755-.1557.1509-.2318.2293-3.9432 4.057-3.8634 10.4153.1777 14.4364l10.2499 9.4245c1.3234 1.2026 3.0482 1.8276 4.8514 1.7575 1.7958-.0699 3.4587-.8235 4.6808-2.1157l9.1941-9.7447c.0055-.0089.0111-.0148.0168-.0208.0339-.033.0647-.0687.0958-.1015l.3123-.3341-.012-.0083c1.623-1.9273 2.4593-4.3482 2.3678-6.8805zm-6.4387 5.7953-4.9677.1491c-.1448.0044-.2946-.2942-.4129-.3723l-2.1689-1.5464-1.3643 2.2885-3.6126 6.0578c-.1212.2063-.3431.2725-.579.2807-.0628.0021-.3261-.0035-.3895-.0189-.3019-.0747-.7121-.3331-.723-.6377l-.4296-11.8974-1.4533 2.7765-1.1805 2.1836c-.1188.2062-.2467.3808-.4871.3879l-8.7308.2572c-.3894.0114-.7135-.3367-.7272-.7179-.0138-.381.2973-.7477.6866-.7587l8.3594-.2378 1.0247-1.7327 2.9044-4.9184c.1551-.2616.4327-.3868.7316-.3119.3047.0776.4794.3414.4904.6456l.4298 11.9037 2.3499-3.9103 1.8419-3.0776c.0951-.1632.2654-.2792.4512-.3193.1854-.043.3942.205.5523.3085l2.6005 1.9058 4.7504-.138c.3785-.011.6967.3309.7101.705.0136.374-.2783.734-.6568.7454z" fill="#fff" opacity=".7"/><path d="m69.7212 71.2175c-7.369-7.1806-16.3384-4.6582-20.2847-11.9792-4.2331-7.853 3.7929-15.0113.6389-24.9167-.8874-2.7868-2.4628-5.1657-4.4324-7.2009l-9.4184.2474c-3.3808.0888-6.0475 2.7637-5.9316 5.9749l1.7204 47.6501c.116 3.2112 2.93 5.5573 6.3026 5.2412l37.5635-3.5167c-1.3269-5.5249-3.688-9.093-6.1583-11.5001z" fill="#fff" opacity=".25"/><path d="m92.1549 76.0551c4.0223-3.5559 10.2821-3.1767 13.9911.6404 3.599 3.7038 3.599 9.4418 0 13.0091-3.709 3.6764-9.9688 3.8182-13.9911.1098-4.1526-3.8284-4.1526-10.0884 0-13.7593z" fill="url(#p)"/><path d="m92.5827 75.575c4.0194-3.5529 10.2753-3.1711 13.9813.6461 3.596 3.7039 3.596 9.4398 0 13.0042-3.706 3.6735-9.962 3.8126-13.9813.1038-4.1493-3.8288-4.1493-10.0863 0-13.7541z" fill="url(#r)"/><path d="m93.5932 76.6061c3.427-3.0351 8.7678-2.7164 11.9358.5412 3.078 3.164 3.078 8.0677 0 11.1123-3.168 3.1348-8.5088 3.2463-11.9358.0783-3.5343-3.2671-3.5343-8.6018 0-11.7318z" fill="#fff" opacity=".25"/><path d="m93.1662 77.3171c3.4297-3.0384 8.7748-2.723 11.9448.5339 2.489 2.5565 2.965 6.2472 1.436 9.1752 2.011-3.018 1.673-7.1122-1.017-9.8789-3.169-3.2576-8.5096-3.5763-11.9367-.5412-.7411.6564-1.325 1.4113-1.7553 2.224.3671-.543.8085-1.0526 1.3282-1.513z" fill="#fff" opacity=".3"/><path d="m102.936 84.5284c0 1.9056-1.556 3.4711-3.4809 3.4966-1.9317.0256-3.5025-1.5081-3.5025-3.4256s3.5025-7.4539 3.5025-7.4539 3.4809 5.4772 3.4809 7.3829z" fill="#fff"/><path d="m95.646 46.6724c4.194-3.631 10.72-3.2438 14.586.6529 3.75 3.7807 3.75 9.6381 0 13.2808-3.866 3.7546-10.392 3.9019-14.586.1166-4.3303-3.9084-4.3303-10.3012 0-14.0503z" fill="url(#s)"/><path d="m96.092 46.1815c4.191-3.6279 10.712-3.238 14.574.6589 3.748 3.7808 3.748 9.636 0 13.2758-3.862 3.7514-10.383 3.8958-14.574.1102-4.327-3.9087-4.327-10.2991 0-14.0449z" fill="url(#t)"/><path d="m97.1458 47.2346c3.5732-3.0992 9.1412-2.7739 12.4432.5518 3.207 3.2297 3.207 8.2355 0 11.3445-3.302 3.2014-8.87 3.3171-12.4432.0833-3.6854-3.3353-3.6854-8.7829 0-11.9796z" fill="#fff" opacity=".25"/><path d="m96.7005 47.9607c3.5755-3.1027 9.1475-2.7808 12.4525.5442 2.594 2.6095 3.09 6.3771 1.496 9.3665 2.096-3.0815 1.744-7.2609-1.06-10.085-3.302-3.3257-8.87-3.651-12.4432-.5517-.7728.6703-1.3816 1.4412-1.8305 2.2712.3829-.5546.8432-1.075 1.3852-1.5452z" fill="#fff" opacity=".3"/><path d="m100.373 49.8563c-.6437.0124-1.1731.5857-1.1739 1.2804l-.006 5.673c-.0008.691.5256 1.2389 1.1669 1.2234.641-.0155 1.168-.5867 1.17-1.2768l.011-5.6655c.002-.6939-.525-1.2469-1.168-1.2345z" fill="#fff"/><path d="m97.8854 51.1014.0094.0019c-.4453.0089-.7855.4071-.7856.887l-.0004 1.4277-.1793.0076c-.2734.0059-.4588.2523-.4588.5465v.0273c0 .2942.1853.5247.4586.5187l.1792-.0079-.0004 1.5337c-.0002.4782.3586.857.8029.8466l-.0283-.0039c.4439-.0105.7638-.4096.7642-.8872l.0037-4.0491c.0004-.4793-.3202-.8579-.7652-.8489z" fill="#fff"/><path d="m106.258 49.7463c-.64.0123-1.145.5846-1.148 1.277l-.02 5.6542c-.002.6888.498 1.2331 1.135 1.2177.636-.0153 1.139-.5862 1.142-1.274l.026-5.6457c.003-.6914-.497-1.2415-1.135-1.2292z" fill="#fff"/><path d="m109.658 53.153-.136.011.007-1.4176c.003-.4766-.362-.857-.802-.8483l-.019-.0004c-.44.0088-.806.402-.808.879l-.019 4.0287c-.002.4752.354.8521.793.8418l.024.001c.438-.0103.808-.4021.81-.8769l.008-1.5228.136-.0113c.269-.0059.411-.2538.413-.5455v-.0271c.002-.2918-.138-.5173-.407-.5116z" fill="#fff"/><path d="m101.972 54.7341 2.684-.0658.005-1.6309-2.686.0629z" fill="#fff"/><path d="m88.3456 18.7472c4.3768-3.7095 11.186-3.3138 15.2184.666 3.912 3.8608 3.912 9.8427 0 13.5641-4.0324 3.8362-10.8416 3.9892-15.2184.1238-4.5199-3.9918-4.5199-10.5233 0-14.3539z" fill="url(#u)"/><path d="m88.8112 18.2461c4.3734-3.7061 11.1773-3.3078 15.2068.6723 3.909 3.8609 3.909 9.8405 0 13.5588-4.0295 3.8329-10.8334 3.9829-15.2068.1172-4.5163-3.9921-4.5163-10.5211 0-14.3483z" fill="url(#w)"/><g fill="#fff"><path d="m89.9108 19.321c3.7288-3.1662 9.5378-2.8339 12.9832.5627 3.345 3.2981 3.345 8.4105 0 11.5866-3.4454 3.2708-9.2544 3.391-12.9832.0887-3.8463-3.4064-3.8463-8.9719 0-12.238z" opacity=".25"/><path d="m89.446 20.0627c3.7318-3.1697 9.5454-2.841 12.993.5548 2.706 2.6649 3.223 6.5126 1.561 9.5661 2.185-3.1476 1.819-7.4159-1.106-10.2999-3.4454-3.3967-9.2545-3.7288-12.9832-.5627-.8065.6848-1.4419 1.4725-1.9103 2.3204.3995-.5666.8799-1.0982 1.4455-1.5787z" opacity=".3"/><path d="m99.9498 30.3518 1.6542-.0013v-8.6735l-1.6542-.0294z"/><path d="m96.9791 30.3542 1.6755-.0013v-4.3641l-1.6755-.0142z"/><path d="m93.9708 30.3569 1.6969-.0013v-9.6158l-1.6969-.0332z"/><path d="m90.9237 30.3591 1.7187-.0014v-8.2418l-1.7187-.0283z"/><path d="m74.8855 36.9817c-.1831 0-.3524-.1188-.4084-.3031-.0684-.2256.0589-.464.2846-.5325l1.6341-.4961c.2258-.0686.4641.0589.5326.2845.0684.2256-.0589.464-.2846.5326l-1.6342.4961c-.0412.0125-.0831.0185-.1241.0185zm3.2683-.9923c-.1832 0-.3524-.1187-.4085-.303-.0683-.2256.059-.4641.2847-.5325l1.6341-.4961c.226-.0685.4641.0589.5326.2845.0684.2257-.0589.4641-.2846.5326l-1.6342.496c-.0413.0125-.0831.0185-.1241.0185zm3.2683-.9922c-.1832 0-.3525-.1187-.4085-.303-.0684-.2257.059-.4641.2846-.5326l1.6342-.4961c.2257-.0686.4641.0589.5326.2845.0683.2256-.059.4641-.2847.5326l-1.6341.4961c-.0413.0125-.0831.0185-.1241.0185zm3.2683-.9923c-.1832 0-.3525-.1187-.4085-.303-.0684-.2257.0589-.4641.2846-.5326l.7105-.2156c.2258-.0686.4641.0589.5326.2845.0684.2256-.059.464-.2846.5325l-.7105.2157c-.0413.0126-.0831.0185-.1241.0185z"/><path d="m91.0305 55.1127h-.1423c-.2358 0-.4269-.1911-.4269-.4269s.191-.427.4269-.427h.1423c.2358 0 .427.1912.427.427s-.1912.4269-.427.4269zm-1.8501 0h-1.7078c-.2359 0-.427-.1911-.427-.4269s.1911-.427.427-.427h1.7078c.2358 0 .427.1912.427.427s-.1912.4269-.427.4269zm-3.4156 0h-1.7078c-.2358 0-.427-.1911-.427-.4269s.1911-.427.427-.427h1.7078c.2359 0 .4269.1912.4269.427s-.1911.4269-.4269.4269zm-3.4157 0h-1.7077c-.2359 0-.427-.1911-.427-.4269s.1911-.427.427-.427h1.7077c.2359 0 .427.1912.427.427s-.1911.4269-.427.4269zm-3.4155 0h-1.7078c-.2359 0-.427-.1911-.427-.4269s.1911-.427.427-.427h1.7078c.2358 0 .4269.1912.4269.427s-.1911.4269-.4269.4269z"/><path d="m86.0873 80.7146c-.0758 0-.1524-.0201-.2218-.0623l-.1392-.0849c-.2014-.1226-.2652-.3853-.1426-.5867.1228-.2012.3854-.2653.5868-.1425l.1392.0848c.2014.1226.2652.3853.1426.5867-.0804.132-.2211.2049-.365.2049zm-1.5976-.9734c-.0758 0-.1524-.0201-.2217-.0624l-1.4585-.8886c-.2014-.1227-.2651-.3853-.1424-.5867.1225-.2014.3853-.2651.5866-.1425l1.4585.8886c.2014.1227.2652.3854.1424.5868-.0803.1319-.221.2048-.3649.2048zm-2.917-1.7772c-.0757 0-.1523-.0201-.2216-.0624l-1.4584-.8885c-.2013-.1228-.2652-.3854-.1424-.5868.1226-.2014.3854-.265.5866-.1424l1.4584.8886c.2013.1227.2652.3853.1424.5867-.0803.1319-.221.2048-.365.2048zm-2.9168-1.7771c-.0757 0-.1523-.0202-.2216-.0625l-1.4585-.8885c-.2014-.1227-.2652-.3854-.1425-.5868.1226-.2014.3854-.265.5867-.1424l1.4584.8886c.2014.1226.2652.3853.1425.5867-.0803.132-.221.2049-.365.2049zm-2.9168-1.7772c-.0757 0-.1523-.0201-.2216-.0624l-1.4585-.8886c-.2014-.1227-.2652-.3854-.1424-.5867.1226-.2015.3852-.2651.5866-.1425l1.4585.8886c.2014.1227.2651.3853.1424.5867-.0804.132-.221.2049-.365.2049z"/></g><path d="m3.9236 102.309s-.54876.206-.7923.973c-.2435.766.15495 3.953.50158 4.736.34664.783 1.36806.596 1.66595 0s-.12578-4.814-.12578-4.814z" fill="url(#x)"/><path d="m33.6657 76.0895c-2.2143 3.0666-3.7435 5.7243-4.7293 7.581-2.0829 3.9229-2.5594 5.8134-5.0146 9.4593-2.2735 3.3761-3.774 4.5899-4.3867 5.0558-1.4777 1.1236-2.6972 1.6272-5.836 2.8394-2.7427 1.06-5.64764 2.157-8.70659 3.28-.54062.062-.76773-.176-.91631-.677.05024-2.386.75347-3.8429 1.33668-4.705 1.24474-1.8403 2.53661-1.8495 6.38892-4.6371 2.0542-1.4863 3.099-2.2543 3.9647-3.4699.4165-.5849 1.0987-1.6714 2.1792-5.7726.4428-1.6807.9752-3.9536 1.4239-6.7014 4.7654-.7508 9.5307-1.5016 14.2961-2.2525z" fill="url(#y)"/><path d="m40.5154 83.3248s6.5983 5.9676 6.1532 12.1947c-.4451 6.2275-.4278 16.3885-.4278 16.3885l-.8874.666s-5.9278-9.669-4.838-15.6188c1.0897-5.9503-8.9255-8.2207-9.1331-10.7244-.2075-2.5038 9.1331-2.906 9.1331-2.906z" fill="url(#z)"/><path d="m27.6005 84.0863c-.0083.3716.5146 1.2807 1.3034 2.3662 1.7064 2.3518 4.6558 5.5297 6.1129 5.8494 1.2953.2844 2.9641-1.7644 4.6869-3.6947 1.1127-1.2454 2.246-2.4431 3.3169-2.9309 2.7317-1.2454-4.9442-10.7625-4.9442-10.7625-13.8385-11.7318-10.4469 7.9956-10.4759 9.1725z" fill="url(#B)"/><path d="m28.9039 86.4953c1.7063 2.3518 4.6558 5.5084 6.1129 5.828 1.2952.2845 2.9641-1.775 4.6869-3.7053l.0125-.0324s-3.5079.3638-4.0269-2.1271c-.5189-2.4908-4.2032-3.8788-4.2032-3.8788h-.1764c-1.6481.7115-2.2501 2.3485-2.4058 3.9156z" fill="url(#C)" opacity=".2"/><path d="m47 113.077s-.8098.274-1.1468.299l-.034.002c-.1906.014-.3754-.07-.4896-.223-.1991-.267-.4869-.671-.4924-.784-.0083-.173.4592-.529.8759-.682.4167-.154.5144-.36 1.2869-.977.7725-.618 2.0778-1.35 2.6889-.786.6112.564.0468 1.969-2.6889 3.151z" fill="url(#D)"/><path d="m49.2412 110.015c-.6712.268-.8736 1.023-2.0381 1.789-.661.435-1.4758.834-2.0573 1.099-.1567-.222-.3047-.451-.3086-.532-.0083-.173.4592-.528.8759-.682s.5144-.36 1.2869-.977 2.0778-1.35 2.6889-.786c.1557.144.2346.342.2212.578-.1207-.326-.3273-.625-.6689-.489z" fill="url(#E)"/><path d="m33.9251 74.9139s-3.3211 17.8626-5.812 17.5995c-2.4908-.263-6.8573-3.0636-10.4601-3.6352-3.6027-.5716-.4449-3.9446 0-4.723s2.7282-7.0574 2.7282-7.0574 9.9633-7.637 13.5439-2.1839z" fill="url(#F)"/><path d="m33.412 52.8438c1.4417-.6984 4.2352 2.3611 4.3704 2.5114 3.2908 3.6595 1.9791 7.2524 4.3003 8.2907 1.1232.5024 1.3802-.3611 7.5806-2.0075.534-.1419 1.5702-.411 2.5967-1.2448.8871-.7202 1.3906-1.5562 1.665-2.1087.11-.0063 1.3879-.0677 1.6236.4942.2316.5523-.6752 1.3924-1.1435 1.8263-.7586.7027-1.4831 1.0552-1.5646 1.0952-1.8036.8838-2.9222 2.7299-4.2882 4.1702-.9106.9602-3.9647 4.1804-7.1897 4.0164-3.9451-.2006-6.4061-5.3769-7.1214-6.8814-1.9027-4.0019-2.4591-9.3724-.8292-10.162z" fill="url(#G)"/><path d="m19.3101 79.5869c1.0047 1.5546 4.5478.5209 7.7133-1.2434 3.1654-1.7644 5.1892-.7265 9.1891-.7784 2.5925-.0332 3.7175-1.3512 3.8649-2.8125.0789-.795-.1308-1.6294-.5522-2.3248-1.1977-1.9719-.9195-6.5571-.0622-13.023.8551-6.4657-4.7596-6.6442-4.7596-6.6442s.1038-.6227-5.293-.5148c-4.2386.0852-7.1964 2.6901-7.6925 6.2167-.1369.9653-.0872 1.999.1681 3.0679 1.1936 4.9816-.934 6.8498-1.7996 11.491-.8635 4.6412-1.7809 5.0107-.7763 6.5655z" fill="url(#H)"/><path d="m31.7259 48.7551c.0936.4974.1512 1.5708-.5064 2.4236-.5758.7466-1.4564.9726-1.8092 1.0666-.8527.2273-1.3134.043-1.3592.1897-.1016.3246 1.9899 1.7655 4.4101 1.6753 1.4225-.0529 2.8553-.631 2.8407-1.0881-.0165-.5129-1.8424-.4549-2.2954-1.5168-.2895-.6787.1095-1.5148.5428-2.1659-.3925-.4569-1.4299-.1265-1.8234-.5844z" fill="url(#I)"/><path d="m33.48 48.3102c.1479-.412-.0164-.9672-.419-1.2026-.3467-.2026-.7525-.0939-.9957-.0288-.7054.1888-1.4787.7895-1.5854 1.4974-.0632.42.5592 1.0003.6621 1.108.1166.1219.2566.1247.4074.1924.209.094.5373.2447 1.0761.5006-.0085-.1342-.0101-.3037.0122-.4968.0086-.0743.0453-.3656.1558-.6382.221-.546.5463-.5411.6865-.932z" fill="url(#J)"/><path d="m31.9359 50.2542s.6749.5193 1.5479.1166c.7801-.3598.3446-2.0916-.2808-2.2522-.2087-.0535-.565.0287-.8178.2091-.1494.1067-.1839.1922-.4312.3622-.2283.157-.3068.1582-.3623.2467-.0694.1108-.0786.3198.2393.7532-.2001-.0863-.4014-.071-.5124.0372-.0176.0174-.0612.0739-.0747.1394-.0487.2366.2191.4106.692.3878z" fill="url(#K)"/><path d="m19.3101 79.5869c1.0047 1.5546 4.5478.5209 7.7133-1.2434 3.1654-1.7643 5.1892-.7265 9.1891-.7784 2.5925-.0332 3.7175-1.3512 3.8649-2.8125-1.0897-.1329-2.1068-.5999-2.8312-1.8018-2.5946-4.3029-8.5103-.8344-12.3089-2.3912-3.8006-1.5568 1.9989-9.5959 1.9989-9.5959.3778-12.2362-4.1078-4.5748-5.2183-2.5013-.1369.9653-.0872 1.999.1681 3.068 1.1936 4.9816-.934 6.8497-1.7996 11.491-.8635 4.6412-1.7809 5.0107-.7763 6.5655z" fill="url(#L)" opacity=".4"/><path d="m26.1155 53.8335s6.32 2.5235 1.7188 6.6495c-4.6011 4.126-9.7037 1.4092-11.7567 3.8408s-1.9867 4.0713-2.6049 5.8372c-.6184 1.7659 1.1286 3.9451-.9908 4.7371s-1.008-1.3716-1.2605-2.7409c-.2526-1.3693-.5848-10.6282 2.8376-13.3123s10.0115-5.6514 12.0565-5.0114z" fill="url(#M)"/><path d="m14.0374 71.1942c0 .2358-.1912.427-.427.427h-2.2771c-.2358 0-.427-.1912-.427-.427s.1912-.4269.427-.4269h2.2771c.2358 0 .427.1911.427.4269z" fill="url(#N)"/><path d="m13.0412 70.8871c0-.1448-.1174-.2622-.2622-.2622h-.8989c-.1447 0-.2621.1174-.2621.2622v.7565c0 .1448.1174.2622.2621.2622h.8989c.1448 0 .2622-.1174.2622-.2622z" fill="url(#O)"/><path d="m12.8988 70.9697c0-.1118-.0907-.2024-.2024-.2024h-.7337c-.1118 0-.2024.0906-.2024.2024v.5913c0 .1118.0906.2025.2024.2025h.7337c.1117 0 .2024-.0907.2024-.2025z" fill="#fff"/></svg>