<svg fill="none" height="115" viewBox="0 0 153 115" width="153" xmlns="http://www.w3.org/2000/svg"><path d="m55.9902 108.304c8.8976-.085 62.8118 10.923 66.5588-33.8542 3.746-44.7771-16.032-48.4873-27.7627-50.9714-26.9302-5.7029-50.0976-32.9978-76.8162-18.31684-10.48838 5.76294-2.2189 30.69604-11.20188 56.19574-6.576102 18.6674 5.53708 38.5136 13.63188 43.2357 8.0946 4.722 35.5901 3.711 35.5901 3.711z" fill="#eaf5ff"/><path d="m33.8231 89.9852s-3.9576-26.3632-11.1444-24.735c-7.1868 1.6281 7.2803 24.1391 7.2803 24.1391s-18.2165-27.1625-27.89887-20.0545c-9.68236 7.1079 24.66297 21.1839 24.66297 21.1839s-25.08855-2.0475-25.2263 6.2953c-.13774 8.343 33.6912-3.2193 33.6912-3.2193z" fill="#cbebff"/><path d="m4.28943 72.2379c2.41721 1.5802 4.81595 3.187 7.21087 4.7993 2.3954 1.6117 4.7807 3.2378 7.1652 4.8652 2.379 1.635 4.7612 3.2656 7.1307 4.9145l3.5571 2.469 3.5482 2.4819-.4879.3745c-.6948-1.9226-1.3712-3.852-2.0558-5.7783l-.5121-1.4453-.5064-1.4474-1.0122-2.8948-1.0025-2.8984-.5002-1.4496-.4949-1.4515c-.6611-1.9349-1.3134-3.8729-1.9535-5.8154.7501 1.9027 1.488 3.8098 2.217 5.7202l.5478 1.4324.5424 1.4343 1.0829 2.8693 1.073 2.8729.5363 1.4366.5305 1.4386c.7055 1.9187 1.4194 3.8346 2.1147 5.7571l.3441.9513-.832-.5767-3.5587-2.4668-3.5498-2.4796c-2.3685-1.6503-4.7243-3.3187-7.0831-4.9828-2.3534-1.6719-4.7062-3.3448-7.0487-5.0323-2.3431-1.6871-4.6823-3.3794-7.00297-5.0982z" fill="#fff" opacity=".25"/><path d="m6.00266 95.3759c2.14749-.463 4.30484-.861 6.46554-1.2361 2.1608-.3749 4.325-.7272 6.4931-1.0533 2.1677-.3284 4.3398-.6288 6.515-.9078 2.1753-.2784 4.3542-.5334 6.5429-.7228-2.1474.4638-4.3046.8622-6.4655 1.2372-2.1608.3744-4.3249.7273-6.4932 1.0522-2.1679.3272-4.3399.6283-6.5152.9067-2.1753.2782-4.35402.5335-6.54264.7239z" fill="#fff" opacity=".25"/><path d="m100.679 77.964c3.057-1.9651 28.609-30.4265 22.653-46.5247s-19.403 9.084-19.403 9.084 5.994-22.1756.787-28.6096c-5.2068-6.43393-18.2125 2.6315-18.6656 30.1711-.4531 27.5398 2.7895 37.7975 2.7895 37.7975s5.5487 2.1247 11.8391-1.9183z" fill="#cbebff"/><path d="m118.731 28.3121c-1.738 3.9167-3.49 7.8266-5.247 11.735l-2.64 5.8599-2.647 5.8565-2.653 5.854-2.662 5.8496-2.665 5.8486-2.6729 5.8446-.5708 1.2477.0646-1.3712c.2437-5.1762.5044-10.3515.7609-15.527l.394-7.7629.4014-7.7624.4131-7.762.4251-7.7613c.2897-5.1739.5806-10.3477.8986-15.5203-.187 5.1789-.401 10.3565-.6159 15.534l-.3318 7.7659-.344 7.7652-.3555 7.7648-.3631 7.7643c-.248 5.176-.4921 10.3521-.7529 15.5274l-.5062-.1234 2.6837-5.8399 2.6927-5.8359 2.694-5.8347 2.705-5.8305 2.709-5.8279 2.717-5.8245c1.816-3.8811 3.635-7.7608 5.468-11.6336z" fill="#fff" opacity=".25"/><path d="m111.237 32.0432c.206.7067.393 1.4171.579 2.1281.094.355.18.712.271 1.0679.09.356.178.7126.264 1.0695.173.7137.341 1.4284.504 2.1441.163.7158.323 1.4322.478 2.1496l-.363-.1926 1.191-.4852c.398-.1611.796-.3202 1.195-.4779.797-.3165 1.597-.6269 2.399-.9317.401-.1528.803-.303 1.205-.4525l1.21-.4412c.808-.2881 1.617-.5761 2.436-.8394-.77.3828-1.551.7409-2.331 1.0988l-1.174.5279c-.393.1735-.786.3463-1.179.5166-.787.3412-1.577.6769-2.369 1.0064-.396.1654-.792.3293-1.189.4911l-1.192.4839-.298.1208-.066-.3134c-.15-.7184-.296-1.4378-.439-2.1579-.142-.7202-.28-1.4413-.413-2.1634-.067-.3611-.132-.7225-.194-1.0844-.062-.362-.129-.723-.187-1.0858-.12-.7248-.238-1.4501-.338-2.1793z" fill="#fff" opacity=".25"/><path d="m105.614 41.4335c.23.9046.437 1.8137.645 2.7225.202.9099.403 1.8201.592 2.7323.196.9111.375 1.8254.561 2.7385.183.9134.358 1.8284.531 2.7438l-.342-.2089 1.367-.4056 1.369-.3981 1.372-.3897.685-.1947.688-.1887c.459-.1251.916-.2534 1.376-.3758l1.379-.3653c.921-.236 1.842-.4741 2.77-.6879-.893.3303-1.794.6361-2.694.9442l-1.353.4508c-.451.1497-.904.2934-1.357.4405l-.678.2192-.68.2133-1.361.4265-1.363.4179-1.366.4106-.287.0864-.055-.2953c-.171-.9158-.34-1.8319-.501-2.7496-.158-.9182-.323-1.835-.471-2.7551-.155-.9189-.298-1.8399-.44-2.7612-.136-.922-.273-1.8441-.387-2.7706z" fill="#fff" opacity=".25"/><path d="m95.3284 14.743c.4367.5493.8504 1.1137 1.2637 1.6783.4106.5663.8141 1.1373 1.2116 1.7123.3961.5758.7898 1.1531 1.175 1.736.3871.5816.7675 1.1677 1.1453 1.7552l-.3959-.0583.6299-.5213.635-.5168c.424-.3423.85-.6833 1.28-1.0191.43-.3365.862-.6698 1.3-.9964.437-.3277.877-.6522 1.327-.9648-.384.3912-.777.7704-1.174 1.1465-.395.3771-.796.7475-1.199 1.1147-.403.368-.811.7307-1.219 1.0921l-.616.5388-.619.5343-.2286.1969-.1679-.2553c-.384-.5837-.7655-1.1689-1.1404-1.7585-.3768-.5884-.7451-1.1822-1.1111-1.7776-.3646-.5963-.7231-1.1966-1.0744-1.8015-.3488-.6068-.697-1.2136-1.0222-1.8355z" fill="#fff" opacity=".25"/><path d="m90.7135 28.4384c.7505.6781 1.4818 1.3748 2.2119 2.0728.3625.3513.7276.7002 1.0883 1.0535l1.0799 1.0616 1.071 1.0703c.3571.3566.7134.7141 1.0666 1.0745.7087.7186 1.4115 1.443 2.1124 2.1693l-.4198.0466.6371-1.0243.6441-1.0199.646-1.019.654-1.0138c.217-.3386.438-.6748.659-1.0105.222-.3357.441-.6732.666-1.0065.448-.6689.899-1.3358 1.363-1.9943-.376.7129-.765 1.4173-1.158 2.1197-.194.3524-.396.7006-.594 1.0505-.199.3499-.398.6995-.601 1.0465l-.606 1.0431-.615 1.0381-.616 1.0371-.6231 1.0328-.1777.2944-.2422-.2478c-.7054-.7218-1.409-1.4455-2.1067-2.1749-.3499-.3636-.6968-.7301-1.0428-1.0975l-1.0386-1.1018-1.0297-1.1104c-.3425-.3708-.6806-.7459-1.0212-1.1186-.6766-.7501-1.3515-1.5015-2.0075-2.2715z" fill="#fff" opacity=".25"/><path d="m29.4762 80.1061c-3.3078-1.5057-32.68142-26.0031-29.099109-42.7896 3.582319-16.7865 20.505809 6.2038 20.505809 6.2038s-9.1153-21.0852-4.8864-28.2002c4.2289-7.11487 18.4015-.0109 22.8044 27.1784 4.4029 27.1892 2.6668 37.8063 2.6668 37.8063s-5.186 2.8993-11.9915-.1987z" fill="#cbebff"/><path d="m4.48123 33.5611c2.28228 3.6266 4.57816 7.2444 6.87737 10.8601l3.4539 5.4201 3.4609 5.4157 3.4658 5.4124 3.4747 5.4067 3.4768 5.4053 3.4849 5.4002.7439 1.1529-.2608-1.3478c-.9845-5.0875-1.9856-10.1718-2.9827-15.2568l-1.5045-7.6258-1.5119-7.6244-1.5234-7.6222-1.5352-7.6199c-1.0297-5.0786-2.0606-10.1571-3.1176-15.2304.9289 5.0983 1.8837 10.1916 2.8398 15.2847l1.4435 7.6377 1.4553 7.6354 1.4669 7.6332 1.4741 7.6318c.9888 5.0867 1.9735 10.1741 2.9749 15.2583l.4831-.1949-3.4944-5.3939-3.5025-5.3888-3.5046-5.3873-3.5135-5.3816-3.5184-5.3785-3.5253-5.374c-2.35349-3.5804-4.71048-7.1587-7.08107-10.7282z" fill="#fff" opacity=".25"/><path d="m12.4336 36.1768c-.1022.7289-.1859 1.459-.2675 2.1892-.0425.3649-.0763.7306-.1149 1.0958-.0384.3652-.0739.7307-.1079 1.0963-.0685.7311-.1319 1.4625-.1908 2.1943-.0587.7317-.1139 1.4636-.1643 2.1959l.3319-.2427-1.249-.309c-.4165-.1025-.83357-.2027-1.25091-.3015-.83442-.1988-1.67048-.3911-2.50799-.5775-.41865-.0936-.83798-.1846-1.25746-.2748l-1.26034-.263c-.84183-.169-1.68366-.3378-2.53188-.4807.81732.2681 1.64102.5105 2.46479.7526l1.23796.3538c.4133.1153.8268.2299 1.24084.3419.8281.2247 1.65757.4435 2.48869.6559.41543.1068.8311.2122 1.2474.3152l1.2494.3077.3119.0768.02-.3196c.0459-.7326.0871-1.4654.1246-2.1985.0374-.7332.0703-1.4666.0982-2.2003.0141-.3669.0268-.7339.0365-1.101.0095-.3672.0239-.734.0295-1.1015.0147-.7345.0272-1.4693.0213-2.2053z" fill="#fff" opacity=".25"/><path d="m19.3463 44.662c-.0976.9283-.1718 1.8576-.247 2.7869-.0696.9295-.1375 1.8591-.1942 2.7892-.0632.9297-.1087 1.8602-.1614 2.7905-.0502.9303-.0919 1.861-.1321 2.7917l.309-.2558-1.411-.2051-1.4121-.1975-1.4134-.1885-.7067-.0943-.7076-.0881c-.4718-.0579-.9432-.119-1.4154-.1743l-1.4171-.1635c-.94587-.1012-1.89139-.2046-2.84068-.2829.93151.1986 1.86679.3719 2.80168.5477l1.404.2518c.4682.0832.9372.1604 1.4058.241l.7029.1196.7039.1133 1.4077.2268 1.4091.2178 1.4102.2102.297.0443.012-.3c.0372-.9309.0732-1.8618.1004-2.7931.0248-.9314.0569-1.8625.0712-2.7943.0209-.9315.0304-1.8635.0383-2.7956.0023-.9323.0057-1.8646-.0145-2.7978z" fill="#fff" opacity=".25"/><path d="m25.6929 16.7717c-.3534.6063-.6818 1.2243-1.0097 1.8424-.325.6194-.6424 1.2424-.9531 1.8685-.3093.6267-.6161 1.2546-.9136 1.8868-.2996.6311-.5919 1.2657-.8816 1.9014l.3835-.1146-.6986-.4254-.7019-.4204c-.4694-.2777-.9397-.5542-1.4136-.8246-.4735-.2714-.9492-.5391-1.4294-.7995-.4796-.2615-.9613-.5195-1.4513-.7643.4356.332.8794.6509 1.3255.9662.4453.3164.8953.6254 1.3475.9309.4516.3063.9069.6067 1.3632.9057l.6865.4448.6897.4398.2541.1621.1295-.2768c.2962-.6328.5899-1.2667.8761-1.904.2884-.6364.5677-1.277.8443-1.9188.2752-.6424.5438-1.2879.8047-1.937.2581-.6504.5156-1.301.7482-1.9632z" fill="#fff" opacity=".25"/><path d="m32.2263 29.6626c-.6453.7789-1.269 1.5733-1.8913 2.3689-.3084.3997-.6195.7974-.9257 1.1988l-.9162 1.2057-.9062 1.213c-.3022.4042-.6035.8092-.9013 1.2165-.5982.813-1.1896 1.6308-1.779 2.4501l.4222-.0142-.7776-.9221-.7839-.9169-.7854-.9156-.7928-.9094c-.2632-.304-.5303-.6049-.7978-.9054-.2676-.3004-.5326-.6029-.8037-.9003-.539-.5978-1.0807-1.1931-1.635-1.778.4742.6516.9609 1.2927 1.4504 1.9314.2432.3208.4923.6365.7389.9543.2468.3177.4939.6352.7449.9493l.7497.9453.7573.9391.7587.9378.7651.9325.2181.2659.2041-.28c.5945-.8156 1.1869-1.6328 1.7725-2.4548.2942-.4101.5848-.8226.8745-1.2359l.8696-1.2395.8596-1.2468c.2857-.4161.5665-.8359.85-1.2536.5616-.8395 1.1217-1.68 1.6603-2.5361z" fill="#fff" opacity=".25"/><path d="m64.695 80.8781c22.151 0 40.108-16.5925 40.108-37.0605s-17.957-37.06058-40.108-37.06058-40.1079 16.59258-40.1079 37.06058 17.9569 37.0605 40.1079 37.0605z" fill="#87c7ff"/><path d="m37.6773 15.8495c4.41-1.4567 8.3154-2.5171 13.31-3.3187 4.6108-.7529 9.1783-1.0674 13.6955-1.0465 4.6049.0389 9.1741.4306 13.6843 1.1806 4.4192.6716 9.1032 1.89 13.345 3.1846-4.2029-1.0856-9.1135-2.226-13.4043-2.8042-4.8147-.7112-9.4366-1.0472-13.6283-1.0679-4.629-.0409-9.1847.2965-13.6341.9325-6.6094.9629-11.3059 2.3559-13.3681 2.9396z" fill="#fff"/><path d="m37.3895 70.8151c1.6978.4805 6.5741 1.95 13.3681 2.9396 4.44.6347 8.9955.9736 13.634.9326 4.1962-.0207 8.8187-.3574 13.6285-1.0679 4.5462-.6127 9.2938-1.7426 13.4042-2.8043-4.2876 1.3088-8.8372 2.4996-13.345 3.1847-4.505.749-9.0747 1.1416-13.6843 1.1805-4.5176.0211-9.0848-.2936-13.6955-1.0465-4.9694-.7974-8.8708-1.8523-13.31-3.3187z" fill="#fff"/><path d="m27.4113 28.9028c7.0936-1.113 9.5381-1.4541 18.4321-2.2741 8.1903-.617 11.3101-.6846 18.5641-.767 7.6109.0761 9.6867.1165 18.5652.748 8.7741.8062 11.1871 1.1403 18.4293 2.2931-7.8186-.9884-9.4779-1.2042-18.4584-1.9092-7.3616-.4483-9.7074-.5713-18.5358-.6388-7.3531.0653-9.661.1114-18.5354.6563-8.4834.6662-10.0085.8404-18.4611 1.8917z" fill="#fff"/><path d="m27.4113 57.799c9.8648 1.2271 15.0485 1.8215 27.7237 2.3801 10.4802.2863 14.2832.1947 23.1791-.189 10.4448-.6362 13.7655-1.0128 23.0879-2.1911-9.5747 1.5239-13.6699 1.9545-23.0635 2.6227-8.2303.417-13.2725.5721-23.2215.2229-9.9311-.5121-15.7066-.9627-27.7057-2.8456z" fill="#fff"/><path d="m24.328 43.2408c5.79-.0855 13.4111-.1589 20.054-.1917 5.9761-.0408 15.4986-.0487 20.0539-.0548 4.4935.0057 14.1124.0132 20.054.054 3.4735.0214 11.1505.0601 20.0541.1925-8.3435.1241-15.2305.1629-20.0541.1925-5.9313.0407-15.6599.0484-20.054.054-4.6357-.0063-14.0886-.0142-20.0539-.0547-5.6953-.0283-13.3697-.093-20.054-.1918z" fill="#fff"/><path d="m64.4068 6.18005c-1.7895.56141-6.533 2.35342-11.5522 5.49605-7.3664 4.5943-13.4111 10.7264-16.5673 18.853-1.5249 4.2533-2.4137 8.6827-2.0324 14.0821.625 8.3728 3.6028 15.5238 9.0297 21.6652 2.7446 3.1154 6.0258 5.9084 9.6832 8.3009 4.6087 3.0316 9.2301 4.9938 11.439 5.7239-3.8348-1.2091-8.1336-3.3444-11.5701-5.5205-3.6157-2.3015-6.975-5.0403-9.8403-8.249-5.7357-6.4009-8.5832-13.4112-9.2312-21.8902-.3305-4.5705.2817-9.5434 2.0871-14.2794 3.2489-8.2355 9.3998-14.3654 16.8764-18.8909 3.4817-2.09734 7.7986-4.1338 11.6781-5.29115z" fill="#fff"/><path d="m64.4066 6.18005c1.7895.56141 6.533 2.35342 11.5523 5.49605 7.3663 4.5943 13.4111 10.7264 16.5672 18.8529 1.5249 4.2533 2.4137 8.6828 2.0323 14.0821-.6248 8.3728-3.6026 15.5239-9.0296 21.6652-2.7446 3.1155-6.0258 5.9085-9.6831 8.301-4.6086 3.0315-9.2301 4.9938-11.4391 5.7238 3.8348-1.2091 8.1337-3.3444 11.5702-5.5205 3.6158-2.3015 6.975-5.0403 9.8403-8.249 5.7357-6.4009 8.5832-13.4111 9.2312-21.8902.3305-4.5705-.2817-9.5433-2.0872-14.2794-3.2488-8.2354-9.3998-14.3654-16.8763-18.8909-3.4818-2.09724-7.7987-4.1337-11.6782-5.29105z" fill="#fff"/><path d="m64.6947 6.18005c1.4512 1.08072 3.9296 3.72082 6.194 7.81825 2.7895 5.0697 4.1489 10.1121 5.1444 15.422.3113 1.9865 1.0965 6.5085 1.0341 13.7556-.0399 3.3459-.2355 6.6934-.6615 10.0152-.7065 5.1242-1.6422 9.6296-3.5877 14.5984-2.5967 6.6121-6.0457 10.8796-8.1233 12.5117 2.0209-1.6871 5.3564-6.0361 7.8215-12.6278 1.8449-4.946 2.7508-9.3782 3.4259-14.54.4094-3.3033.6003-6.6327.6321-9.9623-.0158-6.1714-.2847-9.0667-.9748-13.6777-.9136-5.0662-2.1525-10.1254-4.9224-15.381-2.176-4.15097-4.6581-6.88376-5.9823-7.93235z" fill="#fff"/><path d="m64.6949 6.18005c-1.4511 1.08072-3.9296 3.72082-6.1939 7.81825-2.7895 5.0697-4.149 10.1121-5.1444 15.422-.3115 1.9865-1.0965 6.5085-1.0343 13.7556.0401 3.3459.2357 6.6934.6617 10.0152.7064 5.1242 1.6421 9.6296 3.5877 14.5984 2.5967 6.6121 6.0457 10.8796 8.1232 12.5117-2.0208-1.6871-5.3564-6.0361-7.8214-12.6278-1.8449-4.946-2.7508-9.3782-3.4259-14.54-.4095-3.3033-.6003-6.6327-.6321-9.9623.0158-6.1714.2848-9.0667.9748-13.6777.9136-5.0662 2.1525-10.1254 4.9224-15.381 2.1759-4.15097 4.658-6.88376 5.9822-7.93235z" fill="#fff"/><path d="m115.118 37.8732h-38.2474v39.3697h38.2474z" fill="#ff5862"/><g fill="#8ac9ff"><path d="m95.0997 47.123h-2.8693v4.801h2.8693z"/><path d="m95.0997 55.1647h-2.8693v4.801h2.8693z"/><path d="m95.0997 62.7264h-2.8693v4.8011h2.8693z"/><path d="m91.366 47.123h-2.8693v4.801h2.8693z"/><path d="m91.366 55.1647h-2.8693v4.801h2.8693z"/><path d="m91.366 62.7264h-2.8693v4.8011h2.8693z"/><path d="m87.6324 47.123h-2.8694v4.801h2.8694z"/><path d="m87.6324 55.1647h-2.8694v4.801h2.8694z"/><path d="m87.6324 62.7264h-2.8694v4.8011h2.8694z"/><path d="m83.8987 47.1231h-2.8694v4.801h2.8694z"/><path d="m83.8987 55.1647h-2.8694v4.801h2.8694z"/><path d="m83.8987 62.7264h-2.8694v4.8011h2.8694z"/><path d="m95.0997 70.3988h-2.8693v4.8011h2.8693z"/><path d="m91.366 70.3988h-2.8693v4.8011h2.8693z"/><path d="m87.6324 70.3988h-2.8694v4.8011h2.8694z"/><path d="m83.8987 70.3988h-2.8694v4.8011h2.8694z"/><path d="m110.186 47.1238h-2.869v4.801h2.869z"/><path d="m110.186 55.1655h-2.869v4.8009h2.869z"/><path d="m110.186 62.7272h-2.869v4.801h2.869z"/><path d="m106.453 47.1238h-2.869v4.801h2.869z"/><path d="m106.453 55.1655h-2.869v4.8009h2.869z"/><path d="m106.453 62.7272h-2.869v4.801h2.869z"/><path d="m102.719 47.1238h-2.8691v4.801h2.8691z"/><path d="m102.719 55.1655h-2.8691v4.8009h2.8691z"/><path d="m102.719 62.7272h-2.8691v4.801h2.8691z"/><path d="m98.9859 47.123h-2.8694v4.801h2.8694z"/><path d="m98.9857 55.1655h-2.8693v4.8009h2.8693z"/><path d="m98.9857 62.7272h-2.8693v4.801h2.8693z"/><path d="m110.186 70.3989h-2.869v4.8011h2.869z"/><path d="m106.453 70.3989h-2.869v4.8011h2.869z"/><path d="m102.719 70.3989h-2.8691v4.8011h2.8691z"/><path d="m98.9857 70.3989h-2.8693v4.8011h2.8693z"/></g><path d="m87.3196 40.4549c.0989-.0146.1887-.0255.2693-.033.0805-.0072.1519-.011.2143-.011.066 0 .1401.0038.2225.011.0825.0075.1713.0184.2667.033v1.4564h.9727v-1.4564c.0989-.0146.1877-.0255.2665-.033.0788-.0072.1512-.011.2171-.011.066 0 .1402.0038.2226.011.0824.0075.1712.0184.2665.033v3.9241c-.1941.0329-.3554.0495-.4836.0495-.1356 0-.2987-.0166-.4891-.0495v-1.6049h-.9727v1.6049c-.1943.0329-.3555.0495-.4836.0495-.1357 0-.2988-.0166-.4892-.0495z" fill="#ffefbf"/><path d="m92.9637 44.4614c-.3005 0-.5597-.0503-.7777-.1511-.2181-.1007-.3976-.2418-.5386-.4231-.1411-.1814-.2455-.3957-.3133-.6431-.0678-.2473-.1016-.5174-.1016-.8106 0-.2931.0338-.5651.1016-.8162.0677-.2509.1722-.4679.3133-.6512.141-.1832.3205-.327.5386-.4315.218-.1044.4772-.1566.7777-.1566.3004 0 .5587.0522.7749.1566.2161.1045.3947.2483.5359.4315.1409.1833.2453.4003.3132.6512.0677.2511.1017.5231.1017.8162 0 .2932-.034.5634-.1017.8106-.0678.2474-.1723.4617-.3132.6431-.1412.1813-.3197.3224-.5359.4231-.2162.1008-.4745.1511-.7749.1511zm0-.8408c.4689 0 .7034-.3957.7034-1.1871 0-.7987-.2327-1.1981-.6979-1.1981-.4764 0-.7145.3994-.7145 1.1981 0 .3994.0577.6971.1731.893.1154.1961.2941.2941.5359.2941z" fill="#ffefbf"/><path d="m96.2391 41.3018h-.9177c-.0329-.1574-.0495-.3023-.0495-.4342 0-.1209.0165-.2618.0495-.4231h2.8083c.0146.0806.0256.1557.033.2252.0072.0697.011.1357.011.1979 0 .1209-.0148.2657-.044.4341h-.9179v3.0777c-.1942.033-.3554.0495-.4836.0495-.1356 0-.2987-.0165-.4891-.0495z" fill="#ffefbf"/><path d="m99.0256 40.4445h2.3194c.014.0806.025.1557.033.2252.007.0697.011.1357.011.1979 0 .1209-.015.2657-.044.4341h-1.3467v.6046h1.0607c.033.1612.049.3041.049.4286 0 .1284-.016.2713-.049.4288h-1.0607v.7804h1.3797c.033.1538.049.2932.049.4176 0 .1357-.016.2804-.049.4343h-2.3525v-3.9515z" fill="#ffefbf"/><path d="m102.362 40.4549c.099-.0146.188-.0255.269-.033.081-.0072.152-.011.214-.011.066 0 .14.0038.223.011.082.0075.171.0184.266.033v3.0777h1.27c.018.0916.03.1713.036.2391.005.0678.008.1291.008.1841 0 .0623-.003.1273-.008.1951-.006.0678-.018.1493-.036.2445h-2.242z" fill="#ffefbf"/><path d="m59.8416 64.5184 59.5324-.8927-1.511 41.3363h-67.2912l-5.1579-39.4512z" fill="#91d4ff"/><path d="m59.8417 64.5181 14.8827-.2342 14.8823-.2545 29.7653-.5549.158-.0029-.005.1594-.68 20.6709-.353 10.335-.362 10.3341-.009.257h-.257l-16.823.004-16.8233-.023-16.8229-.052-16.8229-.062-.1172-.001-.0146-.115-2.5063-19.7351-1.261-9.8665-1.2695-9.8654-.0014-.0115.0115-.0008zm0 0-14.4269 1.0033.01-.0123 1.3095 9.8602 1.3178 9.8591 2.6516 19.7166-.1318-.116 16.8229-.062 16.8229-.052 16.8233-.023 16.822.003-.266.257.393-10.3335.402-10.3332.831-20.6653.153.1565-29.767.3378-14.8839.1918z" fill="#35105f"/><path d="m77.3505 68.0785 2.068 34.4115h35.9835l.745-35.156z" fill="#c2fff7"/><path d="m86.4401 88.5311-.5055-3.9272c-.129-1.0024.4949-1.9116 1.3173-1.9194l19.7271-.1876c.845-.0081 1.486.9366 1.332 1.9619l-.542 3.6001z" fill="#ff5862"/><path d="m86.336 88.0442 21.283-.2987c.559-.0078 1.029.5154 1.08 1.2025l.204 2.726h-23.6845l.0573-2.3458c.0173-.7095.485-1.2759 1.0602-1.284z" fill="#35105f"/><path d="m88.4555 88.0592s-.7564-3.47-.0645-3.9061c.6918-.436 6.3001-.5268 6.8152-.0727.5152.4542.3239 3.9012 0 4.0581-.3238.1569-6.7507-.0793-6.7507-.0793z" fill="#ffc371"/><path d="m99.0498 88.0592s-.7565-3.47-.0646-3.9061c.6918-.436 6.2998-.5268 6.8148-.0727.516.4542.324 3.9012 0 4.0581-.323.1569-6.7502-.0793-6.7502-.0793z" fill="#ffc371"/><path d="m84.8358 91.2019h24.5822v5.6684h-24.3948z" fill="#ff5862"/><path d="m81.1142 70.957c-.5884.5884-.3591 7.0338.2694 7.3031.6285.2694 5.7767.3292 5.9862 0s.8082-6.9141.5687-7.3031c-.2395-.3892-6.2556-.5688-6.8243 0z" fill="#99ffef"/><path d="m81.856 71.77c-.455.4549-.2777 5.4384.2082 5.6466.486.2083 4.4665.2546 4.6285 0 .1619-.2545.6248-5.3458.4396-5.6466-.185-.3008-4.8365-.4398-5.2763 0z" fill="#9dd9ff"/><path d="m100.837 70.957c.589.5884.36 7.0338-.269 7.3031-.6286.2693-5.7767.3292-5.9862 0-.2096-.3292-.8082-6.9141-.5687-7.3031.2395-.3892 6.2559-.5688 6.8239 0z" fill="#99ffef"/><path d="m100.096 71.77c.455.4549.278 5.4384-.2085 5.6466-.4859.2083-4.4663.2546-4.6283 0-.162-.2545-.6249-5.3458-.4397-5.6466.1851-.3008 4.8366-.4398 5.2765 0z" fill="#9dd9ff"/><path d="m113.329 70.854c.61.6104.372 7.2962-.28 7.5756s-5.992.3416-6.209 0c-.218-.3415-.839-7.172-.59-7.5756.248-.4036 6.489-.5899 7.079 0z" fill="#99ffef"/><path d="m112.559 71.6973c.472.4719.288 5.6412-.216 5.8573s-4.633.2641-4.801 0-.648-5.5453-.456-5.8573c.192-.3121 5.017-.4562 5.473 0z" fill="#9dd9ff"/><path d="m72.9566 68.9808c3.6785 0 6.6605-2.982 6.6605-6.6605 0-3.6784-2.982-6.6604-6.6605-6.6604s-6.6605 2.982-6.6605 6.6604c0 3.6785 2.982 6.6605 6.6605 6.6605z" fill="#3fa9f5"/><path d="m70.0137 62.4241c.1368-.6149.3495-1.2134.6117-1.7903.0665-.1439.1351-.2871.2103-.4271.0359-.071.0757-.1398.1146-.2092l.0586-.1041c.0187-.0331.0374-.0658.0549-.0994.1416-.2681.2405-.5593.3172-.8565.0776-.2974.1333-.6018.1804-.9098l.0681-.4656c.0235-.1568.0463-.3141.0837-.4786.02-.0828.0407-.1663.0866-.2628.0256-.048.0525-.1036.1282-.1607.037-.0272.0905-.0516.1467-.0561.0533-.006.1119.0094.1265.014.0982.0266.1807.0652.2594.1076.0784.0427.1513.0903.221.1412.2768.2045.5057.4593.6867.7496.1803.29.3057.6209.3498.9702.0423.3497-.0048.7003-.0939 1.0229-.044.1616-.0992.3183-.1521.4656-.0258.0726-.0522.1464-.0659.2014-.0034.0132-.0055.0248-.0061.0304-.0013.0053.0019.0058-.0015-.0199-.0023-.0133-.0071-.0335-.0241-.0622 0 0-.0051-.0084-.0158-.0222-.0085-.0107-.0207-.0223-.0275-.0284-.008-.0071-.0168-.0136-.0258-.0193-.0065-.0043-.0127-.0079-.0193-.0113-.0153-.0072-.0193-.0089-.03-.0123-.0067-.0022-.0119-.0036-.0175-.0047-.0173-.0034-.0186-.0026-.0189-.003l.0086-.0007c.0454-.0042.124-.0208.1947-.0374l.2234-.0555.4595-.117c.3102-.0764.6267-.1427.9588-.1803.1665-.0177.3371-.0281.5188-.0155.091.0069.185.0196.2836.0465.0981.0272.2033.0687.3037.1445.1003.0742.1873.1911.2278.3132.0103.0288.0195.064.0243.0873l.0132.064c.0088.0426.0156.0857.0224.1289.0255.1729.0345.349.0245.525-.0095.176-.0385.3512-.0857.5223-.0237.0856-.0528.1699-.0867.2534-.0172.0416-.0355.0831-.0561.1245-.0103.0208-.021.0414-.0329.0624-.0128.0228-.0214.0387-.042.0706l-.1123-.4006c.0527.0256.087.0454.1281.07.0394.0238.0779.049.1158.0757.0756.0537.149.1142.2185.186.0688.0728.1354.1561.1859.2618.0515.1034.0819.2333.0745.3623-.0052.0636-.0163.1273-.0366.1843-.018.0575-.0481.1151-.064.1456-.0373.0737-.078.147-.1203.2202-.0432.073-.0888.1459-.1411.2189-.0257.0364-.0546.0732-.0855.1105-.016.0187-.033.0379-.0519.0574-.0107.0105-.0193.0197-.0321.0311l-.0197.0175-.0123.01c-.0071.0053-.0063.0053-.0235.0172l-.0585-.4748c.0381.0144.0569.0234.0832.0357.0243.0117.0479.0239.071.0368.0464.0258.0912.0544.1349.0862.087.0633.1695.1412.2392.2365.0693.0952.1237.2103.1484.3322.0266.1218.0213.2457-.0006.3574-.0223.1127-.0607.2129-.1068.3061-.0465.0939-.1035.1808-.1671.2601-.128.1578-.2785.2843-.4347.3904-.3148.209-.6509.3449-.9875.4525-.3374.1066-.6779.184-1.019.246-.3409.0627-.6833.1056-1.0252.1397-.3416.0331-.6779.0618-1.0174.091-.339.028-.6779.0568-1.0179.0784l-.5108.0296-.2566.0113c-.0872.0031-.1683.0061-.2641.0058l-.1387-.0004-.0179-.1326-.1177-.8688-.1118-.8698c-.0377-.2898-.0745-.5798-.1089-.8703-.0346-.2903-.0716-.5802-.1038-.8711l-.003-.0272.0231-.0071zm0 0-.5573.2358.0201-.0343c.0625.2858.1201.5724.1801.8585.0603.2862.1182.5728.1751.8595l.1721.8598.1665.8609-.1566-.133c.0738-.0035.1623-.0103.2443-.0174l.2513-.0232.504-.0535 1.0089-.1155c.3357-.0405.6745-.0813 1.0073-.1252.3323-.0439.6618-.1004.9876-.165.3253-.0662.6463-.1468.9542-.2512.307-.1044.6027-.2353.8506-.408.1225-.087.2312-.1847.3151-.2928.0411-.0543.0763-.1106.105-.1689.0288-.0588.0502-.119.0602-.173.02-.1103.0016-.1922-.0589-.2761-.0308-.0414-.0725-.0822-.123-.1181-.025-.018-.052-.035-.0799-.0502-.0139-.0076-.0281-.0148-.042-.0214-.012-.0059-.0321-.0141-.0337-.0146l-.0585-.4749-.0117.0083c-.0019.0016-.0005.0004-.0009.0007l.0022-.0021.0101-.01c.0083-.0089.0175-.0192.0269-.0304.019-.0234.0388-.0484.0581-.0765.0389-.0551.0766-.1159.113-.1783.0359-.0632.0713-.1277.1045-.1946.0198-.0393.0261-.0521.0313-.0697.0068-.0171.0072-.0319.0095-.0464 0-.0281-.0039-.0566-.0228-.0939-.0172-.0366-.0492-.0787-.0885-.1195-.0402-.0409-.0886-.081-.1415-.1179-.0265-.0184-.054-.0361-.082-.0528-.0263-.0157-.0607-.0343-.0789-.0429l-.2678-.1274.1556-.2732.0178-.031.0216-.0421c.0143-.0289.0282-.0592.0412-.0901.0256-.062.0485-.1262.0671-.1921.0373-.1316.0612-.2681.0694-.4059.0088-.138.0027-.2772-.0166-.4155-.0052-.0345-.0103-.0691-.0173-.1034l-.0102-.0516c-.0031-.0153-.0041-.0182-.0068-.0264-.0097-.0272-.02-.0423-.0451-.0627-.0499-.0416-.1707-.0762-.3014-.0852-.132-.0103-.2766-.004-.4226.0108-.2933.0297-.5934.0935-.895.16l-.4568.1064-.2353.0532c-.0828.0166-.1582.0343-.2695.0434-.0151.0009-.0305.0016-.0503.0013-.02-.0006-.041-.0009-.0775-.0083-.0104-.0022-.0205-.0048-.0318-.0084-.0152-.0054-.024-.008-.0435-.0179-.0089-.0045-.0173-.0093-.0259-.0147-.0109-.0072-.0216-.0153-.0317-.0239-.0089-.0074-.0224-.0212-.0325-.0337-.0125-.0156-.0187-.0258-.0201-.0282-.0279-.0452-.038-.0848-.0439-.1173-.0098-.0645-.0038-.1039.0006-.1373.0051-.0332.0117-.0601.0184-.0848.0272-.0969.0568-.1702.0848-.2452.0563-.1474.1084-.2865.15-.4275.0839-.2806.1249-.5646.0982-.8414-.0253-.2761-.1162-.5509-.2593-.7995-.1426-.2484-.334-.4762-.5574-.6529-.1101-.0863-.2348-.1646-.344-.1987-.0229-.0071-.0034-.0002.0107-.0032.0166-.0018.033-.0093.0383-.0141.011-.0112-.0046.0026-.0155.0235-.0246.0442-.0483.1126-.0676.1817-.0393.1404-.0696.2933-.0997.4462l-.0907.4639c-.0631.3108-.1343.6231-.2318.9298-.0991.3057-.222.6077-.3916.8866-.021.035-.0434.0693-.0655.1033l-.0631.0979c-.0421.0653-.085.1301-.1243.1973-.0811.1328-.1588.2679-.2345.4043-.1504.2734-.2872.5552-.4117.8426-.1265.2869-.2408.5797-.3372.8792z" fill="#fff"/><path d="m84.0971 32.3975c.0029-.2639.0186-.528.0532-.7919.0176-.1321.0386-.2643.0721-.3972.0175-.0663.0381-.1329.0673-.2004.0149-.0338.032-.068.0552-.1028.0245-.0342.053-.0719.1074-.1018.0326-.0185.0804-.0251.1123-.0202.0335.004.0603.0136.0825.0237.0447.0206.0774.0442.1084.0681.0608.048.1105.0984.1585.1497.0949.1028.1763.2112.2561.3199.1583.2191.3025.4409.4418.6731l-.2233-.0911c.2356-.0824.4667-.1556.7131-.211.1234-.0273.2483-.0516.3868-.0627.0702-.0046.1424-.0069.2328.0073.0451.0079.0978.0197.1621.0552.0641.0355.1491.1149.169.2348.0132.0931-.0001.139-.0079.1846-.0096.044-.021.0804-.0329.1153-.0241.069-.05.1302-.0777.1897-.0555.1181-.1149.228-.176.3363-.1225.2168-.2517.4208-.3908.6272l.0285-.2541c.0999.2443.1853.4825.2567.7395.0349.1288.0671.259.0852.4076.0078.0757.0158.1527.0013.2589-.0094.0534-.0205.1173-.0736.2-.0271.0406-.0685.0843-.1216.1157-.0131.0074-.0272.0148-.0405.0207l-.0263.0104c-.0182.007-.0345.0109-.052.0158-.136.0294-.2332.0085-.3167-.0108-.0832-.0215-.1543-.0495-.2212-.0795-.133-.0607-.2504-.1292-.3624-.2025-.2242-.1479-.425-.3033-.6271-.4779l.4054-.0801c-.1249.2321-.2534.4509-.4008.6706-.0749.1089-.153.2165-.2471.3237-.0479.0536-.0981.1071-.1667.1615-.0353.0271-.0735.055-.1316.0809-.0284.0127-.0646.0249-.1086.0309-.0221.0031-.0471.0039-.0735.0018-.0318-.0029-.0622-.0103-.0903-.0218-.0558-.023-.093-.0558-.1195-.0844-.0272-.0295-.0429-.055-.0575-.0799-.0268-.0483-.0417-.0899-.0544-.1292-.0242-.0781-.037-.1485-.0474-.2175-.02-.1374-.0283-.2685-.0331-.399-.0072-.261-.0014-.5141.0151-.773l.1061.1743c-.2257-.1215-.4403-.2483-.6528-.3901-.1054-.0716-.2104-.1448-.3102-.2307-.0498-.043-.0988-.0883-.1458-.1402-.046-.0534-.0945-.1078-.1254-.2008-.0072-.024-.012-.0508-.011-.0825.001-.0343.0125-.068.0275-.0928.0307-.0506.0677-.0767.1008-.0978.0675-.0406.1315-.0611.1952-.0797.1273-.0345.2527-.0515.3778-.0658.2497-.027.4989-.0337.7475-.028zm0 0c-.2448.0414-.4882.0894-.7253.1497-.1181.0309-.2354.0664-.3423.1118-.0528.0221-.1047.0482-.1401.0769-.0175.0136-.0287.0294-.028.0332-.0001.0021.0023-.0008.0034-.0043.001-.0008.0018.0032.0047.0085.0117.0241.0475.0653.0876.0995.0408.0354.087.0693.1352.1017.0968.0644.1995.1262.3053.1834.211.1144.434.2196.6539.3128l.105.0445.0013.1299c.0022.2432.0114.493.0343.7334.0112.1202.0255.2397.0478.3499.0111.0546.0248.1075.0404.1486.0074.02.0162.037.0208.0432.0016.0018.0032.003-.0021-.004-.0051-.0059-.0172-.0186-.0437-.0298-.0135-.0057-.0287-.0097-.0447-.011-.0108-.0014-.0201-.0007-.0266-.0001-.0131.0013-.0189.0043-.0188.0035-.0009 0 .0125-.0088.0261-.0211.0287-.0252.064-.0644.0975-.1064.0677-.0851.1333-.1841.1959-.2854.1256-.202.2446-.4212.3502-.6354l.145-.2939.2605.2138c.1802.148.3789.2958.5755.4187.0988.061.1983.1189.2935.1608.0473.0211.0935.0377.1316.047.0371.0106.0678.0072.0546.0086-.0027 0-.0036.0012-.0072.002-.0016.0004-.0031.0011-.0045.0019-.0062.0025-.0135.006-.0196.0099-.0263.0151-.0454.0361-.055.0509-.0184.0302-.0136.032-.0135.0238.0034-.0179.0032-.0669-.0028-.1152-.0111-.1001-.037-.2141-.067-.3267-.0617-.2255-.142-.4602-.2261-.681l-.053-.1388.0814-.1153c.133-.1885.265-.3868.3872-.5824.0607-.0982.1189-.1973.1692-.2945.0246-.0483.0485-.0962.0661-.1397.0088-.0214.0161-.042.0202-.0564.0053-.0126.0023-.0271.0067.0065.0113.0593.0512.0905.0644.096.012.0059.0065.0002-.0073-.0025-.0277-.0071-.0762-.0102-.1256-.01-.1012.0004-.2138.0131-.3259.03-.2245.0354-.4578.0842-.6806.1422l-.1591.0414-.0643-.1325c-.1112-.2299-.2327-.4622-.3631-.6825-.0651-.1103-.1346-.2177-.207-.3177-.0361-.0495-.0742-.0975-.1126-.1359-.0188-.0189-.0386-.0356-.0526-.0447-.007-.0048-.0116-.0065-.0105-.0073-.0004-.0001.0132-.0027.0164-.006-.0048-.0005-.022.0117-.0372.0293-.0157.0182-.0313.0413-.0457.0662-.0291.0502-.0545.1073-.0772.166-.0467.1174-.0851.2417-.1194.3672-.0675.2516-.124.5088-.1733.7678z" fill="#ffbf53"/><path d="m89.5554 31.9416c-.2211.1389-.4495.2664-.6891.3765-.1201.0546-.242.1068-.3734.1457-.0659.0189-.1337.0353-.2093.0419-.038.0029-.0784.0034-.124-.0047-.0231-.0048-.0471-.0108-.0729-.0236-.0138-.0075-.0233-.0113-.041-.0258-.0161-.0127-.029-.0282-.0387-.0428-.0382-.0615-.0401-.1102-.0438-.1527-.002-.0427.0007-.0809.0048-.1179.0085-.0734.023-.1416.0395-.2085.0337-.1332.0776-.2596.1231-.3848.0929-.2503.1953-.4909.3088-.7332l.0392.2276c-.1878-.1622-.3661-.3248-.537-.5078-.0852-.0916-.1687-.1861-.2481-.2952-.0397-.0552-.0781-.1134-.1135-.1864-.0175-.0371-.0347-.0779-.0474-.1315-.0109-.0523-.0247-.1252.0101-.2241.009-.0243.0202-.0465.0379-.0725.0191-.0276.0386-.0467.0562-.0619.0359-.0305.0651-.0459.0905-.0585.0518-.0248.0915-.036.1302-.0467.0761-.0197.1432-.03.2094-.0383.1314-.0154.2564-.0213.3808-.0247.2492-.0065.4898.0002.7379.015l-.2424.1174c.1481-.221.2995-.4263.4761-.6301.0894-.1016.181-.2015.3015-.3003.0307-.0247.0636-.0494.1025-.074.0393-.0243.0838-.0494.1469-.0701.0332-.0101.0706-.0191.118-.0214.0478-.0021.1068.0048.1641.029.0284.0115.0563.0286.0786.045.0144.0114.03.0235.0419.0355.0262.0245.0462.0491.0642.0734.0687.0973.0953.1814.1181.2597.0215.0782.0342.1516.0434.223.018.1427.0235.2781.0224.412-.0029.2685-.0227.5233-.0574.7888l-.2794-.2953c.2585-.0123.5067-.0141.7661.0008.1295.009.2597.0217.398.0493.0697.0146.1408.0316.2218.0649.0407.0174.0844.0379.1348.0767.0471.0386.1136.0975.1376.2188.0087.0533.0033.0987-.0051.1355-.0087.0373-.0205.0645-.0326.0904-.0243.049-.0501.0847-.0754.1171-.0507.0637-.1014.1129-.1523.1592-.1018.0916-.2047.1691-.3091.2433-.2103.1461-.421.2762-.6428.4004l.089-.1827c.0196.2605.0294.515.0263.7753-.0024.1299-.0065.2603-.0229.3929-.0084.0664-.0187.1332-.0355.2019-.0186.0689-.0352.1388-.0911.2183-.0146.0196-.0329.0402-.0591.0585-.0272.0199-.0666.0334-.0986.0346-.0661.0027-.1083-.0186-.1443-.0368-.0708-.0393-.121-.0856-.1699-.1324-.0953-.0949-.1744-.1969-.2514-.2999-.1525-.2064-.2877-.4222-.4122-.6438zm0 0c.1633.1944.3313.3843.5065.5632.088.0885.1795.1743.2743.2465.0465.0357.0964.069.1394.0855.0205.0087.0405.0096.038.0068-.0005-.0015-.0092.0006-.0111.0015-.0007-.0004.002-.0042.0051-.0105.0146-.0265.0279-.0831.0341-.1372.0069-.0556.0095-.1148.0101-.1746.0006-.1198-.0039-.2426-.0136-.3655-.019-.2455-.0515-.4956-.0918-.7373l-.0186-.1115.1075-.0712c.1975-.1308.3971-.2715.5803-.4187.0917-.0733.181-.149.2575-.2262.038-.0382.0728-.0776.0964-.1116.0116-.0165.0202-.0322.0222-.0387.0003-.002.0002-.0033-.0022.0038-.0019.0069-.0048.0213-.0012.0442.0125.0602.0357.0694.0342.0718.0014.0015-.0105-.0051-.0268-.0104-.0332-.0116-.0823-.0224-.1331-.0301-.1035-.0153-.2186-.0216-.3342-.0237-.231-.0051-.4743.0051-.7055.0246l-.3134.0263.034-.3217c.0247-.2347.0397-.4838.0366-.7193-.0022-.118-.0071-.2348-.0219-.3422-.0071-.0535-.017-.1044-.0292-.1476-.0114-.0424-.0292-.0787-.0344-.0839-.0009-.0009-.0009-.0009.002.0023.0012.0005.0036.0038.006.0049.0093.0076.024.0158.0376.0217.0282.0121.0554.0145.0717.0135.0159-.0007.0224-.0027.0254-.0038.0038-.0022-.0386.0194-.0733.0489-.0752.0601-.1569.1448-.234.2321-.1541.1765-.3053.3753-.4425.5695l-.0917.1296-.1508-.0122c-.2282-.0185-.465-.0312-.6936-.0355-.1142-.0015-.2282-.0002-.3344.0079-.0524.0039-.1041.0095-.1441.0174-.0191.0037-.0372.009-.0395.0097-.0015-.0002.0013-.0007.0145-.0119.0062-.0057.0151-.014.0258-.0293.0095-.0137.0129-.023.0171-.033.0134-.0427.0041-.053.0058-.0477.0001.0048.0042.0201.0113.0374.0143.0356.0389.0793.0659.123.0551.0884.1235.1787.1951.2669.1445.1757.303.3524.4645.5158l.1081.1092-.0689.1184c-.1269.2182-.2502.4461-.3593.6746-.0546.1144-.1051.2304-.148.3454-.0215.0573-.0407.1149-.0536.1696-.0065.0272-.0111.0537-.0129.0759-.0027.0218.002.0407-.002.0351-.0017-.0027-.0143-.0107-.0077-.0049.0028.003.0102.0062.0186.0093.0179.0059.0428.0098.0697.0107.0544.0019.1151-.0045.1757-.0147.1219-.0199.2464-.0516.3694-.0883.2459-.0748.4906-.1638.7329-.2598z" fill="#ffbf53"/><path d="m95.7422 31.2307c-.0362.2616-.085.5219-.1528.7796-.0342.1289-.0718.2575-.1223.3852-.0261.0636-.0549.1271-.0933.1905-.0195.0317-.0409.0635-.0699.095-.0298.0308-.0636.0645-.1277.0855-.0415.0122-.0836.0069-.1138-.0028-.0306-.0099-.0531-.023-.0736-.0361-.0394-.0265-.0688-.0543-.0957-.0819-.0531-.0555-.0957-.112-.1363-.1691-.0804-.1143-.1473-.2322-.2124-.3505-.1287-.2377-.2434-.4764-.3519-.7245l.2082.1192c-.2441.0493-.4823.0903-.7334.1116-.1256.0102-.2525.0171-.3906.0092-.07-.0049-.1415-.0124-.2283-.0382-.0433-.0137-.0927-.0315-.1509-.0737-.057-.0411-.1311-.1246-.1407-.2462-.0044-.0993.0155-.1433.0287-.1882.0149-.043.0309-.0782.0471-.1114.0326-.0657.066-.1232.1011-.1785.07-.1101.1429-.2113.2173-.3106.1492-.1988.3033-.384.4676-.5701l-.061.249c-.0683-.2556-.1232-.5035-.1616-.768-.0186-.1326-.0341-.2661-.0333-.4163.0017-.0763.0034-.154.0318-.2585.0161-.0518.0363-.1157.1021-.1917.0337-.0376.0834-.0757.1415-.0981.0127-.005.0329-.0118.0401-.0133l.0279-.0065c.0184-.0038.0359-.006.0535-.0078.1382-.009.2306.0252.3103.0559.079.0327.1456.0701.2077.1089.1235.0783.2308.1619.3324.2496.2027.1768.3818.3578.5594.5578l-.4128.0269c.1535-.2139.3088-.4138.4834-.6122.0883-.0981.1796-.1945.2872-.2884.0548-.0468.112-.0932.1882-.1381.0392-.0221.0816-.0449.1452-.062.0313-.0081.0689-.0151.116-.0131.011.0002.0235.0015.0361.0036.0122.0017.0246.004.0408.0088.0301.0083.0586.022.0826.0373.0491.0317.0785.0682.0987.0986.021.0315.0335.0591.0435.0843.0195.0505.0288.0931.0361.1334.0136.0799.0174.1509.019.2205.0024.1384-.0058.2691-.0173.3989-.0257.2593-.0632.5091-.1119.7634l-.0821-.1855c.2077.1509.4039.3054.5959.4743.0951.0849.1897.1716.2774.2695.0439.0493.0867.1003.1267.1577.0387.0587.0795.118.1002.2118.0043.0242.0071.0505.0035.0806-.0036.0331-.0174.0671-.0351.0916-.0364.0504-.0775.0716-.1134.0892-.073.0323-.1395.0441-.2053.0542-.1312.0172-.258.017-.3841.014-.2517-.0071-.4998-.0345-.7457-.0743zm0 0c.2486-.0075.4966-.0219.7402-.0494.1214-.0145.2425-.034.3546-.0645.0553-.0149.1102-.034.1481-.0577.0183-.011.0309-.0253.0287-.0272-.0006-.0013-.0034.0029-.0043.005-.0006-.0008-.002-.0056-.0042-.0115-.0095-.0273-.041-.0728-.0765-.1122-.036-.0406-.078-.0803-.1216-.1189-.0878-.077-.1817-.1518-.2792-.2228-.1943-.1417-.4017-.2761-.6075-.3982l-.0971-.0576.0149-.1278c.0282-.2411.0505-.4894.058-.7304.0039-.1203.0048-.2405-.0034-.3525-.0041-.0555-.0109-.1097-.021-.153-.005-.0212-.0114-.0395-.0155-.0472-.0018-.0088-.0101.0008.0331.0335.0108.0072.0249.0138.0399.0183l.0179.0041.0128.0015c.0157.0005.022-.0012.0233-.0009.0031-.0007-.0109.0057-.0253.0157-.0309.0202-.071.0541-.1094.0909-.0779.0749-.1556.1641-.2304.2561-.1503.1835-.2962.3851-.4281.5833l-.1821.2737-.2307-.2469c-.1599-.1711-.3378-.3443-.5172-.493-.0901-.074-.1814-.145-.2707-.1999-.0443-.0275-.0882-.0505-.1252-.0654-.036-.016-.0679-.0173-.0556-.0166.002 0 .004-.0005.0071-.0009.0016-.0002.0033-.0007.0049-.0012-.0005 0 .0126-.0032.0179-.0058.0289-.011.0526-.03.0652-.0445.0242-.0286.0197-.033.0187-.0248-.0054.0166-.0116.0655-.0118.1143-.0015.1009.0098.2177.0255.3336.0329.2323.083.476.1388.7065l.0351.1449-.0961.1043c-.1558.169-.3121.348-.4579.5256-.0725.0893-.1428.1798-.2046.2693-.0306.0446-.0601.0888-.0827.1292-.0113.0199-.0207.039-.0264.0521-.0068.011-.0044.0257-.0054-.0136-.006-.0609-.0413-.0917-.0507-.0976-.0103-.0063-.0042.0001.0092.0048.0272.0109.0748.0205.1237.0271.1001.0131.2131.016.3261.0146.2266-.0045.4638-.021.6917-.0479l.1619-.0193.0464.1384c.0812.2424.1721.4885.2732.724.0506.1179.1056.2335.1645.3424.0295.0541.0609.1069.094.1508.0163.0217.0336.041.0472.0534.0064.0057.0123.0098.0128.0109.0007.0009-.0073-.0004-.0169.0033-.0004.0029.0194-.0054.036-.0206.0177-.0147.0362-.0357.0538-.0582.0354-.0455.068-.0989.0981-.1541.0614-.1104.1154-.2288.1653-.3491.0986-.2413.1871-.4895.2689-.7404z" fill="#ffbf53"/><path d="m99.8294 30.1529c.0471-.26.1069-.5179.1856-.7726.04-.1273.083-.2542.139-.3797.029-.0625.06-.1246.101-.1863.021-.0309.044-.0617.075-.092.032-.0295.066-.0617.135-.0789.042-.009.083-.0007.112.0105.03.0116.051.0257.07.0397.038.0283.066.0572.092.086.05.0577.09.116.128.1748.075.1176.137.2384.197.3593.118.243.223.4863.321.7389l-.203-.128c.246-.0381.486-.0681.737-.0778.126-.0044.253-.0056.391.0085.069.0081.14.0188.226.0482.042.0156.09.0352.146.0792.055.0427.125.1268.132.2487.002.0515-.005.0872-.012.1159-.007.0286-.016.0529-.024.0738-.017.0426-.034.0771-.052.1097-.035.0644-.071.1205-.108.1742-.075.107-.152.2049-.231.3009-.157.192-.319.3701-.491.5488l.071-.2466c.058.2585.102.5086.13.7748.013.1333.022.2674.015.4176-.005.0763-.01.1539-.043.2576-.018.0512-.042.1149-.112.1883-.036.0363-.088.072-.148.0911-.034.0111-.047.0121-.067.0157-.019.0026-.037.0044-.054.005-.138.002-.228-.0364-.306-.0708-.078-.0363-.142-.0766-.203-.1183-.119-.0837-.223-.172-.32-.2642-.195-.1857-.366-.3745-.535-.5823l.413-.0087c-.162.2068-.326.3996-.509.5901-.092.094-.188.1863-.2996.2753-.0568.0444-.116.0882-.1946.1296-.0401.0202-.0841.0412-.1489.0551-.0325.0065-.0702.0116-.1177.0069-.0109-.0007-.024-.0031-.0362-.0057-.0114-.0021-.0255-.0059-.0409-.0115-.0295-.0099-.057-.0255-.0794-.0418-.0462-.0339-.0738-.0716-.0922-.1023-.0189-.0319-.0303-.06-.0389-.0854-.017-.0509-.0245-.0938-.0301-.1342-.0101-.0802-.0108-.1512-.0096-.2208.0034-.1383.0171-.2684.0341-.3975.0366-.2577.0845-.5055.1438-.7573l.0739.1884c-.2009-.16-.3902-.3232-.5747-.5005-.0913-.089-.182-.1799-.2655-.2815-.0416-.0511-.0822-.1039-.1197-.1629-.0362-.0604-.0745-.1211-.0916-.2151-.0035-.0241-.0056-.0502-.0009-.0802.0043-.032.0191-.0666.0377-.0908.0384-.0495.0808-.0694.1176-.0856.0746-.0294.1416-.0382.2078-.0452.1321-.0114.2588-.0053.3847.0034.2515.0187.4983.0574.7423.1085zm0 0c-.2489-.0039-.4977-.0009-.7424.0155-.1219.0089-.244.0229-.3574.0484-.0559.0123-.1116.0291-.1503.051-.0186.0103-.0313.0239-.0289.0254.0008.0013.0039-.0037.0046-.0048l.0039.0122c.0085.0281.0385.075.0724.1159.0343.0422.0746.0838.1164.1243.0845.0808.1752.1598.2695.235.1881.1503.3894.2939.5898.4253l.0942.0617-.0204.1267c-.0382.2395-.0709.4865-.0885.7267-.009.12-.015.2399-.0115.3521.0018.0556.0063.11.0145.1537.004.0214.0096.0401.0134.0482.0016.0091.0105.001-.0296-.033-.0195-.0162-.0581-.028-.0694-.0279-.0162-.0014-.0225-.0003-.0244-.0004-.0036.0005.01-.0047.025-.014.0314-.0186.0728-.0505.1127-.0854.0811-.0712.1625-.1568.2413-.2454.1577-.1765.3127-.3714.4527-.5634l.194-.2658.219.2569c.153.1782.323.3592.496.516.087.078.175.1531.262.2121.043.0296.086.0547.123.0715.035.0177.067.0209.056.0194-.002 0-.005.0001-.007.0007-.005.0006-.002-.0003-.022.0053-.03.0093-.055.0274-.069.0418-.013.0134-.018.0221-.02.0265-.002.0025-.002.0033-.001-.0013.006-.0158.015-.0644.017-.1132.006-.1008-.001-.2181-.012-.3346-.023-.2337-.062-.4795-.108-.7125l-.029-.1464.1-.1001c.163-.162.327-.3338.48-.5047.077-.0859.151-.1732.216-.2599.033-.0431.064-.0859.088-.1252.012-.0193.022-.0378.028-.0505.004-.0066.005-.0106.005-.0109.001-.0001-.001.0057 0 .0274.004.0613.038.0917.046.0974.01.0063.003-.0006-.01-.0058-.027-.0122-.074-.0238-.122-.0326-.1-.0177-.212-.0258-.325-.0295-.227-.0059-.464-.0003-.693.0162l-.162.0118-.04-.1397c-.071-.2458-.152-.4955-.243-.7352-.045-.12-.095-.2379-.149-.3493-.027-.0554-.056-.1095-.088-.1551-.015-.0227-.031-.0428-.045-.056l-.013-.0121c-.001-.0014.006.0004.016-.0025.004-.0037-.018.0035-.034.0175-.019.0138-.038.0335-.057.0552-.037.0438-.072.0958-.104.1495-.066.1076-.125.2236-.18.3416-.109.2368-.2083.4811-.3006.7283z" fill="#ffbf53"/><path d="m105.542 31.8513c.182-.1889.374-.3688.581-.5346.104-.0825.21-.1633.328-.2337.06-.0346.121-.0673.193-.0928.036-.0125.075-.0233.121-.027.023-.0017.048-.0018.076.0037.015.0028.027.0057.045.0136.02.0083.037.0199.051.0322.054.0518.067.0998.08.1405.012.0415.019.0795.023.1166.008.0739.01.1439.009.2131-.003.1381-.017.2718-.032.4048-.034.2662-.079.5252-.134.7884l-.092-.2134c.221.112.433.2268.642.3639.104.0687.208.1407.311.2288.051.0445.102.093.154.1579.026.0334.052.0698.076.1233.012.0263.024.0587.031.0968.007.0393.009.0877-.002.1387-.004.0132-.006.0248-.011.0389-.006.0143-.013.0304-.019.0421-.006.0113-.014.0236-.02.0332-.007.009-.013.0179-.02.0265-.026.0303-.048.0499-.07.0671-.041.0322-.077.053-.111.0718-.068.0364-.13.0625-.192.0866-.123.0465-.242.0829-.361.1168-.239.0674-.474.1201-.717.167l.205-.1696c-.093.2496-.193.4848-.317.7244-.063.1196-.129.2382-.22.362-.024.0311-.05.0627-.08.0953-.031.0326-.066.0667-.118.102-.026.0173-.058.0357-.099.051-.04.0152-.094.028-.156.0248-.059-.0007-.133-.0296-.156-.0432-.032-.0169-.061-.0362-.085-.0557-.096-.0794-.143-.1568-.184-.2283-.04-.0721-.07-.1409-.095-.2087-.051-.1354-.088-.2664-.117-.3974-.059-.2629-.097-.516-.124-.7831l.344.2225c-.248.0759-.49.1392-.746.1889-.128.0233-.258.0432-.4.0504-.071.0029-.145.0039-.233-.0093-.045-.0071-.094-.0177-.154-.0452-.031-.0148-.064-.0342-.097-.0649-.032-.0276-.073-.0853-.088-.1337-.031-.1016-.014-.168-.003-.2189.013-.0512.03-.091.047-.1277.035-.0723.072-.1317.111-.1886.078-.1127.16-.2127.244-.3097.17-.1926.344-.37.53-.5444l-.043.1966c-.078-.248-.145-.4924-.201-.7453-.028-.1263-.053-.2537-.067-.3858-.007-.0662-.012-.1333-.012-.2035.002-.0707.003-.1423.036-.2303.009-.0218.022-.0458.04-.0691.017-.0231.051-.0508.082-.0612.063-.023.112-.0141.152-.006.08.0198.14.0523.199.0857.115.0686.216.1484.315.2297.197.1633.378.3402.55.5255zm0 0c-.203-.1494-.411-.2934-.622-.4244-.106-.0646-.215-.1253-.324-.1718-.053-.023-.109-.0423-.154-.0469-.021-.0026-.038.0025-.033.0036.001.0013.011-.0054.009-.003 0 .002-.002.0062-.004.0141-.007.0318-.007.0888-.001.1432.006.0555.017.1135.03.1716.027.1162.059.2341.096.3511.074.2334.162.4683.256.6931l.043.103-.086.0937c-.161.1752-.322.3603-.467.5479-.072.0936-.141.1888-.198.2827-.029.0465-.054.0934-.07.1334-.008.0196-.013.0377-.015.0465-.003.0085.007.0063-.004-.0364-.005-.0192-.028-.0508-.037-.0576-.01-.0102-.017-.0138-.019-.0153-.004-.0024.007.0014.024.0026.034.0032.084.0018.136-.0033.104-.0105.218-.0329.331-.0595.226-.0525.46-.1226.681-.1989l.303-.1047.041.3273c.029.2348.071.4813.128.7103.029.1146.061.2273.1.3281.019.0501.041.0974.062.1355.021.038.047.0671.049.0674.001.0005-.002-.0016-.006-.004.005.001-.039-.0171-.066-.0165-.064-.0003-.079.0181-.079.0158.003-.0004.039-.0348.067-.0723.059-.0785.119-.1803.173-.284.109-.2087.211-.4378.299-.6594l.059-.1446.146-.025c.225-.0383.457-.0843.679-.1364.111-.0266.221-.0558.322-.0897.05-.0167.099-.0345.137-.0524.019-.0085.035-.0177.041-.0213.002-.0012.002-.0012-.005.0066-.002.0027-.004.0056-.006.0087-.002.0035-.006.0093-.008.0143-.003.0053-.007.0143-.01.0218-.002.0072-.004.0114-.005.0175-.005.022-.003.0402-.001.0501.002.0088.005.0127.005.0117 0-.0012-.006-.0148-.016-.029-.021-.0298-.054-.0663-.09-.1021-.073-.0723-.16-.1437-.25-.2121-.181-.1358-.377-.269-.572-.3885l-.133-.0811.041-.1324c.073-.243.142-.4945.196-.7434.027-.1246.05-.2498.065-.3724.008-.0611.014-.1218.014-.1784 0-.0281-.001-.0551-.005-.0772-.002-.0218-.012-.0389-.005-.0326.022.0117.006-.0021-.012-.001-.019-.0013-.045.0017-.071.0077-.054.012-.112.0337-.168.0586-.114.0498-.228.1114-.339.1773-.222.1334-.439.2797-.652.4324z" fill="#ffbf53"/><path d="m73.0252 48.6564c3.6785 0 6.6605-2.982 6.6605-6.6605s-2.982-6.6605-6.6605-6.6605-6.6605 2.982-6.6605 6.6605 2.982 6.6605 6.6605 6.6605z" fill="#ff2e57"/><path d="m72.8446 40.8348c.1417-.5505.3545-1.0854.6431-1.584.144-.2495.3129-.4874.5141-.7014.2008-.2134.4352-.4052.71-.5386.2752-.1308.5907-.19.899-.1673.0779.001.153.0174.229.0298.0772.0098.1491.0349.2231.0548.075.0182.1443.0482.215.0758l.106.0425.108.0549c.1413.0795.2714.1858.3763.3123.105.1267.1851.2708.2433.4191.1173.2983.1493.6081.1534.908-.0005.6016-.1184 1.1789-.2746 1.7368-.1569.5585-.3539 1.1008-.5706 1.6331-.2152.5331-.4611 1.0515-.7162 1.5643-.2575.513-.5247 1.0149-.8171 1.5157l-.1129.1933-.2138-.0761c-.2832-.101-.552-.2117-.8244-.3248-.2711-.1137-.5401-.2317-.807-.3548-.5337-.2461-1.0604-.5095-1.5737-.8008-.5114-.2944-1.0116-.6128-1.4849-.9759-.2367-.181-.4653-.3757-.6826-.5848-.2146-.2126-.418-.4405-.5928-.6958-.1749-.2539-.3216-.5379-.402-.8503-.0408-.1557-.0599-.3191-.058-.4821.0011-.1624.0298-.3284.0714-.4763.0415-.1514.0993-.3015.1786-.443.0795-.1412.1826-.2729.3072-.3818.1237-.11.2701-.192.4214-.2483.1516-.0572.3091-.085.4642-.0968.3114-.0212.6129.0263.9022.097.2893.0727.5686.1708.8382.2884.539.2348 1.05.5226 1.5271.8571zm0 0c-.2544-.1416-.5139-.2723-.7784-.391-.2636-.1202-.5317-.2294-.8042-.3225-.2726-.0919-.5487-.1719-.8279-.2218-.2783-.0492-.5617-.0729-.8301-.036-.268.0331-.519.132-.698.3089-.1812.1747-.2914.4176-.3479.6786-.0294.1339-.0436.2575-.0407.386.0035.1274.0225.2549.0604.3794.0743.2491.2054.4861.3684.7043.162.2191.3552.4201.5603.6095.206.1893.4248.3677.6538.5347.4574.3349.9471.6318 1.4497.9062.5021.2758 1.0171.5316 1.5414.7678.5228.2361 1.0603.4566 1.5921.6528l-.3267.1172c.5675-.9613 1.0812-1.9722 1.5275-2.9983.2227-.5139.4254-1.0361.5875-1.567.082-.2652.1496-.5334.2063-.8017.0563-.2683.0936-.5388.103-.8057.0067-.2657-.0139-.5315-.0971-.7662-.0815-.2351-.2264-.4326-.4325-.5628l-.0795-.0458-.0897-.0411c-.0601-.0271-.1197-.0572-.1824-.0752-.062-.0199-.1234-.0458-.1872-.0565-.0634-.0134-.1266-.0316-.191-.035-.2565-.0327-.5178.0039-.7627.1003-.2442.0992-.4686.257-.6687.4437-.2008.1869-.3765.4043-.5363.6338-.1591.2302-.3018.4736-.4285.7259-.1287.2512-.2428.5109-.3409.7775z" fill="#fff"/><path d="m59.1687 70.6354c5.9152-.5739 10.9853 1.4921 11.4548 12.9704.4694 11.4782-.0723 25.4542-5.0124 25.5252s-9.2591 1.104-10.8552-3.028c-1.5962-4.132-.939-30.1877.9389-32.8277 1.8777-2.6399 3.4739-2.6399 3.4739-2.6399z" fill="#ff5862"/><path d="m63.1661 70.7615c.2669.0529.5298.1152.7874.1903l-.039 38.2342c-.6133.027-1.2111.058-1.7912.08z" fill="#ff2e57"/><path d="m61.4049 70.5598c.3764.0146.7464.0461 1.1098.0941l-.929 38.6301c-.519.014-1.0221.018-1.504 0z" fill="#ff2e57"/><path d="m28.7729 42.1384-.1836 1.5599 2.3857.8258-2.8444 2.2939-3.1197-.7341.367-1.9269.8258-.4587-.6423-2.661h2.2022z" fill="#f2a374"/><path d="m25.332 45.8538 2.8254.9418.7169-.5781.7057-2.1771-.9907-.3429.0765-.6502c-.3807-.1236-1.39-.3857-2.0493.0538-.161.1074-.3079.278-.4404.4825l.0275.1139-.1438.0799c-.4724.8511-.7278 2.0764-.7278 2.0764z" fill="#f2bc9c"/><path d="m29.9657 38.9263c-.4862-2.4309-2.4113-3.2986-3.5785-2.5691-.9542.5964-2.0628 2.3558-1.4121 3.9175-.2168.0433-.423.1871-.423.5785 0 .8258.6423.8258.9176.6423.0925-.0617.1638-.1441.2183-.2262.4832.4457 1.1849.8415 2.1673 1.1438 1.9786.6088 2.4774-1.6516 2.1104-3.4868z" fill="#f2bc9c"/><path d="m23.2675 64.4349s-2.6429 8.1984-2.1841 14.1626c.4588 5.9643 2.4594 31.1655 5.7625 32.2665 3.3032 1.101 4.4043-2.111 5.0466-4.405s.9176-27.5267.9176-27.5267.6423 2.3857.8258 3.4868c.1835 1.101-.9175 18.9939 0 22.8469.9176 3.854 1.7434 5.414 3.762 5.781 2.0187.367 3.028-15.782 3.395-22.205.3671-6.4229.8258-9.3592 0-14.0387-.8258-4.6796-3.4868-11.8366-3.4868-11.8366z" fill="#298bf5"/><path d="m38.3273 109.969c-.5809-.583-1.9962-2.54-2.214-7.914-.2171-5.3556 2.3057-26.971 3.3814-32.4918l-.0002-.0008c-.064-.2161-.1284-.4309-.1931-.6437-.0004-.0014-.0008-.0028-.0013-.0041-.7451-2.4512-1.5179-4.6349-1.8393-5.5242-.0008-.0021-.0016-.0043-.0024-.0064-.0274-.0759-.0516-.1425-.0721-.1988 0 0-.0001-.0002-.0001-.0002-.0094-.0257-.0177-.0486-.0256-.0699-.0015-.0042-.0031-.0088-.0046-.0128-.0151-.0412-.0269-.0732-.0352-.0958-.001-.0028-.0018-.0051-.0028-.0076-.0034-.0093-.0065-.0174-.0084-.0226-.0001-.0003-.0003-.0008-.0004-.0011-.0019-.0052-.0031-.0085-.0031-.0085l-14.0387 1.4682s-.0004.0017-.0012.0051c0 .0002-.0001.0004-.0001.0006-.0006.0028-.0016.0073-.0027.0122-.0004.0018-.0009.004-.0013.006-.0063.0289-.0181.0834-.0343.163v.0003c-.004.0195-.0083.0407-.0128.0632-.0003.0016-.0006.0032-.001.0048-.0046.0231-.0094.0475-.0146.0737 1.8545.9428 7.0183 3.7629 8.1425 6.4611 1.3763 3.3031 1.5472 8.0057 1.5472 8.0057.0028.0105.0057.0217.0086.0326.0038.0143.0075.0287.0115.0439.0032.0122.0065.0248.0099.0375.004.0157.0082.0315.0124.0478.0034.0129.0068.0257.0102.0389.005.0189.01.0386.0152.0583.0031.012.0062.0237.0093.036.0079.0305.0161.062.0244.0943.0026.01.0052.0203.0079.0305.0067.0258.0134.0521.0203.0788.0028.0109.0056.0218.0085.0328.0069.0269.0139.0543.021.0821.0029.0112.0057.0222.0086.0336.0096.0377.0193.0759.0292.115.0013.0051.0027.0105.004.0157.0086.0343.0174.0689.0263.1041.0034.0133.0067.0268.0101.0403.0072.0287.0145.0577.0218.0869.0032.0129.0064.0258.0097.0388.0083.0333.0167.0668.0251.1005.0024.01.0048.0198.0073.0298.0107.0432.0214.0866.0322.1302.0017.0072.0035.0142.0052.0214.0088.0362.0178.0727.0267.1092.0032.0132.0064.0265.0097.0398.0078.0321.0155.0642.0233.0963.0032.0135.0065.027.0098.0405.0099.0413.0198.0826.0296.1239.0007.0028.0013.0055.002.0083.0106.0444.0211.0888.0315.1332.0027.0117.0055.0234.0082.0352.0078.0329.0154.0659.023.0987.0032.0135.0063.0271.0093.0405.0078.0336.0155.0671.023.1004.0024.0104.0049.021.0073.0315.0099.0437.0197.0871.0293.1302.0011.005.0022.01.0033.0151.0082.0369.0163.0736.0242.1099.0028.0129.0056.0256.0084.0385.0064.0296.0127.0587.0189.0877.0028.0131.0056.0263.0083.0393.0069.0323.0136.0642.0201.0957.0016.0076.0032.0154.0047.0229.0081.0388.0158.077.0232.1144.0018.0094.0035.0185.0054.0277.0054.0276.0107.0549.0159.0817.0023.0122.0046.0243.0069.0364.0046.0245.0091.0486.0133.0724.0019.0107.004.0216.0059.0323.0059.0332.0116.0657.0168.0971.1834 1.101-.9176 18.9938 0 22.8468.9175 3.854 1.7434 5.414 3.762 5.781.3375.062.6467-.339.9295-1.078z" fill="#2071f5"/><path d="m20.921 43.0582c-5.1753-2.7409-10.1049-5.6607-14.60323-6.7088-.5785-.4062-.38274-1.4997-.92251-1.5301-.43897-.0248-.09407 1.0652-.09407 1.0652s-5.199305-.0037-3.44409.8278c1.30463.618 3.25217 1.255 3.25217 1.255 5.02583 2.2205 8.65873 5.4276 11.97953 8.4975z" fill="#f2bc9c"/><path d="m29.209 43.7855c5.9052-2.7466 23.4148-3.8452 24.0327-1.3046.3412 1.4027-12.7492-.5699-15.8573 2.7151z" fill="#f2bc9c"/><path d="m27.2187 110.972s-.8314 1.727-.6479 2.461c.1834.734 6.5147.826 6.6981.459.1835-.367-.734-1.56-1.8351-2.019-1.101-.459-2.5267-.901-2.5267-.901z" fill="#1b1464"/><path d="m36.6808 110.68s-.7324 1.522-.5707 2.169c.1616.646 5.7391.727 5.9007.404s-.6466-1.374-1.6167-1.778c-.97-.405-2.2259-.795-2.2259-.795z" fill="#1b1464"/><path d="m20.7558 37.004c.2417-2.4981 2.1758-1.5311 2.1758-1.5311s-.8058-3.1429.967-3.4652c1.3023-.2367 1.778.8303 1.939 1.4138.6864-.7343 1.5354-1.0341 2.3847-.7343 1.3993.4936 1.4699 2.8343.4084 3.9069-.1212.123-.2579.2285-.4084.3138-1.4681.8259-2.804.4341-2.804.4341-.5433.8092-.8681 1.9131-.4433 2.9325-.2165.0441-.423.1872-.423.579 0 .8258.6423.8258.9176.6423.0927-.0616.1643-.1441.2184-.2267.0872.0808.1826.1597.2845.2367l.0477.357s-.4588.1835-1.0093.2753c-.5505.0917-1.7434-.3671-1.8351-1.7434-.0133-.1985-.0049-.3775.0197-.5465-.0134-.1661-.0221-.3388-.0221-.5072-.0001-.7252-2.6594.1612-2.4176-2.337z" fill="#ff2e57"/><path d="m18.2681 41.1061c4.2572 2.4719 6.0425 1.7853 7.5531 2.8152l-.0126.0377c.1407.2493 1.1261 1.9066 2.2301 1.482 1.1929-.4588.7587-1.6713.7587-1.6713 3.0663-1.2903 6.5915-1.8385 10.2307-2.3878 1.5769 2.255.892 1.3865 1.6934 2.5395-1.442 1.9913-3.8452 2.8839-4.1199 5.6305 2.372 6.8024 4.2008 13.4695 2.8839 16.9602-5.6383 1.0398-13.1922 2.8892-17.5095.618.432-5.8323.206-7.5531-.2747-10.9177-1.4419-4.8752-3.7765-8.3084-5.6992-9.7504.229-2.1875-.2795-3.8927 2.266-5.3559z" fill="#ffc371"/><path d="m29.2407 41.3943-1.3295.0563s.1245.7009.6256.6943c.5012-.0064.7039-.7506.7039-.7506z" fill="#f2f2f2"/><path d="m40.4929 43.5882c-.1582-.2354-.2129-.3305-.2815-.4464-.0578-.0938-.1162-.1887-.1755-.2843-.1189-.1849-.3087-.4684-.6533-.9662-.074-.0961-.1509-.1912-.2316-.2847-.7237.5607-1.6778 1.1585-2.8241 1.5597-2.7466.9614-3.296.7554-3.296.7554s.8927.4806 1.854 1.5106c.8258.8848 1.5503 3.2897 1.7381 3.9501.2866-2.109 1.8595-3.1012 3.1984-4.4293.003-.003.0061-.006.0092-.009.0446-.0444.0888-.0893.1329-.1345.0088-.009.0177-.0179.0264-.0269.0395-.0408.0785-.0822.1174-.1238.0125-.0134.0254-.0266.0379-.0402.036-.0388.0715-.0786.1069-.1182.0146-.0164.0296-.0325.0441-.049.0336-.0382.0665-.0773.0995-.1162.0157-.0186.0317-.0367.0473-.0555.0338-.0408.0669-.0826.1-.1243.0139-.0174.0281-.0344.0418-.0519.0447-.0574.0885-.116.1316-.1753.0016-.0022.0034-.0044.005-.0066-.0777-.1069-.1535-.2187-.2285-.3335z" fill="#ffa658"/><path d="m25.3406 69.808c-.0094 1.6063.005 3.2123.0166 4.8185.0213 1.606.046 3.2121.083 4.818l.0272 1.2044.0361 1.2042c.0224.8029.0546 1.6055.0832 2.4081.0136.4015.0299.8027.0483 1.2039l.0525 1.2039c.0354.8025.0826 1.6045.1233 2.4069l.0805 1.2026c.0291.4008.0507.8019.086 1.2023.0695.8008.1261 1.6025.2188 2.4017l.0636.5997.0322.2999.0418.299.1681 1.1955.1831 1.189.1663 1.1916c.208 1.5908.3601 3.1888.462 4.7908.1076 1.601.163 3.207.1426 4.813.0365-.803.0404-1.606.0309-2.41-.01-.803-.0326-1.606-.0727-2.409-.0816-1.605-.2163-3.208-.4056-4.8045l-.1527-1.1962-.1781-1.1928-.1627-1.1906-.0404-.2976-.031-.299-.061-.5983c-.0893-.7968-.1428-1.5977-.209-2.3971-.0338-.3996-.0537-.8006-.0813-1.2008l-.0762-1.2014c-.1955-3.2044-.3112-6.414-.4184-9.6236-.0562-1.6048-.0982-3.2101-.1402-4.8154-.0454-1.6053-.0798-3.2109-.1168-4.8167z" fill="#35105f"/><path d="m45.95 39.2144-.1876 1.5957 2.4402.8447-2.9096 2.3464-3.1912-.7508.3755-1.971.8447-.4693-.657-2.7219h2.2526z" fill="#f2a374"/><path d="m42.4306 43.0158 2.8901.9634.7333-.5914.7219-2.2269-1.0133-.3508.0782-.6651c-.3894-.1265-1.4219-.3946-2.0962.055-.1647.1098-.315.2844-.4505.4935l.0282.1166-.147.0817c-.4834.8706-.7447 2.124-.7447 2.124z" fill="#f2bc9c"/><path d="m47.1703 35.9295c-.4974-2.4866-2.4666-3.3742-3.6605-2.628-.9761.6101-2.1101 2.4097-1.4445 4.0072-.2218.0443-.4326.1914-.4326.5918 0 .8447.6569.8447.9385.657.0947-.063.1677-.1473.2234-.2314.4942.4559 1.2121.8608 2.217 1.17 2.0238.6227 2.5341-1.6894 2.1587-3.5666z" fill="#f2bc9c"/><path d="m45.8048 33.5435c-.1239.1258-.2638.2337-.4177.321-1.5018.8447-2.8683.4439-2.8683.4439-.5556.8278-.8879 1.9569-.4534 2.9997-.2215.045-.4326.1915-.4326.5922 0 .8447.657.8447.9385.657.0949-.0629.1681-.1474.2234-.2318.0891.0826.1868.1633.2909.2421.0291.2173-.1029.4248-.3128.4881-.1814.0547-.4165.1162-.6708.1586-.5631.0939-1.7833-.3754-1.8771-1.7833-.0939-1.4079.8447-1.8772 1.4078-4.4113.5631-2.5342 2.1587-4.0359 3.7543-3.4728 1.4314.505 1.5037 2.8994.4178 3.9966z" fill="#1b1464"/><path d="m40.3186 62.0224s-1.1263 4.9744-.657 11.0752c.4694 6.1008.9386 35.2904 4.3175 36.4164 3.3789 1.127 4.5052-2.158 5.1622-4.505.657-2.346.9386-28.1571.9386-28.1571s.657 2.4403.8447 3.5666c.1877 1.1262-.9386 19.4286 0 23.3705.9386 3.942 1.7833 5.538 3.8481 5.913 2.0649.376 3.0974-16.1435 3.4728-22.7135.3754-6.5701.8447-9.5735 0-14.3603-.8448-4.7868-3.5666-12.1077-3.5666-12.1077z" fill="#171157"/><path d="m55.7236 108.599c-.5942-.596-2.0419-2.598-2.2647-8.095-.2221-5.4782 2.3586-27.5887 3.4589-33.2361l-.0002-.0007c-.0655-.2211-.1314-.4409-.1975-.6585-.0004-.0015-.0009-.0028-.0013-.0042-.7622-2.5074-1.5527-4.741-1.8815-5.6506-.0008-.0022-.0016-.0044-.0023-.0066-.0282-.0778-.0529-.1459-.0738-.2033 0-.0001-.0001-.0003-.0002-.0003-.0095-.0263-.0181-.0497-.0261-.0715-.0016-.0043-.0033-.0089-.0048-.013-.0154-.0421-.0275-.0749-.036-.098-.0011-.0028-.0019-.0052-.0028-.0077-.0036-.0096-.0066-.0179-.0086-.0232-.0001-.0003-.0003-.0008-.0004-.0011-.002-.0054-.0033-.0087-.0033-.0087l-14.3603 1.5018s-.0004.0018-.0011.0052c0 .0001-.0001.0004-.0002.0006-.0006.0029-.0016.0076-.0027.0126-.0004.0018-.0009.004-.0014.0061-.0064.0295-.0185.0853-.0351.1667v.0004c-.0041.0199-.0085.0416-.0131.0646-.0003.0015-.0006.0032-.001.0048-.0047.0237-.0097.0487-.0149.0754 1.897.9645 7.179 3.8492 8.329 6.6091 1.4079 3.3789 1.5827 8.1892 1.5827 8.1892.0028.0106.0057.0221.0087.0332.0038.0147.0077.0295.0117.0448.0033.0126.0067.0255.0101.0385.0042.0159.0084.0323.0128.049.0034.0131.0069.0262.0104.0397.005.0194.0102.0394.0155.0595.0032.0124.0063.0244.0096.0369.0081.0313.0164.0635.0249.0964.0027.0103.0054.0209.0081.0313.0068.0264.0137.0532.0208.0807.0029.0111.0057.0222.0086.0335.007.0275.0142.0556.0214.084.0029.0115.0058.0227.0088.0343.0099.0387.0198.0777.03.1177.0013.0052.0027.0107.0041.0161.0089.035.0178.0704.0269.1064.0034.0137.0069.0275.0104.0413.0073.0294.0148.0589.0223.0888.0033.0133.0066.0265.01.0398.0085.034.017.0683.0256.1028.0025.0102.005.0203.0075.0304.0109.0441.0219.0885.0329.1332.0018.0072.0036.0146.0054.0218.009.0371.0182.0744.0273.1117.0033.0135.0066.0272.0099.0407.0079.0328.0159.0657.0238.0986.0034.0138.0067.0276.01.0414.0102.0423.0203.0845.0304.1268.0007.0028.0014.0056.002.0084.0108.0455.0215.0909.0322.1363.0029.012.0056.024.0084.0359.0079.0338.0157.0675.0236.1011.0031.0138.0064.0276.0096.0415.0079.0343.0157.0685.0235.1026.0024.0107.0049.0215.0073.0323.0101.0447.0201.0891.03.133.0012.0052.0023.0103.0035.0155.0083.0378.0166.0754.0247.1125.0029.0131.0057.0262.0086.0392.0066.0302.013.0602.0193.0898.0029.0135.0057.027.0086.0402.007.0331.0138.0657.0205.098.0015.0077.0033.0156.0048.0233.0082.0398.0161.0788.0237.1171.0019.0096.0037.0188.0056.0284.0056.0282.011.0561.0162.0835.0024.0126.0047.025.0071.0373.0047.0252.0092.0498.0136.074.002.011.0041.0222.006.033.0061.034.0119.0673.0172.0993.1876 1.1262-.9386 19.4286 0 23.3705.9386 3.942 1.7833 5.538 3.8481 5.913.3452.063.6615-.347.9507-1.103z" fill="#130e47"/><path d="m58.0484 59.3724s.618 1.5107-.1374 2.266c-.7553.7553-1.7852.824-2.0599.4806-.2747-.3433.412-2.0599.5493-2.2659s1.648-.4807 1.648-.4807z" fill="#f2a374"/><path d="m42.8998 41.0442s1.0793 2.018 2.2995 1.5487c1.2202-.4692.7761-1.7095.7761-1.7095s1.5704-.2614 4.1045.1139c2.5342.3755 6.2519 1.5521 8.3118 4.7107 5.5233 8.4689-.3433 13.6643-.3433 13.6643l-1.0986.6867-1.2384 3.5581c-5.7675 1.0636-10.9765.7276-15.3927-1.5955l-1.1263-6.8517s-2.628-2.3464-2.3464-6.0069c.2816-3.6604 1.8772-5.7253 3.1912-6.57 1.3139-.8448 2.8626-1.5488 2.8626-1.5488z" fill="#ff5862"/><path d="m56.8378 49.2511c-.1714 1.4673-1.0503 2.7715-2.2331 3.6374-1.1763.8611-2.5586 1.3124-3.988 1.5024-1.096.4433-2.2908.6296-3.4568.8441-.7669.1411-1.5164.3465-2.2766.5173-.8036.1806-1.618.3344-2.4402.3979-.8824.0682-1.8666.0882-2.6927-.2853-.179-.0809-.3432-.1791-.4918-.2917l1.0601 6.449c4.4161 2.3231 9.6252 2.6592 15.3927 1.5955l1.2384-3.5581 1.0986-.6866s4.5161-3.9999 1.8925-10.7012c-1.0295.2196-2.0647.4086-3.1031.5793z" fill="#f2a374"/><path d="m56.1945 47.2879c.3434 4.9439-4.3259 6.5232-7.6218 5.1499-2.612-1.0884-5.532-3.9312-5.532-3.9312l-4.5756 5.8466c.4058.5295.7274.8173.7274.8173l1.1263 6.8516c4.4162 2.3232 9.6252 2.6592 15.3927 1.5955l1.2384-3.558c.387-1.1961.8685-9.6803-.7554-12.7717z" fill="#ff2e57"/><path d="m44.3604 109.625s-.8505 1.766-.6628 2.517c.1878.751 6.6639.845 6.8517.47.1877-.376-.7509-1.596-1.8772-2.065-1.1263-.47-2.5845-.922-2.5845-.922z" fill="#ff2e57"/><path d="m54.0395 109.327s-.7492 1.556-.5838 2.218c.1654.661 5.8705.744 6.0359.413.1653-.33-.6615-1.405-1.6537-1.819-.9922-.413-2.2768-.812-2.2768-.812z" fill="#ff2e57"/><path d="m60.4043 54.6075-1.4078-1.4079s-4.4113 1.8772-8.9165.9386-6.6639-6.2885-6.6639-6.2885l-6.292-.5412c-.1302.5665-.2265 1.1838-.2781 1.8552-.2816 3.6605 2.3464 6.0069 2.3464 6.0069 5.8192 6.4763 17.6452 7.4149 21.2119-.5631z" fill="#f2bc9c"/><path d="m58.9964 53.1988s.3754-1.7833 1.0324-1.7833 0 .8448 0 .8448 1.5956-1.8772 2.1588-.8448c.5631 1.0325-1.7833 3.1912-1.7833 3.1912z" fill="#f2bc9c"/><path d="m45.3206 37.947 1.3296.0563s-.1245.7009-.6257.6944c-.5012-.0066-.7039-.7507-.7039-.7507z" fill="#f2f2f2"/><path d="m54.0394 42.1346c4.0089 1.8571 5.5212 4.447 6.6182 7.6936l-3.5195 1.2776c-.5318-3.8182-1.8417-5.927-3.0724-7.9381z" fill="#ff5862"/><path d="m40.7927 42.1346c-4.8169 3.0289-5.9248 7.62-2.1078 14.2854l6.7292-5.2872c-1.6552-1.952-2.1114-4.9412-2.5406-8.1711z" fill="#ff5862"/><path d="m48.7925 40.8501c1.1588-.2558 2.2159-.0678 3.1757.5441 0 0 .5869 1.0866-.1684 1.0866-1.253 0-3.0073-1.6307-3.0073-1.6307z" fill="#f2bc9c"/></svg>