<svg fill="none" height="115" viewBox="0 0 153 115" width="153" xmlns="http://www.w3.org/2000/svg" xmlns:xlink="http://www.w3.org/1999/xlink"><linearGradient id="a"><stop offset="0" stop-color="#006da2"/><stop offset=".953125" stop-color="#29aaf3"/></linearGradient><linearGradient id="b" gradientUnits="userSpaceOnUse" x1="51.6081" x2="-12.7623" xlink:href="#a" y1="-51.6805" y2="68.4901"/><linearGradient id="c"><stop offset="0" stop-color="#92deff"/><stop offset=".977055" stop-color="#62b4e1"/></linearGradient><linearGradient id="d" gradientUnits="userSpaceOnUse" x1="25.0137" x2="25.0137" xlink:href="#c" y1="27.1235" y2="75.27"/><linearGradient id="e"><stop offset="0" stop-color="#d8dee8"/><stop offset="1" stop-color="#fff"/></linearGradient><linearGradient id="f" gradientUnits="userSpaceOnUse" x1="5.85445" x2="82.5884" xlink:href="#e" y1="72.4048" y2="72.4048"/><linearGradient id="g"><stop offset="0" stop-color="#ff9085"/><stop offset="1" stop-color="#fb6fbb"/></linearGradient><linearGradient id="h" gradientUnits="userSpaceOnUse" x1="1.62936" x2="29.7172" xlink:href="#g" y1="46.6121" y2="46.6121"/><linearGradient id="i" gradientUnits="userSpaceOnUse" x1="57.9042" x2="70.2779" xlink:href="#e" y1="116.557" y2="31.3464"/><linearGradient id="j" gradientUnits="userSpaceOnUse" x1="57.0418" x2="60.3521" xlink:href="#e" y1="79.6866" y2="97.3418"/><linearGradient id="k" gradientUnits="userSpaceOnUse" x1="35.936" x2="76.1294" xlink:href="#g" y1="38.2573" y2="38.2573"/><linearGradient id="l" gradientUnits="userSpaceOnUse" x1="19.4852" x2="36.7411" xlink:href="#g" y1="36.3377" y2="36.3377"/><linearGradient id="m" gradientUnits="userSpaceOnUse" x1="82.4523" x2="104.532" xlink:href="#e" y1="62.5419" y2="62.5419"/><linearGradient id="n" gradientUnits="userSpaceOnUse" x1="62.4862" x2="108.354" xlink:href="#g" y1="46.3528" y2="46.3528"/><linearGradient id="o" gradientUnits="userSpaceOnUse" x1="66.5057" x2="66.5057" xlink:href="#c" y1="63.2881" y2="75.2642"/><linearGradient id="p" gradientUnits="userSpaceOnUse" x1="73.5247" x2="73.5247" xlink:href="#c" y1="63.1487" y2="75.4884"/><linearGradient id="q" gradientUnits="userSpaceOnUse" x1="12.0758" x2="12.0758" xlink:href="#c" y1="63.166" y2="74.1581"/><linearGradient id="r" gradientUnits="userSpaceOnUse" x1="18.5118" x2="18.5118" xlink:href="#c" y1="63.0377" y2="74.3634"/><linearGradient id="s" gradientUnits="userSpaceOnUse" x1="94.2105" x2="84.3063" xlink:href="#a" y1="52.9363" y2="73.487"/><linearGradient id="t" gradientUnits="userSpaceOnUse" x1="98.3557" x2="98.3557" xlink:href="#c" y1="62.5674" y2="73.1928"/><linearGradient id="u" gradientUnits="userSpaceOnUse" x1="34.5323" x2="35.4306" xlink:href="#e" y1="72.1779" y2="72.1779"/><linearGradient id="v" gradientUnits="userSpaceOnUse" x1="31.1632" x2="45.1072" xlink:href="#e" y1="86.825" y2="86.825"/><linearGradient id="w" gradientUnits="userSpaceOnUse" x1="34.9627" x2="45.1071" xlink:href="#e" y1="87.1731" y2="87.1731"/><linearGradient id="x" gradientUnits="userSpaceOnUse" x1="25.0718" x2="42.1086" xlink:href="#e" y1="87.173" y2="87.173"/><linearGradient id="y" gradientUnits="userSpaceOnUse" x1="39.9283" x2="39.9283" xlink:href="#c" y1="40.0889" y2="50.7199"/><linearGradient id="z" gradientUnits="userSpaceOnUse" x1="127.716" x2="-20.0007" xlink:href="#g" y1="10.3093" y2="85.409"/><linearGradient id="A"><stop offset="0" stop-color="#ffc444"/><stop offset=".9964" stop-color="#f36f56"/></linearGradient><linearGradient id="B" gradientUnits="userSpaceOnUse" x1="98.2267" x2="81.1842" xlink:href="#A" y1="65.4492" y2="76.6007"/><linearGradient id="C"><stop offset="0" stop-color="#311944"/><stop offset="1" stop-color="#893976"/></linearGradient><linearGradient id="D" gradientUnits="userSpaceOnUse" x1="85.8218" x2="89.0175" xlink:href="#C" y1="101.556" y2="118.143"/><linearGradient id="E" gradientUnits="userSpaceOnUse" x1="88.904" x2="89.408" xlink:href="#A" y1="113.349" y2="107.881"/><linearGradient id="F" gradientUnits="userSpaceOnUse" x1="91.5761" x2="94.7718" xlink:href="#C" y1="100.448" y2="117.034"/><linearGradient id="G" gradientUnits="userSpaceOnUse" x1="95.2275" x2="95.7314" xlink:href="#A" y1="113.932" y2="108.463"/><linearGradient id="H"><stop offset="0" stop-color="#444b8c"/><stop offset=".9964" stop-color="#26264f"/></linearGradient><linearGradient id="I" gradientUnits="userSpaceOnUse" x1="87.1593" x2="92.9874" xlink:href="#H" y1="95.492" y2="95.9591"/><linearGradient id="J" gradientUnits="userSpaceOnUse" x1="87.1593" x2="92.9872" xlink:href="#H" y1="95.4919" y2="95.9591"/><linearGradient id="K" gradientUnits="userSpaceOnUse" x1="90.3828" x2="99.2301" xlink:href="#H" y1="96.5881" y2="97.2972"/><linearGradient id="L" gradientUnits="userSpaceOnUse" x1="108.081" x2="90.6088" xlink:href="#A" y1="99.0619" y2="69.1327"/><linearGradient id="M" gradientUnits="userSpaceOnUse" x1="108.08" x2="90.6065" xlink:href="#A" y1="99.0638" y2="69.134"/><linearGradient id="N" gradientUnits="userSpaceOnUse" x1="97.3164" x2="100.501" xlink:href="#A" y1="82.3758" y2="82.6311"/><linearGradient id="O" gradientUnits="userSpaceOnUse" x1="113.928" x2="96.455" xlink:href="#A" y1="95.6492" y2="65.7197"/><linearGradient id="P" gradientUnits="userSpaceOnUse" x1="117.462" x2="131.011" xlink:href="#A" y1="37.1282" y2="22.3382"/><linearGradient id="Q"><stop offset="0" stop-color="#444b8c"/><stop offset=".9964" stop-color="#3e4177"/></linearGradient><linearGradient id="R" gradientUnits="userSpaceOnUse" x1="94.118" x2="92.2377" xlink:href="#Q" y1="64.3433" y2="58.1576"/><linearGradient id="S" gradientUnits="userSpaceOnUse" x1="115.675" x2="129.223" xlink:href="#A" y1="35.491" y2="20.7011"/><linearGradient id="T" gradientUnits="userSpaceOnUse" x1="58.68" x2="56.6149" xlink:href="#A" y1="74.1761" y2="74.1761"/><linearGradient id="U" gradientUnits="userSpaceOnUse" x1="70.8906" x2="71.5139" xlink:href="#H" y1="106.745" y2="117.965"/><linearGradient id="V" gradientUnits="userSpaceOnUse" x1="72.068" x2="71.7368" xlink:href="#A" y1="112.275" y2="97.1257"/><linearGradient id="W" gradientUnits="userSpaceOnUse" x1="82.1729" x2="82.7962" xlink:href="#H" y1="106.119" y2="117.339"/><linearGradient id="X" gradientUnits="userSpaceOnUse" x1="82.0009" x2="81.6698" xlink:href="#A" y1="112.057" y2="96.9082"/><linearGradient id="Y"><stop offset="0" stop-color="#311944"/><stop offset="1" stop-color="#6b3976"/></linearGradient><linearGradient id="Z" gradientUnits="userSpaceOnUse" x1="67.258" x2="73.5495" xlink:href="#Y" y1="102.428" y2="93.9844"/><linearGradient id="aa" gradientUnits="userSpaceOnUse" x1="71.9316" x2="86.667" xlink:href="#Y" y1="103.476" y2="89.7342"/><linearGradient id="ab" gradientUnits="userSpaceOnUse" x1="59.5414" x2="75.8129" xlink:href="#g" y1="73.3346" y2="71.8678"/><linearGradient id="ac" gradientUnits="userSpaceOnUse" x1="91.0737" x2="76.2312" xlink:href="#Y" y1="85.1255" y2="72.2974"/><linearGradient id="ad" gradientUnits="userSpaceOnUse" x1="68.0608" x2="74.3522" xlink:href="#Y" y1="103.026" y2="94.5823"/><linearGradient id="ae" gradientUnits="userSpaceOnUse" x1="57.9657" x2="69.6728" xlink:href="#g" y1="75.3166" y2="73.6938"/><linearGradient id="af" gradientUnits="userSpaceOnUse" x1="60.242" x2="76.5134" xlink:href="#g" y1="81.1062" y2="79.6395"/><linearGradient id="ag" gradientUnits="userSpaceOnUse" x1="77.5622" x2="81.1275" xlink:href="#g" y1="66.0538" y2="87.8567"/><linearGradient id="ah" gradientUnits="userSpaceOnUse" x1="71.5314" x2="75.3807" xlink:href="#A" y1="66.5684" y2="60.9806"/><linearGradient id="ai" gradientUnits="userSpaceOnUse" x1="71.2519" x2="74.205" xlink:href="#A" y1="64.2085" y2="57.5309"/><linearGradient id="aj" gradientUnits="userSpaceOnUse" x1="75.8887" x2="76.1853" xlink:href="#H" y1="91.2479" y2="91.2479"/><linearGradient id="ak" gradientUnits="userSpaceOnUse" x1="80.041" x2="80.3376" xlink:href="#H" y1="91.2479" y2="91.2479"/><linearGradient id="al" gradientUnits="userSpaceOnUse" x1="75.2954" x2="80.9306" xlink:href="#H" y1="90.5806" y2="90.5806"/><linearGradient id="am" gradientUnits="userSpaceOnUse" x1="73.2193" x2="73.9608" xlink:href="#H" y1="88.2078" y2="88.2078"/><linearGradient id="an" gradientUnits="userSpaceOnUse" x1="82.2653" x2="83.0068" xlink:href="#H" y1="88.2079" y2="88.2079"/><linearGradient id="ao" gradientUnits="userSpaceOnUse" x1="72.703" x2="83.5703" xlink:href="#H" y1="82.795" y2="82.795"/><linearGradient id="ap" gradientUnits="userSpaceOnUse" x1="82.4717" x2="83.6857" xlink:href="#H" y1="112.108" y2="112.108"/><linearGradient id="aq"><stop offset="0" stop-color="#aa80f9"/><stop offset=".9964" stop-color="#6165d7"/></linearGradient><linearGradient id="ar" gradientUnits="userSpaceOnUse" x1="82.5618" x2="83.5998" xlink:href="#aq" y1="110.823" y2="110.823"/><linearGradient id="as" gradientUnits="userSpaceOnUse" x1="72.6109" x2="73.8412" xlink:href="#H" y1="112.16" y2="112.16"/><linearGradient id="at" gradientUnits="userSpaceOnUse" x1="72.6269" x2="73.665" xlink:href="#aq" y1="110.824" y2="110.824"/><linearGradient id="au" gradientUnits="userSpaceOnUse" x1="70.5498" x2="85.6759" xlink:href="#aq" y1="101.184" y2="101.184"/><linearGradient id="av" gradientUnits="userSpaceOnUse" x1="72.0329" x2="74.109" xlink:href="#aq" y1="101.241" y2="101.241"/><linearGradient id="aw"><stop offset="0" stop-color="#008bda" stop-opacity=".74"/><stop offset="1" stop-color="#7987aa"/></linearGradient><linearGradient id="ax" gradientUnits="userSpaceOnUse" x1="72.9226" x2="74.0817" xlink:href="#aw" y1="95.4589" y2="95.4692"/><linearGradient id="ay" gradientUnits="userSpaceOnUse" x1="77.3676" x2="64.2829" xlink:href="#a" y1="81.6061" y2="88.4001"/><linearGradient id="az" gradientUnits="userSpaceOnUse" x1="76.3335" x2="77.5199" xlink:href="#aq" y1="101.241" y2="101.241"/><linearGradient id="aA" gradientUnits="userSpaceOnUse" x1="78.8544" x2="80.9305" xlink:href="#aq" y1="101.241" y2="101.241"/><linearGradient id="aB" gradientUnits="userSpaceOnUse" x1="79.5958" x2="80.9305" xlink:href="#aq" y1="101.241" y2="101.241"/><linearGradient id="aC" gradientUnits="userSpaceOnUse" x1="82.2653" x2="84.1486" xlink:href="#aw" y1="95.4589" y2="95.4861"/><linearGradient id="aD" gradientUnits="userSpaceOnUse" x1="83.155" x2="84.1931" xlink:href="#aq" y1="101.241" y2="101.241"/><linearGradient id="aE" gradientUnits="userSpaceOnUse" x1="77.7537" x2="77.4329" xlink:href="#g" y1="80.6616" y2="67.5986"/><linearGradient id="aF" gradientUnits="userSpaceOnUse" x1="75.9357" x2="79.2702" xlink:href="#A" y1="81.651" y2="84.0916"/><linearGradient id="aG" gradientUnits="userSpaceOnUse" x1="88.5618" x2="88.7376" xlink:href="#A" y1="84.4995" y2="87.558"/><linearGradient id="aH" gradientUnits="userSpaceOnUse" x1="92.3436" x2="92.3436" xlink:href="#c" y1="85.2372" y2="91.496"/><linearGradient id="aI" gradientUnits="userSpaceOnUse" x1="101.868" x2="107.298" xlink:href="#H" y1="100.542" y2="103.303"/><linearGradient id="aJ" gradientUnits="userSpaceOnUse" x1="101.964" x2="103.525" xlink:href="#A" y1="101.445" y2="101.821"/><linearGradient id="aK" gradientUnits="userSpaceOnUse" x1="100.694" x2="95.4008" xlink:href="#H" y1="108.146" y2="115.059"/><linearGradient id="aL" gradientUnits="userSpaceOnUse" x1="102.992" x2="100.044" xlink:href="#A" y1="109.546" y2="110.184"/><linearGradient id="aM" gradientUnits="userSpaceOnUse" x1="95.8337" x2="98.2294" xlink:href="#Y" y1="92.7136" y2="105.103"/><linearGradient id="aN" gradientUnits="userSpaceOnUse" x1="91.0261" x2="96.4123" xlink:href="#Y" y1="91.0267" y2="99.1038"/><linearGradient id="aO" gradientUnits="userSpaceOnUse" x1="100.589" x2="95.6953" xlink:href="#Y" y1="93.4685" y2="109.28"/><linearGradient id="aP" gradientUnits="userSpaceOnUse" x1="98.1808" x2="98.1808" xlink:href="#c" y1="85.032" y2="97.5846"/><linearGradient id="aQ" gradientUnits="userSpaceOnUse" x1="99.0997" x2="97.636" xlink:href="#Y" y1="88.1234" y2="80.7881"/><linearGradient id="aR" gradientUnits="userSpaceOnUse" x1="98.6748" x2="97.5237" xlink:href="#A" y1="81.5447" y2="86.5219"/><linearGradient id="aS" gradientUnits="userSpaceOnUse" x1="96.5542" x2="98.0305" xlink:href="#A" y1="77.3305" y2="92.4455"/><linearGradient id="aT" gradientUnits="userSpaceOnUse" x1="97.9677" x2="97.9677" xlink:href="#c" y1="88.2097" y2="97.5847"/><linearGradient id="aU" gradientUnits="userSpaceOnUse" x1="110.288" x2="98.0194" xlink:href="#A" y1="101.043" y2="96.3604"/><linearGradient id="aV" gradientUnits="userSpaceOnUse" x1="102.333" x2="102.333" xlink:href="#c" y1="86.6158" y2="96.9115"/><linearGradient id="aW"><stop offset="0" stop-color="#311944"/><stop offset="1" stop-color="#a03976"/></linearGradient><linearGradient id="aX" gradientUnits="userSpaceOnUse" x1="24.5911" x2="23.8999" xlink:href="#aW" y1="104.431" y2="113.227"/><linearGradient id="aY" gradientUnits="userSpaceOnUse" x1="22.807" x2="22.9326" xlink:href="#A" y1="109.328" y2="100.218"/><linearGradient id="aZ" gradientUnits="userSpaceOnUse" x1="11.5307" x2="10.8396" xlink:href="#aW" y1="103.405" y2="112.201"/><linearGradient id="a0" gradientUnits="userSpaceOnUse" x1="10.8377" x2="10.9634" xlink:href="#A" y1="109.163" y2="100.053"/><linearGradient id="a1" gradientUnits="userSpaceOnUse" x1="24.9811" x2="18.2454" xlink:href="#Q" y1="94.5704" y2="94.5704"/><linearGradient id="a2" gradientUnits="userSpaceOnUse" x1="24.9811" x2="18.2455" xlink:href="#Q" y1="94.5707" y2="94.5707"/><linearGradient id="a3" gradientUnits="userSpaceOnUse" x1="23.111" x2="9.5514" xlink:href="#Q" y1="93.9061" y2="93.9061"/><linearGradient id="a4" gradientUnits="userSpaceOnUse" x1="22.0085" x2="26.9681" xlink:href="#aq" y1="93.1285" y2="65.0556"/><linearGradient id="a5" gradientUnits="userSpaceOnUse" x1="10.5025" x2="15.4974" xlink:href="#aq" y1="91.2968" y2="63.0244"/><linearGradient id="a6" gradientUnits="userSpaceOnUse" x1="25.7766" x2="25.7766" xlink:href="#A" y1="70.6501" y2="64.3122"/><linearGradient id="a7" gradientUnits="userSpaceOnUse" x1="25.4822" x2="27.652" xlink:href="#Y" y1="68.4225" y2="62.8249"/><linearGradient id="a8" gradientUnits="userSpaceOnUse" x1="26.0236" x2="23.0981" xlink:href="#A" y1="72.9684" y2="89.0522"/><linearGradient id="a9" gradientUnits="userSpaceOnUse" x1="26.1554" x2="28.3274" xlink:href="#Y" y1="68.6856" y2="63.0824"/><linearGradient id="ba" gradientUnits="userSpaceOnUse" x1="26.894" x2="23.9688" xlink:href="#A" y1="73.1264" y2="89.2089"/><linearGradient id="bb" gradientUnits="userSpaceOnUse" x1="23.5275" x2="23.5275" xlink:href="#H" y1="79.7161" y2="69.7131"/><linearGradient id="bc" gradientUnits="userSpaceOnUse" x1="25.1139" x2="25.1139" xlink:href="#H" y1="70.8743" y2="69.1568"/><linearGradient id="bd" gradientUnits="userSpaceOnUse" x1="12.7732" x2="89.2496" y1="62.7731" y2="148.079"><stop offset="0" stop-color="#ab316d"/><stop offset="1" stop-color="#792d3d"/></linearGradient><linearGradient id="be" gradientUnits="userSpaceOnUse" x1="44.9881" x2="27.2566" xlink:href="#A" y1="73.4749" y2="104.72"/><linearGradient id="bf" gradientUnits="userSpaceOnUse" x1="23.1625" x2="19.8824" xlink:href="#A" y1="62.6714" y2="98.868"/><linearGradient id="bg" gradientUnits="userSpaceOnUse" x1="16.7727" x2="78.1047" xlink:href="#A" y1="66.1211" y2="134.534"/><linearGradient id="bh" gradientUnits="userSpaceOnUse" x1="13.1572" x2="51.2084" xlink:href="#A" y1="70.8801" y2="113.325"/><linearGradient id="bi" gradientUnits="userSpaceOnUse" x1="10.717" x2="11.2602" xlink:href="#A" y1="83.2963" y2="80.2222"/><linearGradient id="bj" gradientUnits="userSpaceOnUse" x1="34.0256" x2="31.8077" xlink:href="#A" y1="84.6353" y2="85.6846"/><path d="m46.5893 113.42c-27.6474-4.187-50.11561-30.3272-46.033631-59.3812 3.482381-24.7784 25.206431-44.06143 51.257831-45.88235 1.8864-.13221 3.7945-.1731 5.7203-.11722 14.5331.41976 27.4458 6.23277 36.9959 15.02927 9.5053 8.7542 15.6803 20.4633 16.8053 32.7476 2.994 32.6835-30.3584 62.8119-64.7457 57.6039z" fill="#f4f7fa"/><path d="m28.3854 70.8639c-.7263 1.2041-1.992 2.8388-3.3624 4.7346l22.871 3.3115c-2.5583-6.9647-6.1649-14.279-.7784-26.3726 2.5277-5.6753 9.246-15.6532 6.4807-22.3072-3.1504-7.5809-9.3832-4.3074-10.9647-10.1765-2.4717-9.1734-10.2803-15.55486-18.669-10.99589-8.2793 4.49949-8.0014 20.93959 2.9078 38.92449 6.365 13.7891 5.308 16.5943 1.515 22.8816z" fill="url(#b)"/><g fill="#fcfdfe"><path d="m37.0389 75.9855c.1651-3.0037.1686-5.8451.1723-8.8533l.0015-1.003c-.0875-1.4486-.1344-2.8794-.1798-4.263-.1025-3.1243-.1993-6.0755-.7281-9.2084-.0102-.183-.0112-.3607-.0121-.549-.0035-.6721-.0072-1.3672-.3973-2.0318l-.009-.0276c-1.5718-16.5701-6.5881-33.0935-14.9094-49.111051l.1189-.061762c8.3268 16.028013 13.3475 32.563213 14.9226 49.145413.4011.692.4048 1.4324.4082 2.0861.001.1866.0019.3628.0112.5349.5294 3.1343.6263 6.0898.729 9.2188.0453 1.3827.0922 2.8125.1798 4.2635l-.0014 1.0071c-.0037 3.01-.0072 5.8532-.1725 8.8605z"/><path d="m36.8847 61.2917c-.1469-7.8363 3.9864-17.1449 7.4796-23.574 3.7829-6.9623 7.6508-12.1412 7.6895-12.1926l.1073.0804c-.0386.0514-3.9017 5.2238-7.68 12.1779-3.4851 6.4144-7.6087 15.6992-7.4624 23.5058z"/><path d="m31.6214 27.2349c-.6193-8.3068.6545-17.1681 1.0731-20.08.0801-.55697.1329-.92493.1305-.99641l.134-.0045c.0027.08002-.0385.3705-.1319 1.02009-.418 2.90832-1.6902 11.75872-1.0721 20.05092z"/><path d="m34.6097 40.5179c-2.8033-7.1565-17.4582-13.5018-17.6059-13.5651l.0527-.1232c.1482.0634 14.8545 6.4313 17.678 13.6395z"/></g><path d="m27.6934 45.5851c.1245 10.6171 5.2453 7.1187 9.9673 8.1665 5.4497 7.885 5.9631 15.2006-2.1737 21.5184l-9.0663-1.3568c-3.3639-.1562-7.3112-1.1843-7.0885-5.6636.2519-5.0661 1.45-8.2837-4.2682-10.7717-5.71804-2.4879-8.17445-7.0277-5.8589-12.1914 2.4368-5.434-3.2788-12.7588.8983-16.3997 7.2782-6.344 17.4604 5.6427 17.59 16.6983z" fill="url(#d)"/><path d="m29.9443 64.5856c-3.7852-4.1411-7.0648-8.7428-9.7477-13.6774-2.7058-4.9773-4.7684-10.227-6.1301-15.6035-.7808-3.083-1.3321-6.224-1.6382-9.3359l.1364-.0133c.3057 3.1049.8556 6.2391 1.6348 9.3156 1.3589 5.3654 3.4172 10.6044 6.1178 15.5715 2.6775 4.9249 5.9506 9.5176 9.7283 13.6505z" fill="#fcfdfe"/><path d="m20.1859 70.4172-.0622-.1222c1.6838-.8578 3.6702-1.5268 5.9038-1.9882 1.0643-.22 2.1216-.3651 3.1425-.4314l.009.1369c-1.0146.0658-2.0656.2101-3.1237.4288-2.2218.459-4.1965 1.1239-5.8694 1.9761z" fill="#fcfdfe"/><path d="m21.9615 53.9372c-4.6816-4.5288-14.64744-4.1149-14.74733-4.1096l-.00641-.137c.10096-.0044 10.12474-.4222 14.84914 4.148z" fill="#fcfdfe"/><path d="m16.1887 42.1176c-1.4014-7.2249 4.0135-15.574 4.0683-15.6575l.1146.0753c-.0545.0831-5.4389 8.3864-4.0483 15.5561z" fill="#fcfdfe"/><path d="m107.36 58.8975h-3.411l-7.122-20.6024 2.6081-1.8869z" fill="#97a6b7"/><path d="m82.5884 90.0009-76.73396-6.703v-28.4891h21.65576l54.9748 34.5079z" fill="url(#f)"/><path d="m29.7172 36.3705-14.6458 1.5052-13.44203 18.9779h25.88093z" fill="url(#h)"/><path d="m21.0234 54.0064 7.0897 1.906 13.0398-30.395-4.6658-5.736z" fill="#97a6b7"/><path d="m104.532 60.6268v21.3327l-22.0593 8.0411-.0615.0241-24.6085-1.912-3.9907 1.2038-28.4673-3.0094v-32.0341l13.277-30.5375 29.3594 22.0108 28.9233-10.6313.0782-.0321z" fill="url(#i)"/><path d="m53.8302 89.317v-33.5048-3.4106l3.9526 4.4786v31.233z" fill="url(#j)"/><path d="m76.1294 35.5669-10.7005.785-2.6973 19.0023-.2453 1.7282-5.8852.736-20.6651-39.1221 2.0949.8791z" fill="url(#k)"/><path d="m36.7411 20.2747-15.7177 33.7163h-1.5382l16.4515-35.3065z" fill="url(#l)"/><path d="m104.532 57.8181v24.1415l-22.0797 8.0412v-32.7845l14.432-22.1011.0882-.0321z" fill="url(#m)"/><path d="m108.354 58.3195-.904.567-8.4503-21.5986-11.6355 19.5924-24.878.2017.2454-1.7282 2.2066-19.1268 11.1911-.683 23.2056-1.7248h.0055l.0464.0183.064.1871z" fill="url(#n)"/><path d="m45.1075 61.4872v22.0314l-9.7014-.65-.7379-.1197-.1359-21.2617z" fill="#97a6b7"/><path d="m77.8182 77.1697-15.4014-.5931v-14.4677l15.4014-.38z" fill="#fff"/><path d="m69.3678 75.2642-5.7243-.1885v-11.6765l5.7243-.1111z" fill="url(#o)"/><path d="m76.7277 75.4884-6.4059-.1927v-12.0276l6.4059-.1194z" fill="url(#p)"/><path d="m22.4552 75.8997-14.28378-.5419v-13.2785l14.33108-.3504z" fill="#fff"/><path d="m14.6737 74.1581-5.21922-.1724.00427-10.7174 5.23835-.1023z" fill="url(#q)"/><path d="m21.2973 74.3634-5.62-.1763.0272-11.0394 5.6417-.11z" fill="url(#r)"/><path d="m101.935 73.4896-15.2576 2.5856v-14.7127l15.4526.087z" fill="#fff"/><path d="m94.5998 73.3411-6.4748.9793.018-11.6164 6.5487-.0689z" fill="url(#s)"/><path d="m100.978 72.3767-5.3964.8161.1019-10.568 5.4465-.0574z" fill="url(#t)"/><path d="m35.4306 61.4872v21.3814l-.7501-.1197-.1482-21.2617z" fill="url(#u)"/><path d="m45.1072 83.518v4.937l-9.0996 2.3745-1.0449-1.5321-3.7995-5.7396 3.9385-.7374z" fill="url(#v)"/><path d="m45.1071 83.5174v4.937l-9.0995 2.3745-1.0449-1.532 1.2261-2.3555 6.0471-2.5465z" fill="url(#w)"/><path d="m36.248 88.9182 2.4533-.5221v-1.8138l3.4074-.4487v-1.7385l-11.0399-.8777v1.5925l-3.4074.4107v1.6597l-2.5896.4778v1.7518l11.1762 1.4187z" fill="url(#x)"/><path d="m36.248 88.9186-11.1762-1.2601v1.7518l11.1762 1.4187z" fill="#97a6b7"/><path d="m38.7013 86.5829-11.0399-1.0617v1.6598l11.0399 1.2157z" fill="#97a6b7"/><path d="m31.0688 83.5174v1.5925l11.0399 1.0237v-1.6606z" fill="#97a6b7"/><path d="m35.9757 51.5373v-8.8667c0-1.8253 1.4459-3.2635 3.2713-3.2635h1.4044c1.8253 0 3.3657 1.4382 3.3657 3.2635v8.8667z" fill="#fff"/><path d="m40.6514 40.0889h-1.4044c-1.385 0-2.5898 1.197-2.5898 2.582v8.049h6.5422v-8.049c0-1.385-1.163-2.582-2.548-2.582z" fill="url(#y)"/><path d="m108.354 58.32-.904.567-8.4503-21.5987-11.6355 19.5924-24.8779.2017-5.8852.736-20.6651-39.1221 2.0949.8791.1049.2058 19.3062 36.3908 5.2474-.8178h23.3745l13.2711-21.4896.0027-.0041.0028.0041.1103.1717z" fill="url(#z)" opacity=".3"/><path d="m88.9842 63.8089s-5.3868 1.9905-4.1917 6.9819c1.1952 4.9915 1.4061 7.8592 1.3358 8.3586-.0703.4995 2.1067.7104 2.1067.7104z" fill="url(#B)"/><path d="m89.5152 111.11s.1448.886.1263 1.201c-.0184.316-3.5185.477-3.5539.241-.0353-.237.5786-.612 1.0107-.745s1.6967-.486 1.6967-.486z" fill="url(#D)"/><path d="m88.6656 110.227.1117 1.102s.4065.268.7647.061l.1793-1.2z" fill="url(#E)"/><path d="m95.7599 112.547s.1448.886.1264 1.201c-.0184.316-3.5186.477-3.5539.241-.0354-.237.5786-.612 1.0106-.745.4321-.133 1.6967-.487 1.6967-.487z" fill="url(#F)"/><path d="m94.9104 111.663.1117 1.102s.4065.269.7647.061l.1792-1.199z" fill="url(#G)"/><path d="m89.3007 81.4578c-.4045.8202-.8091 1.6404-1.2137 2.4606-.3253 4.6808-.4871 9.7707-.3832 15.2139.0773 4.0497.2937 7.8857.6046 11.4877.5485-.026 1.097-.051 1.6456-.076.7932-1.574 1.7296-3.959 1.8157-6.903.09-3.071-.8411-3.479-.7821-6.4195.0766-3.811 1.6747-4.8278 2.5261-9.412.3256-1.7531.5448-4.0429.2843-6.821-1.4991.1564-2.9981.3129-4.4973.4693z" fill="url(#I)"/><path d="m93.7978 80.9885c-.8095.0844-1.6192.1689-2.4287.2535-1.4574 2.536-1.8642 5.1757-1.6085 6.3433.3618 1.6519 1.3188 2.1811 1.2662 3.8396-.052 1.6411-1.0189 2.0667-1.6322 4.001-.4246 1.3392-.3126 2.5705-.0711 4.9781.4865 4.851 1.6578 6.334.6767 7.925-.2788.451-.7811.99-1.7652 1.4.0241.298.0477.596.0732.891.5485-.025 1.097-.051 1.6456-.076.7932-1.574 1.7296-3.959 1.8157-6.903.09-3.071-.8411-3.479-.7821-6.4195.0766-3.8111 1.6746-4.8277 2.5261-9.412.3257-1.7531.5449-4.0429.2843-6.821z" fill="url(#J)" opacity=".3"/><path d="m91.4772 82.9342c.7595 4.1413 1.4303 8.5735 1.9537 13.274.6319 5.6758.9692 11.0258 1.1018 15.9938.6021.017 1.2041.034 1.8062.051 2.3725-4.693 2.5175-7.875 2.1754-9.947-.1318-.798-.4898-2.3638-.5715-4.7033-.057-1.6309.0471-2.872.177-4.3639.2849-3.2712.6307-3.9853.6804-6.4874.0467-2.3482.0563-3.5364-.6141-4.2299-1.766-1.8271-6.3603.251-6.7089.4127z" fill="url(#K)"/><path d="m87.6262 84.758c-.5769-.9572.1477-1.8804.3126-3.6938.1869-2.0553-.6048-2.3976-1.3879-5.8037-.5207-2.2653-1.0206-4.44-.4239-6.9857.2859-1.22.7709-3.2893 2.4834-4.2888.8838-.5158 2.0905-.4642 4.4677-.3398 2.9397.1537 4.4095.2306 5.5057.8078.1605.0845 3.4952 1.8984 3.7252 4.8552.233 3.0093-3.044 3.4138-3.4811 7.4269-.1962 1.8015.1536 4.5724.3804 6.3695.2178 1.7256.3676 2.1674.0271 2.6898-.8207 1.2593-3.3335.9003-8.359.1827-1.9713-.2815-2.8198-.5058-3.2502-1.2201z" fill="url(#L)"/><path d="m95.2725 76.0911c.2125.7821.9768 1.3664 1.5088 3.2689.1148.4108.9329 3.3359-.1283 4.0559-.6129.4158-1.1632-.372-2.6508-.4748-2.5778-.1784-3.8058 1.9881-5.4897 1.3965-.2922-.1028-.6779-.3216-1.063-.8245-.0766.4532-.0635.8468.1767 1.2454.4304.7143 1.2789.9386 3.2502 1.2201 5.0255.7176 7.5383 1.0766 8.359-.1827.3405-.5224.1906-.9642-.0272-2.6898-.2268-1.7971-.5766-4.5679-.3804-6.3694.4372-4.0131 3.7142-4.4176 3.4812-7.427-.063-.8044-.359-1.5208-.755-2.1443-4.157 1.6823-6.9494 6.4678-6.2815 8.9257z" fill="url(#M)" opacity=".3"/><path d="m100.524 82.0105-.8322.531c-.1493-.1724-.4951-.5204-1.035-.6392-.6082-.1337-1.3064.0581-1.3227.2522-.013.1555.4121.3124.4779.3367.5307.1958.9244.0332 1.139.2465.0759.0755.1705.2158.3879.3458.0571.0342.117.0644.1485.0766.3543.1378.9616-.4789 1.0146-.5327z" fill="url(#N)"/><path d="m98.0661 71.101c-.6017-1.4412-1.0186-3.6477-.0682-6.9245 6.2621 2.4675 9.4561 8.3173 8.2091 12.9546-1.028 3.8228-4.768 5.6848-5.602 6.0765-.194-.4419-.389-.8836-.583-1.3254.967-1.0767 2.057-2.6687 1.903-4.4854-.214-2.5186-2.6406-3.3781-3.8589-6.2958z" fill="url(#O)"/><path d="m93.232 60.6818s.0494 1.0955.3895 1.9158c.3073.7415 1.9237 1.2076 2.2513 1.3731.3277.1655-.6138.6493-1.5593.7443-.9454.0951-3.6455-.1196-4.1323-.478-.4867-.3584.3912-.3315 1.066-.5792.6749-.2477 1.065-1.5675.9459-2.1666-.119-.5991 1.0389-.8094 1.0389-.8094z" fill="url(#P)"/><path d="m91.7366 60.2846c-.4906-.4821-.5591-.5383-.6125-.7049-.2144-.6687.3042-1.5845.9845-1.81.0354-.0117.4916-.1577.6657.0402.1479.1681-.0696.4003.0338.7242.0969.3033.3598.326.8471.7237.4014.3275.6509.5312.7084.8176.1186.5905-.5962 1.4463-1.229 1.423-.2275-.0084-.2894-.1246-1.398-1.2138z" fill="url(#R)"/><path d="m93.0728 61.5895s-.5215.5904-1.3159.3952c-.7113-.1747-.5297-1.8071-.0092-2.068.1736-.0869.4891-.0797.7264.0346.1402.0675.1791.1377.4103.2436.2132.0977.2808.0842.3381.153.0718.086.1027.2711-.1222.7178.1621-.1146.3363-.1386.4433-.0628.017.0121.0605.0546.0792.1104.0678.2023-.1424.4077-.55.4762z" fill="url(#S)"/><path d="m58.6541 74.8214s-.4383-.9024-.7391-1.0226c-.3007-.1204-1.3577-1.1602-1.2976-.679.0601.4813.782.7993.6273 1.0742-.1547.275.4985 1.0399 1.0399 1.1516s.3695-.5242.3695-.5242z" fill="url(#T)"/><path d="m72.452 110.734s.078.621.0257.829c-.0524.207-1.8557.357-2.4679.285-.6121-.072.3647-.697.7547-.815.3899-.117 1.6875-.299 1.6875-.299z" fill="url(#U)"/><path d="m71.5443 109.7.1901 1.245s.4847.218.7177.002l.0257-1.302z" fill="url(#V)"/><path d="m81.7104 109.645s-.3826.284-.2806.624.9948 1.702 1.6311 2.089.4369-.419.2517-.921c-.1851-.502-.6583-1.607-.843-1.792-.1847-.186-.7592 0-.7592 0z" fill="url(#W)"/><path d="m81.022 108.277c.1849.516.3628.94.502 1.252.3079.692.4762.952.6667 1.177.1663.196.5597.614.6654.544.1075-.07-.1804-.579-.7352-2.068-.0806-.216-.3351-.905-.3351-.905z" fill="url(#X)"/><path d="m67.7676 86.7335c-.132 1.296-.2586 3.3074-.0693 5.7485.2467 3.1805.8827 5.1932 1.6803 8.584.4874 2.073 1.1442 5.123 1.7385 8.938.1379.079.5436.286 1.066.209.2924-.043.5112-.16.6403-.243 1.5594-4.765 1.0989-7.718.3463-9.558-.3207-.7842-.7097-1.4029-.9175-2.6084-.2751-1.5949.065-2.4864.55-6.1807.3458-2.6331.2859-3.0402.0558-3.4351-.9194-1.5787-3.7318-1.5479-5.0904-1.4543z" fill="url(#Z)"/><path d="m73.1351 87.2877c.9553 4.9333 1.893 7.5245 2.6025 8.9901.175.3614.7588 1.5275 1.3107 3.1993.4886 1.4799.6922 2.5679.7965 3.0469.3293 1.513 1.1433 3.721 3.3335 6.617.0273.016.4008.227.7578.039.1807-.096.2708-.247.3067-.318-.2864-2.769-.6151-5.096-.9004-6.892-.06-.376-.3235-2.0241-.737-4.2011-.1618-.852-.3989-2.1002-.6829-3.3824-.3536-1.5966-.8958-3.7688-1.7315-6.3717-1.6853-.2425-3.3706-.4847-5.0559-.7271z" fill="url(#aa)"/><path d="m57.9532 75.2264c.2157-.2527.4314-.5055.6471-.7582.1026.0785 1.5935 1.1778 3.3753.5349 1.2269-.4427 1.812-1.5817 2.1871-2.309 1.1267-2.1845.0855-3.5284 1.4082-5.09.3673-.4336 1.1269-1.0023 1.684-.9382 1.3274.1527 2.5995 3.9043 1.7794 7.1077-.1655.6466-1.0769 4.2068-4.1533 5.0053-2.4839.6449-5.408-.7629-6.9278-3.5525z" fill="url(#ab)"/><path d="m72.4854 67.7994c-.5571-.5149-1.6226-1.1084-2.1571-2.4881-.1609-.4153-.7308-1.8868.11-3.0123.499-.6682 1.4259-1.1219 2.2428-.9613.6982.1373.8074.6236 1.9937 1.6022.4617.3808 1.2039.9931 2.03 1.3334 1.4153.5833 2.2656.0345 3.6864.0971 1.7456.077 3.7734 1.0511 4.7503 2.4677 1.734 2.5143-.7778 5.0648 1.1214 8.0103.6224.9649.9291.7486 2.4031 2.6167 1.476 1.8704 2.2139 2.8056 2.0827 3.9516-.1823 1.5906-1.8955 3.11-3.5088 3.2133-1.5759.101-2.5777-1.139-3.38-.5966-.5711.3859-.2446 1.1366-.8511 2.0388-.7819 1.1632-2.3185 1.395-2.5667 1.4323-2.3035.3475-5.4094-2.3536-6.7286-5.5538-2.3787-5.7706 1.7998-11.3524-1.2281-14.1513z" fill="url(#ac)"/><path d="m73.1699 100.412c-.3208-.7843-.7097-1.4031-.9176-2.6084-.2751-1.5949.065-2.4865.5501-6.1808.3457-2.6331.2859-3.0402.0558-3.435-.4996-.858-1.5586-1.2387-2.6392-1.3942.0145.0554.029.111.0408.1646.567 2.5894-1.597 4.1693-.6209 7.0157.4812 1.4035 1.2491 1.7249 1.428 3.3527.1676 1.525-.4403 1.8426-.3104 3.2284.194 2.072 1.6658 2.573 2.0488 4.16.2489 1.031.0393 2.538-1.7782 4.72.0301.188.0603.377.0902.569.138.079.5436.286 1.066.209.2924-.044.5112-.16.6403-.243 1.5594-4.766 1.0989-7.718.3463-9.558z" fill="url(#ad)" opacity=".3"/><path d="m67.4795 70.3959c-2.0581 2.1459-1.3154 5.6114-2.7115 5.9858-.4265.1144-.4488-.2216-1.5305-.4146-1.5822-.2823-2.2245.3135-3.3413.0872-.4626-.0937-1.0822-.345-1.7555-1.0473-.0625.0733-.125.1465-.1875.2198 1.5198 2.7895 4.4439 4.1973 6.9278 3.5525 3.0764-.7985 3.9879-4.3587 4.1533-5.0053.3848-1.503.3089-3.1268-.0171-4.4429-.5119.2296-1.0563.5629-1.5377 1.0648z" fill="url(#ae)" opacity=".3"/><path d="m65.7732 67.4008c.143-.2222.5976-.8375 2.5266-1.2911.6919-.1627 1.804-.4083 3.2235-.3563.238.0088 1.0048.0479 1.8312.227 1.7613.3817 5.2726 1.7227 5.395 3.5496.0873 1.3045-1.6521 1.3884-2.6362 3.6979-.7169 1.6826-.7123 3.7845.0698 5.4196.6278 1.3122 1.7383 2.2973 2.5816 3.0456 1.2651 1.1222 1.9203 1.2947 2.3443 2.3001.4619 1.0949-.0035 1.6288.57 2.3783.616.8049 1.3377.4308 2.3818 1.2449 1.0695.8337.6889 1.5199 1.6622 2.4414 1.4143 1.3387 3.2891.9039 3.3764 1.5063.0751.5181-1.2574 1.2213-2.3894 1.5064-2.2419.5646-4.1974-.3831-4.7789-.6753-1.6099-.8088-1.3318-1.3323-2.5593-1.949-2.0553-1.0323-3.46.1165-8.1412.2348-2.5351.0642-3.8169.0786-4.5191-.7791-.6414-.7835-.3042-1.6428.0806-5.3462 0 0 0-.0001.0001-.0005.1236-1.2368.3826-3.8264.3842-5.3021.0009-.8721-.3015-2.2971-.9064-5.147-.0358-.1681-.3631-1.7078-.6277-3.7646-.2381-1.8521-.2036-2.4209.1309-2.9407z" fill="url(#af)"/><path d="m85.7228 90.0576c-.9733-.9214-.5927-1.6077-1.6622-2.4413-1.0441-.8141-1.7657-.4399-2.3818-1.2449-.5735-.7495-.1081-1.2834-.57-2.3783-.424-1.0054-1.0792-1.1778-2.3443-2.3001-.8433-.7483-1.9538-1.7335-2.5816-3.0456-1.0895-2.2773-.3277-4.7085-.0698-5.4196.8288-2.2858 2.5023-3.4907 3.1088-3.8856-.0585-.0629-2.8915 2.4592-2.9652 2.3838-3.9954.549-3.5607.2639-3.8489.9476-.666 1.5801.3884 2.1607.4156 6.7182.013 2.1784-.2219 3.0385.4848 3.9477.8084 1.0399 1.7399.7181 2.9088 2.0778.8982 1.0446.7544 1.7069 1.5931 2.147.9018.4732 1.4761-.0783 2.4933.1385 1.6993.3624 2.0625 2.3217 3.1859 3.3937.8495.8106 2.42 1.3773 5.5175.769.0716-.1043.1063-.2061.0924-.3016-.0873-.6023-1.9621-.1675-3.3764-1.5063z" fill="url(#ag)" opacity=".09"/><path d="m72.0577 63.5103s.2015 1.6108.796 1.9799c.5946.3689 1.5557.851 1.6616.9819.1059.1307-3.6832.5381-5.5608-.4095.6188-.129.787-.1765.787-.1765.1679-.0475.4812-.1357.7953-.3147.2138-.1217.5583-.3595.8743-.8086l-.0069-.8919z" fill="url(#ah)"/><path d="m72.2691 63.9294s-.0117.6767-.654.8495c-.5753.1546-1.1329-1.22-.8645-1.6101.0896-.13.326-.2665.5399-.2782.1504-.0082.6735.1425.7866.6438.0921-.1147.2153-.1559.281-.1165.0835.0499.055.2177.0486.2557-.0223.1317-.0998.2186-.1376.2558z" fill="url(#ai)"/><path d="m76.1853 91.6187c0 .0819-.0664.1482-.1483.1482s-.1483-.0664-.1483-.1482v-.7415c0-.0819.0665-.1483.1483-.1483.0819 0 .1483.0664.1483.1483z" fill="url(#aj)"/><path d="m80.3376 91.6187c0 .0819-.0664.1482-.1482.1482-.0819 0-.1484-.0664-.1484-.1482v-.7415c0-.0819.0665-.1483.1484-.1483s.1482.0664.1482.1483z" fill="url(#ak)"/><path d="m80.9306 90.5807c0 .1638-.1328.2966-.2966.2966h-5.0421c-.1638 0-.2966-.1328-.2966-.2966 0-.1639.1328-.2966.2966-.2966h5.0421c.1638 0 .2966.1327.2966.2966z" fill="url(#al)"/><path d="m73.9608 93.065c0 .184-.1491.3332-.3332.3332h-.075c-.1841 0-.3333-.1492-.3333-.3332v-9.7143c0-.184.1492-.3332.3333-.3332h.075c.1841 0 .3332.1492.3332.3332z" fill="url(#am)"/><path d="m83.0068 93.0651c0 .184-.1492.3331-.3332.3331h-.0751c-.184 0-.3332-.1491-.3332-.3331v-9.7143c0-.1841.1492-.3332.3332-.3332h.0751c.184 0 .3332.1491.3332.3332z" fill="url(#an)"/><path d="m83.5703 82.795c0 .368-.3672.6673-.8201.6673h-9.227c-.453 0-.8202-.2993-.8202-.6673s.3672-.6673.8202-.6673h9.227c.4529 0 .8201.2993.8201.6673z" fill="url(#ao)"/><path d="m83.6857 112.574c0 .329-.2668.596-.5959.596h-.0221c-.3291 0-.5959-.267-.5959-.596v-.933c0-.329.2667-.596.5959-.596h.0221c.3291 0 .5959.267.5959.596z" fill="url(#ap)"/><path d="m83.5998 111.003c0 .269-.218.487-.487.487h-.0641c-.2689 0-.487-.218-.487-.487v-.361c0-.269.2181-.487.487-.487h.0641c.269 0 .487.218.487.487z" fill="url(#ar)"/><path d="m73.8412 112.621c0 .34-.2754.616-.6152.616-.3397 0-.6151-.276-.6151-.616v-.922c0-.34.2754-.615.6151-.615.3398 0 .6152.275.6152.615z" fill="url(#as)"/><path d="m73.665 111.004c0 .269-.2181.487-.487.487h-.0641c-.269 0-.487-.218-.487-.487v-.361c0-.269.218-.487.487-.487h.0641c.2689 0 .487.218.487.487z" fill="url(#at)"/><path d="m85.6759 109.667c0 .679-.5508 1.23-1.2303 1.23h-12.6656c-.6794 0-1.2302-.551-1.2302-1.23v-16.9664c0-.6795.5508-1.2303 1.2302-1.2303h12.6656c.6795 0 1.2303.5508 1.2303 1.2303z" fill="url(#au)"/><path d="m74.109 94.8336v12.8154c0 .43-.3155.795-.703.924-.0964.032-.2183.05-.3259.05-.0174 0-.043 0-.0604-.001-.2481-.014-.5047-.119-.6697-.284-.1764-.177-.3171-.421-.3171-.689v-12.8154c0-.5209.4355-.9463.9502-.9729.0174-.0011.0476-.0011.065-.0011.1076 0 .218.0175.3144.0503.1456.0472.3159.1292.4214.2347.1764.1764.3251.4203.3251.689z" fill="url(#av)" opacity=".6"/><path d="m74.109 94.8335v12.8155c0 .43-.3155.795-.7031.924-.0963.032-.2621.05-.3698.05-.0174 0-.1135 0-.1135-.001v-14.7614c0-.001.0777-.001.0952-.001.1076 0 .2332.0174.3295.0502.1456.0472.3234.1292.429.2348.1764.1763.3327.4203.3327.6889z" fill="url(#ax)" opacity=".6"/><path d="m77.5198 94.8335v12.8155c0 .43-.3293.795-.7168.924-.0964.032-.2252.05-.3328.05-.0174 0-.0465 0-.0639-.001-.2481-.014-.4926-.119-.6576-.284-.1764-.177-.305-.421-.305-.689v-12.8155c0-.5208.4217-.9463.9363-.9729.0175-.001.0407-.001.0581-.001.1077 0 .2147.0174.311.0502.1456.0472.3279.1292.4335.2348.1763.1763.3372.4202.3372.6889z" fill="url(#ay)" opacity=".6"/><path d="m77.5199 94.8335v12.8155c0 .43-.3293.795-.7169.923-.0963.033-.2553.051-.3628.051-.0175 0-.1066 0-.1066-.001v-14.7615c0-.001.0639-.001.0814-.001.1076 0 .2262.0174.3226.0503.1456.0471.3338.1291.4393.2347.1763.1764.343.4203.343.689z" fill="url(#az)" opacity=".6"/><path d="m80.9305 94.8335v12.8155c0 .43-.3431.795-.7307.924-.0963.032-.232.05-.3396.05-.0174 0-.0499 0-.0673-.001-.2482-.014-.4806-.119-.6456-.284-.1764-.177-.293-.421-.293-.689v-12.8155c0-.5208.4079-.9463.9226-.9729.0174-.001.0338-.001.0512-.001.1077 0 .2112.0174.3076.0502.1455.0472.34.1292.4455.2348.1764.1763.3493.4202.3493.6889z" fill="url(#aA)" opacity=".6"/><path d="m80.9305 94.8335v12.8155c0 .43-.3431.795-.7307.923-.0963.033-.3225.051-.4301.051-.0174 0-.0256 0-.1739-.001v-14.7615c.1483-.001.1244-.001.1418-.001.1076 0 .2564.0174.3528.0503.1456.0471.3627.1291.4682.2347.1764.1764.3719.4203.3719.689z" fill="url(#aB)" opacity=".6"/><path d="m84.1931 94.8335v12.8155c0 .43-.2827.795-.6703.924-.0963.032-.2018.05-.3095.05-.0174 0-.0347 0-.0522-.001-.2481-.014-.4592-.119-.6242-.284-.1764-.177-.2716-.421-.2716-.689v-12.8155c0-.5208.3941-.9463.9088-.9729.0174-.001.0268-.001.0442-.001.1077 0 .2078.0174.3042.0502.1455.0472.2778.1292.3835.2348.1763.1763.2871.4202.2871.6889z" fill="url(#aC)" opacity=".6"/><path d="m84.1931 94.8335v12.8155c0 .43-.2827.795-.6702.923-.0964.033-.2045.051-.3121.051-.0174 0-.0558 0-.0558-.001v-14.7615c0-.001.0365-.001.0539-.001.1076 0 .2124.0174.3088.0503.1456.0471.2803.1291.3859.2347.1763.1764.2895.4203.2895.689z" fill="url(#aD)" opacity=".6"/><path d="m76.11 66.9303c1.2027.5957 4.9841 2.3833 5.8091 7.5398.825 5.1564-3.5752 7.8378-3.5752 7.8378l-1.0312-.6876s1.1-8.044-2.8189-10.3128c-3.9189-2.2689 1.6162-4.3772 1.6162-4.3772z" fill="url(#aE)"/><path d="m77.5566 81.7831c-.2438.0438-.3813.25-.9314-.025-.55-.275-1.925.0688-1.925.0688s.6875.6187 1.4438.4812 1.4578.2357 1.657.2897c.1993.0541.2679-.4731.2679-.4731z" fill="url(#aF)"/><path d="m88.5252 85.5391s-.326-.3205-.2929-.6245c.0332-.3039.5968.5581.7902.7294.1935.1714.2432.1713.1713.6134-.0718.4421.0332.9118.0332.9118.1602.0056-.6078.0719-.6078.0719s-.0221-.3592-.105-.4642-.3923-.1824-.4365-.6245c-.0443-.442.4475-.6133.4475-.6133z" fill="url(#aG)"/><path d="m95.3752 85.2372s-1.9596.6721-3.1311 3.3245c-1.1715 2.6525-2.8955-1.6622-2.8955-1.6622l-.9726.1371s.3905 4.3691 3.3229 4.4575c2.5703.0775 3.9639-2.1367 4.6122-5.3417z" fill="url(#aH)"/><path d="m102.95 101.329s.161-.345.347-.33.383.032.819.319c.435.286.644.33.623.514-.02.184-1.395.148-1.789-.503z" fill="url(#aI)"/><path d="m102.436 101.553c.035-.011.406-.232.616-.358.086-.052.196-.04.269.028.107.1.118.266.024.379-.158.189-.397.465-.568.618z" fill="url(#aJ)"/><path d="m99.4225 110.643c-.0008.008.0011.025.0034.049.0104.107.0276.355-.1719.546-.244.233-.8604.287-1.6014.324s-.1524-.441-.0472-.495 1.5533-.692 1.5533-.692z" fill="url(#aK)"/><path d="m98.8646 109.974.1212.858s.1748.103.3043-.138l.3252-.606z" fill="url(#aL)"/><path d="m95.9519 93.2516c-1.0139-.063-1.4353 1.074-2.0082 2.0698-1.1282 1.9602-2.795 6.1566-1.2 8.2906 1.3427 1.797 5.2592.93 6.4085.556 2.4108-.785 2.3128-1.03 3.9968-2.104-.296-.234-.387-.524-.633-.779-.603-.058-1.736-.077-2.257-.087-.7695-.015-2.1422.047-2.5595.08-.6608.051-1.9219.381-2.1416.087-.4857-.649.9022-3.9487.9241-5.0259.0093-.4516.3956-3.03-.5301-3.0875z" fill="url(#aM)"/><path d="m93.9622 95.2741c-.2648.4103-.5283 1.098-.7415 1.568.2117.143.5078.3104.5836.5492.3482 1.0972-.4012 2.0864-.3266 3.4647.0191.352.1629 1.62.8382 1.931.8069.372 2.3663-.177 3.4314-.042.5525.07 1.0793.461 1.6451.397.8936-.1 1.4646-.75 2.3696-.88.239-.034.659.053.911.154.154-.109.289-.222.433-.338-.2-.264-.37-.529-.589-.793-.605-.057-1.737-.076-2.257-.086-.7701-.016-2.1436.048-2.5601.079-.6597.049-1.9243.387-2.1417.088-.4807-.661.8931-3.9277.9278-5.0351.0146-.4642.3608-2.948-.5254-3.099-.9705-.1654-1.5495 1.3465-1.9984 2.0422z" fill="url(#aN)" opacity=".3"/><path d="m95.4165 95.9977c-.1069 1.809 1.0108 4.3073.8718 6.3943-.0158.238.0709 1.238.1655 1.52.3067.912 2.1243 6.31 2.1707 6.362.338-.07.6893-.112 1.033-.187.4505-.819.8135-1.96 1.0205-2.83.279-1.171-.288-2.545-.42-3.325-.152-.898-.139-2.363-.231-2.67-.6783-2.2759.166-3.1408-.1556-5.0033-.167-.965-.7823-1.4364-1.4842-2.0146-.9958 1.006-2.122.6418-2.9707 1.7536z" fill="url(#aO)"/><path d="m93.8966 95.2279c.2042.8647 1.2457 1.2837 2.3182 1.7152.717.2882 2.9335 1.1803 4.2222.1777.543-.4226.603-.9318.99-2.8053.28-1.3572.512-2.3607.689-3.1255.447-1.9186.557-2.3368.261-3.0741-.639-1.5932-2.246-2.3465-2.7893-2.5694-.0583-.0238-.1061-.0415-.1388-.0548-1.3828-.5251-3.9477-.7948-4.9795.2821-1.1201 1.1706.7277 2.7178-.0786 6.2217-.2432 1.0583-.5119 1.709-.5632 2.365-.0212.2776-.0044.5561.069.8674z" fill="url(#aP)"/><path d="m95.7192 82.2494c-.059-.3091-.2866-.3177-.3355-.604-.0612-.3593.2213-.789.5704-.9731.3419-.1802.4961.0074 1.2415 0 .8007-.0078.9251-.2275 1.577-.1342.1703.0244.4877.0727.8388.2684.28.156.8356.4655.9056 1.0402.078.6283-.483 1.0971-.5365 1.1408.2115.7292.1215 1.0384-.0335 1.1744 0 0-.1647.1445-1.0066.1342 0 0-.2377.2954-.376.394-.1573.1122-.4633.1673-1.1227-.1462-.0117-.1414-.0352-.3433-.0873-.5815-.0978-.4472-.1466-.6708-.2707-.7131-.3124-.1066-.7295.9855-1.1518.9051-.2715-.0516-.483-.5761-.4476-.9991.0356-.4233.302-.5548.2349-.9059z" fill="url(#aQ)"/><path d="m96.8364 84.7756c.0616.305-.1301.5668-.4132.5778-.3308.013-.717.0409-.8794.1024-.2883.1092.9296.1754 2.2012.4224.8824.1716 1.606.2302 2.0394.2498.1195.0054.1542-.1294.0467-.1831-.387-.1933-.9968-.4794-1.5012-.6332-.5955-.1815-1.1051-1.5542-1.1051-1.5542l-.5151.3908z" fill="url(#aR)"/><path d="m97.9829 84.3895s-.6737.7653-1.7024.5143c-.921-.2248-.6894-2.3381-.0162-2.6767.2246-.1129.633-.1043.9404.0432.1815.0872.2321.1779.5315.3146.2762.126.3636.1083.438.1973.0931.1111.1334.3507-.1566.9293.2094-.1486.4349-.1801.5735-.0821.0221.0156.0785.0704.1028.1427.0882.2616-.1834.5279-.711.6174z" fill="url(#aS)"/><path d="m93.8966 95.228c.2042.8647 1.2457 1.2838 2.3182 1.7152.717.2883 2.9335 1.1804 4.2222.1777.543-.4226.603-.9318.99-2.8053.28-1.3572.512-2.3607.689-3.1254l-1.494-2.9805c.015.0778.529 2.7125-.6665 3.0989-1.2131.3917-2.098.4244-2.274 1.9107-.1706 1.4375.2158 3.6346-3.8539 1.1414-.0212.2776-.0044.556.069.8673z" fill="url(#aT)"/><path d="m99.6145 96.5089c-.0695.1518-.2004.3748-.4413.5446-.5166.3642-1.2979.3136-1.3933.0733-.0863-.2175.3863-.5971.5964-.7399.4585-.3114.9381-.3581 1.1957-.3625z" fill="url(#aU)"/><path d="m101.306 86.6158s6.676 6.6172 2.933 8.6802-4.7744 1.562-4.7744 1.562l-.1768-.8335s4.3812-1.9074 3.1482-3.263c-1.233-1.3557-4.9765-3.5089-1.13-6.1457z" fill="url(#aV)"/><path d="m23.2432 108.818s2.782 1.264 2.8274 1.466c.0455.202-1.7891-.067-2.538-.038s-1.365-.193-1.2972-.51.3299-1.115.3299-1.115z" fill="url(#aX)"/><path d="m23.3451 107.792-.1693 1.252s-.4404.157-.7363-.028l-.1262-1.374z" fill="url(#aY)"/><path d="m10.2435 107.822-.32353.519c-.09051.146-.11749.321-.0741.486.11315.432.33913 1.274.43773 1.493.1342.299 1.9345.477 1.9345.477s.1605-.226-.2133-.499c-.3737-.273-.614-.315-.7459-.718s-.2199-1.542-.2199-1.542z" fill="url(#aZ)"/><path d="m11.5905 106.502c-.1182.094-.6964 1.849-.6964 1.849s-.1872.24-.5427-.114c-.35553-.353-.1609-.158-.1609-.158l.0666-1.726z" fill="url(#a0)"/><path d="m24.8757 82.6273c.1468 3.7363.1528 7.7957-.0622 12.1323-.242 4.8834-.7285 9.3974-1.3415 13.4884-.2279.007-.4674.008-.7175.001-.1689-.004-.3326-.012-.4908-.023-.318-.849-.6941-1.964-1.0308-3.297-.354-1.401-.5676-2.658-.7197-3.86-.5357-4.2321.0921-4.6013-.3427-7.7376-.385-2.7776-.9326-2.8861-1.5754-6.8297-.6975-4.279-.1783-4.9209.0742-5.1528 1.0749-.9873 3.5997-.3151 6.2064 1.2784z" fill="url(#a1)"/><path d="m18.6693 81.349c1.0252-.9417 3.3698-.3716 5.8461 1.0656-2.8488 3.0778-3.1594 5.0745-2.8178 6.3699.3859 1.4642 1.5594 1.8859 1.5549 3.487-.0055 1.9675-1.7812 2.4887-1.7434 4.5707.0249 1.3767.8052 1.3624.9895 3.0628.218 2.012-.8014 2.705-.4712 4.194.1421.64.5475 1.477 1.7021 2.339-.0832.611-.1686 1.216-.2575 1.81-.2278.007-.4674.009-.7175.001-.1689-.004-.3326-.012-.4907-.023-.3182-.849-.6942-1.964-1.0309-3.297-.354-1.401-.5676-2.658-.7197-3.86-.5357-4.232.0921-4.6012-.3427-7.7375-.385-2.7776-.9326-2.8862-1.5754-6.8297-.6975-4.2791-.1783-4.921.0742-5.1528z" fill="url(#a2)" opacity=".3"/><path d="m23.111 82.5641c-2.4529 3.5892-5.0986 8.0559-7.4646 13.4025-1.7881 4.0404-3.0849 7.8344-4.037 11.2154-.1289.059-.4328.178-.8211.127-.5298-.07-.84721-.408-.93019-.503-.38752-2.423-.34478-4.476-.2133-5.957.08425-.9489.23325-2.5284.83789-4.4784.6771-2.1843 1.1427-2.307 2.0262-4.6179.9169-2.3985.6948-2.9971 1.573-5.9988.3607-1.2331.9646-3.068 1.961-5.263 2.3561.691 4.7121 1.3821 7.0681 2.0732z" fill="url(#a3)"/><path d="m34.322 85.436c-.4717.7336-3.5917 1.7336-4.9626.372-1.9536-1.9404-2.3796-2.6619-2.5257-5.2857-.0313-.5634-.0114-1.1142-.1256-1.1309-.2872-.0423-1.0248 3.3641-1.6038 6.2522-.4654.1703-1.171.3512-1.9774.2191-1.3197-.2162-1.4769-1.0362-2.9529-1.5708-.8613-.3118-1.7051-.3126-3.3928-.314-1.9051-.0017-1.9576.2333-2.3245.0628 0 0-.0908-.0498-.1689-.1059-1.3567-.974 2.5246-8.3774 1.4071-15.2082-.1242-.7592-.3146-1.5388.1094-2.2988 1.0958-1.9638 5.4266-2.2407 8.1096-.9483.7354.3543 1.9671 1.1292 3.067 1.9461.4396.3264.8969.6918 1.3738 1.1084 1.1568 1.0104 1.9621 1.7137 2.6256 2.6899 2.6755 3.9364-.4166 7.2171 2.0105 12.2513.8347 1.731 1.8252 1.1926 1.3312 1.9608z" fill="url(#a4)"/><path d="m9.76579 80.8078c-1.06828-.5237-3.37469-1.8648-4.08378-4.3352-1.18058-4.1126 3.01807-8.0354 5.18569-9.5033 2.4853-1.6829 4.9826-1.9546 6.5002-2.1198 1.8829-.2049 3.0322-.3299 3.8953.377 2.2324 1.8282.8905 7.8608-1.3193 8.4817-.7235.2033-.9973-.3258-2.5132-.6911-.4936-.1189-4.1782-1.0065-6.0942.9424-1.34103 1.3641-1.51233 3.8089-.5655 6.0943-.335.2513-.6701.5027-1.00521.754z" fill="url(#a5)"/><path d="m27.7844 68.9574c-.0004-.0006-.0009-.0013-.0013-.0019-.1707-.3177-.3134-.6137-.42-.8491-.0001-.0008-.0004-.0015-.0005-.0022-.1012-.651.1533-1.3916.4387-1.8598.3979-.6567-.5596-1.4728-.5596-1.4728s-.6959.7932-1.4454 1.2023c-.315.173-.8085.1199-1.2795.0173l-.0015-.0077s-.0013 0-.0027 0c-.0548 0-.7678.0639-.8492.7529-.024.1926.0027.4359.1068.7424.4921 1.4412 1.2106 2.534 1.2106 2.534s2.2285-.2192 2.7361-.7225c.149-.0197.2152-.1103.0689-.331.0001-.0015-.0014-.0005-.0014-.0019z" fill="url(#a6)"/><path d="m28.7092 64.3637c.2738-.3649.2897-1.0012-.027-1.4028-.2727-.3457-.7008-.3944-.9571-.4236-.7429-.0845-1.6795.2269-2.0044.911-.1924.4054.2267 1.2465.2923 1.3976.0744.171.2088.2295.3332.3587.1725.1791.4425.4639.8833.9404.034-.1409.0857-.3152.168-.5043.0317-.0727.1589-.3569.3518-.5927.3863-.4726.7004-.3385.9599-.6843z" fill="url(#a7)"/><path d="m26.6011 65.7439s.4895.8002 1.4615.7355c.8703-.058.9947-2.0101.4381-2.4234-.1857-.1379-.5572-.1947-.8591-.1096-.1783.0503-.2386.1245-.5315.2009-.2703.0707-.3467.0408-.4281.1096-.1019.0861-.1764.2968-.005.8671-.1664-.1678-.3658-.232-.5069-.1652-.0225.0107-.0822.0514-.1157.1131-.1214.2231.0827.5075.5467.672z" fill="url(#a8)"/><path d="m26.6426 64.1403c.042.0313-.0861.1881-.0953.4097-.018.4303.4184.946.8627.9891.2626.0254.3346-.133.7687-.1795.2688-.0288.4926.005.6334.0356.1373.4716.0096.9423-.3055 1.161-.3392.2356-.7731.0937-.9546.0344-.1213-.0397-.5103-.1661-.714-.5223-.2123-.3711-.0048-.5954-.2482-.8463-.1226-.1266-.2836-.1812-.4407-.4263-.0426-.0666-.0711-.1255-.0885-.1651.2242-.2383.5211-.5355.582-.4903z" fill="url(#a9)"/><path d="m28.4966 65.5707s-.1879.0985-.5127.0808c-.0158-.0009-.0332.0037-.0352.012-.0074.0308.2012.1686.3931.1144.1363-.0387.2422-.1678.2237-.2006-.0078-.0139-.0386-.012-.0689-.0066z" fill="url(#ba)"/><path d="m25.0416 70.7252-1.0196 6.9601-1.6111 1.0251-.3982-1.7342s2.158-5.0482 2.2646-6.538c0-.0001.7935.087.7643.287z" fill="url(#bb)"/><path d="m24.5549 69.2813.0678.0291 1.3278.5702-.8972.821-.776-.2636z" fill="url(#bc)"/><path d="m52.8127 84.1069c-.0001-.0006-.0002-.0011-.0002-.0017-.0044-.0311-.0106-.062-.0181-.0928-.002-.0083-.0042-.0165-.0064-.0248-.0066-.0243-.0142-.0483-.0227-.0722-.0032-.0089-.0061-.0178-.0095-.0267-.0122-.0313-.0256-.0624-.0412-.093l-.9105-1.7798c-.1491-.2915-.4324-.4932-.751-.5346l-19.6432-2.5507c-.689-3.0158-2.7073-5.6654-5.4728-7.23-.003-.0017-.0061-.0034-.0091-.0051-.0706-.0398-.1418-.079-.2134-.1175-.0077-.0041-.0154-.0083-.0231-.0124-.073-.039-.1464-.0773-.2203-.1147-.002-.001-.0039-.0021-.0059-.0031-.1543-.0781-.3108-.1529-.4692-.2242-.0108-.0049-.0216-.0095-.0323-.0143-.0653-.0292-.1309-.0578-.1968-.0857-.0176-.0075-.0351-.0148-.0526-.0222-.0623-.026-.1248-.0516-.1876-.0766-.0165-.0065-.0329-.0132-.0494-.0197-.1575-.0618-.3168-.1204-.4778-.1755-.0153-.0052-.0307-.0102-.046-.0153-.0635-.0215-.1273-.0424-.1914-.0628-.024-.0077-.0481-.0151-.0722-.0226-.0571-.0178-.1145-.0351-.172-.052-.0251-.0073-.05-.0147-.0751-.0218-.0627-.018-.1256-.0353-.1887-.0522-.0184-.0049-.0367-.0101-.0552-.0149-.0817-.0215-.1637-.0421-.2461-.0617-.0144-.0035-.029-.0066-.0434-.01-.0673-.0158-.1347-.031-.2024-.0456-.0274-.0059-.0548-.0115-.0822-.0172-.0561-.0117-.1123-.0229-.1687-.0338-.0296-.0057-.0592-.0113-.0889-.0168-.0577-.0106-.1157-.0207-.1738-.0305-.0264-.0044-.0526-.0091-.079-.0133-.0839-.0136-.1679-.0264-.2525-.0381-5.9626-.8253-11.2311 3.2009-11.6924 9.0032-.46132 5.8023 4.0686 11.0655 10.0427 11.7471.0847.0096.1691.0181.2534.0258.0266.0024.053.0045.0795.0067.0585.0049.117.0096.1753.0136.0299.0021.0597.0039.0895.0057.0572.0035.1142.0065.1711.009.0277.0013.0553.0027.0828.0038.0688.0026.1373.0045.2057.0058.0148.0003.0296.0009.0442.0011.0839.0013.1675.0016.2509.001.0188-.0001.0376-.0006.0564-.0008.0645-.0008.1289-.002.1932-.004.0256-.0007.0512-.0017.0768-.0026.0593-.0022.1184-.0049.1774-.008.0246-.0013.0491-.0026.0736-.004.0664-.004.1326-.0086.1986-.0137.0154-.0013.0309-.0023.0464-.0035.1667-.0138.3323-.0314.4966-.0527.0168-.0022.0335-.0046.0503-.0068.0659-.0089.1317-.0183.1972-.0284.0181-.0027.0361-.0055.0542-.0084.0696-.011.1389-.0227.2081-.0351.0107-.0019.0214-.0037.032-.0056.167-.0304.3324-.0647.4963-.1027.0014-.0004.0028-.0007.0043-.001.0791-.0184.1579-.0378.2363-.058.0076-.002.0152-.004.0228-.0059.077-.02.1537-.0408.2301-.0625l.0075-.0021c2.9572-.8421 5.3529-2.9346 6.503-5.7185l3.396.4165.6612-.3761-.5795-.6512 1.6814.2082-.0815 1.0254.8383.1028.6612-.3762-.5797-.6481.9651.1195-.0814 1.0231 1.3476.1653.6612-.3762-.6228-.1075 1.7263.2127-.0384.4827.765.0938.0745-.9369 2.046.2532-.0742.9346 1.5684.1924.6612-.3761-.5806-.638 1.6699.2068-.0805 1.0121 1.9356.2374c.228.0279.4545-.0282.6372-.1579l2.9468-2.0911c.2777-.1972.4087-.5316.3626-.8638zm-38.8204-4.3002c.093-1.1698 1.1561-1.9909 2.3713-1.8345 1.2118.156 2.1167 1.2256 2.0242 2.3894-.0926 1.1639-1.1479 1.9861-2.3602 1.836-1.2156-.1505-2.1283-1.2211-2.0353-2.3909z" fill="url(#bd)"/><path d="m25.4151 83.8869 9.568 1.1733.0817-1.0272 1.6814.2082-.0815 1.0253.8383.1028.0814-1.0243.9651.1196-.0814 1.023 1.3476.1653.0385-.4837 1.7262.2127-.0384.4827.765.0938.0745-.9369 2.0461.2533-.0743.9346 1.5684.1923.0807-1.0141 1.6698.2068-.0804 1.0121 1.9356.2374c.2279.0279.4544-.0282.6371-.1578l2.9469-2.0911c.3659-.2597.478-.7577.2645-1.1749l-.9105-1.7798c-.1491-.2915-.4324-.4932-.751-.5345l-23.8292-3.0944z" fill="url(#be)"/><path d="m10.8308 78.9484c-.4614 5.8022 4.0686 11.0655 10.0427 11.7471 5.8924.6723 10.9752-3.3774 11.4252-9.037.45-5.6595-3.8942-10.8993-9.7754-11.7133-5.9627-.8253-11.2312 3.2009-11.6925 9.0032zm8.2182 1.0375c-.0925 1.1638-1.1479 1.986-2.3601 1.8359-1.2157-.1504-2.1284-1.221-2.0354-2.3908s1.1562-1.9909 2.3713-1.8345c1.2118.1559 2.1167 1.2255 2.0242 2.3894z" fill="url(#bf)"/><path d="m22.5233 69.9452c-5.9627-.8253-11.2312 3.2009-11.6925 9.0032-.4614 5.8022 4.0686 11.0655 10.0427 11.7471 4.7955.5471 9.0528-2.0321 10.7135-6.0518l1.0211.1252c.0764-1.2946.4977-1.8892.9323-2.1802 1.2198-.8167 2.5879.7039 5.7443.7838 2.6303.0666 3.0377-.9598 5.4555-.5875 1.6835.2593 2.229.8734 3.5881 1.3408 1.2027.4136 2.857.6472 5.0734.1126.1124-.25.1112-.5505-.026-.8185l-.9104-1.7798c-.1491-.2914-.4324-.4931-.7511-.5345l-19.6432-2.5508c-.9947-4.3549-4.7615-7.9471-9.5477-8.6096zm-7.8698 9.4857c.093-1.1697 1.1562-1.9909 2.3713-1.8345 1.2118.156 2.1167 1.2256 2.0242 2.3895-.0925 1.1638-1.1479 1.986-2.3601 1.8359-1.2157-.1505-2.1284-1.221-2.0354-2.3909z" fill="url(#bg)" opacity=".3"/><path d="m12.9854 79.2198c-.3699 4.652 3.2559 8.8805 8.0502 9.4389 4.7415.5523 8.8409-2.7009 9.2034-7.2607.3626-4.5598-3.1432-8.7731-7.8774-9.4171-4.7869-.6511-9.0063 2.5869-9.3762 7.2389zm6.0638.7655c-.0926 1.1639-1.1479 1.986-2.3602 1.836-1.2156-.1505-2.1283-1.2211-2.0353-2.3909.093-1.1697 1.1562-1.9909 2.3713-1.8345 1.2118.1559 2.1167 1.2256 2.0242 2.3894z" fill="url(#bh)"/><path d="m9.98145 80.6463.56565-.4242s.3548.2457.7885.2121c.2364-.0183.5501.1237.6208.1988.0707.075.4002.2554-.0714.2083-.4715-.0471-.5472.0843-.4815.3199s.4592.8953.659 1.0367c.1999.1414-.3734.2356-.6091.1492-.2355-.0864-.6125-.2435-.8874-.7539-.1003-.1862-.58455-.9469-.58455-.9469z" fill="url(#bi)"/><path d="m31.4797 84.9913s1.1092.004 1.7922-.2084c.6831-.2124 1.0642.2331.9755.5052-.0889.272-1.2052.5483-1.6366.5179-.4314-.0306-1.1311-.8147-1.1311-.8147z" fill="url(#bj)"/><path d="m62.2109 20.5083s2.6927-5.217 7.3088-3.194c4.6161 2.0231 4.1887.9613 7.3943 1.364s7.1728 2.6271 4.5908 3.0749c-2.5819.4479-22.7987.9608-22.7987.9608s.2991-1.9323 3.5048-2.2057z" fill="#fff"/></svg>