<svg fill="none" height="410" viewBox="0 0 626 410" width="626" xmlns="http://www.w3.org/2000/svg" xmlns:xlink="http://www.w3.org/1999/xlink"><filter id="a" color-interpolation-filters="sRGB" filterUnits="userSpaceOnUse" height="410" width="625.621" x="0" y="0"><feFlood flood-opacity="0" result="BackgroundImageFix"/><feColorMatrix in="SourceAlpha" type="matrix" values="0 0 0 0 0 0 0 0 0 0 0 0 0 0 0 0 0 0 127 0"/><feOffset dx="-13" dy="4"/><feGaussianBlur stdDeviation="27.5"/><feColorMatrix type="matrix" values="0 0 0 0 0.142639 0 0 0 0 0.181133 0 0 0 0 0.216667 0 0 0 0.2 0"/><feBlend in2="BackgroundImageFix" mode="normal" result="effect1_dropShadow"/><feBlend in="SourceGraphic" in2="effect1_dropShadow" mode="normal" result="shape"/></filter><linearGradient id="b"><stop offset="0" stop-color="#92deff"/><stop offset=".977055" stop-color="#62b4e1"/></linearGradient><linearGradient id="c" gradientUnits="userSpaceOnUse" x1="387.368" x2="387.368" xlink:href="#b" y1="110.442" y2="350.967"/><linearGradient id="d" gradientUnits="userSpaceOnUse" x1="284.852" x2="284.852" xlink:href="#b" y1="57.0012" y2="139.538"/><linearGradient id="e" gradientUnits="userSpaceOnUse" x1="170.641" x2="170.641" xlink:href="#b" y1="71.1539" y2="146.299"/><g filter="url(#a)"><path d="m144.741 233.687 2.153 1.747s5.885-2.112 7.214 4.882c0 0 .352 2.982-1.534 2.986-1.89.005-1.109-.326-3.784-.246-2.674.08-4.889-1.331-5.281-3.501l-1.278-1.838z" fill="#ff7d78"/><path d="m144.497 237.439c1.718-1.793 1.578-3.117 1.578-3.117s-19.878-16.273-21.893-17.6c-1.375-.903-16.013-13.881-22.854-21.793-3.3948-3.926-7.5984-2.402-12.4085-1.022l-3.962 1.135c-4.7835 1.373-6.0277 8.062-2.1018 11.314 11.0526 9.156 29.4423 19.453 32.8823 21.617 8.54 5.373 25.261 11.758 25.261 11.758s2.024-.753 3.498-2.292z" fill="#eb3668"/><path d="m167.181 337.422s4.825 3.615 12.215 1.704c0 0 5.96-1.358 7.267 1.613 0 0-9.139 4.644-11.454 5.914-1.744.957-3.563 2.467-4.848 3.636-1.017.926-2.602.8-3.472-.268-.403-.495-.862-1.082-1.367-1.766-1.409-1.911-4.694-8.079-4.694-8.079z" fill="#1b2251"/><path d="m170.013 335.585s-2.938 6.772-9.719 5.527c0 0-13.836-11.427-23.326-23.296-3.082-3.856-5.706-7.757-7.247-11.328-6.294-14.57-23.28-36.304-34.0811-47.318l27.0221-9.774s8.656 17.411 20.17 38.796c8.298 15.409 18.08 32.881 27.181 47.393z" fill="#242e6c"/><path d="m171.588 206.987c.182-1.677.232-3.337.157-4.972-.033-.756.387-1.457 1.071-1.776l7.979-3.703c.858-.399 1.269-1.387.945-2.276l-2.754-7.572c-.309-.85-1.211-1.331-2.09-1.116l-7.871 1.933c-.773.188-1.573-.147-1.988-.824-1.798-2.933-4.054-5.568-6.682-7.796-.643-.543-.824-1.459-.455-2.213l2.177-4.428c.416-.846.128-1.868-.667-2.37l-6.747-4.276c-.802-.508-1.858-.319-2.433.437l-4.735 6.223c-1.455-.369-2.955-.64-4.489-.807-2.051-.222-4.08-.246-6.064-.089-.751.06-1.461-.35-1.78-1.034l-2.986-6.436c-.409-.879-1.421-1.3-2.329-.969l-7.439 2.706c-.906.329-1.418 1.288-1.188 2.225l1.613 6.579c.186.756-.123 1.551-.778 1.973-2.104 1.358-4.046 2.957-5.783 4.762-.558.582-1.433.73-2.155.375l-7.185-3.53c-.848-.416-1.875-.128-2.38.672l-4.259 6.721c-.5168.814-.3236 1.886.445 2.471l6.994 5.322c.589.45.845 1.211.652 1.926-.425 1.587-.734 3.227-.918 4.914-.097.894-.157 1.783-.179 2.664-.019.723-.442 1.373-1.097 1.677l-7.6652 3.556c-.8529.396-1.2611 1.377-.9398 2.261l2.72 7.482c.331.909 1.29 1.421 2.23 1.191l6.238-1.531c.826-.203 1.689.183 2.08.94 1.541 2.983 3.537 5.711 5.907 8.076.568.565.717 1.428.365 2.145l-3.182 6.477c-.428.87-.131 1.921.686 2.438l6.707 4.249c.802.51 1.86.319 2.437-.437l4.646-6.102c.473-.624 1.283-.882 2.034-.662 1.8.526 3.672.901 5.603 1.111 1.036.111 2.065.174 3.087.188.71.01 1.351.426 1.648 1.068l3.032 6.53c.413.889 1.435 1.312 2.355.979l7.448-2.711c.889-.324 1.394-1.266 1.167-2.184l-1.288-5.25c-.202-.826.184-1.688.938-2.082 3.81-1.991 7.192-4.726 9.936-8.035.542-.653 1.46-.846 2.218-.471l5.813 2.855c.845.416 1.867.128 2.372-.669l4.257-6.716c.519-.819.326-1.899-.447-2.486l-6.711-5.107c-.558-.426-.824-1.129-.691-1.817.164-.879.299-1.773.398-2.679zm-25.248 12.715c-16.761 5.991-30.689-11.43-21.057-26.5 1.447-2.264 4.704-4.883 7.224-5.811 16.783-6.179 30.817 11.159 21.371 26.247-1.493 2.389-4.885 5.114-7.538 6.064z" fill="#b1c9f6"/><path d="m142.832 288.193-5.864 29.625c-3.082-3.855-5.706-7.757-7.247-11.328-6.294-14.57-23.28-36.303-34.0811-47.317l27.0221-9.775c0-.002 8.653 17.409 20.17 38.795z" fill="#1b2251"/><path d="m120.746 341.352s-.295 5.405 6.257 6.125c0 0 3.955.079 3.965 3.519h-19.253s-.553-1.386-.686-4.358c-.103-2.283 2.213-8.248 2.213-8.248z" fill="#1b2251"/><path d="m113.798 249.398s12.038 13.227 19.68 37.057c4.158 12.966-7.62 45.563-9.917 56.889 0 0-7.9.672-13.302-1.418 0 0-.411-23.393 2.749-41.423 1.769-10.091-15.8481-21.581-23.5476-39.814-5.2376-12.403 1.1331-12.193 8.963-12.49z" fill="#242e6c"/><path d="m99.902 190.386c-6.6969 3.781-20.4094.295-20.4094.295s5.5686-6.366 3.0367-16.617l5.2594 2.67 5.6483 2.867s.3649 1.812.6185 5.064c.0653.836.1232 1.773.1619 2.795 3.4426 1.042 5.6846 2.926 5.6846 2.926z" fill="#ff9792"/><path d="m124.461 248.713c0 1.177-1.355 1.74-1.645 1.798-2.701.492-10.243 3.428-17.039 4.099-5.721.599-11.0335.032-16.8678-1.14-.7731-.155-2.5874-.645-2.7155-1.384-.1618-.81-22.5088-45.559-5.1362-64.78.4083-.452 3.8365.363 6.9723 1.107 2.8966.686 5.5541.304 7.9241-.648l2.9401 1.549c3.612 2.012 10.446 9.163 11.246 14.773.406 2.853 2.037 4.967 2.51 7.477.176.928.355 1.836.536 2.72.356 1.735.723 3.383 1.1 4.953 1.022 4.242 2.099 7.897 3.16 11.053 1.128 3.35 2.232 6.138 3.22 8.467 1.28 3.023 2.363 5.284 3.039 7.014.481 1.212.756 2.169.756 2.942z" fill="#e75755"/><path d="m123.711 245.764c-31.5471-14.863-42.4717-43.401-42.4717-43.401s25.6297 9.455 31.9527 11.917c.355 1.735.722 3.382 1.099 4.953 1.022 4.242 2.099 7.897 3.16 11.052 1.128 3.351 2.232 6.139 3.22 8.468 1.281 3.022 2.363 5.281 3.04 7.011z" fill="#db4240"/><path d="m142.165 237.151 2.725 1s5.46-3.86 8.859 2.419c0 0 1.23 2.742-.717 3.338-1.947.597-1.239.034-3.974.948-2.735.91-5.431.253-6.463-1.699l-1.853-1.36z" fill="#ff9792"/><path d="m144.409 241.008c1.007-2.628 1.469-3.822 1.469-3.822s-20.598-16.79-22.698-18.23c-1.43-.981-15.669-11.625-22.61-19.919-3.4424-4.114-8.8733-5.996-14.1231-4.895l-4.3244.906c-5.2207 1.095-6.9167 7.705-2.8676 11.176 11.4078 9.78 30.6481 21.122 34.2331 23.48 8.905 5.856 28.602 14.063 28.602 14.063s1.529-.696 2.319-2.759z" fill="#db4240"/><path d="m94.0583 184.663c-6.5857.369-10.8691-5.069-10.8691-5.069s2.9788-1.65 4.6023-2.863l5.6483 2.868c0 .002.3648 1.812.6185 5.064z" fill="#ff7d78"/><path d="m96.8646 177.902s-9.98 7.161-14.3431.877-8.5909-9.591-2.4039-14.428c6.1871-4.839 9.1031-3.31 11.0696-1.565 1.9666 1.742 8.1609 13.089 5.6774 15.116z" fill="#ff9792"/><path d="m92.241 157.113c-.3575-2.416-1.162-4.114-1.162-4.114s-.6257 2.594-5.3681 2.237c-4.74-.358-12.2534.466-14.7587 5.868-.1594.343-.302.698-.4276 1.061-.4542-1.199-.5629-2.994-.5629-2.994-.9011 2.327 0 5.236 0 5.236-.0145.084-.0241.169-.0362.253-1.0461.884-1.9255 3.634-1.9255 3.634.3165-.766 1.0848-1.269 1.7733-1.575-.0218 4.203 1.6838 8.313 4.6747 9.535 4.3752 1.79 4.3413.425 8.7407 3.344 0 0 1.1814-1.464.3744-2.448-.8044-.983-3.846-2.415-2.1477-3.846 1.7008-1.43 2.3265.179 2.9522-.804s-2.5052-3.846 1.5196-6.53c4.0273-2.687 6.7114-6.444 6.3538-8.857z" fill="#1b2251"/><path d="m557.427 342.189s.539 8.671 2.215 8.794c.223.017 8.509.017 8.509.017h10.589s-.082-2.609-3.172-3.148c-3.093-.539-8.265-2.711-10.14-6.796-1.971-4.3-8.001 1.133-8.001 1.133z" fill="#1b2251"/><path d="m515.54 270.926c1.51 2.856 3.257 5.532 5.057 8.067 5.564 7.832 11.618 14.287 12.674 20.392.21 1.218.543 2.527.978 3.907.44 1.398.986 2.867 1.614 4.387 2.36 5.718 5.89 12.125 9.415 17.95 6.092 10.067 11.821 18.469 11.821 18.469l10.506-.5c-.42-1.174-5.003-15.075-11.135-32.063-2.488-6.898-5.136-14.232-7.689-21.309-.341-.944-.682-1.886-1.017-2.819-.781-2.164-1.549-4.295-2.3-6.371-5.757-15.952-10.34-28.654-10.34-28.654s-23.007-9.719-25.396-3.421c-1.972 5.194-.365 10.282 5.812 21.965z" fill="#f9795a"/><path d="m534.868 332.792s-3.849 3.566-3.098 6.1c.752 2.535 4.223 4.223 4.694 7.32.469 3.098 2.346 4.786 4.037 4.786h8.055s1.244-2.179-1.759-2.836-4.136-4.298-3.947-7.675c.188-3.38-.283-7.883-.283-7.883l-6.383-1.503z" fill="#1b2251"/><path d="m538.269 251.189s24.209 39.27 24.209 42.394c0 6.909-18.29 46.699-18.29 46.699s-9.71-5.129-9.321-8.731c0 0 5.825-27.933 7.521-32.422 1.693-4.488-30.597-21.404-32.291-41.84z" fill="#fd8857"/><path d="m550.139 230.994s4.993 2.838 6.39 2.838c1.398 0 6.885-1.06 8.414-.28 1.529.783 4.298 3.926 4.817 4.953.935 1.845-3.759 1.031-5.979-.542-.321-.229-.722-.314-1.109-.229-1.15.251-3.537.684-4.689.258-1.551-.575-9.714-1.21-9.714-1.21z" fill="#ff7d78"/><path d="m512.153 192.327s5.175 36.787 13.747 40.08c4.227 1.625 22.917 5.31 28.447 5.682 0 0 1.355-1.1 1.024-5.571 0 0-19.581-7.19-22.361-11.099-4.141-5.817 2.57-23.77-2.624-29.232s-13.947-7.813-18.233.14z" fill="#db4240"/><path d="m532.386 190.007c-6.919 1.788-18.387-4.622-18.387-4.622s4.452-2.993 6.105-9.566c.084-.331.159-.672.227-1.02.725-.155 2.092-.444 3.554-.754l5.283 4.735s-.121 1.967-.782 5.344c-.114.59-.247 1.223-.399 1.897 2.836 1.756 4.399 3.986 4.399 3.986z" fill="#ff9792"/><path d="m506.674 218.687c.991 13.328-.312 33.598.812 37.11.971 3.03 12.024 1.228 16.437.218 1.634-.375 3.612-.909 5.656-1.542 5.699-1.763 11.908-4.283 12.575-6.155.026-.073.048-.145.063-.215.06-.271.048-.527-.013-.786-.222-.954-1.077-1.985-1.178-4.346-.114-2.635-.097-5.74-.196-9.079-.005-.376-.01-.785-.051-1.159l-.002-.138c-.003-.072-.003-.142-.005-.213-.097-3.722-.29-7.636-.517-11.516-.143-2.438-.309-4.851-.5-7.166-.498-5.969-1.167-11.279-2.054-14.637-1.449-5.472-4.643-9.041-7.549-11.657l-2.102-1.805c-2.348.512-5.122.172-7.632-1.017-2.715-1.29-3.653-2.215-4.126-1.865-6.277 4.844-10.787 19.673-9.618 35.968z" fill="#f24b46"/><path d="m529.579 254.471c5.699-1.764 11.908-4.284 12.574-6.156.027-.072.049-.145.063-.215-.005-.261-.007-.522-.012-.785-.222-.954-1.077-1.986-1.179-4.346-.113-2.636-.096-5.74-.196-9.079-.004-.377-.009-.785-.05-1.16l-.003-.138c-.002-.072-.002-.142-.005-.212l-23.04-29.353c0 .005-15.486 32.252 11.848 51.444z" fill="#f24b46"/><path d="m529.168 178.78s-.121 1.967-.783 5.344c-5.16-1.667-7.501-6.329-8.281-8.305.084-.331.159-.672.227-1.02.725-.155 2.092-.444 3.554-.754z" fill="#ff7d78"/><path d="m529.861 181.76s-11.253-1.877-9.975-8.869c1.278-6.989.686-11.939 7.924-11.036 7.238.904 8.144 3.825 8.284 6.262.14 2.438-3.273 13.952-6.233 13.643z" fill="#ff9792"/><path d="m574.183 241.576.992.322 8.446-25.985-.992-.322z" fill="#242e6c"/><path d="m546.476 241.234 28.666.614.036-1.715-28.666-.614z" fill="#242e6c"/><path d="m547.058 242.648s9.212 2.428 12.664 2.174 6.327-1.899 6.762-2.754c.435-.858 1.348-2.38-1.005-2.097-2.35.28-5.561.78-5.66.328-.099-.451 1.916-.408 1.916-.408s.608-.886-.157-.918c-.766-.031-3.006-.64-3.839-.225-.831.416-1.6 1.953-2.206 1.887-.609-.063-7.707-3.198-7.707-3.198z" fill="#ff9792"/><path d="m514.437 193.837s1.089 37.132 9.243 41.352c4.022 2.083 22.192 7.806 27.647 8.782 0 0 1.467-.942 1.633-5.423 0 0-18.667-9.304-21.003-13.496-3.474-6.24 5.174-23.34.613-29.345-4.558-6.004-12.997-9.302-18.133-1.87z" fill="#db4240"/><path d="m520.104 175.82s-.128-2.399 1.35-3.774c0 0-.515-2.404.435-2.8.952-.396 1.15 1.626 1.585 1.307.435-.316 2.377-1.824 3.21-4.042.834-2.22 8.451.469 9.338.868.886.401 3.742-1.066 4.295-2.257 0 0-1.585-1.268-2.3-2.22-.712-.952-5.708-7.373-12.683-5.549-6.977 1.824-7.927 5.153-7.53 8.006.401 2.858-.558 9.504 2.3 10.461z" fill="#242e6c"/><path d="m508.962 256.393-21.801-13.137c-1.804-1.112-2.834-3.139-2.667-5.25.222-2.694.333-5.417.333-8.166 0-5.109-.36-10.108-1.137-14.969-.36-2.278.666-4.527 2.638-5.694l22.772-13.746c2.445-1.445 3.36-4.554 2.082-7.137l-10.719-21.83c-1.222-2.471-4.083-3.609-6.665-2.694l-23.024 8.359c-2.222.86-4.749.112-6.25-1.833-6.332-8.192-13.968-15.358-22.607-21.219-2.083-1.416-2.943-4.138-2.083-6.499l5.11-13.997c.944-2.667-.223-5.666-2.779-6.944l-21.689-10.608c-.445-.222-.89-.389-1.361-.471-2.222-.473-4.583.527-5.776 2.556l-9.83 16.274-2.39 3.971c-4.471-.638-9.081-.971-13.719-.971-6.25 0-12.387.582-18.274 1.694-2.249.415-4.528-.556-5.694-2.527l-11.053-18.359c-1.527-2.5-4.694-3.442-7.303-2.138l-16.692 8.193-4.776 2.36c-2.611 1.278-3.86 4.332-2.86 7.054l6.97 19.245c.833 2.223.166 4.721-1.667 6.166-5.417 4.416-10.36 9.385-14.691 14.831-.416.444-.749.889-1.112 1.36-.111.166-.251.304-.389.444-1.527 1.638-3.889 2.167-5.998 1.389l-22.746-8.247c-.251-.112-.527-.167-.778-.223-2.442-.5-4.998.723-6.136 3.001l-10.611 21.605c-1.278 2.612-.36 5.75 2.138 7.277l22.746 13.691c1.945 1.138 2.945 3.36 2.582 5.583-.748 4.887-1.137 9.915-1.137 15.051 0 2.722.111 5.416.333 8.081.167 2.167-.889 4.249-2.749 5.361l-21.886 13.219c-2.416 1.445-3.331 4.528-2.082 7.081l10.637 21.579c1.278 2.609 4.305 3.861 7.081 2.86l18.218-6.609c2.445-.889 5.139 0 6.581 2.138 5.583 8.47 12.471 15.995 20.356 22.356 1.889 1.472 2.609 4.028 1.776 6.306l-7.444 20.496c-1 2.749.249 5.806 2.861 7.11l21.523 10.582c2.583 1.278 5.721.333 7.166-2.112l.584-.944 11.415-18.914c1.223-2.027 3.527-3.054 5.861-2.639h.027c5.583 1.001 11.33 1.527 17.218 1.527 3.138 0 6.221-.166 9.303-.444 2.138-.222 4.194.804 5.306 2.638l11.219 18.636c1.527 2.556 4.776 3.501 7.414 2.194l21.497-10.582c.611-.304 1.138-.722 1.582-1.167 1.416-1.5 1.945-3.749 1.223-5.776l-5.61-15.358c-.667-1.889-.278-3.998.971-5.498.334-.389.723-.749 1.167-1.056 10.831-7.221 20.079-16.525 27.273-27.384 1.194-1.861 3.416-2.75 5.554-2.39.305.056.611.141.916.252l18.414 6.692c2.664.971 5.638-.223 6.914-2.779l.249-.5 10.359-21.052c1.29-2.657.343-5.822-2.184-7.349zm-172.103-41.519c1.056-3.75 2.501-7.555 4.388-11.36 3.609-7.247 12.523-16.218 19.8-19.8.778-.389 1.556-.749 2.334-1.112 47.6-21.385 93.509 25.355 70.43 72.984-3.027 6.221-9.719 13.524-16.247 18.052-1.526 1.026-3.027 1.945-4.442 2.611-6.639 3.221-13.247 5.11-19.69 5.832-36.714 4.083-66.93-29.66-56.573-67.207z" fill="url(#c)"/><path d="m511.136 329.891-4.866-2.932c-.403-.249-.633-.701-.594-1.172.051-.602.075-1.208.075-1.822 0-1.14-.08-2.256-.254-3.341-.079-.507.15-1.01.59-1.271l5.083-3.068c.546-.321.749-1.017.464-1.592l-2.392-4.873c-.273-.551-.911-.807-1.488-.601l-5.139 1.865c-.495.191-1.06.024-1.394-.408-1.413-1.829-3.119-3.429-5.044-4.736-.464-.316-.657-.922-.464-1.449l1.14-3.124c.21-.594-.051-1.263-.618-1.548l-4.842-2.368c-.099-.051-.198-.087-.304-.106-.495-.107-1.022.118-1.29.57l-2.194 3.631-.534.887c-.997-.143-2.027-.218-3.061-.218-1.394 0-2.763.131-4.078.377-.502.092-1.009-.123-1.27-.563l-2.467-4.097c-.341-.558-1.046-.769-1.631-.479l-3.725 1.829-1.065.527c-.583.285-.863.966-.638 1.575l1.556 4.295c.186.496.036 1.054-.372 1.378-1.208.985-2.312 2.094-3.279 3.309-.092.099-.166.198-.249.305-.024.036-.055.067-.087.099-.34.365-.867.483-1.338.309l-5.076-1.841c-.055-.024-.118-.036-.174-.051-.546-.111-1.116.162-1.37.67l-2.367 4.822c-.285.582-.08 1.282.478 1.623l5.076 3.056c.435.254.657.749.577 1.247-.166 1.092-.253 2.213-.253 3.36 0 .607.024 1.208.075 1.805.036.483-.198.947-.614 1.196l-4.885 2.95c-.539.321-.744 1.009-.464 1.58l2.375 4.814c.285.583.962.863 1.58.638l4.066-1.476c.546-.198 1.148 0 1.469.479 1.246 1.891 2.783 3.57 4.544 4.988.423.329.582.899.396 1.406l-1.662 4.574c-.222.613.056 1.295.638 1.587l4.803 2.363c.577.285 1.278.075 1.599-.471l.131-.211 2.546-4.22c.273-.452.787-.681 1.307-.59h.007c1.247.223 2.53.341 3.844.341.7 0 1.389-.036 2.075-.099.476-.051.937.179 1.184.589l2.503 4.158c.34.57 1.065.78 1.655.491l4.798-2.361c.135-.067.253-.162.352-.261.317-.336.433-.836.273-1.29l-1.251-3.428c-.148-.423-.061-.894.217-1.227.075-.087.162-.167.261-.235 2.416-1.611 4.482-3.686 6.086-6.112.266-.415.763-.613 1.239-.534.068.012.135.032.203.056l4.109 1.493c.595.217 1.259-.051 1.544-.621l.056-.111 2.312-4.699c.282-.589.072-1.295-.493-1.636zm-38.41-9.267c.237-.836.558-1.686.978-2.534.807-1.619 2.795-3.619 4.419-4.419.174-.087.348-.166.519-.249 10.623-4.771 20.869 5.658 15.718 16.288-.676 1.389-2.169 3.018-3.626 4.028-.341.229-.677.434-.991.582-1.481.72-2.957 1.14-4.394 1.302-8.192.913-14.935-6.617-12.623-14.998z" fill="#cfe6f9"/><path d="m326.377 102.265-7.724-3.583c-.64-.3044-1.056-.9422-1.075-1.6501-.024-.9035-.085-1.8119-.184-2.7275-.183-1.6984-.485-3.3484-.918-4.9357-.203-.744.058-1.5292.672-1.9882l7.076-5.3923c.761-.5677.954-1.6355.435-2.4473l-4.351-6.8732c-.495-.7779-1.488-1.0533-2.315-.6547l-7.354 3.6093c-.707.3673-1.575.2078-2.145-.3841-2.401-2.4956-5.199-4.6022-8.282-6.2402-.744-.3962-1.128-1.2708-.927-2.0849l1.196-4.839c.217-.9205-.278-1.8772-1.175-2.2082l-7.595-2.7468c-.155-.058-.309-.0967-.469-.1087-.756-.0773-1.505.3406-1.829 1.0581l-2.681 5.7667-.65 1.4061c-1.51-.0507-3.056.0048-4.598.1715-2.077.2247-4.097.6402-6.015 1.2224-.732.2199-1.525-.0217-1.984-.6353l-4.336-5.7064c-.597-.7755-1.684-.976-2.505-.4469l-5.255 3.3267-1.503.9567c-.821.5194-1.128 1.58-.695 2.4497l3.012 6.1484c.358.7079.225 1.5631-.331 2.1091-1.64 1.6645-3.106 3.4958-4.351 5.4599-.123.1619-.217.3213-.321.4928-.031.0604-.072.1112-.114.1619-.449.5991-1.215.86-1.944.6789l-7.862-1.9231c-.087-.029-.181-.0362-.265-.0459-.831-.0773-1.636.4204-1.933 1.2176l-2.749 7.5666c-.331.9132.087 1.9254.973 2.3434l8.057 3.7325c.689.3093 1.099 1.0123 1.061 1.7636-.073 1.6525-.022 3.3388.164 5.0466.099.906.232 1.798.404 2.675.132.715-.143 1.444-.72 1.882l-6.801 5.184c-.751.568-.945 1.626-.437 2.43l4.314 6.792c.52.821 1.571 1.128 2.457.695l5.82-2.855c.781-.384 1.708-.186 2.266.473 2.163 2.617 4.723 4.871 7.577 6.699.681.423 1.012 1.245.819 2.032l-1.738 7.084c-.231.949.293 1.92 1.208 2.261l7.538 2.742c.906.331 1.913-.094 2.307-.959l.16-.336 3.114-6.702c.333-.717 1.063-1.142 1.853-1.089h.009c1.892.13 3.822.099 5.782-.114 1.043-.113 2.063-.28 3.077-.483.703-.15 1.423.116 1.858.686l4.402 5.793c.599.795 1.715.991 2.544.462l6.767-4.293c.193-.123.353-.28.483-.445.418-.55.512-1.316.198-1.964l-2.418-4.904c-.29-.604-.237-1.319.125-1.863.097-.142.213-.275.351-.393 3.341-2.793 6.08-6.219 8.081-10.089.331-.662 1.036-1.037 1.761-.996.104.008.208.025.314.051l6.364 1.561c.92.227 1.867-.278 2.198-1.172l.065-.176 2.687-7.374c.323-.925-.107-1.944-1-2.362zm-58.726-7.6006c.215-1.2853.558-2.6019 1.049-3.9355.939-2.5415 3.58-5.844 5.87-7.2984.244-.157.491-.3044.737-.4542 15.058-8.8276 32.008 5.0613 26.051 21.7307-.783 2.177-2.745 4.849-4.752 6.588-.472.397-.938.757-1.385 1.03-2.092 1.311-4.22 2.176-6.337 2.65-12.06 2.679-23.325-7.453-21.233-20.3106z" fill="url(#d)"/><path d="m373.315 319.743c.45.515.508 1.092.286 1.706 0 .002-.003.007-.005.01-.411 1.138-1.771 2.406-3.351 3.677-.201.161-.382.311-.539.449-.041.036-.082.072-.121.109-.031.029-.062.058-.094.084-1.474 1.358-.918 1.67-3.566 4.424-3.017 3.14-5.095 3.196-5.687 2.911-.5-.244.517-1.909 1.641-3.781.055-.089.108-.181.164-.273.15-.249.3-.503.447-.751 1.319-2.252.981-3.31.667-6.663-.254-2.723-4.238-15.218-4.238-15.218l5.784-.995s1.742 9.948 3.66 11.482c1.027.817 2.174.827 3.16 1.433.07.041.138.085.205.13.566.365 1.136.749 1.587 1.266z" fill="#ff9792"/><path d="m373.315 319.744c.45.514.508 1.091.285 1.705 0 .003-.002.007-.004.01-.505 1.135-1.829 2.399-3.356 3.665-.201.166-.375.316-.532.459-.041.036-.082.072-.12.108-.032.029-.063.058-.095.085-1.473 1.358-.918 1.669-3.565 4.423-3.018 3.141-5.096 3.197-5.687 2.912-.501-.244.517-1.909 1.64-3.781.587-.215 3.317-1.324 5.38-3.965 1.817-2.319 3.03-5.298 4.267-7.023.07.041.137.085.205.131.56.369 1.131.754 1.582 1.271z" fill="#142647"/><path d="m326.686 316.13c-.357 1.786-2.901 1.489-5.745.793-2.843-.696-2.167.13-6.214-.317-4.046-.447-5.271-1.957-5.394-2.558-.111-.534 1.889-.723 4.032-.969.27-.031.541-.063.812-.097 2.42-.304 4.194-1.865 6.392-3.147 2.083-1.216 5.192-6.166 5.192-6.166l5.549.44s-2.911 4.423-4.037 6.344c-.662 1.131-.628 2.626-.543 3.781.041.626.082 1.266-.044 1.896z" fill="#ff9792"/><path d="m320.941 316.923c-2.843-.696-2.167.131-6.214-.316-4.046-.447-5.271-1.957-5.394-2.559-.111-.534 1.889-.722 4.032-.969l.019.041s2.426 1.721 5.794 1.8c2.744.068 5.653-.72 7.547-.688.043.628.084 1.268-.044 1.899-.352 1.783-2.896 1.485-5.74.792z" fill="#142647"/><path d="m339.031 234.635s-1.321-3.239-2.776-3.37c-1.454-.133-6.08-.86-6.411-.198s0 3.042.99 3.899c.991.86 7.139 2.247 7.139 2.247z" fill="#ff9792"/><path d="m347.948 280.652 11.959 32.182s1.836.179 3.597-.329c1.621-.466 3.479-1.693 3.479-1.693s-2.967-30.899-8.405-37.326c-5.438-6.431-10.63 7.166-10.63 7.166z" fill="#142647"/><path d="m395.244 267.632s-34.361-11.618-42.024-9.146c-7.663 2.471-30.672 48.247-30.672 48.247s.519.691 1.937 1.223c1.319.495 4.511.464 4.511.464s20.764-17.798 23.236-22.99c2.471-5.192 3.459-10.135 5.933-9.642 2.472.496 31.887 12.114 38.563 5.192 6.675-6.921 4.928-15.913 4.928-15.913z" fill="#142647"/><path d="m374.248 213.584c-.549-1.133-1.162-3.146-1.462-6.733.046.355.664 4.88 2.404 7.441 7.146 4.691 20.842 20.356 20.571 23.325 0 0 4.825-8.183 4.907-8.231 0 0 8.9-11.316-1.648-17.798-5.361-3.295-5.334-7.523-5.109-11.195.224-3.674-1.462-19.484-12.201-15.348 0 0-1.722-.766-2.495-.65 0 0 .63.121.952.452-1.245-.073-3.025.019-4.511.862-3.938 2.235-7.46 22.306-1.408 27.875z" fill="#142647"/><path d="m375.612 214.527c-.036.016 3.45 1.826 6.074 1.108 2.466-.671 4.078-3.87 4.044-3.877-1.044-.208-1.346-1.643-1.324-7.811l-.473.092-7.942 1.573s.182 2.498.186 4.853c.008 1.977-.113 3.851-.565 4.062z" fill="#ff9792"/><path d="m375.992 205.613s.181 2.498.186 4.853c4.443-.126 6.791-4.177 7.755-6.424z" fill="#ff7d78"/><path d="m384.752 203.175s2.329-3.679 2.887-6.825c.398-2.246-.744-10.571-9.111-9.371 0 0-2.43.239-4.713 1.783-1.817 1.227-4.438 3.875-1.508 11.14l.761 2.454z" fill="#142647"/><path d="m374.508 207.841s10.512.174 10.519-6.375c.007-6.55 1.37-10.937-5.341-11.323-6.712-.387-8.019 2.109-8.553 4.295-.534 2.184.641 13.188 3.375 13.403z" fill="#ff9792"/><path d="m374.898 189.983s2.88 7.682 7.296 8.817c4.416 1.136 6.332-.048 6.332-.048s-3.387-2.691-4.09-7.39c0 0-7.366-5.037-9.538-1.379z" fill="#142647"/><path d="m375.61 190.607s-2.15 1.715-2.674 3.382c-.525 1.667-.759 5.1-1.761 4.984 0 0-2.17-5.22.268-8.175 2.587-3.134 4.167-.191 4.167-.191z" fill="#142647"/><path d="m399.02 242.807c1.037-4.349-2.491-12.785-6.172-19.769-3.342-6.33-6.808-11.466-7.12-11.28-8.811 5.228-9.606.882-9.606.882s-8.003 1.063-10.27 4.965c-3.133 5.394-6.547 21.581-9.902 21.341-1.539-.111-17.032-5.933-17.032-5.933s-2.58 2.418-2.088 5.385c0 0 7.649 5.122 14.119 8.39 3.421 1.73 6.513 2.938 7.967 2.595 2.948-.693 7.55-7.525 10.036-11.545.005-.01.01-.017.017-.027 3.174 17.969-1.143 22.059 1.044 23.956 2.307 2 5.604-.952 12.854 2.191 4.757 2.063 11.358 5.047 15.8 5.566 2.332.273 4.069-.133 4.636-1.705 1.651-4.578-6.261-16.723-4.283-25.012z" fill="#db4240"/><path d="m376.845 203.873s-.196.831-2.266.703c0 0-1.737-.107-1.684-1.022.002 0 1.686-.65 3.95.319z" fill="#fff"/><path d="m403.306 267.814c-.568 1.573-2.305 1.978-4.636 1.705-3.076-1.34-16.361-6.486-16.211-9.975.22-5.163 2.554-5.327.906-11.7-1.324-5.117 10.951-14.633 12.911-16.701 3.682 6.984 3.783 7.315 2.747 11.662-1.981 8.291 5.931 20.436 4.283 25.009z" fill="#f24b46"/><path d="m368.954 237.836c-2.486 4.022-7.091 10.852-10.035 11.545-1.455.343-4.545-.867-7.968-2.594 2.498.645 4.923.625 7.279.398 2.554-.246 3.295-3.377 7.335-8.076 2.618-3.046 3.261-2.281 3.389-1.273z" fill="#db4240"/><path d="m381.261 247.721s-2.225-1.73-4.326-1.319c-2.102.413-3.131 1.853-3.049 2.512.082.66 1.196 2.513 2.802 2.677 1.607.164 6.18-.988 6.18-.988z" fill="#ff9792"/><path d="m385.728 211.757s8.567.526 11.534 4.665c4.174 5.822 11.427 29.597 9.448 35.035l-26.067-.109s-.633-2.952.246-4.38c.88-1.428 15.162-3.735 15.822-4.394.659-.66-8.241-12.855-8.241-14.834 0-1.978-2.742-15.983-2.742-15.983z" fill="#db4240"/><path d="m373.289 239.521h-31.51l5.689 19.839h31.559z" fill="#b1c9f6"/><path d="m388.833 258.59h-41.257v.773h41.257z" fill="#242e6c"/><path d="m360.014 249.122c-.201-.698-.928-1.263-1.624-1.263s-1.102.565-.901 1.263.928 1.264 1.623 1.264c.699-.003 1.102-.568.902-1.264z" fill="#242e6c"/><path d="m256.762 295.621v8.407c0 1.737-1.421 3.155-3.158 3.155h-49.707c-1.737 0-3.155-1.42-3.155-3.155v-8.407c0-1.735 1.421-3.155 3.155-3.155h49.707c1.737 0 3.158 1.42 3.158 3.155z" fill="#fd8857"/><path d="m256.762 302.498v1.53c0 1.737-1.421 3.155-3.158 3.155h-49.707c-1.737 0-3.155-1.421-3.155-3.155v-1.658h55.116c.312.003.616.046.904.128z" fill="#f24b46"/><path d="m212.708 307.186-2.239 8.487s0 0-.003.002l-9.327 35.323h-.981l5.392-29.307c.005-.029.012-.058.019-.09l2.668-14.495z" fill="#fd8857"/><path d="m212.708 307.185-2.24 8.487s0 0-.002.003c-.128.063-4.208 2.172-4.899 5.928l2.667-14.495z" fill="#f9795a"/><path d="m256.762 351h-.981l-7.6-28.776c0-.002 0-.002 0-.004l-1.728-6.543c-.002-.002-.002-.002-.002-.002l-2.239-8.487 4.476-.077 1.525 8.286 1.14 6.206c.005.032.012.061.019.09z" fill="#fd8857"/><path d="m241.61 318.302c-.005.002-.009 0-.014-.01-.023-.04-.018-.033.014.01z" fill="#142647"/><path d="m250.21 315.397c-.826 1.201-1.964 3.462-2.029 6.823l-1.728-6.543c-.002-.002-.002-.002-.002-.002l-2.239-8.487 4.476-.077z" fill="#f9795a"/><path d="m193.923 126.927c1.154-1.203 1.94-.752 1.94-.752s13.64 10.476 14.942 11.237 19.044 1.275 19.044 1.275 7.108-.08 8.83 3.568c1.498 3.17.442 5.9-1.106 7.905-1.843 2.389-4.977 3.385-7.876 2.539-6.504-1.896-19.441-5.774-21.861-7.252-5.388-3.295-15.117-16.455-15.117-16.455s.295-1.118 1.204-2.065z" fill="#d13f3d"/><path d="m208.626 116.751-6.81-4.104c-.563-.348-.884-.981-.834-1.641.07-.841.104-1.691.104-2.551 0-1.597-.113-3.158-.355-4.677-.113-.713.208-1.413.824-1.778l7.115-4.2956c.763-.4518 1.051-1.423.65-2.2299l-3.349-6.8201c-.381-.773-1.275-1.1282-2.082-.8407l-7.192 2.6116c-.694.2682-1.484.0338-1.952-.5726-1.979-2.5608-4.366-4.7979-7.064-6.6292-.65-.4421-.921-1.2925-.65-2.0293l1.597-4.3728c.294-.8334-.07-1.7708-.868-2.1694l-6.776-3.3146c-.14-.0701-.278-.1208-.426-.1474-.693-.1474-1.432.1643-1.804.7972l-3.071 5.0855-.746 1.2418c-1.397-.2006-2.837-.3045-4.286-.3045-1.952 0-3.87.1812-5.709.5291-.703.1305-1.413-.1739-1.778-.79l-3.452-5.7353c-.476-.7803-1.467-1.075-2.281-.6692l-5.216 2.5609-1.493.7368c-.816.3986-1.205 1.3529-.894 2.2033l2.18 6.0131c.26.6934.053 1.4761-.522 1.9255-1.691 1.3795-3.238 2.9329-4.59 4.6337-.131.1377-.235.2778-.348.4252-.034.0531-.078.0966-.121.1377-.476.5121-1.215.6764-1.875.4348l-7.105-2.5777c-.077-.0339-.164-.0532-.244-.0701-.763-.157-1.561.2247-1.918.9374l-3.315 6.75c-.398.8165-.113 1.795.669 2.2733l7.106 4.2785c.606.355.92 1.051.806 1.744-.234 1.527-.355 3.097-.355 4.704 0 .85.034 1.691.104 2.525.053.676-.278 1.326-.857 1.674l-6.837 4.131c-.754.452-1.042 1.413-.65 2.213l3.324 6.743c.399.816 1.346 1.205 2.213.894l5.692-2.066c.763-.278 1.604 0 2.056.669 1.744 2.646 3.896 4.999 6.361 6.985.589.459.816 1.258.555 1.968l-2.326 6.405c-.312.86.077 1.814.894 2.22l6.726 3.305c.806.399 1.787.104 2.239-.659l.181-.295 3.566-5.909c.382-.633 1.102-.955 1.831-.824h.01c1.744.311 3.539.478 5.38.478.981 0 1.945-.053 2.907-.14.666-.07 1.309.251 1.657.824l3.505 5.822c.479.797 1.493 1.092 2.317.686l6.716-3.305c.191-.096.355-.224.495-.365.443-.468.607-1.171.382-1.804l-1.751-4.798c-.208-.59-.087-1.249.304-1.718.104-.121.225-.234.365-.328 3.385-2.257 6.274-5.163 8.521-8.555.372-.582 1.068-.86 1.734-.747.095.017.191.044.285.078l5.753 2.092c.833.304 1.761-.07 2.159-.867l.078-.157 3.237-6.576c.389-.836.094-1.827-.696-2.303zm-53.77-12.973c.328-1.172.78-2.36 1.37-3.549 1.128-2.2637 3.913-5.0662 6.187-6.1871.244-.1208.485-.2344.729-.3479 14.873-6.6799 29.216 7.922 22.004 22.804-.947 1.944-3.037 4.225-5.076 5.641-.478.321-.944.606-1.389.816-2.072 1.008-4.138 1.597-6.153 1.822-11.468 1.275-20.907-9.268-17.672-20.999z" fill="url(#e)"/><path d="m178.845 130.358s.019-5.037-.775-6.501c-.795-1.464-2.619-3.297-3.656-2.71-1.038.587-1.355 5.493-1.039 6.373.319.879 2.677 4.177 2.677 4.177z" fill="#ff9792"/><path d="m241.294 292.465c1.123-.962.449-6.344.449-6.344s-5.781-4.627-6.579-1.085c-.794 3.542-5.493 5.131-8.168 5.566-1.783.29-2.377 1.254-2.575 1.863z" fill="#242e6c"/><path d="m241.939 286.37c-5.354.831-7.311-.445-7.311-.445.07-5.274-1.556-17.162-3.786-30.812-2.937-17.998-6.924-39.062-9.443-52.045-1.45-7.47-2.414-12.263-2.414-12.263l4.375-.087 21.821-.433s-1.633 24.149-1.187 36.079c.109 2.848.334 5.001.728 5.96 3.72 9.038-2.783 54.046-2.783 54.046z" fill="#142647"/><path d="m243.997 226.364c-2.964 5.547-10.391 19.834-13.155 28.749-2.937-17.998-6.923-39.062-9.443-52.045.123-4.907.712-9.198 1.962-12.35l21.82-.433c.002.003-1.631 24.152-1.184 36.079z" fill="#142647"/><path d="m222.914 292.465c1.123-.962.449-6.344.449-6.344s-5.783-4.627-6.578-1.085-5.494 5.131-8.168 5.566c-1.783.29-2.378 1.254-2.576 1.863z" fill="#242e6c"/><path d="m209.5 190.278s8.572 79.316 6.876 95.314c0 0 1.831 1.435 7.238 1.104 0 0 9.791-45.694 7.718-53.087-1.442-5.141 4.301-41.449 4.301-41.449z" fill="#142647"/><path d="m230.603 133.56s-10.9 5.443-16.307 2.962c0 0 2.271-2.941 4.815-4.163-.053-.969-.085-1.846-.102-2.619-.048-2.578.08-4.032.08-4.032l4.701-3.418 3.189-2.322c-.181 1.437-.21 2.764-.13 3.981.425 6.272 3.754 9.611 3.754 9.611z" fill="#ff9792"/><path d="m226.853 123.95s-2.541 5.069-7.842 5.791c-.048-2.578.08-4.032.08-4.032l4.701-3.418c2.056.773 3.061 1.659 3.061 1.659z" fill="#ff7d78"/><path d="m217.877 125.38s9.757 3.474 11.828-2.636c2.07-6.11 4.723-9.775-1.418-12.253-6.142-2.477-8.149-.558-9.335 1.314-1.189 1.872-3.559 12.514-1.075 13.575z" fill="#ff9792"/><path d="m245.874 190.28c-1.526 3.182-35.339 3.042-37.011.798-.681-.911-1.459-10.041-1.904-20.651-.246-5.878-.391-12.213-.362-17.859.051-9.211.565-16.585 1.865-17.148 7.248-3.143 11.727-5.143 21.192-4.856 2.919.092 5.562 1.776 6.835 4.405 2.275 4.706 5.501 13.045 5.747 22.897.379 15.177 5.561 28.404 3.638 32.414z" fill="#e75755"/><path d="m217.533 146.317s-1.099 15.873-10.577 24.111c-.246-5.878-.391-12.213-.362-17.858 2.831-3.789 6.566-6.514 10.939-6.253z" fill="#e75755"/><path d="m222.196 130.903s-10.398.065-13.662 3.095c-2.339 2.172-17.366 14.017-18.32 13.857-.954-.159-10.63-19.472-10.63-19.472s-4.771.404-5.566 2.469c0 0 4.498 24.113 14.205 29.356 0 0 24.539-4.656 31.818-12.771 3.749-4.179 2.155-16.534 2.155-16.534z" fill="#db4240"/><path d="m218.308 107.038s.578 5.827 2.327 7.42c1.752 1.592 1.288 3.78 1.481 4.099.191.319 2.003-.618 2.322-.082.734 1.232-.414 2.133-1.136 2.431-.725.297 1.848 5.3 3.738 5.486 3.266.319 8.308-8.712 8.735-11.357.558-3.462-1.403-8.859-7.02-8.593-8.835.418-10.625-1.496-10.447.596z" fill="#242e6c"/><g fill="#53d0f7"><path d="m481.86 81.5203h-10.424v64.9387h10.424z"/><path d="m499.409 63.4183h-10.424v83.0387h10.424z"/><path d="m518.046 97.2234h-10.425v49.2336h10.425z"/><path d="m498.834 51h-8.828c-.502 0-.913.4107-.913.9132s.411.9132.913.9132h8.828c.502 0 .913-.4107.913-.9132s-.411-.9132-.913-.9132z"/></g><path d="m492.016 56.1499c.503 0 .914-.4107.914-.9132s-.411-.9132-.914-.9132h-2.01c-.502 0-.913.4107-.913.9132s.411.9132.913.9132z" fill="#174fa2"/><path d="m517.246 87.5309h-8.828c-.502 0-.913.4107-.913.9132s.411.9132.913.9132h8.828c.502 0 .913-.4107.913-.9132 0-.5001-.411-.9132-.913-.9132z" fill="#53d0f7"/><path d="m508.418 92.6807h2.01c.503 0 .913-.4107.913-.9132s-.41-.9133-.913-.9133h-2.01c-.502 0-.913.4108-.913.9133s.411.9132.913.9132z" fill="#53d0f7"/></g></svg>