<svg fill="none" height="652" viewBox="0 0 729 652" width="729" xmlns="http://www.w3.org/2000/svg" xmlns:xlink="http://www.w3.org/1999/xlink"><linearGradient id="a" gradientUnits="userSpaceOnUse" x1="395.223" x2="373.648" y1="478.487" y2="478.487"><stop offset="0" stop-color="#bcb9b5"/><stop offset="1" stop-color="#999693"/></linearGradient><path d="m639.29 351.006c-119.144-68.8-312.339-68.8-431.482 0-119.1439 68.8-119.1439 180.341 0 249.116 119.143 68.8 312.338 68.8 431.482 0 119.143-68.775 119.143-180.316 0-249.116z" fill="#306df5" fill-opacity=".2"/><path d="m514.544 366.51-181.816-12.58-2.726-1.576-3.652 2.126-325.893394 188.169c-.625228.35-.600223 1.25.025005 1.6l1.650599.901c1.1004.6 2.32585.975 3.57631 1.05l178.86548 12.355c3.901.275 7.803-.626 11.179-2.601l137.125-79.179 41.89 28.835c.275.2.55.375.85.551 4.077 2.35 10.729 2.425 14.856.025l82.605-48.018c4.151-2.401 4.001-6.227-.025-8.553-.325-.175-.675-.35-1.026-.525l-53.719-21.633 97.385-56.221c2.151-1.2 1.376-4.551-1.15-4.726z" fill="#7591af" opacity=".3"/><path d="m307.794 449.218.05 5.577 68.4 50.618c.275.2.551.375.851.55 4.076 2.351 10.729 2.426 14.855.025l82.605-48.017c2.051-1.2 3.051-2.726 3.051-4.252v-1.45z" fill="url(#a)"/><path d="m474.53 447.966c-.325-.175-.675-.35-1.025-.525l-87.607-43.591-78.104 45.391 68.45 54.72c.275.2.55.375.85.55 4.077 2.351 10.729 2.426 14.856.025l82.605-48.017c4.152-2.401 4.026-6.227-.025-8.553z" fill="#d2ceca"/><path d="m385.898 403.85-78.104 45.366.075 5.602 28.461 21.058v-3.551l86.656-50.044z" fill="#999693" opacity=".8"/><path d="m184.473 218.908-5.177-1.051 29.936 290.506c.175 1.826 1 3.051 2.151 3.552l3.676 1.6z" fill="#999693"/><path d="m547.904.251853c-.975-.425155-2.175-.3251192-3.426.400145l-360.806 208.326002c-2.726 1.576-4.702 5.602-4.352 8.903l3.676 1.601c-.35-3.301 1.626-7.328 4.352-8.903l360.807-208.32641c1.275-.72526 2.475-.8253 3.426-.40015z" fill="#d2ceca"/><path d="m548.13 2.24995c2.776-1.600579 5.252-.15005 5.602 3.15115l29.936 290.5059c.35 3.351-1.575 7.303-4.351 8.903l-360.807 208.326c-2.726 1.576-5.252.2-5.602-3.151l-29.961-290.506c-.35-3.301 1.626-7.328 4.352-8.903z" fill="#bcb9b5"/><path d="m553.733 5.43089c-.35-3.3012-2.826-4.751735-5.602-3.15115l-360.807 208.32626c-2.726 1.575-4.701 5.602-4.351 8.903l25.759 249.941 370.76-214.053z" fill="#1e266d"/><path d="m569.738 250.742-23.833-231.159-353.279 203.974 23.809 231.16z" fill="#4965db"/><path d="m547.905.251853c-.975-.425155-2.176-.3251192-3.426.400145l3.676 1.600592c1.276-.72526 2.476-.8253 3.427-.40015z" fill="#e0e0e0"/><path d="m179.296 217.881 3.676 1.6c-.35-3.301 1.626-7.327 4.352-8.903l-3.676-1.6c-2.726 1.575-4.702 5.602-4.352 8.903z" fill="#e0e0e0"/><path d="m407.129 369.663c-3.751 2.076-6.402 7.403-5.927 11.854.475 4.502 3.927 6.428 7.678 4.352 3.776-2.101 6.452-7.428 5.977-11.929-.5-4.427-3.951-6.378-7.728-4.277zm1.551 14.38c-2.901 1.601-5.577.1-5.927-3.376-.375-3.451 1.7-7.553 4.577-9.178 2.926-1.626 5.602-.125 5.952 3.326.375 3.476-1.676 7.603-4.602 9.228z" fill="#006da2"/><path d="m583.67 295.937-2.952-22.434-39.814 19.908c.35 14.73.975 20.982 1.976 32.436l36.413-21.032c2.801-1.601 4.727-5.527 4.377-8.878z" fill="#999693" opacity=".6"/><path d="m518.771 333.396-2.951-22.433-39.639 20.707c.35 14.731.825 20.208 1.825 31.662l36.414-21.033c2.776-1.625 4.701-5.552 4.351-8.903z" fill="#999693" opacity=".6"/><path d="m262.202 481.527-2.951-22.433-39.639 20.707c.35 14.731.825 20.208 1.825 31.662l36.414-21.033c2.751-1.6 4.676-5.552 4.351-8.903z" fill="#999693" opacity=".6"/><path d="m322.574 446.666-2.951-26.185-39.639 20.708c.35 14.73.825 23.959 1.825 35.413l36.414-21.033c2.751-1.6 4.676-5.527 4.351-8.903z" fill="#999693" opacity=".6"/><path d="m277.433 491.554s-9.679-18.307-11.83-37.614l-46.266 25.684c2.225 20.158 12.154 38.314 12.154 38.314z" fill="#6eb727"/><path d="m534.027 343.4s-10.054-18.957-12.205-38.264l-45.892 26.334c2.226 20.158 12.155 38.314 12.155 38.314z" fill="#ff809f"/><path d="m588.171 266.274-47.267 27.135c2.201 19.883 11.679 41.74 11.679 41.74l47.342-26.334s-9.628-23.509-11.754-42.541z" fill="#006da2"/><path d="m279.859 441.087c4.227 26.109 12.405 43.816 12.405 43.816l52.719-30.436s-9.779-16.781-14.005-42.891z" fill="#719dff"/><path d="m619.682 476.475-186.318 107.565c-1.075.625-2.376.65-3.476.1l-72.502-37.039c-2.376-1.225-2.476-4.602-.15-5.927l182.642-105.464z" fill="#7591af" opacity=".9"/><path d="m554.508 432.36-186.068 107.815c.05.375.1.775.1 1.15 0 1.401-.5 2.401-1.3 2.876l186.068-107.814c.8-.475 1.3-1.451 1.3-2.876 0-.375-.025-.776-.1-1.151z" fill="#898581"/><path d="m619.932 472.698c-.025-.05-.075-.075-.125-.1-3.476-2.326-69.376-46.642-69.651-46.792-1.225-.7-2.351-.775-3.151-.3l-186.068 107.814c.801-.475 1.926-.4 3.152.3.275.176 66.199 44.467 69.65 46.793.05.025.075.075.125.1.075.075.125.175.175.275l186.068-107.815c-.05-.1-.1-.2-.175-.275z" fill="#d2ceca"/><path d="m620.108 473-186.068 107.814c.4.901.25 2.776-.25 3.076l186.068-107.814c.5-.3.65-2.176.25-3.076z" fill="#bcb9b5"/><path d="m433.765 580.411c-3.477-2.326-69.376-46.642-69.651-46.792-2.451-1.425-4.451-.275-4.451 2.551s1.975 6.277 4.426 7.678c2.476 1.425 4.477.275 4.477-2.551 0-.375-.025-.775-.1-1.15l65.048 43.69c.826.526 1.101-2.851.251-3.426z" fill="#999693"/><path d="m537.828 437.738.075-1.225c-.025.35.2.725.65 1.025l7.103 4.652c.825.55 2.125.625 2.901.15l7.903-4.602c.35-.2.55-.475.55-.775l-.075 1.225c-.025.3-.2.576-.55.776l-7.903 4.601c-.776.45-2.076.375-2.901-.15l-7.103-4.651c-.45-.301-.65-.676-.65-1.026zm-12.13 8.453 7.103 4.652c.825.55 2.126.625 2.901.175l7.928-4.602c.35-.2.525-.475.55-.775l.075-1.225c-.025.3-.2.575-.55.775l-7.928 4.602c-.775.45-2.076.375-2.901-.176l-7.103-4.651c-.45-.3-.675-.675-.65-1.026l-.075 1.226c-.025.35.2.725.65 1.025zm-12.754 7.428 7.102 4.652c.826.55 2.101.625 2.876.175l7.928-4.602c.35-.2.526-.475.551-.775l.075-1.226c-.025.3-.201.575-.551.776l-7.928 4.601c-.775.45-2.05.375-2.876-.175l-7.102-4.652c-.45-.3-.675-.675-.65-1.025l-.075 1.226c-.025.35.2.725.65 1.025zm37.438-8.953-.075 1.225c-.025.35.201.725.651 1.025l7.102 4.652c.826.55 2.126.625 2.901.15l7.903-4.601c.35-.201.55-.476.55-.776l.075-1.225c-.025.3-.2.575-.55.775l-7.903 4.602c-.775.45-2.075.375-2.901-.15l-7.102-4.652c-.45-.3-.676-.675-.651-1.025zm-6.177 28.36-18.682-12.229c-.55-.376-.825-.826-.8-1.276l-.075 1.226c-.025.425.25.9.825 1.275l18.682 12.229c1.026.676 2.626.776 3.576.201l33.263-19.358c.45-.25.675-.6.7-.975l.075-1.225c-.025.375-.25.725-.7.975l-33.263 19.357c-.975.575-2.575.475-3.601-.2zm31.137-12.029-.075 1.225c-.025.35.2.725.625 1l7.127 4.652c.826.525 2.126.625 2.901.175l7.903-4.601c.35-.201.525-.476.55-.776l.075-1.225c-.025.3-.2.575-.55.775l-7.903 4.602c-.775.45-2.075.375-2.901-.15l-7.127-4.677c-.425-.275-.65-.65-.625-1zm31.061 9.428-7.903 4.602c-.775.45-2.076.375-2.876-.15l-7.128-4.677c-.45-.3-.675-.675-.65-1.025l-.075 1.225c-.025.35.2.725.65 1.025l7.128 4.677c.825.525 2.101.6 2.876.15l7.903-4.601c.35-.201.55-.476.55-.776l.075-1.225c0 .275-.2.55-.55.775zm-33.237 5.077 7.928-4.602c.35-.2.525-.475.525-.75l.075-1.225c-.025.3-.2.575-.525.75l-7.928 4.601c-.776.451-2.076.376-2.901-.175l-7.128-4.651c-.45-.3-.65-.651-.625-1.001l-.075 1.226c-.025.35.2.7.625 1l7.128 4.677c.8.525 2.125.6 2.901.15zm20.482 2.326-7.928 4.601c-.775.451-2.075.376-2.876-.15l-7.127-4.676c-.45-.3-.676-.676-.651-1.026l-.075 1.226c-.025.35.2.725.651 1.025l7.127 4.677c.826.525 2.101.6 2.876.15l7.928-4.602c.35-.2.525-.475.55-.775l.075-1.226c-.025.301-.2.576-.55.776zm-33.212 3.876c-.775.45-2.076.35-2.876-.175l-7.128-4.677c-.45-.3-.65-.65-.65-1l-.075 1.225c-.025.351.2.726.65 1.001l7.128 4.677c.825.525 2.101.625 2.876.175l7.928-4.602c.35-.2.525-.475.525-.75l.075-1.226c-.025.3-.2.575-.525.75zm20.433 3.576-7.928 4.602c-.776.45-2.051.375-2.876-.15l-7.128-4.677c-.45-.3-.675-.675-.65-1.025l-.075 1.225c-.025.351.2.726.65 1.026l7.128 4.677c.825.525 2.075.625 2.876.15l7.928-4.602c.35-.2.525-.475.55-.775l.075-1.226c-.025.3-.225.575-.55.775zm-91.959-17.781 7.128 4.677c.825.525 2.1.6 2.876.15l12.029-7.003c.35-.2.55-.5.55-.775l.075-1.226c-.025.301-.2.576-.55.776l-12.029 7.002c-.776.45-2.076.375-2.876-.15l-7.128-4.651c-.45-.301-.675-.676-.65-1.026l-.075 1.226c0 .325.2.7.65 1zm34.838 4.702-7.903 4.601c-.775.451-2.076.376-2.876-.15l-7.128-4.676c-.45-.3-.65-.676-.65-1.026l-.075 1.226c-.025.35.2.725.65 1.025l7.128 4.677c.825.525 2.101.6 2.876.15l7.903-4.602c.35-.2.55-.5.55-.775l.075-1.226c-.025.276-.2.576-.55.776zm-47.618 2.726 7.128 4.676c.825.526 2.101.601 2.876.15l7.903-4.601c.35-.2.55-.5.55-.776l.075-1.225c-.025.3-.2.575-.55.775l-7.903 4.602c-.775.45-2.076.375-2.876-.15l-7.128-4.677c-.45-.3-.675-.675-.65-1.025l-.075 1.225c-.025.375.2.751.65 1.026zm24.034 9.153-7.127-4.652c-.451-.3-.676-.675-.651-1.025l-.075 1.225c-.025.351.2.726.65 1.026l7.128 4.676c.825.526 2.101.601 2.876.151l7.903-4.602c.35-.2.55-.5.55-.775l.075-1.226c-.025.3-.2.575-.55.775l-7.903 4.602c-.775.425-2.051.35-2.876-.175zm23.609 4.502 12.029-7.003c.35-.2.55-.5.55-.775l.075-1.226c-.025.3-.2.576-.55.776l-12.029 7.002c-.776.45-2.076.375-2.876-.15l-7.128-4.677c-.45-.3-.675-.675-.65-1.025l-.075 1.226c-.025.35.2.725.65 1.025l7.128 4.677c.8.525 2.1.6 2.876.15zm16.856 5.702 7.903-4.602c.35-.2.55-.5.55-.775l.075-1.226c-.025.3-.2.576-.55.776l-7.903 4.601c-.775.45-2.076.375-2.876-.15l-7.128-4.676c-.45-.301-.675-.676-.65-1.026l-.075 1.226c-.025.35.2.725.65 1.025l7.128 4.677c.8.55 2.076.6 2.876.15zm-77.278-11.93 7.127 4.677c.826.525 2.076.625 2.876.15l7.928-4.602c.35-.2.525-.475.55-.775l.075-1.225c-.025.3-.2.575-.55.775l-7.928 4.602c-.775.45-2.05.375-2.876-.15l-7.127-4.677c-.45-.3-.675-.675-.65-1.025l-.076 1.225c0 .35.226.725.651 1.025zm24.058 9.154-7.127-4.677c-.45-.3-.675-.65-.65-1l-.075 1.225c-.025.35.2.725.65 1l7.127 4.652c.826.525 2.076.625 2.877.15l7.927-4.601c.351-.201.526-.476.551-.776l.075-1.225c-.025.3-.2.575-.551.775l-7.927 4.602c-.801.475-2.076.4-2.877-.125zm23.584 4.501 7.903-4.601c.35-.2.55-.5.55-.776l.075-1.225c-.025.3-.2.575-.55.775l-7.903 4.602c-.775.45-2.076.375-2.876-.15l-7.128-4.677c-.45-.3-.675-.675-.65-1.025l-.075 1.225c-.025.35.2.726.65 1.026l7.128 4.676c.8.525 2.101.601 2.876.15zm16.856 5.727 7.903-4.601c.35-.2.55-.5.55-.775l.075-1.226c-.025.3-.2.575-.55.775l-7.903 4.602c-.775.45-2.076.375-2.876-.15l-7.127-4.677c-.451-.3-.676-.675-.651-1.025l-.075 1.225c-.025.35.2.726.651 1.026l7.127 4.676c.8.526 2.076.601 2.876.15zm-77.278-11.954 7.128 4.677c.825.525 2.1.6 2.876.15l7.928-4.602c.35-.2.525-.475.55-.775l.075-1.226c-.025.301-.2.576-.55.776l-7.928 4.601c-.751.451-2.051.376-2.876-.15l-7.128-4.676c-.45-.3-.675-.676-.65-1.026l-.075 1.226c0 .375.2.75.65 1.025zm24.059 9.153-7.128-4.676c-.45-.3-.675-.65-.65-1.001l-.075 1.226c-.025.35.2.725.65 1l7.128 4.677c.825.525 2.076.625 2.876.15l7.928-4.602c.35-.2.525-.475.55-.775l.075-1.225c-.025.3-.2.575-.55.775l-7.928 4.602c-.8.475-2.076.4-2.876-.151zm23.583 4.502 7.928-4.602c.35-.2.526-.475.551-.775l.075-1.225c-.025.3-.201.575-.551.775l-7.928 4.602c-.775.45-2.05.375-2.876-.15l-7.127-4.677c-.45-.3-.675-.675-.65-1.025l-.075 1.225c-.025.35.2.725.65 1.025l7.127 4.677c.826.525 2.101.6 2.876.15zm16.832 5.727 7.927-4.601c.351-.201.526-.476.551-.776l.075-1.225c-.025.3-.2.575-.551.775l-7.927 4.602c-.776.45-2.051.375-2.876-.15l-7.128-4.677c-.45-.3-.675-.675-.65-1.025l-.075 1.225c-.025.35.2.725.65 1.025l7.128 4.677c.825.525 2.1.6 2.876.15zm-77.254-11.929 7.128 4.677c.825.525 2.101.6 2.876.15l7.928-4.602c.35-.2.525-.475.55-.775l.075-1.226c-.025.3-.2.575-.55.775l-7.928 4.602c-.75.45-2.051.375-2.876-.15l-7.128-4.677c-.45-.3-.675-.675-.65-1.025l-.075 1.225c-.025.351.2.726.65 1.026zm24.034 9.153-7.127-4.652c-.451-.3-.651-.65-.626-1l-.075 1.226c-.025.35.2.725.626 1l7.127 4.677c.825.525 2.101.6 2.876.15l7.928-4.602c.35-.2.525-.475.55-.775l.075-1.226c-.025.3-.2.575-.55.776l-7.928 4.601c-.75.425-2.051.35-2.876-.175zm23.609 4.502 7.928-4.602c.35-.2.525-.475.55-.775l.075-1.226c-.025.301-.2.576-.55.776l-7.928 4.601c-.75.451-2.051.375-2.876-.15l-7.128-4.676c-.45-.301-.675-.676-.65-1.026l-.075 1.226c-.025.35.2.725.65 1.025l7.128 4.652c.825.55 2.1.6 2.876.175zm16.831 5.702 7.928-4.602c.35-.2.525-.475.55-.775l.075-1.226c-.025.301-.2.576-.55.776l-7.928 4.601c-.775.451-2.051.376-2.876-.15l-7.128-4.676c-.45-.3-.675-.676-.65-1.026l-.075 1.226c-.025.35.2.725.65 1.025l7.128 4.677c.825.525 2.101.6 2.876.15zm-77.253-11.929 7.127 4.676c.826.525 2.101.6 2.876.15l7.928-4.601c.35-.2.525-.476.55-.776l.075-1.225c-.025.3-.2.575-.55.775l-7.928 4.602c-.75.45-2.05.375-2.876-.15l-7.127-4.677c-.45-.3-.675-.675-.65-1.025l-.075 1.225c-.025.35.2.725.65 1.026zm24.033 9.153-7.127-4.677c-.45-.3-.65-.65-.625-1l-.075 1.225c-.025.35.2.726.625 1.001l7.127 4.676c.826.526 2.101.601 2.877.15l7.927-4.601c.351-.2.526-.475.551-.776l.075-1.225c-.025.3-.2.575-.551.775l-7.927 4.602c-.776.45-2.051.375-2.877-.15zm23.609 4.502 7.928-4.602c.35-.2.525-.475.55-.775l.075-1.226c-.025.3-.2.575-.55.775l-7.928 4.602c-.75.45-2.051.375-2.876-.15l-7.128-4.677c-.45-.3-.675-.675-.65-1.025l-.075 1.225c-.025.351.2.726.65 1.026l7.128 4.676c.825.526 2.101.601 2.876.151zm16.831 5.727 7.928-4.602c.35-.2.525-.475.55-.775l.075-1.226c-.025.3-.2.575-.55.775l-7.928 4.602c-.75.45-2.05.375-2.876-.15l-7.127-4.677c-.451-.3-.676-.675-.651-1.025l-.075 1.225c-.025.351.2.726.651 1.026l7.127 4.677c.826.5 2.126.575 2.876.15zm-77.253-11.955 7.128 4.677c.825.525 2.1.6 2.876.15l7.928-4.602c.35-.2.55-.5.55-.775l.075-1.225c-.025.3-.2.575-.55.775l-7.928 4.602c-.751.45-2.051.375-2.876-.15l-7.128-4.677c-.45-.3-.675-.675-.65-1.026l-.075 1.226c-.025.375.2.75.65 1.025zm24.034 9.154-7.128-4.677c-.45-.3-.65-.65-.625-1l-.075 1.225c-.025.35.2.725.625 1l7.128 4.677c.825.525 2.101.6 2.876.15l7.928-4.602c.35-.2.55-.5.55-.775l.075-1.225c-.025.3-.2.575-.55.775l-7.928 4.602c-.775.45-2.051.4-2.876-.15zm23.583 4.501 7.928-4.601c.35-.201.526-.476.551-.776l.075-1.225c-.025.3-.201.55-.551.775l-7.928 4.602c-.75.45-2.05.375-2.876-.15l-7.127-4.677c-.45-.3-.675-.675-.65-1.025l-.075 1.225c-.025.35.2.725.65 1.025l7.127 4.677c.826.525 2.126.6 2.876.15zm16.857 5.727 7.927-4.601c.351-.2.526-.476.551-.776l.075-1.225c-.025.3-.2.575-.55.775l-7.928 4.602c-.751.45-2.051.375-2.876-.15l-7.128-4.677c-.45-.3-.675-.675-.65-1.025l-.075 1.225c-.025.35.2.725.65 1.026l7.128 4.676c.825.525 2.125.601 2.876.15zm-77.254-11.929 7.128 4.677c.825.525 2.101.6 2.876.15l7.903-4.602c.35-.2.55-.5.55-.775l.075-1.226c-.025.3-.2.576-.55.776l-7.903 4.601c-.775.45-2.076.375-2.876-.15l-7.128-4.676c-.45-.301-.675-.676-.65-1.026l-.075 1.226c-.025.35.2.725.65 1.025zm24.034 9.153-7.127-4.676c-.451-.301-.651-.651-.626-1.001l-.075 1.226c-.025.35.2.725.626 1l7.127 4.677c.825.525 2.101.6 2.876.15l7.903-4.602c.35-.2.55-.5.55-.775l.075-1.226c-.025.3-.2.576-.55.776l-7.903 4.601c-.775.45-2.051.375-2.876-.15zm23.584 4.502 7.928-4.602c.35-.2.55-.5.55-.775l.075-1.225c-.025.3-.2.575-.55.775l-7.928 4.601c-.75.451-2.051.376-2.876-.15l-7.128-4.676c-.45-.3-.675-.676-.65-1.026l-.075 1.226c-.025.35.2.725.65 1.025l7.128 4.677c.825.525 2.126.575 2.876.15zm16.856 5.702 7.928-4.602c.35-.2.525-.475.55-.775l.075-1.225c-.025.3-.2.55-.55.775l-7.928 4.602c-.75.45-2.051.375-2.876-.151l-7.128-4.676c-.45-.3-.675-.675-.65-1.026l-.075 1.226c-.025.35.2.725.65 1.025l7.128 4.677c.825.525 2.101.6 2.876.15zm96.66-42.29-12.029 7.002c-.776.45-2.076.375-2.876-.15l-7.128-4.677c-.45-.3-.675-.675-.65-1.025l-.075 1.225c-.025.351.2.726.65 1.026l7.128 4.677c.825.525 2.1.6 2.876.15l12.029-7.003c.35-.2.55-.5.55-.775l.075-1.226c0 .3-.175.576-.55.776zm-16.606 9.828-59.196 34.438c-.751.45-2.051.375-2.877-.175l-7.127-4.677c-.45-.3-.65-.65-.625-1l-.075 1.225c-.025.35.2.725.625 1l7.127 4.677c.826.55 2.126.625 2.877.175l59.196-34.437c.35-.2.55-.501.55-.776l.075-1.225c0 .3-.175.575-.55.775zm-157.307 20.533 7.127 4.676c.826.526 2.101.601 2.876.15l7.928-4.601c.35-.2.525-.475.55-.776l.076-1.225c-.025.3-.201.575-.551.775l-7.928 4.602c-.775.45-2.075.375-2.876-.15l-7.127-4.677c-.45-.3-.675-.675-.65-1.025l-.075 1.225c-.025.375.2.726.65 1.026zm24.034 9.153-7.128-4.677c-.45-.3-.65-.65-.625-1l-.075 1.225c-.025.351.2.726.625 1.001l7.127 4.651c.826.526 2.101.601 2.877.151l7.902-4.602c.351-.2.551-.5.551-.775l.075-1.226c-.025.3-.2.575-.551.775l-7.902 4.602c-.776.475-2.076.4-2.876-.125zm23.683 3.251c-.775.45-2.076.375-2.876-.15l-7.127-4.677c-.451-.3-.676-.675-.651-1.025l-.075 1.226c-.025.35.2.725.65 1.025l7.128 4.677c.825.525 2.101.6 2.876.15l7.903-4.602c.35-.2.55-.5.55-.775l.075-1.226c-.025.3-.2.575-.55.775zm16.756 6.953 7.903-4.602c.35-.2.55-.5.55-.775l.075-1.226c-.025.3-.2.576-.55.776l-7.903 4.601c-.775.45-2.075.375-2.876-.15l-7.127-4.676c-.45-.301-.676-.676-.651-1.026l-.075 1.226c-.025.35.2.725.651 1.025l7.127 4.677c.826.525 2.101.6 2.876.15zm28.711-2.751-7.928 4.601c-.75.451-2.051.376-2.876-.15l-7.128-4.676c-.45-.3-.675-.676-.65-1.026l-.075 1.226c-.025.35.2.725.65 1.025l7.128 4.677c.825.525 2.101.6 2.876.15l7.928-4.602c.35-.2.55-.5.55-.775l.075-1.226c0 .301-.175.576-.55.776zm-87.507-9.729.075-1.225c-.025.3-.2.575-.55.775l-7.928 4.602c-.776.45-2.051.375-2.876-.15l-7.128-4.677c-.45-.3-.675-.675-.65-1.025l-.075 1.225c-.025.35.2.725.65 1.025l7.128 4.677c.825.525 2.075.625 2.876.15l7.928-4.602c.35-.2.55-.475.55-.775zm16.856 5.727.075-1.225c-.025.3-.2.575-.55.775l-12.03 7.003c-.775.45-2.05.375-2.876-.15l-7.127-4.677c-.45-.3-.675-.65-.65-1l-.075 1.225c-.026.35.2.725.65 1l7.127 4.652c.826.525 2.076.625 2.876.15l12.03-7.002c.35-.201.525-.476.55-.751zm2.301 3.677 7.127 4.676c.826.525 2.101.601 2.876.15l7.928-4.601c.35-.2.526-.475.551-.776l.075-1.225c-.025.3-.2.575-.551.775l-7.927 4.602c-.776.45-2.076.375-2.877-.15l-7.127-4.677c-.45-.3-.675-.675-.65-1.025l-.075 1.225c0 .35.2.725.65 1.026zm16.856 5.702 7.128 4.676c.825.526 2.1.601 2.876.15l7.902-4.601c.351-.2.551-.5.551-.776l.075-1.225c-.025.3-.2.575-.55.775l-7.903 4.602c-.776.45-2.076.375-2.876-.15l-7.128-4.677c-.45-.3-.675-.675-.65-1.025l-.075 1.225c-.025.35.2.726.65 1.026zm38.714 2.05-7.903 4.602c-.775.45-2.076.375-2.876-.15l-7.127-4.677c-.451-.3-.676-.675-.651-1.025l-.075 1.225c-.025.351.2.726.651 1.026l7.127 4.676c.825.526 2.101.601 2.876.151l7.903-4.602c.35-.2.55-.5.55-.775l.075-1.226c0 .3-.2.575-.55.775zm-49.868-.9.075-1.225c-.025.3-.2.575-.55.775l-7.928 4.602c-.775.45-2.051.375-2.876-.15l-7.128-4.677c-.45-.3-.675-.675-.65-1.026l-.075 1.226c-.025.35.2.725.65 1.025l7.128 4.677c.825.525 2.076.625 2.876.15l7.928-4.602c.35-.2.525-.475.55-.775zm16.856 5.727.075-1.225c-.025.3-.2.575-.55.775l-12.055 7.003c-.775.45-2.05.375-2.876-.15l-7.127-4.677c-.45-.3-.675-.675-.65-1.026l-.075 1.226c-.025.35.2.725.65 1.025l7.127 4.677c.826.525 2.076.625 2.876.15l12.055-7.003c.35-.2.525-.475.55-.775zm20.257 2.601-7.927 4.602c-.776.45-2.076.375-2.876-.15l-7.128-4.677c-.45-.3-.675-.675-.65-1.025l-.075 1.225c-.025.35.2.725.65 1.026l7.127 4.676c.826.525 2.101.6 2.877.15l7.927-4.601c.351-.2.526-.476.551-.776l.075-1.225c-.025.3-.2.575-.551.775zm-12.779 7.453-7.928 4.601c-.775.451-2.051.376-2.876-.15l-7.128-4.676c-.45-.3-.675-.676-.65-1.026l-.075 1.226c-.025.35.2.725.65 1.025l7.128 4.677c.825.525 2.076.625 2.876.15l7.928-4.602c.35-.2.525-.475.55-.775l.075-1.225c-.025.3-.225.575-.55.775z" fill="#e0dbe1"/><path d="m538.453 435.709 7.902-4.602c.776-.45 2.076-.375 2.901.15l7.103 4.652c.825.55.875 1.35.1 1.801l-7.903 4.601c-.775.45-2.076.375-2.901-.15l-7.102-4.652c-.826-.55-.876-1.35-.1-1.8zm-12.68 9.253 7.102 4.652c.826.55 2.126.625 2.902.175l7.927-4.602c.751-.45.726-1.25-.1-1.775l-7.102-4.652c-.825-.55-2.126-.625-2.876-.175l-7.928 4.602c-.8.425-.75 1.225.075 1.775zm-12.755 7.403 7.103 4.652c.825.55 2.101.625 2.876.175l7.928-4.602c.75-.45.725-1.251-.1-1.776l-7.103-4.651c-.825-.551-2.126-.626-2.876-.175l-7.928 4.601c-.8.45-.75 1.251.1 1.776zm38.014-6.678 7.103 4.652c.825.55 2.125.625 2.901.15l7.903-4.602c.775-.45.75-1.25-.1-1.8l-7.103-4.652c-.825-.55-2.126-.625-2.901-.15l-7.903 4.602c-.775.45-.725 1.25.1 1.8zm7.378 7.553-9.354-6.127c-1.025-.675-2.626-.75-3.576-.2l-20.057 11.679c-.976.575-.901 1.551.125 2.226l18.682 12.229c1.025.676 2.626.776 3.576.2l33.262-19.357c.975-.575.925-1.575-.1-2.225l-6.952-4.552c-.676-.45-1.751-.5-2.401-.125l-11.179 6.377c-.551.3-1.451.275-2.026-.125zm17.581 8.753 7.128 4.677c.825.525 2.126.625 2.901.15l7.903-4.602c.775-.45.725-1.275-.1-1.8l-7.128-4.677c-.825-.525-2.101-.6-2.876-.15l-7.903 4.602c-.8.475-.75 1.275.075 1.8zm30.311 6.628-7.102-4.652c-.826-.55-2.126-.625-2.901-.175l-7.903 4.602c-.776.45-.751 1.25.1 1.8l7.127 4.677c.826.525 2.101.6 2.876.15l7.903-4.602c.776-.475.751-1.275-.1-1.8zm-33.087 5.652 7.928-4.602c.75-.45.7-1.25-.1-1.775l-7.128-4.677c-.825-.525-2.1-.6-2.876-.15l-7.927 4.601c-.776.451-.751 1.251.075 1.776l7.127 4.652c.825.55 2.126.625 2.901.175zm20.333 1.775-7.128-4.676c-.825-.55-2.126-.625-2.876-.175l-7.928 4.601c-.775.451-.75 1.251.1 1.801l7.128 4.677c.825.525 2.1.6 2.876.15l7.928-4.602c.75-.425.725-1.225-.1-1.776zm-32.412-5.401c-.826-.526-2.101-.601-2.876-.151l-7.928 4.602c-.775.45-.725 1.251.1 1.776l7.127 4.677c.826.525 2.101.625 2.877.175l7.927-4.602c.751-.45.701-1.251-.1-1.776zm19.632 12.854-7.128-4.677c-.825-.55-2.125-.625-2.876-.175l-7.928 4.602c-.775.45-.725 1.251.1 1.776l7.128 4.676c.825.526 2.076.626 2.876.151l7.928-4.602c.75-.425.725-1.226-.1-1.751zm-91.784-17.231 7.128 4.652c.825.525 2.101.6 2.876.15l12.03-7.003c.775-.45.75-1.25-.075-1.776l-7.128-4.676c-.825-.525-2.126-.625-2.901-.15l-12.03 7.002c-.775.45-.725 1.251.1 1.801zm34.688 4.126-7.127-4.676c-.826-.525-2.126-.625-2.902-.15l-7.902 4.601c-.776.451-.726 1.251.1 1.801l7.127 4.677c.826.525 2.101.6 2.876.15l7.903-4.602c.775-.45.725-1.25-.075-1.801zm-47.467 3.302 7.127 4.676c.826.526 2.101.601 2.876.15l7.903-4.601c.776-.45.751-1.251-.075-1.776l-7.127-4.677c-.826-.525-2.126-.625-2.901-.175l-7.903 4.602c-.775.45-.725 1.275.1 1.801zm24.634-.676-7.903 4.602c-.775.45-.725 1.276.1 1.801l7.128 4.651c.825.526 2.1.601 2.876.15l7.903-4.601c.775-.45.75-1.251-.075-1.776l-7.128-4.677c-.8-.525-2.101-.6-2.901-.15zm23.008 14.306 12.03-7.003c.775-.45.75-1.25-.075-1.776l-7.128-4.676c-.825-.55-2.126-.626-2.901-.15l-12.029 7.002c-.776.45-.751 1.251.1 1.801l7.127 4.677c.8.525 2.101.6 2.876.125zm16.831 5.727 7.903-4.602c.775-.45.75-1.25-.075-1.776l-7.127-4.676c-.826-.526-2.126-.626-2.901-.15l-7.903 4.601c-.776.45-.726 1.276.1 1.801l7.127 4.677c.826.5 2.101.575 2.876.125zm-77.253-11.93 7.128 4.677c.825.525 2.076.625 2.876.15l7.928-4.602c.75-.45.725-1.25-.1-1.775l-7.128-4.652c-.825-.525-2.126-.625-2.876-.175l-7.928 4.602c-.775.45-.7 1.25.1 1.775zm24.684-.675-7.928 4.602c-.775.45-.725 1.25.1 1.775l7.128 4.677c.825.525 2.076.625 2.876.15l7.928-4.601c.75-.451.725-1.251-.1-1.776l-7.128-4.677c-.825-.525-2.126-.575-2.876-.15zm22.959 14.33 7.902-4.601c.776-.451.751-1.251-.075-1.776l-7.127-4.677c-.826-.55-2.126-.625-2.901-.15l-7.903 4.602c-.775.45-.75 1.25.1 1.801l7.128 4.676c.8.5 2.1.575 2.876.125zm16.831 5.702 7.903-4.601c.775-.45.75-1.251-.076-1.776l-7.127-4.677c-.825-.525-2.126-.625-2.901-.15l-7.903 4.602c-.775.45-.725 1.25.1 1.801l7.128 4.676c.825.526 2.1.576 2.876.125zm-77.253-11.929 7.127 4.677c.825.525 2.101.6 2.876.15l7.928-4.602c.75-.45.725-1.25-.1-1.776l-7.128-4.676c-.825-.525-2.125-.625-2.876-.175l-7.928 4.601c-.775.451-.725 1.276.101 1.801zm24.684-.65-7.928 4.601c-.776.451-.726 1.251.1 1.776l7.127 4.677c.826.525 2.076.625 2.876.15l7.928-4.602c.75-.45.725-1.25-.1-1.775l-7.127-4.652c-.826-.55-2.126-.625-2.876-.175zm22.958 14.305 7.928-4.602c.75-.45.725-1.25-.1-1.775l-7.128-4.677c-.825-.55-2.126-.625-2.876-.175l-7.928 4.602c-.775.45-.725 1.25.1 1.775l7.128 4.677c.825.55 2.101.625 2.876.175zm16.831 5.727 7.928-4.602c.75-.45.725-1.25-.1-1.775l-7.128-4.677c-.825-.525-2.126-.625-2.876-.175l-7.928 4.602c-.775.45-.7 1.25.1 1.775l7.128 4.677c.825.55 2.101.625 2.876.175zm-77.253-11.929 7.127 4.676c.826.526 2.101.601 2.877.151l7.927-4.602c.751-.45.726-1.251-.1-1.776l-7.127-4.676c-.826-.526-2.126-.626-2.876-.176l-7.928 4.602c-.775.45-.725 1.251.1 1.801zm24.659-.675-7.928 4.601c-.75.45-.725 1.251.1 1.776l7.128 4.652c.825.525 2.1.6 2.876.15l7.928-4.602c.75-.45.725-1.251-.101-1.776l-7.127-4.676c-.825-.501-2.101-.576-2.876-.125zm22.983 14.33 7.928-4.602c.75-.45.725-1.25-.1-1.776l-7.128-4.676c-.825-.55-2.125-.625-2.876-.175l-7.927 4.601c-.751.451-.726 1.251.1 1.776l7.127 4.677c.825.525 2.101.6 2.876.175zm16.831 5.702 7.928-4.602c.751-.45.726-1.25-.1-1.776l-7.127-4.676c-.826-.525-2.126-.625-2.876-.175l-7.928 4.601c-.776.451-.701 1.251.1 1.776l7.127 4.677c.826.55 2.101.625 2.876.175zm-77.253-11.93 7.128 4.677c.825.525 2.101.6 2.876.15l7.928-4.601c.775-.451.725-1.251-.1-1.776l-7.128-4.677c-.825-.525-2.101-.625-2.876-.175l-7.928 4.602c-.775.45-.725 1.275.1 1.8zm24.659-.675-7.928 4.602c-.75.45-.725 1.25.1 1.776l7.128 4.676c.825.525 2.101.6 2.876.15l7.928-4.601c.775-.451.725-1.251-.1-1.776l-7.128-4.677c-.825-.525-2.101-.6-2.876-.15zm22.959 14.33 7.927-4.601c.751-.45.726-1.251-.1-1.776l-7.127-4.652c-.825-.55-2.126-.625-2.876-.175l-7.928 4.602c-.75.45-.725 1.251.1 1.776l7.127 4.676c.826.526 2.126.576 2.877.15zm16.856 5.703 7.928-4.602c.75-.45.725-1.251-.1-1.776l-7.128-4.676c-.825-.526-2.126-.626-2.876-.176l-7.928 4.602c-.75.45-.7 1.251.1 1.776l7.128 4.676c.825.551 2.1.626 2.876.176zm-77.253-11.93 7.127 4.677c.825.525 2.101.6 2.876.15l7.928-4.602c.775-.45.75-1.25-.075-1.775l-7.128-4.677c-.825-.525-2.125-.625-2.901-.15l-7.927 4.602c-.776.425-.726 1.25.1 1.775zm24.659-.65-7.928 4.602c-.751.45-.726 1.25.1 1.775l7.127 4.677c.826.525 2.101.6 2.876.15l7.928-4.602c.776-.45.751-1.25-.075-1.775l-7.127-4.677c-.826-.55-2.126-.6-2.901-.15zm22.958 14.305 7.928-4.602c.775-.45.725-1.25-.1-1.775l-7.128-4.677c-.825-.55-2.101-.625-2.876-.175l-7.928 4.602c-.75.45-.725 1.25.1 1.775l7.128 4.677c.825.55 2.126.625 2.876.175zm16.856 5.727 7.928-4.601c.775-.451.725-1.251-.1-1.776l-7.128-4.677c-.825-.525-2.1-.625-2.876-.175l-7.928 4.602c-.75.45-.7 1.25.1 1.775l7.128 4.677c.825.55 2.101.6 2.876.175zm-77.253-11.929 7.127 4.677c.826.525 2.101.6 2.877.15l7.902-4.602c.776-.45.751-1.25-.075-1.776l-7.127-4.676c-.826-.526-2.126-.626-2.901-.15l-7.903 4.601c-.775.425-.725 1.226.1 1.776zm24.659-.675-7.903 4.601c-.775.451-.75 1.251.075 1.776l7.128 4.677c.825.525 2.1.6 2.876.15l7.903-4.602c.775-.45.75-1.25-.075-1.776l-7.128-4.676c-.8-.525-2.101-.601-2.876-.15zm22.958 14.33 7.928-4.602c.775-.45.75-1.25-.075-1.775l-7.127-4.652c-.826-.55-2.126-.625-2.902-.175l-7.927 4.602c-.751.45-.726 1.25.1 1.775l7.127 4.677c.825.5 2.126.575 2.876.15zm16.831 5.702 7.928-4.602c.776-.45.726-1.25-.1-1.775l-7.127-4.677c-.826-.525-2.101-.625-2.876-.175l-7.928 4.602c-.751.45-.701 1.25.1 1.775l7.127 4.677c.851.55 2.126.625 2.876.175zm96.536-42.841-7.128-4.651c-.825-.526-2.126-.626-2.901-.175l-12.029 7.002c-.776.45-.726 1.276.1 1.801l7.127 4.676c.825.526 2.101.601 2.876.151l12.03-7.003c.775-.475.75-1.275-.075-1.801zm-16.606 9.804-7.128-4.677c-.825-.525-2.101-.6-2.876-.15l-59.197 34.438c-.75.45-.725 1.25.1 1.775l7.128 4.677c.825.55 2.126.625 2.876.175l59.197-34.437c.775-.451.725-1.251-.1-1.801zm-157.183 21.108 7.128 4.676c.825.526 2.101.601 2.876.15l7.928-4.601c.75-.45.725-1.251-.1-1.776l-7.128-4.677c-.825-.525-2.126-.625-2.876-.175l-7.928 4.602c-.75.45-.7 1.275.1 1.801zm24.684-.676-7.903 4.602c-.775.45-.75 1.251.075 1.776l7.128 4.676c.825.526 2.101.601 2.876.15l7.903-4.601c.775-.45.75-1.251-.075-1.776l-7.128-4.677c-.8-.525-2.101-.6-2.876-.15zm23.684 3.277c-.825-.551-2.126-.626-2.901-.151l-7.903 4.602c-.775.45-.75 1.251.1 1.801l7.128 4.677c.825.525 2.1.6 2.876.15l7.902-4.602c.776-.45.751-1.251-.075-1.776zm16.131 16.756 7.903-4.602c.775-.45.75-1.25-.075-1.776l-7.128-4.676c-.825-.526-2.126-.626-2.901-.175l-7.903 4.601c-.775.45-.725 1.276.1 1.801l7.128 4.677c.8.525 2.1.6 2.876.15zm28.56-3.302-7.127-4.676c-.826-.525-2.126-.626-2.902-.175l-7.927 4.601c-.751.451-.701 1.251.1 1.776l7.127 4.677c.826.525 2.101.6 2.876.15l7.928-4.602c.775-.425.75-1.225-.075-1.751zm-87.982-10.178-7.128-4.677c-.825-.525-2.125-.625-2.876-.175l-7.927 4.602c-.776.45-.701 1.25.1 1.775l7.127 4.677c.825.525 2.076.625 2.876.15l7.928-4.602c.75-.425.7-1.225-.1-1.75zm16.831 5.702-7.127-4.677c-.826-.525-2.101-.6-2.876-.15l-12.03 7.003c-.775.45-.725 1.25.1 1.775l7.128 4.677c.825.525 2.076.625 2.876.15l12.029-7.003c.751-.45.725-1.25-.1-1.775zm2.951 4.677 7.128 4.676c.825.525 2.101.6 2.876.15l7.928-4.601c.75-.451.725-1.251-.1-1.776l-7.128-4.677c-.825-.55-2.126-.625-2.876-.175l-7.928 4.602c-.775.45-.725 1.25.1 1.801zm16.856 5.727 7.128 4.676c.825.526 2.101.601 2.876.15l7.903-4.601c.775-.45.75-1.251-.075-1.776l-7.128-4.677c-.825-.525-2.125-.625-2.901-.15l-7.903 4.602c-.775.425-.725 1.25.1 1.776zm38.564 1.5-7.127-4.652c-.825-.525-2.126-.625-2.901-.175l-7.903 4.602c-.775.45-.725 1.276.1 1.801l7.128 4.676c.825.526 2.1.601 2.876.15l7.903-4.601c.775-.475.75-1.276-.076-1.801zm-50.368-1.35-7.127-4.677c-.826-.55-2.126-.625-2.877-.175l-7.927 4.602c-.776.45-.726 1.25.1 1.775l7.127 4.677c.826.525 2.076.625 2.876.15l7.928-4.602c.75-.425.725-1.225-.1-1.75zm16.856 5.702-7.127-4.677c-.826-.525-2.126-.625-2.876-.175l-12.055 7.003c-.775.45-.7 1.25.1 1.775l7.128 4.677c.825.525 2.076.625 2.876.15l12.054-7.003c.751-.4.701-1.2-.1-1.75zm20.733 3.076-7.128-4.677c-.825-.525-2.126-.625-2.876-.175l-7.928 4.602c-.775.45-.725 1.275.1 1.8l7.128 4.677c.825.525 2.101.6 2.876.15l7.928-4.601c.75-.426.725-1.226-.1-1.776zm-12.78 7.453-7.127-4.677c-.826-.525-2.126-.625-2.876-.175l-7.928 4.601c-.776.451-.701 1.251.1 1.776l7.127 4.677c.826.525 2.076.625 2.876.15l7.928-4.602c.75-.425.725-1.225-.1-1.75z" fill="#fff"/><path d="m585.52 260.598-352.278 203.399v-219.88l352.278-203.3992z" fill="#e9eaee" opacity=".9"/><path d="m585.52 48.5211-352.278 203.3739v-23.008l352.278-203.3743z" fill="#719dff"/><path d="m297.19 228.963-50.919 29.411c-2.301 1.325-4.151 4.251-4.151 6.552v50.919c0 2.3 1.85 3.076 4.151 1.75l50.919-29.41c2.3-1.326 4.151-4.252 4.151-6.553v-50.918c0-2.301-1.851-3.076-4.151-1.751z" fill="#cecece"/><path d="m475.105 248.422-164.86 95.185v-122.195l164.86-95.184z" fill="#fff"/><path d="m475.105 319.248-164.86 95.184v-65.874l164.86-95.184z" fill="#fff"/><path d="m577.191 260.301-94.459 54.545v-193.02l94.459-54.5452z" fill="#fff"/><path d="m468.176 238.244-150.905 87.132v-95.41l150.905-87.107z" fill="#cecece"/><path d="m570.69 253.122-81.63 47.117v-58.421l81.63-47.142z" fill="#918d88"/><path d="m540.453 232.042-4.802 2.776-.725-1.676c-.275-.6-.975-.7-1.775-.225l-7.703 4.452c-.801.45-1.526 1.375-1.776 2.301l-.725 2.526-4.802 2.776c-2.126 1.225-3.851 3.951-3.851 6.077v11.379c0 2.126 1.725 2.851 3.851 1.626l22.358-12.905c2.126-1.225 3.852-3.951 3.852-6.077v-11.379c-.05-2.151-1.776-2.876-3.902-1.651zm-15.956 7.403c.125-.475.501-.926.901-1.176l7.703-4.451c.4-.225.775-.175.9.125l.625 1.45-10.804 6.228zm18.882 6.152c0 1.626-1.325 3.701-2.926 4.627l-22.358 12.904c-1.626.926-2.926.375-2.926-1.25v-11.379c0-1.626 1.325-3.702 2.926-4.627l22.358-12.905c1.626-.925 2.926-.375 2.926 1.251z" fill="#fff"/><path d="m529.274 241.396c-3.701 2.125-6.702 6.877-6.702 10.578 0 3.702 3.001 4.977 6.702 2.826 3.702-2.125 6.703-6.877 6.703-10.578 0-3.702-3.001-4.952-6.703-2.826z" fill="#fff"/><path d="m350.434 203.903-26.01 15.031v2.026l26.01-15.031z" fill="#ababb2"/><path d="m321.674 221.536c0 1.175-.951 2.676-2.126 3.376-1.175.675-2.126.275-2.126-.9 0-1.176.951-2.701 2.126-3.377 1.175-.7 2.126-.275 2.126.901z" fill="#ababb2"/><path d="m521.247 105.317-26.035 15.006v2.026l26.035-15.031z" fill="#ababb2"/><path d="m492.486 122.926c0 1.175-.95 2.701-2.125 3.376-1.176.675-2.126.275-2.126-.9 0-1.176.95-2.701 2.126-3.376 1.15-.701 2.125-.276 2.125.9z" fill="#ababb2"/><path d="m327.275 325.174-10.004 5.777v2.026l10.004-5.777z" fill="#ababb2"/><path d="m448.744 255.049v2.026l19.432-11.229v-2.026z" fill="#ababb2"/><path d="m327.926 357.433-12.455 7.178v-12.455l12.455-7.177z" fill="#9ed337"/><path d="m325.274 356.185c0 1.1-7.127 5.201-7.127 4.126v-1.4c0-1.076.875-2.476 1.95-3.102l3.227-1.85c1.075-.626 1.95-.25 1.95.825z" fill="#fff"/><path d="m323.849 350.709c0 1.201-.976 2.701-2.151 3.401-1.201.676-2.151.276-2.151-.9 0-1.175.976-2.701 2.151-3.401 1.2-.7 2.151-.3 2.151.9z" fill="#fff"/><g fill="#ababb2"><path d="m345.758 339.827 3.951-2.276v.95l-3.951 2.276zm-5.102 10.454-6.177 3.551v.95l7.302-4.226 2.526-1.451v-.95zm5.477-5.978v-.95l-3.101 1.776-2.026 1.175v.95l2.026-1.175zm-6.577 2.876-5.077 2.926v.951l5.077-2.926zm2.601-4.326 2.125-1.226v-.95l-3.676 2.126-6.127 3.526v.95zm7.577 2.176-3.951 2.275v.951l3.951-2.276zm8.954-5.152-5.452 3.151v.95l5.452-3.151zm-.025-7.503-6.178 3.576v.951l6.178-3.577zm-5.452 6.903-1.551.9v.95l1.551-.9zm1.45-.826v.951l4.052-2.326v-.951zm18.957-13.755 3.951-2.276v-.95l-3.951 2.276zm-5.077 9.479-7.978 4.601v.951l9.104-5.252 2.526-1.451v-.95zm5.452-5.953v-.95l-3.101 1.776-2.026 1.175v.951l2.026-1.176zm-6.577 2.851-6.878 3.977v.95l6.878-3.976zm2.626-4.326 2.126-1.225v-.951l-3.677 2.126-7.928 4.577v.95zm7.577 2.201-3.951 2.276v.95l3.951-2.276zm8.379-4.852-6.503 3.751v.951l6.503-3.752zm.95-8.053-7.403 4.277v.95l7.403-4.277zm-5.477 6.903-1.551.9v.95l1.551-.9zm1.45-.826v.951l7.528-4.352v-.95zm19.157-13.855 2.876-1.675v-.951l-2.876 1.676zm-5.076 9.479-8.954 5.177v.95l10.079-5.827 2.526-1.451v-.95zm5.477-5.953v-.95l-3.102 1.776-2.025 1.175v.951l2.025-1.176zm-6.603 2.852-3.401 1.95v.951l3.401-1.951zm2.626-4.327 2.126-1.225v-.951l-3.676 2.126-7.928 4.577v.95zm6.502 2.801-2.876 1.676v.95l2.876-1.676zm10.129-5.852-6.352 3.676v.951l6.352-3.677zm0-7.478-3.651 2.101v.95l3.651-2.101zm-5.477 6.903-3.876 2.25v.951l3.876-2.251zm1.451-.851v.951l4.051-2.326v-.951z"/><path d="m427.813 293.41 3.952-2.276v-.95l-3.952 2.276zm-5.076 9.479-5.828 3.351v.95l6.953-4.026 2.526-1.451v-.95zm5.452-5.953v-.95l-3.102 1.776-2.025 1.175v.95l2.025-1.175zm-6.578 2.851-4.727 2.726v.951l4.727-2.726zm2.626-4.326 2.126-1.226v-.95l-3.676 2.126-5.778 3.326v.95zm7.578 2.201-3.952 2.275v.951l3.952-2.276zm9.328-12.905-7.102 4.101v.951l7.102-4.102zm-5.477 6.902-5.252 3.027v.95l5.252-3.026zm1.451-.825v.95l4.051-2.325v-.951zm19.157-13.855 5.177-3.001v-.95l-5.177 2.976zm.375 3.526v-.95l-3.101 1.776-2.026 1.175v.95l2.026-1.175zm-6.577 2.851-6.878 3.977v.95l6.878-3.976zm2.625-4.326 2.126-1.226v-.95l-3.676 2.126-7.928 4.576v.951zm16.632-10.529-3.652 2.101v.95l3.652-2.101zm-5.477 6.902-4.152 2.401v.951l4.152-2.401zm1.45-.85v.951l4.052-2.326v-.951z"/><path d="m345.757 359.761 3.952-2.275v.95l-3.952 2.276zm-5.101 10.429-6.178 3.551v.951l7.303-4.227 2.526-1.45v-.951zm5.477-5.952v-.95l-3.102 1.775-2.025 1.176v.95l2.025-1.175zm-6.578 2.851-5.077 2.926v.95l5.077-2.926zm2.601-4.327 2.126-1.225v-.95l-3.676 2.125-6.128 3.527v.95zm7.578 2.201-3.952 2.276v.95l3.952-2.275zm6.327-3.651-4.426 2.551v.95l4.426-2.551zm2.601-9.028-6.977 4.026v.95l6.977-4.026zm-5.452 6.927-1.55.9v.951l1.55-.9zm1.451-.85v.95l4.051-2.326v-.95zm18.957-13.755 5.677-3.276v-.951l-5.677 3.277zm-15.681 15.606v.95l8.353-4.827v-.95zm16.056-12.08v-.95l-3.101 1.775-2.026 1.176v.95l2.026-1.175zm-6.578 2.851-6.877 3.977v.95l6.877-3.976zm2.626-4.301 2.126-1.226v-.95l-3.651 2.101-7.928 4.576v.951zm16.906-10.704-3.651 2.1v.951l3.651-2.101zm-5.477 6.902-4.451 2.576v.95l4.451-2.575zm1.451-.85v.95l8.503-4.902v-.95zm19.157-13.855 5.052-2.926v-.951l-5.052 2.927zm.4 3.526v-.95l-3.101 1.775-2.026 1.176v.95l2.026-1.175zm-6.602 2.851-2.426 1.401v.95l2.426-1.4zm2.626-4.301 2.125-1.226v-.95l-3.676 2.126-7.928 4.576v.951zm16.631-10.554-3.652 2.101v.95l3.652-2.101zm-5.477 6.902-3.852 2.226v.95l3.852-2.225zm1.45-.825v.95l8.253-4.751v-.951z"/><path d="m427.812 313.32 3.952-2.276v-.95l-3.952 2.275zm.375 3.526v-.95l-3.101 1.775-3.626 2.101v.95l3.626-2.1zm-3.951-1.45 2.126-1.226v-.95l-3.677 2.125-5.777 3.327v.95zm21.358-13.28-8.103 4.676v.951l8.103-4.677zm-9.929 9.478-1.551.9v.951l1.551-.901zm1.45-.85v.95l4.052-2.326v-.95zm19.157-13.855 2.877-1.676v-.95l-2.877 1.675zm.376 3.526v-.95l-3.102 1.775-2.025 1.176v.95l2.025-1.175zm-6.578 2.851-6.877 3.977v.95l6.877-3.977zm2.626-4.302 2.126-1.225v-.95l-3.676 2.125-3.477 2.001v.951zm16.631-10.553-8.103 4.676v.951l8.103-4.677zm-5.477 6.902-4.651 2.676v.95l4.651-2.675zm1.451-.825v.95l4.051-2.326v-.95z"/><path d="m345.758 379.666 3.951-2.276v.95l-3.951 2.276zm-5.102 10.428-6.177 3.552v.95l7.302-4.226 2.526-1.451v-.95zm5.477-5.952v-.95l-3.101 1.776-2.026 1.175v.95l2.026-1.175zm-6.577 2.851-5.077 2.926v.951l5.077-2.926zm2.601-4.326 2.125-1.226v-.95l-3.676 2.126-6.127 3.526v.95zm7.577 2.176-3.951 2.275v.951l3.951-2.276zm8.954-5.152-7.028 4.051v.951l7.028-4.052zm.7-7.903-6.978 4.026v.951l6.978-4.027zm-6.177 7.327-5.352 3.102v.95l5.352-3.101zm1.45-.85v.951l8.403-4.852v-.951zm18.957-13.755 3.951-2.276v-.95l-3.951 2.276zm-5.077 9.504-7.978 4.601v.951l9.104-5.252 2.526-1.451v-.95zm5.452-5.978v-.95l-3.101 1.776-2.026 1.175v.951l2.026-1.176zm-6.577 2.852-2.526 1.45v.95l2.526-1.45zm2.626-4.302 2.126-1.226v-.95l-3.677 2.126-7.202 4.176v.951zm7.577 2.176-3.951 2.276v.95l3.951-2.276zm9.354-5.402-7.378 4.251v.951l7.378-4.252zm-.025-7.478-3.651 2.101v.95l3.651-2.101zm-5.477 6.903-5.477 3.176v.95l5.477-3.176zm1.45-.851v.951l8.453-4.877v-.951zm19.157-13.855 2.876-1.675v-.951l-2.876 1.676zm-5.076 9.479-7.978 4.601v.951l9.103-5.252 2.526-1.451v-.95zm5.477-5.953v-.95l-3.102 1.776-2.025 1.175v.951l2.025-1.176zm-6.603 2.851-2.476 1.426v.95l2.476-1.425zm2.626-4.301 2.126-1.226v-.95l-3.676 2.126-7.928 4.577v.95zm6.502 2.801-2.876 1.676v.95l2.876-1.676zm8.253-4.777-6.077 3.501v.951l6.077-3.501zm1.876-8.578-3.651 2.101v.95l3.651-2.101zm-5.477 6.903-5.152 2.976v.95l5.152-2.976zm1.451-.826v.951l7.352-4.252v-.95z"/><path d="m427.813 333.224 3.951-2.276v-.95l-3.951 2.276zm3.126 1.951v-.951l-7.878 4.552v.95zm-9.329 4.426-1.425.826v.95l1.425-.825zm2.626-4.301 2.126-1.226v-.95l-3.676 2.126-5.777 3.326v.95zm16.906-10.704-7.127 4.126v.951l7.127-4.127zm-5.477 6.902-1.55.901v.95l1.55-.9zm1.451-.85v.95l4.051-2.325v-.951zm19.157-13.855 2.876-1.676v-.95l-2.876 1.676zm.375 3.526v-.95l-3.101 1.776-2.026 1.175v.95l2.026-1.175zm-6.577 2.851-6.878 3.977v.95l6.878-3.976zm2.626-4.326 2.125-1.226v-.95l-3.676 2.126-7.928 4.576v.951zm16.631-10.529-7.553 4.352v.95l7.553-4.352zm-5.477 6.902-5.027 2.902v.95l5.027-2.901zm2.05-1.175v.95l3.452-1.975v-.951z"/><path d="m360.488 326.119-26.009 15.031v2.025l26.009-15.03z"/></g><path d="m327.926 377.338-12.455 7.203v-12.455l12.455-7.202z" fill="#ffb92c"/><path d="m325.274 376.087c0 1.101-7.127 5.202-7.127 4.127v-1.401c0-1.075.875-2.476 1.95-3.101l3.227-1.85c1.075-.626 1.95-.251 1.95.825z" fill="#fff"/><path d="m323.849 370.612c0 1.201-.976 2.701-2.151 3.402-1.175.7-2.151.275-2.151-.901 0-1.2.976-2.701 2.151-3.401 1.2-.7 2.151-.275 2.151.9z" fill="#fff"/><path d="m360.488 346.054-26.009 15.006v2.025l26.009-15.03z" fill="#ababb2"/><path d="m327.926 397.249-12.455 7.203v-12.455l12.455-7.203z" fill="#f61067"/><path d="m325.274 395.998c0 1.101-7.127 5.202-7.127 4.127v-1.401c0-1.075.875-2.475 1.95-3.101l3.227-1.85c1.075-.626 1.95-.25 1.95.825z" fill="#fff"/><path d="m323.849 390.548c0 1.2-.976 2.701-2.151 3.401-1.201.675-2.151.275-2.151-.9 0-1.201.976-2.701 2.151-3.402 1.2-.7 2.151-.3 2.151.901z" fill="#fff"/><path d="m360.488 365.963-26.009 15.03v2.001l26.009-15.005z" fill="#ababb2"/><path d="m566.512 52.7496-13.405 7.7278c-2.15 1.2255-3.876.5002-3.876-1.6255v-.4252c0-2.1508 1.726-4.8768 3.876-6.1022l13.405-7.7279c2.151-1.2254 3.877-.5001 3.877 1.6256v.4252c0 2.1258-1.751 4.8768-3.877 6.1022z" fill="#fff"/><path d="m538.327 69.0294-13.405 7.7278c-2.151 1.2255-3.876.5002-3.876-1.6256v-.4251c0-2.1508 1.725-4.8768 3.876-6.1023l13.405-7.7278c2.151-1.2254 3.876-.5001 3.876 1.6256v.4252c-.025 2.1258-1.75 4.8518-3.876 6.1022z" fill="#fff"/><path d="m510.142 85.3106-13.405 7.7279c-2.151 1.2254-3.876.5001-3.876-1.6256v-.4252c0-2.1508 1.725-4.8768 3.876-6.1022l13.405-7.7278c2.151-1.2255 3.876-.5002 3.876 1.6256v.4251c-.025 2.1258-1.75 4.8518-3.876 6.1022z" fill="#fff"/><path d="m489.185 189.27 13.83-7.978v1.426l-13.83 7.978zm10.254 1.151v-1.426l-10.279 5.927v1.426zm-1.126-10.629v-1.426l-9.228 5.327v1.426zm2.601 13.98-11.779 6.802v1.426l11.779-6.803zm0 5.502-10.778 6.227-1.051.6v1.426l1.051-.6 10.778-6.228zm-11.754 12.404v1.426l15.331-8.853v-1.426zm-.1 7.128 9.854-5.702v-1.426l-9.854 5.702zm25.81-33.087-10.754 6.202v1.426l10.754-6.203zm-.076-16.881-5.176 3.001v1.425l5.176-3.001zm-7.077 4.101-6.878 3.977v1.425l6.878-3.976zm11.904-1.225-13.88 8.028v1.425l13.88-8.028zm-14.18 13.805-4.051 2.326v1.425l4.051-2.326zm1.876-1.076v1.426l4.476-2.601v-1.426zm7.528 18.057-13.455 7.778v1.425l13.455-7.778zm-8.429.65 4.452-2.576v-1.425l-4.452 2.576zm-2.3-4.301 10.754-6.203v-1.425l-10.754 6.202zm27.885-32.887 5.152-2.976v-1.426l-5.152 2.976zm-6.628 13.68-8.028 4.626v1.426l9.504-5.502 3.301-1.901v-1.425zm11.755-11.004v-1.426l-11.304 6.527v1.426zm-13.18 6.202-9.679 5.577v1.425l9.679-5.577zm3.401-6.177 2.776-1.601v-1.425l-4.777 2.751-3.201 1.85v1.426zm-7.828-1.126 6.503-3.751v-1.426l-6.503 3.752-2.101 1.225v1.426zm12.98-7.502 2.101-1.201v-1.425l-2.751 1.6-3.927 2.251v1.425zm9.128 10.228-9.578 5.527v1.426l9.578-5.527zm-14.48 25.134-9.779 5.652v1.426l9.779-5.652zm10.704-17.456-7.728 4.477-4.727 2.726v1.425l4.727-2.726 7.728-4.476zm-14.63 14.08-9.804 5.677v1.426l9.804-5.677 6.502-3.752v-1.425zm8.378-4.827v1.426l3.426-1.976v-1.425zm-2.576 8.529 6.177-3.577v-1.425l-6.177 3.576zm-11.68-4.527 6.153-3.551v-1.426l-6.153 3.551zm38.139-28.936-10.929 6.303v1.425l10.929-6.302zm-3.126-15.105-5.952 3.426v1.426l5.952-3.427zm-7.828 4.526-7.627 4.402v1.426l7.627-4.402zm7.878 1.101-12.529 7.227v1.426l12.529-7.228zm-10.179 11.504-2.675 1.551v1.425l2.675-1.55zm1.901-1.1v1.425l8.328-4.802v-1.425zm3.451 20.407-10.353 5.977v1.426l10.353-5.977zm-8.553.725 17.432-10.078v-1.426l-17.432 10.079zm1.526-6.527 8.278-4.777v-1.425l-8.278 4.776zm21.883-19.532-4.977 2.876v1.425l10.804-6.227 5.152-2.976v-1.425zm-1.451-4.802-6.602 3.801v1.426l6.602-3.801zm12.38-7.152-8.953 5.176v1.426l8.953-5.177zm-8.953.95 8.953-5.152v-1.426l-10.954 6.328-7.978 4.601v1.426zm-7.828-1.101 6.502-3.751v-1.425l-6.502 3.751-2.101 1.225v1.426zm16.756-9.703v-1.426l-5.827 3.377v1.425zm-8.003 36.888-15.781 9.104v1.425l15.781-9.103zm8.153-4.701-5.527 3.176v1.425l5.527-3.176zm-15.031 3.051v1.425l14.906-8.603v-1.425zm-7.627.175 9.728-5.602v-1.426l-9.728 5.602zm11.754-6.778 10.854-6.277v-1.425l-10.854 6.277z" fill="#ababb2"/><path d="m585.52 116.194-81.354 46.967v64.248l81.354-46.967z" fill="#cecece"/><path d="m445.145 119.223-106.889 61.722v-70.275l106.889-61.6978z" fill="#f4f4f4"/><path d="m445.145 51.1474-106.889 61.7226v-13.8551l106.889-61.6975z" fill="#006da2"/><path d="m425.987 118.372c-.325.2-.6.675-.6 1.051v.675c0 .725-.5 1.6-1.125 1.95l-5.177 2.977c-.626.35-1.126.075-1.126-.651v-.8l.751-.45-1.376-1.951-1.376 3.526.751-.45v.801c0 1.5 1.05 2.1 2.351 1.35l5.177-2.976c1.3-.75 2.35-2.576 2.35-4.052v-.675c0-.375-.25-.525-.6-.325z" fill="#006da2"/><path d="m417.359 120.224c.325-.2.6-.675.6-1.05v-.776c0-.725.5-1.6 1.125-1.95l5.177-2.977c.625-.35 1.126-.075 1.126.651v.925l-.751.45 1.376 1.951 1.375-3.526-.75.45v-.926c0-1.5-1.05-2.1-2.351-1.35l-5.177 2.976c-1.3.75-2.35 2.576-2.35 4.052v.775c-.025.375.25.525.6.325z" fill="#006da2"/><path d="m398.502 127.424c-.075.025-.125.075-.2.1-1 .575-1.9 1.726-2.376 2.951-.475-.65-1.35-.775-2.375-.2-.075.05-.126.075-.201.125-1.8 1.176-2.926 4.052-2.225 5.602.6 1.351 1.825 2.751 4.726 3.526.05 0 .1-.025.15-.1 2.902-4.126 4.127-6.927 4.727-8.978.675-2.326-.425-3.926-2.226-3.026z" fill="#f61067"/><path d="m403.63 127.104v-.5c0-.125.05-.25.125-.35l1.25-1.55c.125-.151.2-.226.275-.276l.451-.25c.1-.05.15-.025.15.075v7.628c0 .125-.05.2-.15.25l-.476.275c-.1.05-.15.025-.15-.075v-6.827l-1.275 1.575c-.125.175-.2.175-.2.025z" fill="#bcb9b5"/><path d="m407.357 131.053v-1.125c0-.55.2-1.126.6-1.701l2.076-3.076c.35-.525.525-1 .525-1.476v-.45c0-.7-.3-.875-.925-.525l-.651.375c-.6.35-.9.876-.9 1.576v.5c0 .125-.05.225-.15.275l-.475.275c-.1.05-.15.025-.15-.1v-.525c0-.575.15-1.1.425-1.576.275-.475.675-.875 1.15-1.15l.851-.5c.5-.275.875-.35 1.15-.2s.425.525.425 1.1v.5c0 .651-.225 1.301-.675 1.951l-2.101 3.126c-.225.35-.35.675-.35.975v.576l3.001-1.726c.1-.05.15-.025.15.075v.45c0 .125-.05.2-.15.25l-3.701 2.126c-.075.125-.125.1-.125 0z" fill="#bcb9b5"/><path d="m432.015 116.973-1.025.601c-.501.275-.876.35-1.176.175s-.425-.525-.425-1.101v-4.301c0-.575.15-1.101.425-1.601s.675-.875 1.176-1.175l2.075-1.201c.1-.05.15-.025.15.1v.451c0 .1-.05.2-.15.25l-1.975 1.15c-.601.35-.901.875-.901 1.601v1.275l1.826-1.05c.5-.275.875-.35 1.15-.175.275.15.426.525.426 1.1v1.175c0 .576-.151 1.101-.426 1.601-.275.45-.675.85-1.15 1.125zm-.925-.25.825-.475c.6-.35.9-.875.9-1.6v-1.101c0-.725-.3-.9-.9-.55l-1.726 1v2.176c0 .7.3.901.901.55z" fill="#bcb9b5"/><path d="m362.114 112.794 6.428-3.726v1.425l-6.428 3.727zm-18.756 22.108v1.426l18.181-10.504v-1.426zm23.758-17.931v-1.426l-5.302 3.051v1.426zm-1.15-10.604v-1.426l-3.601 2.076v1.425zm2.626 13.98-5.152 2.976v1.425l5.152-2.976zm-10.079 22.583-15.155 8.753v1.426l15.155-8.753zm10.079-17.106-7.078 4.101-4.726 2.726v1.426l4.726-2.726 7.078-4.102zm-25.234 20.207v1.426l17.731-10.229v-1.426zm19.632-11.329v1.426l3.426-1.976v-1.426zm-2.576 8.553 6.177-3.576v-1.426l-6.177 3.577zm-17.056-1.425 11.529-6.653v-1.425l-11.529 6.652zm39.164-29.536-7.103 4.101v1.426l7.103-4.102zm-.075-16.8813-5.177 3.0011v1.4255l5.177-3.0011zm-7.053 4.0765-6.877 3.9768v1.425l6.877-3.976zm11.88-1.2255-11.805 6.8273v1.426l11.805-6.8277zm-14.181 13.8303-4.026 2.326v1.425l4.026-2.326zm1.901-1.076v1.426l4.477-2.601v-1.426zm7.528 18.057-10.754 6.202v1.426l10.729-6.203v-1.425zm-14.18 3.951 10.203-5.877v-1.425l-10.203 5.877zm7.077-9.728 7.103-4.102v-1.425l-7.103 4.101zm24.259-30.7613 5.152-2.9761v-1.4255l-5.152 2.976zm-6.627 13.6803-8.028 4.626v1.426l9.503-5.502 3.301-1.901v-1.425zm7.127-8.3284v-1.4255l-4.026 2.3258-2.651 1.5251v1.426l2.651-1.526zm-8.578 3.5264-9.678 5.577v1.425l9.678-5.577zm3.401-6.2024 2.776-1.6006v-1.4255l-4.776 2.751-3.201 1.8507v1.4255zm-7.802-1.1004 6.502-3.7513v-1.4256l-6.502 3.7514-2.101 1.2255v1.4255zm12.979-7.5027 2.076-1.2004v-1.4256l-2.751 1.6006-3.926 2.2508v1.4256zm7.403 11.2041-7.878 4.5514v1.426l7.878-4.5519zm-12.78 24.1584-9.778 5.652v1.426l9.778-5.652zm10.079-17.081-7.078 4.102-4.726 2.726v1.425l4.726-2.726 7.078-4.101zm-14.005 13.705-9.804 5.677v1.426l9.804-5.677 6.502-3.752v-1.425zm8.403-4.852v1.426l3.426-1.976v-1.425zm-2.576 8.553 6.177-3.576v-1.425l-6.177 3.576zm-11.679-4.526 6.152-3.551v-1.426l-6.152 3.551zm38.139-28.9357-10.929 6.3023v1.4255l10.929-6.3023zm-3.151-15.1055-5.953 3.4263v1.4255l5.953-3.4263zm-7.828 4.5266-7.628 4.4017v1.4255l7.628-4.4016zm7.878 1.0754-7.803 4.5017v1.4255l7.803-4.5016zm-10.154 11.5042-2.026 1.1755v1.4255l2.026-1.1754zm1.876-1.0753v1.4255l8.328-4.8018v-1.4255zm3.451 20.4073-10.354 5.977v1.426l10.354-5.977zm-8.553.725 17.431-10.078v-1.4258l-17.431 10.0788zm1.55-6.527 8.278-4.7768v-1.4255l-8.278 4.7763zm21.883-19.5572-4.977 2.8761v1.4255l10.804-6.2273 3.001-1.7256v-1.4255zm-1.45-4.8017-6.603 3.8014v1.4505l6.603-3.8014zm9.978-5.7521-6.577 3.8014v1.4255l6.577-3.8014zm-6.577-.4252 6.477-3.7263v-1.4255l-8.478 4.9018-7.978 4.6016v1.4255zm-7.828-1.1254 6.502-3.7513v-1.4255l-6.502 3.7513-2.101 1.2255v1.4255zm13.93-8.0279v-1.4255l-2.976 1.7256v1.4255zm-1.951 33.3872-18.981 10.9543v1.425l18.981-10.9538zm-10.078.175v1.4256l12.429-7.1777v-1.4255zm-7.653.2001 9.729-5.602v-1.4256l-9.729 5.6021zm11.779-6.8025 8.703-5.0268v-1.4255l-8.703 5.0268z" fill="#ababb2"/><path d="m355.913 123.076-12.455 7.178v-12.455l12.455-7.177z" fill="#9776ff"/><path d="m353.237 121.826c0 1.1-7.128 5.202-7.128 4.126v-1.4c0-1.076.875-2.476 1.951-3.102l3.226-1.85c1.075-.625 1.951-.25 1.951.825z" fill="#fff"/><path d="m351.811 116.35c0 1.201-.975 2.701-2.151 3.402-1.2.675-2.15.275-2.15-.901 0-1.2.975-2.701 2.15-3.401 1.201-.7 2.151-.3 2.151.9z" fill="#fff"/><path d="m628.186 175.592-106.864 61.722v-52.594l106.864-61.698z" fill="#f4f4f4"/><path d="m628.186 125.198-106.864 61.698v-13.83l106.864-61.698z" fill="#006da2"/><path d="m609.029 175.463c-.325.201-.6.676-.6 1.051v.675c0 .725-.5 1.601-1.126 1.951l-5.176 2.976c-.626.35-1.126.075-1.126-.65v-.801l.75-.45-1.375-1.95-1.376 3.526.751-.45v.8c0 1.5 1.05 2.101 2.35 1.35l5.177-2.976c1.301-.75 2.351-2.576 2.351-4.051v-.675c.025-.351-.25-.501-.6-.326z" fill="#006da2"/><path d="m600.4 177.34c.325-.2.601-.675.601-1.05v-.776c0-.725.5-1.6 1.125-1.95l5.177-2.976c.625-.35 1.125-.075 1.125.65v.925l-.75.45 1.375 1.951 1.376-3.526-.75.45v-.925c0-1.501-1.051-2.101-2.351-1.351l-5.177 2.976c-1.3.751-2.351 2.576-2.351 4.052v.775c0 .375.25.525.6.325z" fill="#006da2"/><path d="m581.544 184.545c-.075.025-.125.075-.2.1-1 .575-1.901 1.726-2.376 2.951-.475-.65-1.35-.775-2.376-.2-.075.025-.125.075-.2.125-1.8 1.176-2.926 4.052-2.226 5.602.601 1.351 1.826 2.751 4.727 3.527.05 0 .1-.025.15-.101 2.901-4.126 4.127-6.927 4.727-8.978.7-2.326-.425-3.926-2.226-3.026z" fill="#f61067"/><path d="m586.696 190.272v-1.125c0-.55.2-1.125.6-1.701l2.076-3.076c.35-.525.525-1 .525-1.475v-.45c0-.701-.3-.876-.925-.526l-.65.375c-.6.351-.901.876-.901 1.576v.5c0 .125-.05.225-.15.275l-.475.275c-.1.05-.15.025-.15-.1v-.525c0-.575.15-1.1.425-1.575.275-.476.676-.876 1.151-1.151l.85-.5c.5-.275.875-.35 1.15-.2.276.15.426.525.426 1.1v.501c0 .65-.225 1.3-.676 1.95l-2.1 3.126c-.225.351-.35.676-.35.976v.575l3.001-1.726c.1-.05.15-.025.15.075v.451c0 .125-.05.2-.15.25l-3.702 2.125c-.075.15-.125.125-.125 0z" fill="#bcb9b5"/><path d="m592.698 186.971-.5.3c-.125.075-.15.025-.075-.15l2.326-8.278-2.851 1.651c-.1.05-.15.025-.15-.075v-.475c0-.126.05-.201.15-.251l3.551-2.05c.1-.05.15-.025.15.075v.525c0 .125-.025.275-.075.45l-2.251 8.028c-.05.075-.15.175-.275.25z" fill="#bcb9b5"/><path d="m612.431 169.314v-.5c0-.125.05-.25.125-.35l1.25-1.551c.125-.15.2-.225.275-.275l.45-.25c.1-.05.15-.025.15.075v7.628c0 .125-.05.2-.15.25l-.475.275c-.1.05-.15.025-.15-.075v-6.827l-1.275 1.575c-.125.175-.2.175-.2.025z" fill="#bcb9b5"/><path d="m618.758 171.939-1.025.6c-.501.275-.876.351-1.176.175-.275-.15-.425-.525-.425-1.1v-4.302c0-.575.15-1.1.425-1.6s.675-.875 1.176-1.176l2.075-1.2c.1-.05.15-.025.15.075v.45c0 .1-.05.2-.15.25l-1.975 1.151c-.601.35-.901.875-.901 1.6v1.276l1.826-1.051c.5-.275.875-.35 1.15-.175.275.15.426.526.426 1.101v1.175c0 .575-.151 1.101-.426 1.601-.275.475-.65.85-1.15 1.15zm-.925-.275.825-.475c.6-.35.9-.875.9-1.601v-1.1c0-.725-.3-.9-.9-.55l-1.726 1v2.176c0 .725.3.9.901.55z" fill="#bcb9b5"/><path d="m543.955 187.37 6.428-3.726v1.425l-6.428 3.727zm-18.731 22.083v1.426l18.181-10.504v-1.425zm23.733-17.931v-1.426l-5.302 3.051v1.426zm-1.125-10.604v-1.426l-3.601 2.076v1.426zm2.601 13.98-5.152 2.976v1.426l5.152-2.976zm13.955-8.053-7.103 4.102v1.425l7.103-4.101zm-.075-16.881-5.177 3.001v1.426l5.177-3.001zm-7.078 4.101-6.877 3.977v1.425l6.877-3.976zm11.905-1.225-11.805 6.828v1.425l11.805-6.827zm-14.181 13.805-4.026 2.326v1.425l4.026-2.325zm1.876-1.075v1.425l4.477-2.601v-1.425zm24.684-18.482 5.152-2.976v-1.426l-5.152 2.976zm-6.602 13.68-8.028 4.627v1.425l9.503-5.502 3.301-1.901v-1.425zm7.102-8.328v-1.426l-4.026 2.326-2.651 1.526v1.425l2.651-1.525zm-8.553 3.526-9.678 5.577v1.426l9.678-5.577zm3.401-6.177 2.776-1.601v-1.425l-4.776 2.751-3.201 1.85v1.426zm-7.827-1.125 6.502-3.752v-1.425l-6.502 3.751-2.101 1.225v1.426zm12.979-7.503 2.076-1.201v-1.425l-2.751 1.6-3.926 2.251v1.426zm7.428 11.229-7.878 4.552v1.425l7.878-4.552zm15.556-9.003-10.929 6.302v1.425l10.929-6.302zm-3.127-15.106-5.952 3.426v1.426l5.952-3.426zm-7.827 4.527-7.628 4.401v1.426l7.628-4.402zm7.877 1.075-7.802 4.502v1.425l7.802-4.501zm-10.178 11.529-2.026 1.176v1.425l2.026-1.175zm1.9-1.1v1.425l8.329-4.801v-1.426zm18.307-4.927-4.977 2.876v1.426l10.804-6.228 3.301-1.9v-1.426zm-1.45-4.802-6.603 3.802v1.425l6.603-3.801zm11.579-6.702-8.353 4.827v1.425l8.353-4.827zm-8.153.5 7.128-4.101v-1.426l-9.129 5.277-7.978 4.602v1.425zm-1.651-4.677v-1.425l-8.278 4.777v1.425zm9.754-5.627v-1.425l-6.978 4.026v1.426z" fill="#ababb2"/><path d="m538.853 197.048-12.455 7.178v-12.455l12.455-7.177z" fill="#ff809f"/><path d="m536.177 195.797c0 1.1-7.128 5.202-7.128 4.126v-1.4c0-1.076.876-2.476 1.951-3.101l3.226-1.851c1.075-.625 1.951-.25 1.951.825z" fill="#fff"/><path d="m534.776 190.322c0 1.2-.975 2.701-2.151 3.401-1.2.675-2.151.275-2.151-.901 0-1.175.976-2.701 2.151-3.401 1.176-.7 2.151-.3 2.151.901z" fill="#fff"/><path d="m489.185 137.053 13.83-7.978v1.425l-13.83 7.978zm10.254 1.15v-1.425l-10.279 5.927v1.425zm-1.126-10.629v-1.425l-9.228 5.327v1.425zm2.601 13.981-11.779 6.802v1.426l11.779-6.803zm0 5.502-10.778 6.227-1.051.6v1.401l1.051-.601 10.778-6.227zm-11.754 12.429v1.426l15.331-8.854v-1.425zm-.1 7.103 9.854-5.702v-1.426l-9.854 5.702zm25.81-33.087-10.754 6.202v1.425l10.754-6.202zm-.076-16.857-5.176 3.002v1.425l5.176-3.001zm-7.077 4.077-6.878 3.976v1.426l6.878-3.977zm11.904-1.226-13.88 8.028v1.426l13.88-8.028zm-14.18 13.831-4.051 2.325v1.426l4.051-2.326zm1.876-1.101v1.426l4.476-2.601v-1.426zm7.528 18.057-13.455 7.778v1.425l13.455-7.778zm-8.429.65 4.452-2.576v-1.426l-4.452 2.576zm-2.3-4.302 10.754-6.202v-1.425l-10.754 6.202zm27.885-32.887 5.152-2.976v-1.425l-5.152 2.976zm-6.628 13.68-8.028 4.627v1.426l9.504-5.502 3.301-1.901v-1.426zm11.755-10.979v-1.425l-11.304 6.527v1.426zm-13.18 6.178-9.679 5.577v1.425l9.679-5.577zm3.401-6.178 2.776-1.6v-1.426l-4.777 2.751-3.201 1.851v1.425zm-7.828-1.125 6.503-3.751v-1.426l-6.503 3.751-2.101 1.226v1.425zm12.98-7.478 2.101-1.2v-1.426l-2.751 1.601-3.927 2.251v1.425zm9.128 10.204-9.578 5.527v1.425l9.578-5.527zm-14.48 25.134-9.779 5.652v1.426l9.779-5.652zm10.704-17.456-7.728 4.476-4.727 2.726v1.426l4.727-2.726 7.728-4.477zm-14.63 14.08-9.804 5.677v1.425l9.804-5.677 6.502-3.751v-1.425zm8.378-4.827v1.426l3.426-1.976v-1.426zm-2.576 8.528 6.177-3.576v-1.426l-6.177 3.577zm-11.68-4.526 6.153-3.552v-1.425l-6.153 3.551zm38.139-28.936-10.929 6.302v1.426l10.929-6.302zm-3.126-15.1055-5.952 3.4263v1.4255l5.952-3.4262zm-7.828 4.5267-7.627 4.4018v1.425l7.627-4.401zm7.878 1.1008-12.529 7.227v1.426l12.529-7.228zm-10.179 11.504-2.675 1.55v1.426l2.675-1.551zm1.901-1.101v1.426l8.328-4.802v-1.425zm3.451 20.433-10.353 5.977v1.426l10.353-5.978zm-8.553.7 17.432-10.079v-1.425l-17.432 10.079zm1.526-6.527 8.278-4.777v-1.426l-8.278 4.777zm21.883-19.532-4.977 2.876v1.425l10.804-6.227 5.152-2.976v-1.4257zm-1.451-4.802-6.602 3.801v1.426l6.602-3.802zm12.38-7.1528-8.953 5.1769v1.4259l8.953-5.1773zm-8.953.9754 8.953-5.1519v-1.4255l-10.954 6.3273-7.978 4.6017v1.4258zm-7.828-1.1254 6.502-3.7514v-1.4255l-6.502 3.7514-2.101 1.2254v1.4255zm16.756-9.7036v-1.4255l-5.827 3.3763v1.4255zm-8.003 36.8884-15.781 9.103v1.426l15.781-9.103zm8.153-4.702-5.527 3.177v1.425l5.527-3.176zm-15.031 3.051v1.426l14.906-8.603v-1.426zm-7.627.176 9.728-5.602v-1.426l-9.728 5.602zm11.754-6.778 10.854-6.277v-1.426l-10.854 6.278z" fill="#ababb2"/><path d="m291.239 316.17-36.664 21.157v-2.701l36.664-21.157zm-41.34 18.406-7.928 4.577v7.928l7.928-4.577z" fill="#006da2"/><path d="m301.818 354.132-59.847 34.562v-1.2l59.847-34.563z" fill="#ababb2"/><path d="m291.239 332.45-36.664 21.157v-2.701l36.664-21.157zm-41.34 18.431-7.928 4.577v7.928l7.928-4.577z" fill="#006da2"/><path d="m291.239 348.731-36.664 21.157v-2.701l36.664-21.157zm-41.34 18.431-7.928 4.577v7.928l7.928-4.577z" fill="#006da2"/><path d="m291.239 373.186-36.664 21.158v-2.701l36.664-21.158zm-41.34 18.432-7.928 4.577v7.928l7.928-4.577z" fill="#006da2"/><path d="m291.238 389.492-36.663 21.158v-2.701l36.663-21.157zm-41.34 18.407-7.928 4.577v7.928l7.928-4.577z" fill="#006da2"/><path d="m291.238 405.772-36.663 21.157v-2.701l36.663-21.157zm-41.34 18.406-7.928 4.577v7.928l7.928-4.577z" fill="#006da2"/><path d="m486.259 248.693-150.905 87.107v-95.385l150.905-87.132z" fill="#918d88"/><path d="m431.514 216.728-8.428 4.876-1.301-2.951c-.475-1.05-1.725-1.225-3.126-.425l-13.53 7.828c-1.4.8-2.651 2.426-3.126 4.026l-1.3 4.452-8.428 4.877c-3.727 2.151-6.778 6.952-6.778 10.679v19.982c0 3.726 3.026 5.002 6.778 2.851l39.214-22.658c3.726-2.151 6.777-6.953 6.777-10.679v-19.982c0-3.752-3.026-5.052-6.752-2.876zm-27.985 12.979c.225-.825.875-1.65 1.6-2.05l13.53-7.828c.725-.425 1.351-.325 1.601.225l1.1 2.526-18.932 10.929zm33.137 10.779c0 2.851-2.301 6.478-5.152 8.128l-39.214 22.633c-2.851 1.651-5.152.676-5.152-2.175v-19.983c0-2.851 2.301-6.502 5.152-8.128l39.214-22.658c2.851-1.65 5.152-.675 5.152 2.176zm-13.005-2.376c0 6.503-5.277 14.806-11.754 18.557-6.503 3.751-11.755 1.526-11.755-4.977 0-6.502 5.277-14.805 11.755-18.556 6.477-3.752 11.754-1.526 11.754 4.976z" fill="#fff"/><path d="m309.87 295.51-50.919 29.411c-2.301 1.325-4.151.55-4.151-1.751v-50.918c0-2.301 1.85-5.227 4.151-6.553l50.919-29.41c2.301-1.326 4.151-.551 4.151 1.75v50.919c.025 2.301-1.85 5.227-4.151 6.552z" fill="#006da2"/><path d="m301.342 287.16c0 5.177-33.938 24.785-33.938 19.608v-6.603c0-5.152 4.177-11.729 9.329-14.705l15.305-8.828c5.152-2.976 9.329-1.201 9.329 3.926v6.602zm-16.956-28.46c-5.652 3.276-10.254 10.504-10.254 16.156s4.577 7.603 10.254 4.327c5.652-3.277 10.253-10.504 10.253-16.156-.025-5.652-4.601-7.578-10.253-4.327z" fill="#fff"/><path d="m196.678 558.759-14.005 8.103 13.53 7.803h10.079z" fill="#7591af" opacity=".2"/><path d="m206.282 559.332-14.506-8.378 14.506-8.378 14.505 8.378z" fill="#719dff"/><path d="m206.282 574.661-14.506-8.378v-15.33l14.506 8.378z" fill="#006da2"/><path d="m220.787 566.283-14.506 8.378v-15.33l14.506-8.378z" fill="#006da2"/><path d="m272.256 565.484-38.364 22.158 37.038 21.383h27.585z" fill="#7591af" opacity=".2"/><path d="m335.178 596.141c-1.125-2.151-1.075-4.226-7.803-3.176-.5.075-1 .15-1.475.2-.45-1.025-.876-2.076-1.151-3.176-.525-2.051-.55-4.227-.675-6.352-.175-2.776-.525-5.552-.95-8.303-.775-5.002-1.726-10.029-3.602-14.731-1.875-4.701-4.726-9.128-8.703-12.229-1.75-1.376-3.726-2.476-5.677-3.551-2.376-1.276-4.752-2.526-7.177-3.727-2.101-1.05-4.227-2.076-6.528-2.526-2.376-.475-3.201.926-5.327 3.076-3.076 3.126-1.45 6.528 1.101 8.278 9.753 6.678 21.207 10.629 21.683 11.204.525.651 3.376 28.261 4.126 39.19 3.501 2.326 12.38 9.378 18.332 9.028 2.526-.15 4.376-.9 4.902-2.026.075-2.576-4.627-3.651-4.902-5.702-.25-2.051 4.576-4.051 3.826-5.477z" fill="#7591af" opacity=".9"/><path d="m298.515 567.033-39.714-22.934 39.714-22.908 39.689 22.908z" fill="#719dff"/><path d="m298.515 609.022-39.714-22.933v-41.99l39.714 22.933z" fill="#006da2"/><path d="m338.204 586.089-39.689 22.933v-41.99l39.689-22.933z" fill="#006da2"/><path d="m325.925 593.194c-.45-1.025-.875-2.076-1.15-3.176-.525-2.051-.55-4.227-.675-6.352-.175-2.776-.525-5.553-.951-8.304-.775-5.001-1.725-10.028-3.601-14.73s-4.727-9.128-8.703-12.229c-1.751-1.376-3.726-2.476-5.677-3.552-2.376-1.275-4.752-2.526-7.178-3.726-2.101-1.05-4.226-2.076-6.527-2.526-2.376-.475-3.201.925-5.327 3.076-3.076 3.126-1.451 6.528 1.1 8.278 9.754 6.678 21.208 10.629 21.683 11.204.525.651 3.376 28.261 4.127 39.19.075.05.15.1.2.15z" fill="#1e266d" opacity=".3"/><path d="m307.168 487.656c-2.026 6.528 2.501 20.658 3.801 24.234.175.5 7.578 13.905 9.004 16.181 1.7 2.701 6.302.25 5.527-2.026-1.426-4.101-7.478-17.931-7.478-18.181-.025-2.001-.175-10.829-.5-15.156-.15-1.875-.2-5.777-1.401-7.202-2.576-3.076-7.753-1.701-8.953 2.15z" fill="#fff"/><path d="m329.126 538.046c-4.302-2.126-7.153-3.676-11.554-6.002-2.051-1.076-4.677-2.126-5.327-4.327l-27.16 4.452c-.976 3.751-1.276 7.803.025 11.454 1.775 4.927 5.852 6.727 10.429 9.278 3.301 1.851 11.429 6.103 15.73 8.128 1.851.876 5.327-.05 7.153-.975 5.127-2.626 8.078-4.076 11.204-7.603 1.751-1.975 2.601-3.826 3.126-6.427.575-3.026.1-6.127-3.626-7.978z" fill="#3a312b"/><path d="m308.969 483.754c3.151-1.675 5.702.55 7.178 4.002.875 2.025.575 4.351.175 6.502-.4 2.176-.901 4.402-.401 6.552.376 1.551 1.226 2.952 1.501 4.502.325 1.726-.125 3.551-1.175 4.952-.676.9-1.576 1.576-2.301 2.426-2.101 2.501-2.451 6.077-1.926 9.328s.725 4.402 1.1 5.902c1.201 4.852-8.153 9.054-13.429 9.404-7.028.475-14.181-1.401-15.106-4.302.225-3.101 1.651-5.377 4.277-9.528 3.551-5.652 4.801-9.254 3.901-14.08-.425-2.226-1.475-4.252-2.651-6.178-.55-.9-1.05-2.175-1.325-3.476-.451-2.026.325-4.126 1.975-5.377 2.451-1.826 6.378-3.776 8.153-4.802 4.027-2.275 6.303-3.826 10.054-5.827z" fill="#fff"/><path d="m300.216 495.882c2.201 3.251 6.102 4.651 8.678 3.126 2.601-1.526 2.901-5.427.7-8.678-1.45-2.126-3.601-3.451-5.652-3.702-1.175.701-2.401 1.451-3.826 2.276-.725.425-1.276 1.176-1.351 2.026-.1 1.576.351 3.326 1.451 4.952z" fill="#fbbd9e"/><path d="m299.215 480.727c1.376.625 2.776.875 3.977.25l6.427-7.503c-2.851-11.754-15.406-7.252-14.93.926.15 2.776 2 5.177 4.526 6.327z" fill="#1e266d"/><path d="m301.391 484.426c1.626 1.6 6.553 6.402 6.603 6.452 1.3 1.601 1.55 3.726.9 5.152-.575 1.275-2.176 1.751-3.451 1.15-1.901-.875-3.927-2.701-4.527-3.576-.75-1.075-1.45-2.776-1.15-4.126.025-.1.075-.2.125-.301.225-.35.75-1.325 1.075-3.101.125-.8.2-.825.425-1.65z" fill="#f2a883"/><path d="m299.54 476.272c-.151.851-.801 6.228.925 10.429 2.451 5.902 7.878 7.728 8.678 7.978 1.225.35 2.326-.575 2.826-1.576 2.451-4.751 5.252-12.579 3.151-16.18-1.85-3.152-3.651-4.927-6.202-5.803-2.201-.8-8.453.125-9.378 5.152z" fill="#fbbd9e"/><path d="m315.796 474.998c-.425-.8-3.201-4.801-7.378-5.627-3.526-.7-5.702.55-6.903 1.376-1.2.8-2.025 2.05-2.525 3.426-.501 1.375-.651 2.801-.676 4.252-.025 1.425.075 2.851.525 4.201.526 1.576 1.201 3.201 1.951 4.802.2-.525.075-1.376.15-1.951s.125-1.626.926-1.801c1.7-.4 1.6 2.651 1.85 3.527.05.2.15.425.3.575s.401.225.601.125c.125-.075.225-.2.3-.325.5-.926.85-1.901 1.35-2.826 2.376-4.627 9.654-6.052 9.654-4.102.925-2.351.625-4.226-.125-5.652z" fill="#1e266d"/><path d="m312.995 561.033c5.852.35 13.755-6.102 15.03-7.353 2.376-2.301 4.852-5.327 5.052-8.628.1-1.551-.375-2.926-1.2-4.277-.426-.7-1.601-1.975-3.602-1.3-.85.275-1.575.85-2.125 1.551-2.076 2.55-3.077 4.476-2.977 6.652.1 2.226 1.126 4.627.101 5.227-.376.225-1.726-1.151-3.052-2.226-1.75-1.45-3.276-4.126-5.952-3.501-1.775.875-3.626 2.701-4.426 4.451-.551 1.201-.776 3.077-.551 4.927.326 2.551 1.176 4.327 3.702 4.477z" fill="#1e266d"/><path d="m328.001 581.586c-3.902 1.251-2.876 5.077-3.026 6.453-.15 1.3-.526 3.301-.926 4.376-.275.75 1.701 1.601 1.976.65l.225-.9c1.326 3.151 2.601 5.727 3.701 7.303.776 1.125 2.001 1.9 3.352 2.075 1.3.176 2.626.05 3.426-.4 1.651-.95-2.151-7.377-2.676-8.928-.5-1.475-1.976.15-2.276-4.076-.3-4.677-.55-6.928-3.776-6.553z" fill="#3a312b"/><path d="m338.655 544.773c-.5-.775-5.852-4.326-8.503-5.602-1.901-.9-8.228 3.051-6.778 10.004l5.577 3.151c-2.101 3.676-2.226 8.328-1.7 13.43.5 5.052 1.15 7.678 1.25 12.304.025 1.351-.25 2.726-.925 3.902-.125.225-.275.45-.425.6-.15.175-.301.325-.376.475-.525.826-.375 1.901.025 2.801.926 2.101 2.601 6.528 3.452 7.703.925 1.276 3.576 1.326 4.176.075.075-.175.075-.35.025-.525-.45-1.801-1.825-3.476-2-5.477-.226-2.176.425-5.252.8-7.403 2.401-14.055 3.726-20.632 4.501-24.484.251-1.225.576-2.175 1.126-3.726.775-2.201 1.2-5.052-.225-7.228z" fill="#fbbd9e"/><path d="m321.899 590.738c-3.377 2.35-1.251 5.702-1.001 7.052.25 1.276.776 3.601.826 4.877.025.8 1.825.8 1.8.1v-1.1c4.902 6.802 8.228 7.327 9.579 7.102 1.3-.225 2.526-.725 3.176-1.4 1.15-1.201-4.602-7.078-5.577-8.403-.9-1.251-1.726.875-3.251-3.077-1.701-4.401-2.601-6.477-5.552-5.151z" fill="#3a312b"/><path d="m331.402 599.868c-.951-1.575-2.551-2.926-3.326-4.751-.851-2.026-1.201-4.127-1.326-6.303-.725-13.279-1.2-22.408-1.65-26.309-.075-.7-.176-1.376-.151-2.076.025-.6.101-1.2.151-1.801.125-2.375-.301-5.202-2.301-6.877-.876-.725-6.253-4.602-7.203-5.052-2.226-.325-8.178 4.502-5.902 11.704l6.052 3.326c-1.175 5.352.3 9.654 1.801 15.331 1.4 5.277 3.201 6.027 4.251 11.779.2 1.076.025 2.176-.45 3.152-.1.2-.175.4-.225.575-.25.925.55 1.951 1.1 2.751 1.601 2.276 3.952 5.302 5.127 6.177 1.251.925 3.977.325 4.177-1.05.05-.225-.025-.426-.125-.576z" fill="#fbbd9e"/><path d="m310.944 534.722c-2.625-4.051-11.604-15.556-11.604-15.556s-.4-11.679-.675-16.581c-.1-1.875-.1-5.777-1.275-7.227-2.526-3.126-7.728-1.851-9.004 1.975-2.376 7.203 2.726 24.159 3.427 25.185 2.3 3.401 12.054 13.354 14.255 15.48 2.301 2.226 6.177-1.25 4.876-3.276z" fill="#fff"/><path d="m327.05 530.32-26.635 15.481 17.681 10.454 26.06-16.056z" fill="#d2ceca"/><path d="m324.823 539.048-7.052 4.077-4.577-2.651 7.053-4.077z" fill="#bcb9b5" opacity=".1"/><path d="m320.247 536.397-7.053 4.077.125.075 6.928-3.977 4.451 2.551.125-.075z" fill="#bcb9b5"/><path d="m316.446 547.079 1.075.6c.075.05.125.125.125.2s-.05.175-.125.2l-1.25.701-1.076-.601c-.075-.05-.125-.125-.125-.2s.05-.175.125-.2zm4.326-2.551c-.075.05-.125.125-.125.2s.05.15.125.2l1.076.6 1.25-.7c.075-.05.125-.125.125-.2s-.05-.15-.125-.2l-1.075-.6zm-4.051 5.977 1.25-.7c.075-.05.125-.125.125-.2s-.05-.15-.125-.2l-1.075-.6-1.251.7c-.075.05-.125.125-.125.2s.05.15.125.2zm.325-3.801c-.075.05-.125.125-.125.2s.05.15.125.2l1.075.6 1.251-.7c.075-.05.125-.125.125-.2s-.05-.15-.125-.2l-1.076-.6zm1.851-1.076c-.075.05-.125.126-.125.201s.05.15.125.2l1.075.6 1.25-.7c.076-.05.126-.125.126-.2 0-.076-.05-.151-.126-.201l-1.075-.6zm-5.577 3.227c-.075.05-.125.125-.125.2s.05.15.125.2l1.075.6 1.25-.7c.075-.05.126-.125.126-.2s-.051-.15-.126-.2l-1.075-.601zm4.551 3.001 1.251-.7c.075-.051.125-.126.125-.201s-.05-.15-.125-.2l-1.076-.6-1.25.7c-.075.05-.125.125-.125.2s.05.15.125.2zm6.853-3.952c.075-.05.125-.125.125-.2s-.05-.15-.125-.2l-1.076-.6-1.25.7c-.075.05-.125.125-.125.2s.05.15.125.2l1.075.601zm1.85-1.075c.075-.05.125-.125.125-.2s-.05-.15-.125-.2l-1.075-.6-1.25.7c-.075.05-.125.125-.125.2s.05.15.125.2l1.075.6zm-5.577 3.226c.075-.05.125-.125.125-.2s-.05-.15-.125-.2l-1.075-.6-1.25.7c-.075.05-.125.125-.125.2s.05.15.125.2l1.075.6zm1.851-1.075c.075-.05.125-.125.125-.2s-.05-.15-.125-.2l-1.075-.601-1.251.701c-.075.05-.125.125-.125.2s.05.15.125.2l1.076.6zm-.2-5.527c-.075.05-.125.125-.125.2s.05.15.125.2l1.075.6 1.251-.7c.075-.05.125-.125.125-.2s-.05-.15-.125-.2l-1.076-.601zm-5.127 4.952c-.075.05-.125.125-.125.2s.05.15.125.2l1.076.6 1.25-.7c.075-.05.125-.125.125-.2s-.05-.151-.125-.201l-1.075-.6zm10.929-2.651c.075-.05.125-.126.125-.201s-.05-.15-.125-.2l-1.075-.6-1.251.7c-.075.05-.125.125-.125.2 0 .076.05.151.125.201l1.076.6zm3.126-3.352c0 .075.05.15.125.2l1.076.601 1.85-1.051c.075-.05.125-.125.125-.2s-.05-.15-.125-.2l-1.075-.6-1.851 1.05c-.075.025-.125.1-.125.2zm-6.127 3.051c.075-.05.125-.125.125-.2s-.05-.15-.125-.2l-1.075-.6-1.251.7c-.075.05-.125.125-.125.2s.05.15.125.2l1.076.601zm-3.726 2.176c.075-.05.125-.125.125-.2s-.05-.15-.125-.2l-1.076-.6-1.25.7c-.075.05-.125.125-.125.2s.05.15.125.2l1.075.6zm1.875-1.075c.075-.05.125-.125.125-.2s-.05-.15-.125-.2l-1.075-.601-1.25.701c-.076.05-.126.125-.126.2s.05.15.126.2l1.075.6zm5.577-3.251c.075-.05.125-.125.125-.2s-.05-.151-.125-.201l-1.075-.6-1.25.701c-.075.05-.126.125-.126.2s.051.15.126.2l1.075.6zm-4.676-.926c-.075.05-.125.125-.125.2s.05.15.125.2l1.075.601 1.251-.701c.075-.05.125-.125.125-.2s-.05-.15-.125-.2l-1.076-.6zm3.126-1.8-1.251.7c-.075.05-.125.125-.125.2s.05.15.125.2l1.076.6 1.25-.7c.075-.05.125-.125.125-.2s-.05-.15-.125-.2zm3.426 1.65c.075-.05.125-.125.125-.2s-.05-.15-.125-.2l-1.075-.6-1.251.7c-.075.05-.125.125-.125.2s.05.15.125.2l1.076.6zm-3.726 2.151c.075-.05.125-.125.125-.2s-.05-.15-.125-.2l-1.076-.6-1.25.7c-.075.05-.125.125-.125.2s.05.15.125.2l1.075.6zm-9.929 7.628c0-.075-.05-.15-.125-.2l-1.075-.6-1.251.7c-.075.05-.125.125-.125.2s.05.15.125.2l1.051.625 1.25-.7c.1-.05.15-.125.15-.225zm-1.15-1.351c0-.075-.05-.15-.125-.2l-1.076-.6-1.85 1.05c-.075.05-.125.125-.125.2s.05.151.125.201l1.075.6 1.851-1.051c.075-.025.125-.1.125-.2zm-2.351-.625c0-.075-.05-.15-.125-.2l-1.076-.6-1.25.7c-.075.05-.125.125-.125.2s.05.15.125.2l1.075.6 1.251-.7c.1-.025.15-.1.125-.2zm-1.126-1.35c0-.075-.05-.15-.125-.2l-1.075-.601-1.851 1.051c-.075.05-.125.125-.125.2s.05.15.125.2l1.076.6 1.85-1.05c.075-.025.125-.125.125-.2zm5.778 3.126-1.851 1.05c-.075.05-.125.125-.125.2s.05.15.125.2l1.075.6 1.851-1.05c.075-.05.125-.125.125-.2s-.05-.15-.125-.2zm17.831-9.104-1.075-.6-1.251.7c-.075.051-.125.125-.125.201 0 .075.05.15.125.2l1.076.6 1.25-.7c.075-.05.125-.126.125-.201s-.05-.15-.125-.2zm-8.503 3.727-8.753 5.052c-.075.05-.125.125-.125.2s.05.15.125.2l1.075.6 8.753-5.052c.075-.05.125-.125.125-.2s-.05-.15-.125-.2zm5.577-3.251-1.251.7c-.075.05-.125.125-.125.2s.05.15.125.2l1.076.6 1.25-.7c.075-.05.125-.125.125-.2s-.05-.15-.125-.2zm-20.207 5.352 1.25-.701c.075-.05.125-.125.125-.2s-.05-.15-.125-.2l-1.075-.6-1.251.7c-.075.05-.125.125-.125.2s.05.15.125.2zm16.481-3.202-1.251.701c-.075.05-.125.125-.125.2s.05.15.125.2l1.076.6 1.25-.7c.075-.05.125-.125.125-.2s-.05-.15-.125-.2zm1.85-1.075-1.25.7c-.075.05-.125.125-.125.2s.05.15.125.2l1.075.601 1.251-.701c.075-.05.125-.125.125-.2s-.05-.15-.125-.2zm-1.25.4c.075-.05.125-.125.125-.2s-.05-.15-.125-.2l-1.076-.6-1.25.7c-.075.05-.125.125-.125.2s.05.15.125.2l1.075.6zm-2.226-4.226c0 .075.05.15.125.2l1.075.6 1.851-1.051c.075-.05.125-.125.125-.2s-.05-.15-.125-.2l-1.075-.6-1.851 1.051c-.075.025-.125.125-.125.2zm.075-.551 1.25-.7c.075-.05.126-.125.126-.2s-.051-.15-.126-.2l-1.075-.6-1.25.7c-.075.05-.125.125-.125.2s.05.15.125.2zm4.001 3.702c.076-.05.126-.125.126-.2s-.05-.15-.126-.2l-1.075-.601-1.25.701c-.075.05-.125.125-.125.2s.05.15.125.2l1.075.6zm-1.725-2.526c0 .075.05.15.125.2l1.075.6 1.251-.7c.075-.05.125-.125.125-.2s-.05-.15-.125-.2l-1.076-.6-1.25.7c-.075.025-.125.1-.125.2zm-4.152-.1 1.251-.7c.075-.051.125-.126.125-.201s-.05-.15-.125-.2l-1.076-.6-1.25.7c-.075.05-.125.125-.125.201 0 .075.05.15.125.2zm-3.726 2.176 1.25-.701c.075-.05.125-.125.125-.2s-.05-.15-.125-.2l-1.075-.6-1.25.7c-.075.05-.125.125-.125.2s.05.15.125.2zm-3.726 2.15 1.25-.7c.075-.05.125-.125.125-.2s-.05-.15-.125-.2l-1.075-.6-1.251.7c-.075.05-.125.125-.125.2s.05.15.125.2zm-1.876 1.076 1.25-.701c.075-.05.125-.125.125-.2s-.05-.15-.125-.2l-1.075-.6-1.25.7c-.075.05-.125.125-.125.2s.05.151.125.201zm7.478-4.327 1.25-.7c.075-.05.125-.125.125-.2s-.05-.15-.125-.2l-1.075-.6-1.251.7c-.075.05-.125.125-.125.2s.05.15.125.2zm-9.329 5.402 1.251-.7c.075-.05.125-.125.125-.2s-.05-.15-.125-.2l-1.076-.6-1.25.7c-.075.05-.125.125-.125.2s.05.15.125.2zm5.602-3.226 1.251-.7c.075-.05.125-.125.125-.2s-.05-.15-.125-.2l-1.076-.601-1.25.701c-.075.05-.125.125-.125.2s.05.15.125.2z" fill="#1e266d"/><path d="m317.397 538.576c-.801-2.076-4.302-2.551-6.628-3.651-1.65-1.301-4.702 2.05-3.826 3.051.3.4.525.725.925 1.025.375.275.775.55 1.175.8.751.501 1.426 1.026 1.901 1.826.125.2.225.4.325.625.4.876.125 2.351.901 3.001.575.501.75.125 1.4.1.525 0 2.051.501 2.451.326.2-.1.3-.326.475-.451.775-.575 1.226-.6 1.501-1.65.2-.826.3-1.976.025-2.776-.275-.776-.35-1.526-.625-2.226z" fill="#fbbd9e"/><path d="m328.426 537.223c.75-1.925.375-5.152.025-5.902-.476-.975-1.301-2.351-3.327-4.702-.75-.875-3.151.05-3.851 1.126-.2.3-.3.525-.175.875.25.725 1.4 5.802 1.4 5.802.1 2.276-.925 3.151 1.251 4.627.475.325 1.425.175 1.951.05.95-.25 2.35-.925 2.726-1.876z" fill="#fbbd9e"/><path d="m323.198 538.773-4.752 18.231 26.56-15.43 4.827-18.282z" fill="#bcb9b5"/><path d="m322.899 538.475 26.634-15.481.301.3-26.635 15.481z" fill="#d2ceca"/><path d="m322.898 538.474-4.927 17.481-17.556-10.154v.801l18.031 10.403 4.752-18.231z" fill="#999693"/><path d="m595.623 368.988-38.364 22.158 37.013 21.383h27.585z" fill="#7591af" opacity=".2"/><path d="m687.756 402.649c-.8-3.226-17.506-7.477-29.961-10.804-1-.275-7.527 3.627-8.052 4.502 0 0 19.632 6.477 21.332 6.978 3.302.975 6.378 2.375 9.829 2.701 1.25.125 2.526.2 3.751 0 2.751-.451 3.476-2.101 3.101-3.377z" fill="#7591af" opacity=".9"/><path d="m642.04 403.224c-1.601.825-3.202 1.675-4.852 2.426 2.776 11.804 6.277 12.604 11.079 11.179 4.952-1.901-.6-6.228-6.227-13.605z" fill="#7591af" opacity=".9"/><path d="m621.808 370.638-39.714-22.934 39.714-22.908 39.69 22.908z" fill="#719dff"/><path d="m621.808 412.629-39.714-22.934v-41.99l39.714 22.933z" fill="#006da2"/><path d="m661.497 389.695-39.689 22.934v-41.991l39.689-22.933z" fill="#006da2"/><path d="m639.914 364.286-7.453-15.556c-7.528-5.802-16.156-5.652-19.657-1.45-2.801 3.376-.875 7.753 1.425 9.828 5.978 5.427 10.929 8.804 12.98 10.429.675.525 11.879-2.826 12.705-3.251z" fill="#1e266d" opacity=".3"/><path d="m655.744 351.302-10.028-13.08c-8.954-3.251-16.131-2.276-18.607 2.601-1.976 3.902.9 7.753 3.576 9.254 7.053 3.951 14.981 6.752 14.981 6.752l4.001 39.639c.075.05 8.128-4.651 8.128-4.651z" fill="#1e266d" opacity=".3"/><path d="m687.456 399.851c-.725-1.201-3.451-2.201-6.102-3.251-2.701-1.076-6.478-2.676-6.653-3.052-.125-.325-.075-.725-.3-.975-.15-.15-.35-.2-.55-.25-1.901-.35-3.902-.075-5.627.775-.8.4-1.751 2.026-1.751 2.026.05.625 0 2.201.025 3.351 0 .801 11.93 5.527 13.655 5.777 1.976.275 6.428 1.026 7.503-1.275.425-.976.35-2.201-.2-3.126z" fill="#f2f1eb"/><path d="m687.631 401.926c-1.05 2.301-5.502 1.55-7.503 1.275-1.725-.225-13.705-5.052-13.705-5.052-.125 1.226.025 1.376.175 1.626 0 0 11.805 4.452 13.555 4.677 1.976.275 6.578 1.025 7.628-1.276.275-.6.325-1.35.125-2.076-.05.251-.175.601-.275.826z" fill="#e58d2e"/><path d="m642.941 415.402c2.976 1.375 6.452-.05 7.403-1.526 1.375-2.101-5.778-15.681-5.778-15.681-2.275-.65-7.552-.25-8.453 1.801-.325.75.425 3.051.601 3.826 1.05 4.852 2.025 9.604 6.227 11.58z" fill="#f2f1eb"/><path d="m650.293 412.449c-.95 1.476-4.427 2.901-7.403 1.526-2.776-1.301-4.151-3.802-5.052-6.778-.475-1.525-1.625-6.202-1.8-7.002-.25.825.55 3.151.725 3.901 1.075 4.877 2.026 9.629 6.252 11.579 2.976 1.376 6.453-.05 7.403-1.525.35-.55.35-1.301.075-2.101-.075.1-.125.3-.2.4z" fill="#e58d2e"/><path d="m669.35 359.283c-.426-3.351.5-5.002-1.301-7.878-2.676-4.201-21.683-14.63-29.161-19.057-.15-.1-7.627 1.201-9.703 4.452-.925 1.475-15.056-1.501-14.931.175-1.575 14.055 2.026 15.856 5.002 19.857l12.305 16.756s1.725 13.755 4.426 26.21c.451 2.876 9.204 1.3 8.804-1.801 0 0 1.2-23.559.625-28.01-.325-2.626-5.377-12.055-9.454-19.357 6.453 3.301 14.581 7.252 19.482 9.953l1.651.901c.35.2.55.575.55.95-.125 11.879 3.376 11.979 8.078 31.862.7 3.001 10.429 1.275 9.854-.851-1.526-7.002-5.527-28.835-6.227-34.162z" fill="#89c2e5"/><path d="m665.949 327.372c.725-.25 1.45-.5 2.125-.875.375-.225.751-.5.926-.9.175-.401.1-.951-.25-1.176-.301-.2-.676-.15-1.001-.075-.6.15-6.402 3.051-6.602 2.451-.125-.375-12.33-15.931-12.33-15.931-.175-5.552.3-13.73-.35-16.331 0 0-8.228 18.082-7.152 19.357.475 4.127 10.453 11.529 13.154 14.105.375.35.651.801.776 1.276.575 2.126 2.451 6.027 4.101 6.227.8.1 1.576-.15 2.326-.4.875-.275 1.751-.55 2.626-.825.25-.075.525-.175.725-.375.2-.201.275-.476.35-.751.325-1.275.4-2.626.2-3.926-.05-.475-.05-1.701.376-1.851z" fill="#fcbe9f"/><path d="m628.335 287.932c-3.302 1-6.703 1.826-9.879 3.151-3.226 1.351-5.802 4.127-6.427 7.578-.651 3.601-.175 8.703 2.351 15.756.875 2.451 1.7 6.627 1.85 9.228.15 2.401.125 3.952-.35 6.728-.225 1.375-.8 3.651-1.4 4.901-3.127 6.503 10.078 9.429 16.831 8.478 6.252-.875 13.079-2.65 12.904-9.003-.2-6.752-.7-13.605.851-20.182.825-3.501 2.226-6.878 2.851-10.429.375-2.126.45-4.277.55-6.427l.2-4.752c.175-4.001-2.951-7.428-6.953-7.653-4.501-.25-9.178 1.326-13.379 2.626z" fill="#3a312b"/><path d="m641.19 285.28c-7.452 0 4.652 14.205 4.652 14.205l-.075 2.076s4.852-.3 4.727-2.576c-.3-5.577-1.851-13.705-9.304-13.705z" fill="#3a312b"/><path d="m636.663 285.682c-3.601 1.375-7.302 2.025-13.23 4.176-.75.275-1.05 1.176-.625 1.826 2.651 4.176 7.078 8.728 11.879 6.902l.126-.05c3.426-1.325 5.302-5.052 4.226-8.553-.6-1.85-1.5-2.776-2.376-4.301z" fill="#fcbe9f"/><path d="m630.561 281.553-5.252 8.928s-.05 1.301 1.575 3.452c2.501 3.326 5.102 3.676 6.753 3.476 1.075-.15 1.951-.9 2.301-1.926l.325-1z" fill="#f3a984"/><path d="m633.337 270.249c-3.902 1.526-6.778 4.302-5.853 11.754.701 5.753 5.552 11.555 9.854 14.681 1.075.775 4.327 1.6 5.377-.876.9-2.1 3.001-8.253 3.051-13.605.025-4.301-.125-8.002-3.401-10.653-2.276-1.801-4.952-2.901-9.028-1.301z" fill="#fcbe9f"/><path d="m634.212 284.831c.05-1.225.726-2.226 1.626-2.676 2.151-1.1 7.378-.225 9.879-2.726.675-2.276-.301-5.827-3.377-8.353-2.225-1.851-5.277-3.026-9.353-1.425-3.901 1.525-6.978 4.601-5.852 12.379.075.575.95 5.077 2.001 5.077.675-.15.175-2.551.275-3.226.175-1.101 1.4-1.701 2.2-.826 1.251 1.351.501 2.626.576 4.552.025.9 1.025 1.876 1.65.95.3-.45.225-.9.25-1.425 0-.025.05-1.1.125-2.301z" fill="#1e266d"/><path d="m670.9 327.121-.225-.6-15.306 5.552.226.6c.1.225.375.375.775.35l11.254-.5c.6-.025 1.25-.4 1.425-.826l1.826-4.201c.05-.125.075-.25.025-.375z" fill="#d2ceca"/><path d="m669.9 326.195-11.254.5c-.6.025-1.251.401-1.426.826l-1.825 4.201c-.175.425.15.75.75.725l11.254-.5c.6-.025 1.25-.4 1.425-.825l1.826-4.202c.175-.425-.15-.75-.75-.725z" fill="#1e266d"/><path d="m655.77 332.22c-.125-.05-.2-.1-.25-.175-.025-.075-.025-.15.025-.25l1.826-4.201c.15-.376.75-.701 1.275-.726l11.254-.5c.125 0 .25 0 .35.05.125.05.201.1.251.175.025.075.025.15-.025.25l-1.826 4.202c-.15.375-.75.7-1.276.725l-11.254.5c-.125 0-.25-.025-.35-.05z" fill="#006da2"/><path d="m662.323 329.547c-.1-.15-.2-.3-.325-.425-.351-.35-.901-.45-1.401-.375-.4.05-2.976 1.275-3.526 1.775-1.976 1.726.325 4.727 2.276 4.952 1.125.125 3.851-.875 4.976-1.225.426-.15.801-.401.951-.851.15-.55-.275-.675-.675-.975-.826-.675-1.526-1.501-2.051-2.451-.075-.15-.15-.3-.225-.425z" fill="#fcbe9f"/><path d="m656.171 324.093c-2.226-.525-6.628-.125-9.654 3.176 0 0-1.25.125-3.576-.325-3.451-.675-6.877-1.476-10.279-2.301-1.4-.325-2.826-.675-4.226-1.075-.45-.125-1.601-.276-1.901-.701.1-5.777-1.751-16.781-4.001-18.056-.851-.475-3.051 0-4.052.45l-6.352 4.051c.475.701 2.976 7.228 5.527 13.18 2.301 5.402 3.101 6.953 4.251 7.728.351.225.751.375 1.126.5 3.651 1.201 7.928 1.026 11.729 1.151 2.151.075 4.327.125 6.477.225 2.151.1 5.377 0 6.603 0 2.976 0 9.028-1.726 11.279-4.002 1.225-1.2-1.201-3.576-2.951-4.001z" fill="#fcbe9f"/><path d="m612.805 312.518c.95 3.451 15.83-.9 14.53-4.777-.425-1.3-4.702-14.68-8.678-16.731 0 0-.075.025-.2.075-4.102 1.501-7.078 5.277-7.378 9.629-.175 2.876.3 6.652 1.726 11.804z" fill="#3a312b"/><path d="m550.857 524.893c-3.476-2.851-10.204-.1-8.603 4.576 1.425 4.127 4.376 8.904 5.827 10.379 2.151 2.201 9.803 2.251 10.479-1.6.5-2.726-2.826-9.354-7.703-13.355z" fill="#7591af" opacity=".9"/><path d="m579.343 524.395c-4.377-1.626-9.704 1.25-6.353 4.426 1.126 1.076 2.501 1.726 3.902 2.701 2.275 1.601 4.551 3.351 5.677 4.077 3.376 2.125 11.004.675 8.853-4.927-.775-1.976-5.902-4.002-12.079-6.277z" fill="#7591af" opacity=".9"/><path d="m555.633 432.81c-.325-2.201-.35-4.477-1.05-6.602-.275-.851-.675-1.676-1.251-2.376-1.85-2.326 3.752-4.777-4.901-8.403-3.202-1.351-8.178.15-12.805 3.826-4.702 3.726-6.227 7.253-6.202 12.48 0 2.1.05 4.001.15 5.752-1.651 1.05-2.651 4.126-2.551 5.302 1.125 12.454 9.778 17.756 12.779 16.881 4.452 2.226 8.579 1.3 11.755-1.751 1.575-1.525 2.776-3.401 3.851-5.302 4.727-8.103 1.326-12.254.225-19.807z" fill="#3a312b"/><path d="m573.29 527.243c.35.85 2.301 1.925 3.151 2.4 5.477 3.002 6.502 5.427 9.879 5.853 1.85.225 4.276-.401 5.177-1.901.35-.6.55-1.05.6-1.501.05-.375.05-1.3.05-1.975-.325-3.327-4.752-1.726-8.403-6.028-1.151-1.35-2.626-2.501-4.302-3.151-3.451-1.35-3.901.425-5.652 2.026-.45.4-.7.825-.775 1.425-.05.826-.025 2.126.275 2.852z" fill="#f2f1eb"/><path d="m543.303 528.646c.125.425.35.825.575 1.225.676 1.201 3.702 6.678 4.602 7.728 3.426 3.977 10.779 3.352 10.754-.575 0-.025-.025-1.175-.05-1.575 0-.101-.05-.176-.1-.251-.45-.6-.525-.65-1.701-2.025-1.075-1.276-2.751-3.327-3.526-4.777-.925-1.751-1.05-2.826-2.351-4.302-.325-.375-.7-.725-1.125-.95-1.101-.625-2.476-.525-3.652-.025-1.2.5-2.275 1.401-3.176 2.326-.4.4-.375.625-.375 1.175 0 .676-.075 1.326.125 2.026z" fill="#f2f1eb"/><path d="m583.769 522.866c-1.15-1.35-2.626-2.501-4.302-3.151l-6.327 2.426c0 .05-.1.975-.1 1.025-.1.8-.075 2.101.225 2.826.35.85 2.301 1.926 3.151 2.401 5.477 3.001 6.503 5.452 9.879 5.852 1.851.225 4.377-.325 5.177-1.901 2.676-5.176-3.276-4.276-7.703-9.478z" fill="#b6b0be"/><path d="m543.253 527.068c.125.425.35.825.575 1.225.676 1.201 3.702 6.678 4.602 7.728 4.352 5.052 15.006 2.701 8.903-4.426-1.075-1.276-2.751-3.327-3.526-4.777-.925-1.751-1.05-2.826-2.351-4.302-.325-.375-.7-.725-1.125-.95-1.101-.625-2.501-.525-3.652-.025-1.2.5-2.275 1.4-3.176 2.326-.4.4-.375.625-.375 1.175 0 .675-.075 1.326.125 2.026z" fill="#b6b0be"/><path d="m583.094 516.89c-.226-1.876.175-5.277-1.176-8.728-.825-2.101-1.6-13.63-1.45-15.931.4-5.602-1.051-2.751-1.751-15.331-.45-7.903-1.926-15.755-4.377-23.258-.75-2.276-3.076-3.651-5.427-3.176l-19.857 4.176c-.625.125-1.175.475-1.55.976-1.926 2.626-2.726 8.002-2.701 11.154.075 8.128 1.275 13.229-.701 26.559-.3 2.026.175 3.627-.25 5.927-.275 1.401-.725 3.102-.75 4.527-.025 2.551 1.15 4.702.4 7.128-.35 1.125-.15 2.476-.4 3.651-.5 2.351.875 4.227.05 6.477-.6 1.676-.85 3.477.025 4.402 2.776 2.926 10.204 2.701 10.604.875.4-1.525-.075-2.901 0-5.302.05-2.175.85-3.926.6-6.077-.15-1.225.25-2.726.275-3.951.025-1.426.55-3.702.876-5.102.675-2.901.6-4.377.975-7.128.575-4.151 2.976-7.828 4.051-11.879.501-1.851 2.401-6.577 2.701-9.403.05-.401.601-.451.701-.05.425 1.725 1.05 4.401 1.675 7.702.475 2.476 1.201 5.252 1.401 7.753.325 3.752 1.2 6.528 2.025 9.554.176.6.075 3.576.426 6.027.35 2.451 1.15 4.376 1.25 5.927.175 2.226.95 3.426 1.276 5.502.125.825.1 2.276.325 3.076.825 2.926 12.229 2.476 11.829-.775-.125-1.451-.825-3.301-1.075-5.302z" fill="#3a312b"/><path d="m542.078 426.232c.45 2.726 2.476 5.752 4.276 8.828 3.177 5.402 4.152 13.455.451 20.857-2.176 4.377 15.03 10.904 25.834 3.026.475-.35 2.326-1.325 2.251-4.551 0-.4-.95-5.627-1.051-6.453-.95-8.903.951-11.929 1.676-20.232.575-6.627 1.476-10.329.475-13.205-.875-2.526-3.101-4.401-5.727-4.726-2.951-.376-6.152.125-8.853.725-5.677 1.275-13.405 3.276-17.406 7.753-2.976 3.326-2.401 4.976-1.926 7.978z" fill="#d64543"/><path d="m549.631 446.168c-.175.15-.3 1.826-.15 1.776 1.776-.625 6.078-4.077 6.478-8.903.125-1.576-1.626-.751-1.851.3-.175.9-.05 3.701-4.477 6.827z" fill="#3a312b"/><path d="m556.758 429.736c-1.475-5.027-2.876-11.78-9.603-14.13-.475-.251-4.327 2.751-4.077 3.751 2.726-1.05 10.154 5.502 10.654 17.156.05 1.151-.7 4.002 1.651 3.076 2.776-1.1 2.176-7.102 1.375-9.853z" fill="#3a312b"/><path d="m572.414 438.86c-.125-.325-.925-.65-1.275-.725-.651-.125-1.676.3-2.551.35-.701.05-.575-.625-.2-1.226.6-.975 1.15-2.175.775-3.426-.3-.95-1.175-1.125-1.501-.275-.075.225-.1.45-.175.675-.225.701-.75 1.001-1.175 1.551-.3.375-.475.925-.725 1.35-.526.976-1.676 2.601-1.676 2.601l-1.125 1.726-12.38 1.701s.65-9.204.6-10.804l-9.253-1.201s-.625 14.456-.6 16.231c.1 4.702 5.202 3.451 22.683-.725 1.526.15 3.726.35 5.452.075.925-.15 1.976-.475 2.626-1.201.5-.575.525-1.325.625-2.05.125-.801.2-1.601.2-2.401 0-.85.025-1.426-.325-2.226z" fill="#ffc197"/><path d="m548.98 423.429c-1.05-.925-3.401-2.201-5.002-2.851-.8-.325-1.75.075-2.05.875-.276.676-.476 1.351-.626 1.976-1.15 4.677-1.375 9.254-1.775 14.03-.3 3.777 12.729 4.327 12.829 1.401.125-3.426.075-7.153-.175-10.779-.825-1.726-1.775-3.376-3.201-4.652z" fill="#d64543"/><path d="m569.063 423.857c4.651-1.2 11.979-5.327 15.805-8.253 3.027-2.301-2.225-12.079-5.677-10.779-4.676 1.776-12.679 5.352-15.755 7.253-2.326 1.45-1.226 4.927-1.276 6.102-.225 4.602 3.601 6.527 6.903 5.677z" fill="#d64543"/><path d="m566.013 415.377c-.626-2.751-.476-5.653-.726-8.479-.025-.2-.05-.425-.175-.6-.125-.15-.325-.225-.525-.3-2.626-.925-5.252-1.826-7.878-2.751l-4.476 1.251c2.726 2.726 2.375 7.927 2.125 9.953-.075.55.1 1.076.526 1.451 1.95 1.75 4.201 3.001 5.902 3.101 3.651.25 5.727-1.451 5.227-3.626z" fill="#f7ad7c"/><path d="m548.23 397.246c.676 2.576 1.376 5.227 2.952 7.378.625.85 1.325 1.65 2.125 2.375 5.452 5.027 13.88 5.728 14.706 2.651.4-1.5-.425-8.828-.826-10.879-.575-2.926-1.6-5.852-3.576-8.077-2.001-2.226-5.077-3.627-8.003-3.002-4.001.826-8.503 5.252-7.378 9.554z" fill="#ffc197"/><path d="m549.831 402.346s.425-.775 1.05-.425c.926.55 1.701.875 2.101 1.45.975 1.351 2.276.951.95-1.775-.975-2.001-1.175-2.251.351-4.777 1.425-2.351 7.227-5.752 9.653-5.752-1.425-3.852-5.777-4.227-8.403-3.651-3.976.85-8.678 5.251-7.553 10.103.25 1.226 1.276 3.902 1.851 4.827z" fill="#1e266d"/><path d="m549.756 401.672c-.976 1.675 4.351 7.427 4.501 4.301.125-2.376-3.676-5.677-4.501-4.301z" fill="#ffc197"/><path d="m584.755 415.408c1.21-.506 1.194-3.303-.037-6.246-1.231-2.944-3.21-4.92-4.421-4.414-1.211.507-1.194 3.303.037 6.247s3.21 4.92 4.421 4.413z" fill="#8045bf"/><path d="m606.576 389.119c-.05-.2-.075-.4-.125-.576-.175-.65-.425-1.3-.875-1.825s-1.051-.926-1.726-.976c-.925-.05-1.75.501-2.426 1.126-.4.375-.75.8-1 1.275-.4.776.125 1.701-.125 2.551-1.676 5.877-10.204 8.003-17.006 13.005 0 0-2.976 1.025-3.227 1.175-1.85 1.251.526 7.878 2.051 8.904 1.101-.701 5.352-3.627 8.328-5.953 4.552-3.551 8.703-7.927 9.604-8.753.575-.525 2.476-2.025 4.101-3.351 1.901-1.525 2.901-3.976 2.501-6.377-.05-.075-.05-.15-.075-.225z" fill="#ffc197"/><path d="m598.799 379.839-.725.075c-.1 0-.225.05-.326.1l-4.026 2.276c-.55.3-.775 1.151-.5 1.876l4.426 11.579c.226.575.701.901 1.151.85l.725-.075z" fill="#c0b9c8"/><path d="m604.376 392.294-4.427-11.579c-.275-.725-.95-1.05-1.475-.75l-4.027 2.276c-.55.3-.775 1.15-.5 1.875l4.427 11.58c.275.725.95 1.05 1.5.75l4.027-2.276c.525-.325.75-1.175.475-1.876z" fill="#fff"/><path d="m601.775 385.466c-1.7.25-3.576 1.176-5.001 1.976-.501.275-1.026.6-1.276 1.125-.275.5-.2 1.251.3 1.526.15.1.35.125.5.225.451.275.501.925.826 1.35.25.351.625.551.95.826.6.5 1.026 1.225 1.726 1.525.625.275 1.325.15 1.975-.075.626-.225 1.226-.575 1.851-.775 1.226-.4 1.776-.525 2.126-1.826.3-1.075.35-2.226.175-3.326-.075-.375-.175-.775-.35-1.125-.55-1.051-1.851-1.551-3.051-1.501-.25 0-.5.025-.751.075z" fill="#ffc197"/><path d="m466.576 419.158-14.005 8.103 13.53 7.803h10.079z" fill="#7591af" opacity=".2"/><path d="m476.18 419.731-14.505-8.378 14.505-8.378 14.505 8.378z" fill="#719dff"/><path d="m476.18 435.061-14.506-8.378v-15.33l14.506 8.378z" fill="#006da2"/><path d="m490.685 426.683-14.506 8.378v-15.33l14.506-8.378z" fill="#006da2"/><path d="m505.716 419.178 1.976 1.15c-.976-.575-1.576-1.776-1.576-3.476l-.025-10.604c0-3.426 2.401-7.628 5.402-9.353l26.11-15.081c1.5-.875 2.876-.95 3.851-.375l-1.976-1.151c-.975-.575-2.351-.5-3.851.376l-26.11 15.08c-2.976 1.726-5.402 5.902-5.402 9.354l.025 10.603c0 1.701.601 2.901 1.576 3.477z" fill="#f4f4f4"/><path d="m511.543 419.954 19.182-11.079 6.928 4.126v-8.127c2.976-1.726 5.402-5.903 5.402-9.354l-.025-10.604c0-3.426-2.451-4.827-5.427-3.101l-26.11 15.081c-2.976 1.725-5.402 5.902-5.402 9.353l.025 10.604c.025 3.451 2.451 4.802 5.427 3.101z" fill="#006da2"/><path d="m364.114 530.346 1.976 1.151c-.976-.576-1.576-1.776-1.576-3.477l-.025-10.604c0-3.426 2.401-7.627 5.402-9.353l26.11-15.081c1.5-.875 2.876-.95 3.851-.375l-1.976-1.15c-.975-.575-2.351-.5-3.851.375l-26.11 15.081c-2.976 1.725-5.402 5.902-5.402 9.353l.025 10.604c0 1.7.601 2.901 1.576 3.476z" fill="#f4f4f4"/><path d="m369.941 531.123 19.182-11.079 6.928 4.126v-8.128c2.976-1.725 5.402-5.902 5.402-9.353l-.025-10.604c0-3.426-2.451-4.827-5.427-3.101l-26.11 15.081c-2.976 1.725-5.402 5.902-5.402 9.353l.025 10.604c0 3.451 2.451 4.827 5.427 3.101z" fill="#006da2"/><path d="m669.625 312.414 1.976 1.15-.025-8.103-1.976-1.15z" fill="#eaeaea"/><path d="m665.724 304.712 1.976 1.15c-.976-.575-1.576-1.75-1.576-3.476l-.025-10.604c0-3.451 2.401-7.628 5.402-9.353l26.11-15.081c1.5-.875 2.876-.95 3.851-.375l-1.976-1.15c-.975-.576-2.35-.5-3.851.375l-26.11 15.08c-2.976 1.726-5.401 5.902-5.401 9.354l.024 10.604c0 1.7.601 2.901 1.576 3.476z" fill="#eaeaea"/><path d="m671.576 305.465.025 8.103 6.902-12.079 19.182-11.079c3.001-1.726 5.402-5.902 5.402-9.354l-.025-10.604c0-3.451-2.426-4.826-5.427-3.101l-26.109 15.081c-2.977 1.725-5.402 5.902-5.402 9.353l.025 10.604c0 3.426 2.425 4.827 5.427 3.076z" fill="#006da2"/></svg>