<svg fill="none" height="115" viewBox="0 0 153 115" width="153" xmlns="http://www.w3.org/2000/svg" xmlns:xlink="http://www.w3.org/1999/xlink"><linearGradient id="a"><stop offset="0" stop-color="#ffc444"/><stop offset=".9964" stop-color="#f36f56"/></linearGradient><linearGradient id="b" gradientUnits="userSpaceOnUse" x1="15.0113" x2="46.9325" xlink:href="#a" y1="38.1855" y2="38.1855"/><linearGradient id="c"><stop offset="0" stop-color="#006da2"/><stop offset=".953125" stop-color="#29aaf3"/></linearGradient><linearGradient id="d" gradientUnits="userSpaceOnUse" x1="44.4778" x2="23.8472" xlink:href="#c" y1="-8.49153" y2="75.7777"/><linearGradient id="e"><stop offset="0" stop-color="#ff9085"/><stop offset="1" stop-color="#fb6fbb"/></linearGradient><linearGradient id="f" gradientUnits="userSpaceOnUse" x1="36.9065" x2="9.13599" xlink:href="#e" y1="51.2928" y2="74.1043"/><linearGradient id="g"><stop offset="0" stop-color="#444b8c"/><stop offset=".9964" stop-color="#26264f"/></linearGradient><linearGradient id="h" gradientUnits="userSpaceOnUse" x1="72.472" x2="86.4212" xlink:href="#g" y1="4.0448" y2="11.8621"/><linearGradient id="i" gradientUnits="userSpaceOnUse" x1="70.0825" x2="70.4299" xlink:href="#e" y1="6.24504" y2="11.5433"/><linearGradient id="j" gradientUnits="userSpaceOnUse" x1="71.3453" x2="71.3918" xlink:href="#e" y1="9.53746" y2="10.2465"/><linearGradient id="k" gradientUnits="userSpaceOnUse" x1="72.436" x2="72.6748" xlink:href="#e" y1="7.40888" y2="11.0509"/><linearGradient id="l" gradientUnits="userSpaceOnUse" x1="73.6387" x2="73.7447" xlink:href="#e" y1="8.91271" y2="10.5296"/><linearGradient id="m" gradientUnits="userSpaceOnUse" x1="74.7313" x2="74.9942" xlink:href="#e" y1="7.11654" y2="11.1249"/><linearGradient id="n" gradientUnits="userSpaceOnUse" x1="75.9096" x2="76.0922" xlink:href="#e" y1="8.04486" y2="10.8301"/><linearGradient id="o" gradientUnits="userSpaceOnUse" x1="77.002" x2="77.3148" xlink:href="#e" y1="6.49746" y2="11.268"/><linearGradient id="p" gradientUnits="userSpaceOnUse" x1="78.1292" x2="78.4732" xlink:href="#e" y1="6.10057" y2="11.3461"/><linearGradient id="q" gradientUnits="userSpaceOnUse" x1="79.3377" x2="79.5121" xlink:href="#e" y1="8.15175" y2="10.811"/><linearGradient id="r" gradientUnits="userSpaceOnUse" x1="80.3855" x2="80.7605" xlink:href="#e" y1="5.66288" y2="11.3816"/><linearGradient id="s" gradientUnits="userSpaceOnUse" x1="81.5399" x2="81.8596" xlink:href="#e" y1="6.32737" y2="11.2028"/><linearGradient id="t" gradientUnits="userSpaceOnUse" x1="82.7729" x2="82.8624" xlink:href="#e" y1="9.24617" y2="10.61"/><linearGradient id="u" gradientUnits="userSpaceOnUse" x1="83.8464" x2="84.0492" xlink:href="#e" y1="7.79524" y2="10.8886"/><linearGradient id="v" gradientUnits="userSpaceOnUse" x1="84.9269" x2="85.2166" xlink:href="#e" y1="6.65456" y2="11.0715"/><linearGradient id="w" gradientUnits="userSpaceOnUse" x1="86.0832" x2="86.2955" xlink:href="#e" y1="7.66465" y2="10.9027"/><linearGradient id="x" gradientUnits="userSpaceOnUse" x1="87.1419" x2="87.4679" xlink:href="#e" y1="6.12959" y2="11.1017"/><linearGradient id="y" gradientUnits="userSpaceOnUse" x1="88.2352" x2="88.5965" xlink:href="#e" y1="5.62472" y2="11.1348"/><linearGradient id="z" gradientUnits="userSpaceOnUse" x1="72.508" x2="86.3831" xlink:href="#g" y1="13.0826" y2="20.8583"/><linearGradient id="A" gradientUnits="userSpaceOnUse" x1="70.0829" x2="70.4297" xlink:href="#e" y1="15.3661" y2="20.6547"/><linearGradient id="B" gradientUnits="userSpaceOnUse" x1="71.3458" x2="71.3916" xlink:href="#e" y1="18.6459" y2="19.3454"/><linearGradient id="C" gradientUnits="userSpaceOnUse" x1="72.4364" x2="72.6746" xlink:href="#e" y1="16.5051" y2="20.1375"/><linearGradient id="D" gradientUnits="userSpaceOnUse" x1="73.639" x2="73.7444" xlink:href="#e" y1="17.9956" y2="19.603"/><linearGradient id="E" gradientUnits="userSpaceOnUse" x1="74.7316" x2="74.9938" xlink:href="#e" y1="16.1872" y2="20.186"/><linearGradient id="F" gradientUnits="userSpaceOnUse" x1="75.91" x2="76.092" xlink:href="#e" y1="17.1032" y2="19.879"/><linearGradient id="G" gradientUnits="userSpaceOnUse" x1="77.0023" x2="77.3145" xlink:href="#e" y1="15.5436" y2="20.3047"/><linearGradient id="H" gradientUnits="userSpaceOnUse" x1="78.1296" x2="78.473" xlink:href="#e" y1="15.1344" y2="20.3705"/><linearGradient id="I" gradientUnits="userSpaceOnUse" x1="79.338" x2="79.5117" xlink:href="#e" y1="17.1728" y2="19.8227"/><linearGradient id="J" gradientUnits="userSpaceOnUse" x1="80.3858" x2="80.7602" xlink:href="#e" y1="14.671" y2="20.3804"/><linearGradient id="K" gradientUnits="userSpaceOnUse" x1="81.5403" x2="81.8594" xlink:href="#e" y1="15.3227" y2="20.1887"/><linearGradient id="L" gradientUnits="userSpaceOnUse" x1="82.7733" x2="82.8621" xlink:href="#e" y1="18.2286" y2="19.5832"/><linearGradient id="M" gradientUnits="userSpaceOnUse" x1="83.8467" x2="84.0489" xlink:href="#e" y1="16.766" y2="19.8502"/><linearGradient id="N" gradientUnits="userSpaceOnUse" x1="84.9274" x2="85.2164" xlink:href="#e" y1="15.6131" y2="20.0209"/><linearGradient id="O" gradientUnits="userSpaceOnUse" x1="86.0835" x2="86.2953" xlink:href="#e" y1="16.611" y2="19.8399"/><linearGradient id="P" gradientUnits="userSpaceOnUse" x1="87.1422" x2="87.4677" xlink:href="#e" y1="15.0637" y2="20.0266"/><linearGradient id="Q" gradientUnits="userSpaceOnUse" x1="88.2357" x2="88.5964" xlink:href="#e" y1="14.5459" y2="20.0468"/><linearGradient id="R" gradientUnits="userSpaceOnUse" x1="72.544" x2="86.3449" xlink:href="#g" y1="22.1204" y2="29.8545"/><linearGradient id="S" gradientUnits="userSpaceOnUse" x1="70.0829" x2="70.429" xlink:href="#e" y1="24.4881" y2="29.7672"/><linearGradient id="T" gradientUnits="userSpaceOnUse" x1="71.3458" x2="71.391" xlink:href="#e" y1="27.7551" y2="28.4451"/><linearGradient id="U" gradientUnits="userSpaceOnUse" x1="72.4364" x2="72.674" xlink:href="#e" y1="25.6008" y2="29.2237"/><linearGradient id="V" gradientUnits="userSpaceOnUse" x1="73.6391" x2="73.7439" xlink:href="#e" y1="27.079" y2="28.6769"/><linearGradient id="W" gradientUnits="userSpaceOnUse" x1="74.7318" x2="74.9934" xlink:href="#e" y1="25.2578" y2="29.2473"/><linearGradient id="X" gradientUnits="userSpaceOnUse" x1="75.91" x2="76.0914" xlink:href="#e" y1="26.1611" y2="28.9275"/><linearGradient id="Y" gradientUnits="userSpaceOnUse" x1="77.0025" x2="77.3141" xlink:href="#e" y1="24.5891" y2="29.3408"/><linearGradient id="Z" gradientUnits="userSpaceOnUse" x1="78.1297" x2="78.4725" xlink:href="#e" y1="24.1672" y2="29.3939"/><linearGradient id="aa" gradientUnits="userSpaceOnUse" x1="79.3382" x2="79.5114" xlink:href="#e" y1="26.1927" y2="28.8332"/><linearGradient id="ab" gradientUnits="userSpaceOnUse" x1="80.386" x2="80.7598" xlink:href="#e" y1="23.6788" y2="29.3789"/><linearGradient id="ac" gradientUnits="userSpaceOnUse" x1="81.5405" x2="81.859" xlink:href="#e" y1="24.3188" y2="29.1755"/><linearGradient id="ad" gradientUnits="userSpaceOnUse" x1="82.7735" x2="82.8617" xlink:href="#e" y1="27.2124" y2="28.5577"/><linearGradient id="ae" gradientUnits="userSpaceOnUse" x1="83.8469" x2="84.0485" xlink:href="#e" y1="25.737" y2="28.8119"/><linearGradient id="af" gradientUnits="userSpaceOnUse" x1="84.9275" x2="85.2159" xlink:href="#e" y1="24.5712" y2="28.9698"/><linearGradient id="ag" gradientUnits="userSpaceOnUse" x1="86.0838" x2="86.2949" xlink:href="#e" y1="25.5569" y2="28.7765"/><linearGradient id="ah" gradientUnits="userSpaceOnUse" x1="87.1425" x2="87.4673" xlink:href="#e" y1="23.9972" y2="28.951"/><linearGradient id="ai" gradientUnits="userSpaceOnUse" x1="88.2358" x2="88.596" xlink:href="#e" y1="23.4679" y2="28.9597"/><linearGradient id="aj" gradientUnits="userSpaceOnUse" x1="72.5799" x2="86.3066" xlink:href="#g" y1="31.1581" y2="38.8508"/><linearGradient id="ak" gradientUnits="userSpaceOnUse" x1="70.0833" x2="70.4288" xlink:href="#e" y1="33.6071" y2="38.8767"/><linearGradient id="al" gradientUnits="userSpaceOnUse" x1="71.3461" x2="71.3908" xlink:href="#e" y1="36.8622" y2="37.5426"/><linearGradient id="am" gradientUnits="userSpaceOnUse" x1="72.4368" x2="72.6738" xlink:href="#e" y1="34.6951" y2="38.3086"/><linearGradient id="an" gradientUnits="userSpaceOnUse" x1="73.6394" x2="73.7435" xlink:href="#e" y1="36.1605" y2="37.749"/><linearGradient id="ao" gradientUnits="userSpaceOnUse" x1="74.732" x2="74.993" xlink:href="#e" y1="34.3268" y2="38.3068"/><linearGradient id="ap" gradientUnits="userSpaceOnUse" x1="75.9104" x2="76.0912" xlink:href="#e" y1="35.2173" y2="37.9743"/><linearGradient id="aq" gradientUnits="userSpaceOnUse" x1="77.0028" x2="77.3138" xlink:href="#e" y1="33.633" y2="38.3754"/><linearGradient id="ar" gradientUnits="userSpaceOnUse" x1="78.1302" x2="78.4723" xlink:href="#e" y1="33.1982" y2="38.4157"/><linearGradient id="as" gradientUnits="userSpaceOnUse" x1="79.3385" x2="79.511" xlink:href="#e" y1="35.2117" y2="37.843"/><linearGradient id="at" gradientUnits="userSpaceOnUse" x1="80.3864" x2="80.7595" xlink:href="#e" y1="32.6853" y2="38.3761"/><linearGradient id="au" gradientUnits="userSpaceOnUse" x1="81.5408" x2="81.8587" xlink:href="#e" y1="33.3125" y2="38.16"/><linearGradient id="av" gradientUnits="userSpaceOnUse" x1="82.7738" x2="82.8614" xlink:href="#e" y1="36.1937" y2="37.5297"/><linearGradient id="aw" gradientUnits="userSpaceOnUse" x1="83.8472" x2="84.0482" xlink:href="#e" y1="34.7061" y2="37.7718"/><linearGradient id="ax" gradientUnits="userSpaceOnUse" x1="84.9279" x2="85.2158" xlink:href="#e" y1="33.5282" y2="37.9176"/><linearGradient id="ay" gradientUnits="userSpaceOnUse" x1="86.0841" x2="86.2946" xlink:href="#e" y1="34.5015" y2="37.712"/><linearGradient id="az" gradientUnits="userSpaceOnUse" x1="87.1428" x2="87.467" xlink:href="#e" y1="32.9292" y2="37.8739"/><linearGradient id="aA" gradientUnits="userSpaceOnUse" x1="88.2363" x2="88.5959" xlink:href="#e" y1="32.3876" y2="37.8702"/><linearGradient id="aB" gradientUnits="userSpaceOnUse" x1="72.6159" x2="86.2684" xlink:href="#g" y1="40.1964" y2="47.8474"/><linearGradient id="aC" gradientUnits="userSpaceOnUse" x1="70.0835" x2="70.4284" xlink:href="#e" y1="42.7297" y2="47.9897"/><linearGradient id="aD" gradientUnits="userSpaceOnUse" x1="71.3464" x2="71.3904" xlink:href="#e" y1="45.9714" y2="46.6423"/><linearGradient id="aE" gradientUnits="userSpaceOnUse" x1="72.437" x2="72.6734" xlink:href="#e" y1="43.7915" y2="47.3955"/><linearGradient id="aF" gradientUnits="userSpaceOnUse" x1="73.6396" x2="73.7432" xlink:href="#e" y1="45.2447" y2="46.8237"/><linearGradient id="aG" gradientUnits="userSpaceOnUse" x1="74.7323" x2="74.9927" xlink:href="#e" y1="43.3975" y2="47.368"/><linearGradient id="aH" gradientUnits="userSpaceOnUse" x1="75.9108" x2="76.0909" xlink:href="#e" y1="44.2763" y2="47.0239"/><linearGradient id="aI" gradientUnits="userSpaceOnUse" x1="77.003" x2="77.3134" xlink:href="#e" y1="42.6787" y2="47.4117"/><linearGradient id="aJ" gradientUnits="userSpaceOnUse" x1="78.1304" x2="78.4719" xlink:href="#e" y1="42.2314" y2="47.4394"/><linearGradient id="aK" gradientUnits="userSpaceOnUse" x1="79.3388" x2="79.5107" xlink:href="#e" y1="44.2322" y2="46.8542"/><linearGradient id="aL" gradientUnits="userSpaceOnUse" x1="80.3866" x2="80.7592" xlink:href="#e" y1="41.6936" y2="47.3751"/><linearGradient id="aM" gradientUnits="userSpaceOnUse" x1="81.5411" x2="81.8583" xlink:href="#e" y1="42.3085" y2="47.1468"/><linearGradient id="aN" gradientUnits="userSpaceOnUse" x1="82.7741" x2="82.8611" xlink:href="#e" y1="45.1774" y2="46.5041"/><linearGradient id="aO" gradientUnits="userSpaceOnUse" x1="83.8476" x2="84.048" xlink:href="#e" y1="43.6775" y2="46.734"/><linearGradient id="aP" gradientUnits="userSpaceOnUse" x1="84.9282" x2="85.2154" xlink:href="#e" y1="42.4871" y2="46.8672"/><linearGradient id="aQ" gradientUnits="userSpaceOnUse" x1="86.0844" x2="86.2944" xlink:href="#e" y1="43.4484" y2="46.6496"/><linearGradient id="aR" gradientUnits="userSpaceOnUse" x1="87.1432" x2="87.4668" xlink:href="#e" y1="41.8638" y2="46.7993"/><linearGradient id="aS" gradientUnits="userSpaceOnUse" x1="88.2366" x2="88.5956" xlink:href="#e" y1="41.3096" y2="46.7831"/><linearGradient id="aT" gradientUnits="userSpaceOnUse" x1="72.6518" x2="86.2302" xlink:href="#g" y1="49.2341" y2="56.8436"/><linearGradient id="aU" gradientUnits="userSpaceOnUse" x1="70.0837" x2="70.428" xlink:href="#e" y1="51.85" y2="57.1003"/><linearGradient id="aV" gradientUnits="userSpaceOnUse" x1="71.3466" x2="71.39" xlink:href="#e" y1="55.0794" y2="55.7408"/><linearGradient id="aW" gradientUnits="userSpaceOnUse" x1="72.4373" x2="72.673" xlink:href="#e" y1="52.8872" y2="56.4817"/><linearGradient id="aX" gradientUnits="userSpaceOnUse" x1="73.6398" x2="73.7428" xlink:href="#e" y1="54.3269" y2="55.8964"/><linearGradient id="aY" gradientUnits="userSpaceOnUse" x1="74.7325" x2="74.9923" xlink:href="#e" y1="52.4674" y2="56.4286"/><linearGradient id="aZ" gradientUnits="userSpaceOnUse" x1="75.9109" x2="76.0905" xlink:href="#e" y1="53.3334" y2="56.0716"/><linearGradient id="a0" gradientUnits="userSpaceOnUse" x1="77.0033" x2="77.313" xlink:href="#e" y1="51.7237" y2="56.4472"/><linearGradient id="a1" gradientUnits="userSpaceOnUse" x1="78.1307" x2="78.4716" xlink:href="#e" y1="51.264" y2="56.4627"/><linearGradient id="a2" gradientUnits="userSpaceOnUse" x1="79.3389" x2="79.5103" xlink:href="#e" y1="53.2519" y2="55.8645"/><linearGradient id="a3" gradientUnits="userSpaceOnUse" x1="80.3869" x2="80.7588" xlink:href="#e" y1="50.7006" y2="56.3726"/><linearGradient id="a4" gradientUnits="userSpaceOnUse" x1="81.5414" x2="81.858" xlink:href="#e" y1="51.3031" y2="56.132"/><linearGradient id="a5" gradientUnits="userSpaceOnUse" x1="82.7743" x2="82.8607" xlink:href="#e" y1="54.1598" y2="55.4773"/><linearGradient id="a6" gradientUnits="userSpaceOnUse" x1="83.8478" x2="84.0476" xlink:href="#e" y1="52.6476" y2="55.6948"/><linearGradient id="a7" gradientUnits="userSpaceOnUse" x1="84.9285" x2="85.2151" xlink:href="#e" y1="51.4449" y2="55.8158"/><linearGradient id="a8" gradientUnits="userSpaceOnUse" x1="86.0847" x2="86.294" xlink:href="#e" y1="52.3939" y2="55.586"/><linearGradient id="a9" gradientUnits="userSpaceOnUse" x1="87.1434" x2="87.4665" xlink:href="#e" y1="50.7971" y2="55.7234"/><linearGradient id="ba" gradientUnits="userSpaceOnUse" x1="88.237" x2="88.5953" xlink:href="#e" y1="50.2306" y2="55.695"/><linearGradient id="bb" gradientUnits="userSpaceOnUse" x1="72.6878" x2="86.192" xlink:href="#g" y1="58.2725" y2="65.8404"/><linearGradient id="bc" gradientUnits="userSpaceOnUse" x1="70.0839" x2="70.4276" xlink:href="#e" y1="60.9723" y2="66.2132"/><linearGradient id="bd" gradientUnits="userSpaceOnUse" x1="71.3469" x2="71.3896" xlink:href="#e" y1="64.1883" y2="64.8402"/><linearGradient id="be" gradientUnits="userSpaceOnUse" x1="72.4375" x2="72.6726" xlink:href="#e" y1="61.9839" y2="65.5689"/><linearGradient id="bf" gradientUnits="userSpaceOnUse" x1="73.6401" x2="73.7424" xlink:href="#e" y1="63.4108" y2="64.9709"/><linearGradient id="bg" gradientUnits="userSpaceOnUse" x1="74.7328" x2="74.9919" xlink:href="#e" y1="61.5391" y2="65.4908"/><linearGradient id="bh" gradientUnits="userSpaceOnUse" x1="75.9112" x2="76.0902" xlink:href="#e" y1="62.3916" y2="65.1204"/><linearGradient id="bi" gradientUnits="userSpaceOnUse" x1="77.0036" x2="77.3127" xlink:href="#e" y1="60.7695" y2="65.4837"/><linearGradient id="bj" gradientUnits="userSpaceOnUse" x1="78.1309" x2="78.4712" xlink:href="#e" y1="60.2976" y2="65.4869"/><linearGradient id="bk" gradientUnits="userSpaceOnUse" x1="79.3393" x2="79.51" xlink:href="#e" y1="62.2733" y2="64.8766"/><linearGradient id="bl" gradientUnits="userSpaceOnUse" x1="80.3872" x2="80.7585" xlink:href="#e" y1="59.7097" y2="65.3726"/><linearGradient id="bm" gradientUnits="userSpaceOnUse" x1="81.5416" x2="81.8577" xlink:href="#e" y1="60.2994" y2="65.119"/><linearGradient id="bn" gradientUnits="userSpaceOnUse" x1="82.7747" x2="82.8605" xlink:href="#e" y1="63.1437" y2="64.4519"/><linearGradient id="bo" gradientUnits="userSpaceOnUse" x1="83.8481" x2="84.0473" xlink:href="#e" y1="61.6187" y2="64.6567"/><linearGradient id="bp" gradientUnits="userSpaceOnUse" x1="84.9288" x2="85.2149" xlink:href="#e" y1="60.4044" y2="64.7661"/><linearGradient id="bq" gradientUnits="userSpaceOnUse" x1="86.085" x2="86.2937" xlink:href="#e" y1="61.3404" y2="64.5234"/><linearGradient id="br" gradientUnits="userSpaceOnUse" x1="87.1438" x2="87.4662" xlink:href="#e" y1="59.7314" y2="64.6485"/><linearGradient id="bs" gradientUnits="userSpaceOnUse" x1="88.2372" x2="88.595" xlink:href="#e" y1="59.1532" y2="64.6085"/><linearGradient id="bt" gradientUnits="userSpaceOnUse" x1="72.7237" x2="86.1538" xlink:href="#g" y1="67.3107" y2="74.837"/><linearGradient id="bu" gradientUnits="userSpaceOnUse" x1="70.0839" x2="70.4269" xlink:href="#e" y1="70.0939" y2="75.3252"/><linearGradient id="bv" gradientUnits="userSpaceOnUse" x1="71.3468" x2="71.3889" xlink:href="#e" y1="73.2971" y2="73.9394"/><linearGradient id="bw" gradientUnits="userSpaceOnUse" x1="72.4376" x2="72.672" xlink:href="#e" y1="71.0798" y2="74.6552"/><linearGradient id="bx" gradientUnits="userSpaceOnUse" x1="73.6403" x2="73.7419" xlink:href="#e" y1="72.4937" y2="74.0443"/><linearGradient id="by" gradientUnits="userSpaceOnUse" x1="74.733" x2="74.9915" xlink:href="#e" y1="70.6098" y2="74.552"/><linearGradient id="bz" gradientUnits="userSpaceOnUse" x1="75.9112" x2="76.0895" xlink:href="#e" y1="71.4495" y2="74.1688"/><linearGradient id="bA" gradientUnits="userSpaceOnUse" x1="77.0037" x2="77.3122" xlink:href="#e" y1="69.8146" y2="74.5194"/><linearGradient id="bB" gradientUnits="userSpaceOnUse" x1="78.131" x2="78.4707" xlink:href="#e" y1="69.3304" y2="74.5104"/><linearGradient id="bC" gradientUnits="userSpaceOnUse" x1="79.3395" x2="79.5096" xlink:href="#e" y1="71.2938" y2="73.8877"/><linearGradient id="bD" gradientUnits="userSpaceOnUse" x1="80.3874" x2="80.7581" xlink:href="#e" y1="68.7174" y2="74.3708"/><linearGradient id="bE" gradientUnits="userSpaceOnUse" x1="81.5419" x2="81.8573" xlink:href="#e" y1="69.2948" y2="74.1052"/><linearGradient id="bF" gradientUnits="userSpaceOnUse" x1="82.7749" x2="82.8601" xlink:href="#e" y1="72.1263" y2="73.4252"/><linearGradient id="bG" gradientUnits="userSpaceOnUse" x1="83.8483" x2="84.0469" xlink:href="#e" y1="70.5891" y2="73.6178"/><linearGradient id="bH" gradientUnits="userSpaceOnUse" x1="84.929" x2="85.2144" xlink:href="#e" y1="69.3624" y2="73.7149"/><linearGradient id="bI" gradientUnits="userSpaceOnUse" x1="86.0852" x2="86.2934" xlink:href="#e" y1="70.2869" y2="73.4606"/><linearGradient id="bJ" gradientUnits="userSpaceOnUse" x1="87.144" x2="87.4658" xlink:href="#e" y1="68.6655" y2="73.5734"/><linearGradient id="bK" gradientUnits="userSpaceOnUse" x1="88.2374" x2="88.5945" xlink:href="#e" y1="68.0744" y2="73.5206"/><linearGradient id="bL"><stop offset="0" stop-color="#40447e"/><stop offset=".9964" stop-color="#3c3b6b"/></linearGradient><linearGradient id="bM" gradientUnits="userSpaceOnUse" x1="55.6625" x2="47.5485" xlink:href="#bL" y1="108.943" y2="112.351"/><linearGradient id="bN" gradientUnits="userSpaceOnUse" x1="42.4605" x2="34.0477" xlink:href="#bL" y1="72.8717" y2="76.4051"/><linearGradient id="bO" gradientUnits="userSpaceOnUse" x1="6.88038" x2="83.5466" xlink:href="#bL" y1="74.9084" y2="74.9084"/><linearGradient id="bP"><stop offset="0" stop-color="#aa80f9"/><stop offset=".9964" stop-color="#6165d7"/></linearGradient><linearGradient id="bQ" gradientUnits="userSpaceOnUse" x1="11.8048" x2="89.6301" xlink:href="#bP" y1="99.6248" y2="36.2506"/><linearGradient id="bR" gradientUnits="userSpaceOnUse" x1="6.88034" x2="122.375" xlink:href="#bL" y1="105.361" y2="105.361"/><linearGradient id="bS" gradientUnits="userSpaceOnUse" x1="18.2065" x2="102.829" xlink:href="#bL" y1="104.405" y2="104.405"/><linearGradient id="bT" gradientUnits="userSpaceOnUse" x1="144.002" x2="72.7963" xlink:href="#a" y1="91.7907" y2="71.6411"/><linearGradient id="bU" gradientUnits="userSpaceOnUse" x1="143.815" x2="72.6096" xlink:href="#a" y1="92.45" y2="72.3004"/><linearGradient id="bV" gradientUnits="userSpaceOnUse" x1="70.9303" x2="72.0438" xlink:href="#a" y1="46.7925" y2="136.709"/><linearGradient id="bW"><stop offset="0" stop-color="#311944"/><stop offset="1" stop-color="#893976"/></linearGradient><linearGradient id="bX" gradientUnits="userSpaceOnUse" x1="80.9059" x2="78.92" xlink:href="#bW" y1="45.5544" y2="45.5544"/><linearGradient id="bY"><stop offset="0" stop-color="#311944"/><stop offset="1" stop-color="#a03976"/></linearGradient><linearGradient id="bZ" gradientUnits="userSpaceOnUse" x1="98.1781" x2="98.9563" xlink:href="#bY" y1="97.0427" y2="106.946"/><linearGradient id="b0" gradientUnits="userSpaceOnUse" x1="100.187" x2="100.046" xlink:href="#a" y1="102.557" y2="92.2993"/><linearGradient id="b1" gradientUnits="userSpaceOnUse" x1="112.884" x2="113.662" xlink:href="#bY" y1="95.8873" y2="105.791"/><linearGradient id="b2" gradientUnits="userSpaceOnUse" x1="113.664" x2="113.523" xlink:href="#a" y1="102.371" y2="92.1127"/><linearGradient id="b3"><stop offset="0" stop-color="#444b8c"/><stop offset=".9964" stop-color="#3e4177"/></linearGradient><linearGradient id="b4" gradientUnits="userSpaceOnUse" x1="97.739" x2="105.323" xlink:href="#b3" y1="85.9391" y2="85.9391"/><linearGradient id="b5" gradientUnits="userSpaceOnUse" x1="97.7389" x2="105.323" xlink:href="#b3" y1="85.9406" y2="85.9406"/><linearGradient id="b6" gradientUnits="userSpaceOnUse" x1="99.8444" x2="115.112" xlink:href="#b3" y1="85.1922" y2="85.1922"/><linearGradient id="b7" gradientUnits="userSpaceOnUse" x1="98.9267" x2="98.0665" xlink:href="#bW" y1="51.1538" y2="57.892"/><linearGradient id="b8" gradientUnits="userSpaceOnUse" x1="98.4393" x2="98.8216" y1="49.8385" y2="45.2509"><stop offset=".0036" stop-color="#26264f"/><stop offset="1" stop-color="#444b8c"/></linearGradient><linearGradient id="b9" gradientUnits="userSpaceOnUse" x1="100.817" x2="97.2806" xlink:href="#bW" y1="46.8582" y2="50.5858"/><linearGradient id="ca" gradientUnits="userSpaceOnUse" x1="109.824" x2="95.846" xlink:href="#c" y1="22.5348" y2="81.431"/><linearGradient id="cb" gradientUnits="userSpaceOnUse" x1="103.274" x2="106.524" xlink:href="#bP" y1="83.7659" y2="52.5123"/><linearGradient id="cc" gradientUnits="userSpaceOnUse" x1="223.883" x2="103.831" y1="64.0668" y2="32.689"><stop offset=".1" stop-color="#311944"/><stop offset=".2658" stop-color="#371b47"/><stop offset=".477" stop-color="#462150"/><stop offset=".515" stop-color="#4a2252"/><stop offset=".6806" stop-color="#5c295c"/><stop offset="1" stop-color="#893976"/></linearGradient><linearGradient id="cd" gradientUnits="userSpaceOnUse" x1="218.077" x2="98.0227" y1="62.4567" y2="31.0781"><stop offset=".1" stop-color="#311944"/><stop offset=".267" stop-color="#371b47"/><stop offset=".4803" stop-color="#462150"/><stop offset=".7186" stop-color="#612a5f"/><stop offset=".9736" stop-color="#853774"/><stop offset="1" stop-color="#893976"/></linearGradient><linearGradient id="ce" gradientUnits="userSpaceOnUse" x1="60.0167" x2="149.515" xlink:href="#bP" y1="12.1434" y2="52.2721"/><path d="m82.5236 5.94376c-8.2452-1.75408-16.8176-2.59481-25.1993-2.05891-7.4289.47498-15.8497 1.77142-21.8278 6.41515-2.849 2.213-6.2465 6.1895-7.1784 9.6976 0 .0004-4.9052 18.4653-14.7153 22.4221-9.81025 3.9569-16.6229 71.4873 57.7714 64.8923 0 0 43.6948-1.728 46.3258-51.504.636-12.0243.281-25.2432-7.333-35.2976-5.835-7.7047-14.0092-11.13042-23.4029-13.52752-1.4674-.37442-2.9486-.72171-4.4405-1.03912z" fill="#f4f7fa"/><path d="m44.8871 72.4415c1.499-4.5681 3.0248-11.5419 1.2387-19.2845-2.0511-8.8905-6.5943-10.6693-10.6736-20.1727-5.823-13.5657.7672-23.39241-5.261-27.53859-2.9396-2.02193-7.5623-2.02357-10.4123.00635-8.1313 5.79154-5.9022 31.01814 6.9989 40.86214 5.8347 4.4522 10.9263 3.924 15.3047 9.6853 3.869 5.0907 3.5657 11.8067 2.8046 16.442z" fill="url(#b)"/><g fill="#fff"><path d="m45.8036 60.9469c-.4887-1.9208-1.1459-3.8087-1.9535-5.6112-1.8555-4.1416-3.9034-6.4197-6.4961-9.304-1.6922-1.8824-3.6101-4.016-5.8265-7.0751-4.1469-5.7236-5.4339-7.7343-6.587-10.9753-2.2817-6.4137-1.9313-12.164-1.5193-15.0209.5845-4.05267 1.9442-7.90938 4.0416-11.4629l.1262.07447c-2.0876 3.53698-3.4411 7.37564-4.0227 11.40933-.41 2.8435-.7589 8.5669 1.5124 14.9509 1.1468 3.2236 2.4303 5.2283 6.5675 10.9385 2.2119 3.0528 4.1271 5.1834 5.8168 7.0631 2.6013 2.8938 4.656 5.1795 6.5208 9.3421.811 1.8101 1.4711 3.706 1.9618 5.6349z"/><path d="m23.8271 23.4511-.106-.0575c-.0241-.0131-2.4322-1.3368-4.572-4.0306-1.9757-2.4872-4.1224-6.6849-3.1299-12.55813l.1445.0244c-.9831 5.81743 1.1412 9.97483 3.0965 12.43813 1.8675 2.3527 3.9402 3.6513 4.4254 3.937.1341-4.6918 3.1419-7.7321 5.654-9.4611 2.7404-1.886 5.4981-2.6596 5.5256-2.6672l.039.1412c-.0273.0076-2.7646.7759-5.4849 2.649-2.5042 1.7244-5.5068 4.7661-5.59 9.4642z"/><path d="m24.5131 38.5401c-2.4357 0-5.2976-.5985-7.9406-2.6556l.09-.1156c5.9317 4.6168 12.9845 1.8019 13.6849 1.5038-1.1981-4.6326-.1384-8.05.9649-10.1043 1.2013-2.2371 2.7151-3.3872 2.7303-3.3986l.0878.1173c-.0149.0112-1.5068 1.1458-2.6925 3.3568-1.0935 2.0392-2.1431 5.4385-.933 10.0523l.0156.0595-.0559.0257c-.0436.02-2.592 1.1587-5.9515 1.1587z"/><path d="m29.9464 47.3764c-1.8266 0-4.0131-.3316-6.5571-1.2611l.0504-.1376c8.3347 3.045 12.7841-.3659 13.2435-.7469-2.0284-4.7452.8282-12.4192.8573-12.4965l.1371.0518c-.0291.077-2.8845 7.7496-.8387 12.436l.021.0481-.0387.0354c-.0318.029-2.3446 2.0708-6.8748 2.0708z"/></g><path d="m47.4963 66.932c.4755-2.8759.7487-7.3673-1.5922-11.3841-4.084-7.0075-11.528-4.683-18.6533-12.1906-5.7468-6.0551-3.9357-10.7613-10.3036-14.7854-1.0659-.6736-6.6979-4.3803-10.88608-2.1477-2.36008 1.258-3.2152 3.8408-3.37572 4.3256-2.426092 7.3279 5.03791 18.8007 14.7666 24.0481 5.5895 3.0147 7.3928 2.0295 17.229 5.5456 5.7798 2.0661 10.1195 4.7265 12.8153 6.5885z" fill="url(#d)"/><path d="m48.3163 70.3951c-1.4234-6.8373-4.1173-11.4275-8.0069-13.6434-1.8976-1.081-3.4139-1.2526-5.0192-1.4343-1.7541-.1985-3.5679-.4038-5.9673-1.8547-2.3349-1.412-3.1697-2.7679-4.2268-4.4845-.9389-1.5249-2.1075-3.4228-4.7294-5.9497-2.2984-2.2153-3.973-3.2526-5.4504-4.1678-1.6173-1.0019-2.8947-1.7931-4.3778-3.7366-2.41612-3.166-3.6789-7.2228-3.75316-12.0574l.14646-.0022c.0738 4.8026 1.32644 8.8302 3.7231 11.9708 1.4667 1.922 2.7341 2.707 4.3385 3.7008 1.4837.9191 3.1654 1.9609 5.475 4.1869 2.6352 2.5398 3.8092 4.4464 4.7525 5.9784 1.0466 1.6997 1.8732 3.0423 4.1778 4.4359 2.372 1.4343 4.1696 1.6378 5.908 1.8346 1.6207.1834 3.1515.3567 5.0752 1.4526 3.9278 2.2375 6.6455 6.8606 8.0779 13.7408z" fill="#fff"/><path d="m15.0015 39.2834c-4.998 0-8.72899-1.9157-11.00951-3.5592-2.56919-1.8514-3.9038275-3.7685-3.9170388-3.7877l.1207108-.0831c.013001.019 1.336408 1.9187 3.886708 3.7554 2.3374 1.6833 6.21033 3.6551 11.41853 3.5216-.3132-1.0068-2.9214-9.8252.4526-13.6111l.1094.0975c-3.5069 3.935-.4248 13.4654-.3933 13.5612l.0307.0931-.0981.003c-.2021.0062-.4025.0093-.6007.0093z" fill="#fff"/><path d="m14.6176 47.4121c-3.1968 0-7.27402-.658-11.36491-3.1106l.07539-.1256c5.08886 3.0508 10.15742 3.3061 13.51322 2.9829 3.329-.3205 5.6731-1.2565 6.0641-1.4207-1.3548-4.9986-.1476-12.0473-.1352-12.1182l.1444.0252c-.0125.0709-1.2238 7.1457.1489 12.1157l.0168.0607-.0575.0257c-.0246.011-2.5078 1.105-6.1674 1.4574-.6806.0656-1.4312.1075-2.2378.1075z" fill="#fff"/><path d="m18.9529 59.0191c-.2438 0-.4898-.0026-.7389-.0079l.0031-.1465c5.1128.1106 9.0468-.952 11.4476-1.8626 2.2947-.8704 3.663-1.7713 3.9635-1.9788-3.7528-4.6624-2.2823-12.2729-2.267-12.3496l.1437.0288c-.0153.0763-1.4843 7.6865 2.2862 12.2891l.0489.0597-.0622.0457c-.0546.0403-5.4448 3.9221-14.8249 3.9221z" fill="#fff"/><path d="m47.5965 64.49c-1.5994-1.1495-4.2173-2.8133-7.7385-4.0616-6.2632-2.2203-9.1334-.9104-11.7848-3.5582-2.7445-2.7409-.9669-5.4404-4.2527-8.501-.2763-.2574-3.8044-3.4588-6.9963-2.2667-2.2328.834-3.1022 3.3704-3.5102 4.5605-1.5832 4.6189-.6627 11.6568 4.265 15.1283 4.6718 3.2912 10.5866 1.7226 12.4645 1.2113 3.2944-.897 4.0752-2.1811 7.4244-2.9931 4.073-.9874 7.7338-.256 10.1286.4805z" fill="url(#f)"/><path d="m48.8982 65.5456c-3.8721-2.8333-7.6495-4.168-11.2263-3.9682-1.5612.0873-2.6602.4358-3.7231.7729-1.3487.4278-2.6228.8317-4.741.7434-3.8054-.1589-7.055-1.4528-9.1503-3.6435-3.2437-3.3915-3.9642-9.0739-1.8356-14.4766l.1363.0537c-2.1077 5.3497-1.3992 10.9713 1.8053 14.3217 2.0689 2.1631 5.283 3.441 9.0504 3.5983 2.0918.0871 3.3545-.313 4.6906-.7366 1.0715-.3398 2.1795-.6912 3.7591-.7796 3.613-.2023 7.4209 1.1424 11.321 3.9963z" fill="#fff"/><path d="m18.6236 57.289-.1061-.0379c-.0622-.0222-6.2347-2.2786-6.618-7.0643l.146-.0117c.3483 4.3478 5.6007 6.5775 6.4159 6.8978-.3695-6.1698 7.083-9.5758 7.1587-9.6097l.0599.1338c-.0754.0337-7.527 3.4402-7.0649 9.5797z" fill="#fff"/><path d="m19.7891 64.5933c-2.2416 0-5.1075-.5487-8.3803-2.4112l.0725-.1274c4.5881 2.6111 8.3661 2.6196 10.727 2.1668 2.2737-.4358 3.7021-1.3687 3.9991-1.5765-3.579-5.0294.7839-11.0001.8286-11.0601l.1175.0876c-.0442.0593-4.3779 5.9922-.7846 10.9462l.042.0579-.0568.0433c-.015.0114-1.53 1.1493-4.1183 1.6455-.6981.1338-1.5192.2279-2.4467.2279z" fill="#fff"/><path d="m39.038 4.88474v72.09836c0 .7515.5297 1.399 1.2664 1.5478l18.5187 3.7407 5.0409-47.738-4.8852-33.645844-18.5667 2.431224c-.7862.10296-1.3741.77291-1.3741 1.56576z" fill="#bfc8d6"/><path d="m91.7219 2.18438-32.6095-1.305901c-1.2855-.0515-2.3305.862021-2.3305 2.040401v77.34812c0 1.1784 1.045 2.0738 2.3305 2.0002l32.6095-1.8677c1.1837-.0678 2.1406-1.0356 2.1406-2.162v-73.92802c0-1.12629-.9569-2.07768-2.1406-2.1251z" fill="#d8dee8"/><path d="m59.0313 9.91916v-5.47333c0-.83749.741-1.48859 1.6532-1.4543l29.5803 1.11194c.8469.03185 1.5322.70997 1.5322 1.51464v5.25889c0 .8047-.6853 1.4383-1.5322 1.415l-29.5803-.811c-.9122-.0251-1.6532-.7243-1.6532-1.56184z" fill="#fff"/><path d="m62.1128 5.05713c0 .38608-.3407.68737-.7615.67294-.4211-.01448-.7629-.33975-.7629-.72658 0-.38679.3418-.68809.7629-.67286.4208.01515.7615.34043.7615.7265z" fill="#d8dee8"/><path d="m64.5182 5.14197c0 .38498-.3388.68543-.7571.67105-.4187-.01435-.7585-.3387-.7585-.72436 0-.38565.3398-.6861.7585-.671.4183.01506.7571.33933.7571.72431z" fill="#d8dee8"/><path d="m66.9098 5.2257c0 .38388-.3369.68349-.7528.66919-.4163-.01426-.7542-.33765-.7542-.72221s.3379-.68417.7542-.66915c.4159.01494.7528.33828.7528.72217z" fill="#d8dee8"/><path d="m90.1237 10.9697-21.7125-.631v-5.75337l21.7125.78195z" fill="url(#h)"/><g fill="#fff" opacity=".3"><path d="m70.5258 9.99517-.6551-.01936v-4.6453l.6551.02305z" opacity=".3"/><path d="m71.688 10.0291-.6533-.0193v-4.63877l.6533.02302z" opacity=".3"/><path d="m72.8468 10.0636-.6515-.0192v-4.63223l.6515.02289z" opacity=".3"/><path d="m74.0025 10.0971-.6497-.0193v-4.62565l.6497.02285z" opacity=".3"/><path d="m75.1548 10.1317-.6478-.0192v-4.61915l.6478.0228z" opacity=".3"/><path d="m76.3038 10.1658-.646-.0191v-4.61276l.646.02271z" opacity=".3"/><path d="m77.4498 10.1992-.6442-.019v-4.60629l.6442.02264z" opacity=".3"/><path d="m78.5925 10.2333-.6424-.019v-4.5998l.6424.0226z" opacity=".3"/><path d="m79.732 10.2668-.6406-.0189v-4.59342l.6406.02251z" opacity=".3"/><path d="m80.8683 10.3004-.6387-.0189v-4.58704l.6387.02251z" opacity=".3"/><path d="m82.0015 10.3339-.6371-.0188v-4.5806l.6371.02238z" opacity=".3"/><path d="m83.1316 10.3669-.6353-.0187v-4.57434l.6353.02239z" opacity=".3"/><path d="m84.2585 10.4005-.6335-.0187v-4.5679l.6335.02226z" opacity=".3"/><path d="m85.3823 10.4341-.6318-.0186v-4.56162l.6318.02222z" opacity=".3"/><path d="m86.5028 10.4671-.6299-.0186v-4.55525l.6299.02213z" opacity=".3"/><path d="m87.6205 10.4995-.6283-.0185v-4.54893l.6283.02209z" opacity=".3"/><path d="m88.7349 10.5327-.6265-.0185v-4.5427l.6265.02204z" opacity=".3"/></g><g opacity=".69"><path d="m70.5258 9.9949-.6551-.01935v-3.95272l.6551.02246z" fill="url(#i)" opacity=".69"/><path d="m71.688 10.0289-.6533-.0193v-.47524l.6533.01969z" fill="url(#j)" opacity=".69"/><path d="m72.8468 10.0631-.6515-.0192v-2.69801l.6515.02141z" fill="url(#k)" opacity=".69"/><path d="m74.0025 10.0977-.6497-.0192v-1.16346l.6497.02011z" fill="url(#l)" opacity=".69"/><path d="m75.1548 10.1316-.6478-.0192v-2.97593l.6478.0215z" fill="url(#m)" opacity=".69"/><path d="m76.3038 10.1653-.646-.0191v-2.04928l.646.02066z" fill="url(#n)" opacity=".69"/><path d="m77.4498 10.1989-.6442-.0191v-3.55382l.6442.02179z" fill="url(#o)" opacity=".69"/><path d="m78.5925 10.2326-.6424-.019v-3.91404l.6424.02205z" fill="url(#p)" opacity=".69"/><path d="m79.732 10.2665-.6406-.0189v-1.95427l.6406.02045z" fill="url(#q)" opacity=".69"/><path d="m80.8683 10.3003-.6387-.019v-4.27288l.6387.02222z" fill="url(#r)" opacity=".69"/><path d="m82.0015 10.3335-.6371-.0188v-3.63404l.6371.02167z" fill="url(#s)" opacity=".69"/><path d="m83.1316 10.3674-.6353-.0188v-.97305l.6353.01957z" fill="url(#t)" opacity=".69"/><path d="m84.2585 10.4002-.6335-.0187v-2.28397l.6335.02054z" fill="url(#u)" opacity=".69"/><path d="m85.3823 10.4335-.6318-.0187v-3.28711l.6318.0212z" fill="url(#v)" opacity=".69"/><path d="m86.5028 10.4665-.6299-.0186v-2.39394l.6299.02049z" fill="url(#w)" opacity=".69"/><path d="m87.6205 10.4997-.6283-.0185v-3.70819l.6283.02146z" fill="url(#x)" opacity=".69"/><path d="m88.7349 10.5329-.6265-.0185v-4.11602l.6265.02171z" fill="url(#y)" opacity=".69"/></g><path d="m59.0313 19.1606v-5.4733c0-.8375.741-1.4968 1.6532-1.4726l29.5803.7851c.8469.0225 1.5322.693 1.5322 1.4977v5.2589c0 .8047-.6853 1.4458-1.5322 1.432l-29.5803-.4843c-.9122-.0149-1.6532-.706-1.6532-1.5435z" fill="#fff"/><path d="m62.1128 14.2648c0 .3861-.3407.6912-.7615.6813-.4211-.0098-.7629-.3313-.7629-.718 0-.3868.3418-.6919.7629-.6814.4208.0105.7615.3321.7615.7181z" fill="#d8dee8"/><path d="m64.5182 14.3227c0 .3849-.3388.6892-.7571.6794-.4187-.0098-.7585-.3304-.7585-.716 0-.3857.3398-.6899.7585-.6794.4183.0104.7571.331.7571.716z" fill="#d8dee8"/><path d="m66.9098 14.3805c0 .3839-.3369.6872-.7528.6775-.4163-.0097-.7542-.3293-.7542-.7139 0-.3845.3379-.6879.7542-.6775.4159.0104.7528.33.7528.7139z" fill="#d8dee8"/><path d="m90.1237 19.8673-21.7125-.391v-5.7534l21.7125.542z" fill="url(#z)"/><g fill="#fff" opacity=".3"><path d="m70.5258 19.1095-.6551-.0121v-4.6453l.6551.0158z" opacity=".3"/><path d="m71.688 19.1304-.6533-.012v-4.6388l.6533.0158z" opacity=".3"/><path d="m72.8468 19.1521-.6515-.012v-4.6322l.6515.0157z" opacity=".3"/><path d="m74.0025 19.1738-.6497-.012v-4.6257l.6497.0156z" opacity=".3"/><path d="m75.1548 19.1949-.6478-.012v-4.6192l.6478.0156z" opacity=".3"/><path d="m76.3038 19.2161-.646-.012v-4.6127l.646.0155z" opacity=".3"/><path d="m77.4498 19.2372-.6442-.0119v-4.6063l.6442.0156z" opacity=".3"/><path d="m78.5925 19.2584-.6424-.0119v-4.5998l.6424.0155z" opacity=".3"/><path d="m79.732 19.2796-.6406-.0119v-4.5934l.6406.0155z" opacity=".3"/><path d="m80.8683 19.3008-.6387-.0118v-4.587l.6387.0154z" opacity=".3"/><path d="m82.0015 19.3214-.6371-.0118v-4.5806l.6371.0154z" opacity=".3"/><path d="m83.1316 19.3421-.6353-.0118v-4.5743l.6353.0154z" opacity=".3"/><path d="m84.2585 19.3633-.6335-.0117v-4.5679l.6335.0153z" opacity=".3"/><path d="m85.3823 19.384-.6318-.0117v-4.5616l.6318.0153z" opacity=".3"/><path d="m86.5028 19.4047-.6299-.0116v-4.5553l.6299.0152z" opacity=".3"/><path d="m87.6205 19.4254-.6283-.0115v-4.549l.6283.0152z" opacity=".3"/><path d="m88.7349 19.4456-.6265-.0116v-4.5426l.6265.015z" opacity=".3"/></g><g opacity=".69"><path d="m70.5261 19.1091-.6552-.0121v-3.9527l.6552.0153z" fill="url(#A)" opacity=".69"/><path d="m71.6883 19.1304-.6533-.0121v-.4752l.6533.0125z" fill="url(#B)" opacity=".69"/><path d="m72.8469 19.1523-.6514-.012v-2.698l.6514.0142z" fill="url(#C)" opacity=".69"/><path d="m74.0025 19.1735-.6497-.012v-1.1635l.6497.0129z" fill="url(#D)" opacity=".69"/><path d="m75.1549 19.195-.6478-.012v-2.9759l.6478.0143z" fill="url(#E)" opacity=".69"/><path d="m76.3041 19.2163-.646-.0119v-2.0492l.646.0135z" fill="url(#F)" opacity=".69"/><path d="m77.4498 19.2376-.6441-.0118v-3.5539l.6441.0147z" fill="url(#G)" opacity=".69"/><path d="m78.5927 19.259-.6424-.0119v-3.914l.6424.0149z" fill="url(#H)" opacity=".69"/><path d="m79.7321 19.2801-.6406-.0119v-1.9542l.6406.0133z" fill="url(#I)" opacity=".69"/><path d="m80.8684 19.3008-.6387-.0118v-4.2729l.6387.0151z" fill="url(#J)" opacity=".69"/><path d="m82.0016 19.3211-.6371-.0117v-3.634l.6371.0146z" fill="url(#K)" opacity=".69"/><path d="m83.1316 19.3421-.6352-.0117v-.9731l.6352.0125z" fill="url(#L)" opacity=".69"/><path d="m84.2586 19.3632-.6335-.0117v-2.284l.6335.0135z" fill="url(#M)" opacity=".69"/><path d="m85.3825 19.3842-.6318-.0117v-3.2872l.6318.0142z" fill="url(#N)" opacity=".69"/><path d="m86.5029 19.4048-.63-.0116v-2.3939l.63.0135z" fill="url(#O)" opacity=".69"/><path d="m87.6206 19.4257-.6283-.0115v-3.7082l.6283.0145z" fill="url(#P)" opacity=".69"/><path d="m88.7351 19.4459-.6265-.0116v-4.1159l.6265.0147z" fill="url(#Q)" opacity=".69"/></g><path d="m59.0313 28.4017v-5.4733c0-.8375.741-1.505 1.6532-1.4909l29.5803.4583c.8469.0131 1.5322.6761 1.5322 1.4808v5.2589c0 .8047-.6853 1.4534-1.5322 1.4489l-29.5803-.1574c-.9122-.0049-1.6532-.6878-1.6532-1.5253z" fill="#fff"/><path d="m62.1128 23.472c0 .3861-.3407.6949-.7615.6898-.4211-.0051-.7629-.3229-.7629-.7097s.3418-.6956.7629-.6898c.4208.0059.7615.3236.7615.7097z" fill="#d8dee8"/><path d="m64.5182 23.5034c0 .385-.3388.6929-.7571.6878-.4187-.0051-.7585-.3219-.7585-.7076s.3398-.6936.7585-.6877c.4183.0058.7571.3226.7571.7075z" fill="#d8dee8"/><path d="m66.9098 23.5349c0 .3839-.3369.6909-.7528.6858-.4163-.0051-.7542-.321-.7542-.7055 0-.3846.3379-.6916.7542-.6858.4159.0057.7528.3216.7528.7055z" fill="#d8dee8"/><path d="m90.1237 28.765-21.7125-.1511v-5.7534l21.7125.3021z" fill="url(#R)"/><g fill="#fff" opacity=".3"><path d="m70.5258 28.2241-.6551-.0049v-4.6453l.6551.0086z" opacity=".3"/><path d="m71.688 28.2321-.6533-.0049v-4.6387l.6533.0085z" opacity=".3"/><path d="m72.8468 28.2402-.6515-.0049v-4.6322l.6515.0085z" opacity=".3"/><path d="m74.0025 28.2496-.6497-.0048v-4.6257l.6497.0084z" opacity=".3"/><path d="m75.1548 28.2578-.6478-.0049v-4.6192l.6478.0085z" opacity=".3"/><path d="m76.3038 28.2666-.646-.0049v-4.6127l.646.0085z" opacity=".3"/><path d="m77.4498 28.2748-.6442-.0048v-4.6062l.6442.0084z" opacity=".3"/><path d="m78.5925 28.283-.6424-.0047v-4.5998l.6424.0083z" opacity=".3"/><path d="m79.732 28.2919-.6406-.0047v-4.5935l.6406.0084z" opacity=".3"/><path d="m80.8683 28.3002-.6387-.0048v-4.587l.6387.0084z" opacity=".3"/><path d="m82.0015 28.3085-.6371-.0048v-4.5806l.6371.0083z" opacity=".3"/><path d="m83.1316 28.3174-.6353-.0047v-4.5742l.6353.0082z" opacity=".3"/><path d="m84.2585 28.3258-.6335-.0047v-4.5679l.6335.0083z" opacity=".3"/><path d="m85.3823 28.3342-.6318-.0047v-4.5616l.6318.0083z" opacity=".3"/><path d="m86.5028 28.3425-.6299-.0047v-4.5553l.6299.0083z" opacity=".3"/><path d="m87.6205 28.3503-.6283-.0046v-4.549l.6283.0082z" opacity=".3"/><path d="m88.7349 28.3593-.6265-.0047v-4.5426l.6265.0082z" opacity=".3"/></g><g opacity=".69"><path d="m70.5258 28.2243-.6551-.0049v-3.9527l.6551.008z" fill="url(#S)" opacity=".69"/><path d="m71.688 28.2327-.6533-.0049v-.4752l.6533.0053z" fill="url(#T)" opacity=".69"/><path d="m72.8468 28.241-.6515-.0048v-2.6979l.6515.0069z" fill="url(#U)" opacity=".69"/><path d="m74.0025 28.2499-.6497-.0048v-1.1636l.6497.0058z" fill="url(#V)" opacity=".69"/><path d="m75.1548 28.2585-.6478-.0048v-2.976l.6478.0072z" fill="url(#W)" opacity=".69"/><path d="m76.3038 28.267-.646-.0049v-2.0492l.646.0064z" fill="url(#X)" opacity=".69"/><path d="m77.4498 28.2759-.6442-.0048v-3.5539l.6442.0076z" fill="url(#Y)" opacity=".69"/><path d="m78.5925 28.2843-.6424-.0047v-3.9141l.6424.0079z" fill="url(#Z)" opacity=".69"/><path d="m79.732 28.2925-.6406-.0048v-1.9543l.6406.0063z" fill="url(#aa)" opacity=".69"/><path d="m80.8683 28.301-.6387-.0048v-4.2729l.6387.0081z" fill="url(#ab)" opacity=".69"/><path d="m82.0015 28.3095-.6371-.0047v-3.634l.6371.0075z" fill="url(#ac)" opacity=".69"/><path d="m83.1316 28.3181-.6353-.0047v-.9731l.6353.0055z" fill="url(#ad)" opacity=".69"/><path d="m84.2585 28.3263-.6335-.0047v-2.284l.6335.0065z" fill="url(#ae)" opacity=".69"/><path d="m85.3823 28.3343-.6318-.0047v-3.2871l.6318.0072z" fill="url(#af)" opacity=".69"/><path d="m86.5028 28.3427-.6299-.0047v-2.3939l.6299.0065z" fill="url(#ag)" opacity=".69"/><path d="m87.6205 28.3512-.6283-.0046v-3.7082l.6283.0076z" fill="url(#ah)" opacity=".69"/><path d="m88.7349 28.3598-.6265-.0047v-4.116l.6265.0078z" fill="url(#ai)" opacity=".69"/></g><path d="m59.0313 37.6436v-5.4733c0-.8376.741-1.5132 1.6532-1.5091l29.5803.1314c.8469.0037 1.5322.6592 1.5322 1.4638v5.2589c0 .8047-.6853 1.461-1.5322 1.4659l-29.5803.1693c-.9122.0053-1.6532-.6694-1.6532-1.5069z" fill="#fff"/><path d="m62.1128 32.6799c0 .3861-.3407.6987-.7615.6982-.4211-.0005-.7629-.3145-.7629-.7013s.3418-.6994.7629-.6982c.4208.0012.7615.3152.7615.7013z" fill="#d8dee8"/><path d="m64.5182 32.6843c0 .385-.3388.6967-.7571.6962-.4187-.0005-.7585-.3136-.7585-.6993 0-.3856.3398-.6974.7585-.6961.4183.0012.7571.3142.7571.6992z" fill="#d8dee8"/><path d="m66.9098 32.6893c0 .3839-.3369.6946-.7528.6942-.4163-.0005-.7542-.3127-.7542-.6972 0-.3846.3379-.6953.7542-.6942.4159.0012.7528.3134.7528.6972z" fill="#d8dee8"/><path d="m90.1237 37.6627-21.7125.0888v-5.7535l21.7125.0623z" fill="url(#aj)"/><g fill="#fff" opacity=".3"><path d="m70.5258 37.3379-.6551.0024v-4.6453l.6551.0013z" opacity=".3"/><path d="m71.688 37.3339-.6533.0024v-4.6388l.6533.0014z" opacity=".3"/><path d="m72.8468 37.3291-.6515.0024v-4.6322l.6515.0013z" opacity=".3"/><path d="m74.0025 37.3256-.6497.0023v-4.6257l.6497.0013z" opacity=".3"/><path d="m75.1548 37.3215-.6478.0023v-4.6192l.6478.0013z" opacity=".3"/><path d="m76.3038 37.3173-.646.0024v-4.6128l.646.0014z" opacity=".3"/><path d="m77.4498 37.3126-.6442.0023v-4.6062l.6442.0013z" opacity=".3"/><path d="m78.5925 37.3092-.6424.0023v-4.5999l.6424.0014z" opacity=".3"/><path d="m79.732 37.3051-.6406.0023v-4.5934l.6406.0013z" opacity=".3"/><path d="m80.8683 37.3011-.6387.0023v-4.587l.6387.0013z" opacity=".3"/><path d="m82.0015 37.2964-.6371.0024v-4.5807l.6371.0013z" opacity=".3"/><path d="m83.1316 37.2924-.6353.0023v-4.5742l.6353.0012z" opacity=".3"/><path d="m84.2585 37.2885-.6335.0022v-4.5679l.6335.0013z" opacity=".3"/><path d="m85.3823 37.2845-.6318.0022v-4.5615l.6318.0012z" opacity=".3"/><path d="m86.5028 37.2805-.6299.0023v-4.5553l.6299.0013z" opacity=".3"/><path d="m87.6205 37.2765-.6283.0023v-4.5489l.6283.0012z" opacity=".3"/><path d="m88.7349 37.2727-.6265.0022v-4.5427l.6265.0013z" opacity=".3"/></g><g opacity=".69"><path d="m70.526 37.3366-.6552.0024v-3.9527l.6552.0008z" fill="url(#ak)" opacity=".69"/><path d="m71.6882 37.3329-.6533.0024v-.4752l.6533-.002z" fill="url(#al)" opacity=".69"/><path d="m72.8469 37.3284-.6514.0024v-2.698l.6514-.0002z" fill="url(#am)" opacity=".69"/><path d="m74.0025 37.3243-.6497.0024v-1.1636l.6497-.0014z" fill="url(#an)" opacity=".69"/><path d="m75.1548 37.3204-.6478.0023v-2.976h.6478z" fill="url(#ao)" opacity=".69"/><path d="m76.304 37.316-.646.0023v-2.0492l.646-.0007z" fill="url(#ap)" opacity=".69"/><path d="m77.4498 37.3125-.6441.0023v-3.5539l.6441.0005z" fill="url(#aq)" opacity=".69"/><path d="m78.5927 37.308-.6424.0024v-3.9141l.6424.0008z" fill="url(#ar)" opacity=".69"/><path d="m79.732 37.304-.6406.0023v-1.9542l.6406-.0008z" fill="url(#as)" opacity=".69"/><path d="m80.8684 37.2999-.6387.0023v-4.2729l.6387.001z" fill="url(#at)" opacity=".69"/><path d="m82.0016 37.2956-.6371.0023v-3.634l.6371.0005z" fill="url(#au)" opacity=".69"/><path d="m83.1316 37.2916-.6353.0023v-.973l.6353-.0016z" fill="url(#av)" opacity=".69"/><path d="m84.2585 37.2876-.6335.0023v-2.284l.6335-.0005z" fill="url(#aw)" opacity=".69"/><path d="m85.3825 37.2834-.6318.0023v-3.2872l.6318.0003z" fill="url(#ax)" opacity=".69"/><path d="m86.5028 37.2793-.6299.0023v-2.394l.6299-.0003z" fill="url(#ay)" opacity=".69"/><path d="m87.6205 37.2751-.6283.0023v-3.7082l.6283.0006z" fill="url(#az)" opacity=".69"/><path d="m88.7351 37.2713-.6265.0022v-4.116l.6265.001z" fill="url(#aA)" opacity=".69"/></g><path d="m59.0313 46.8847v-5.4733c0-.8375.741-1.5214 1.6532-1.5274l29.5803-.1954c.8469-.0056 1.5322.6422 1.5322 1.4469v5.2589c0 .8047-.6853 1.4686-1.5322 1.4827l-29.5803.4963c-.9122.0153-1.6532-.6512-1.6532-1.4887z" fill="#fff"/><path d="m62.1128 41.8866c0 .3861-.3407.7024-.7615.7065-.4211.0042-.7629-.306-.7629-.6928 0-.3867.3418-.7031.7629-.7065.4208-.0035.7615.3067.7615.6928z" fill="#d8dee8"/><path d="m64.5182 41.8652c0 .385-.3388.7004-.7571.7045-.4187.0042-.7585-.3051-.7585-.6908s.3398-.7011.7585-.7046c.4183-.0034.7571.3059.7571.6909z" fill="#d8dee8"/><path d="m66.9098 41.8438c0 .3839-.3369.6984-.7528.7025-.4163.0041-.7542-.3043-.7542-.6889 0-.3845.3379-.6991.7542-.7025.4159-.0034.7528.3051.7528.6889z" fill="#d8dee8"/><path d="m90.1237 46.5608-21.7125.3287v-5.7534l21.7125-.1777z" fill="url(#aB)"/><g fill="#fff" opacity=".3"><path d="m70.526 46.4529-.6552.0096v-4.6452l.6552-.006z" opacity=".3"/><path d="m71.6882 46.4358-.6533.0096v-4.6387l.6533-.0059z" opacity=".3"/><path d="m72.8469 46.4188-.6514.0095v-4.6322l.6514-.0059z" opacity=".3"/><path d="m74.0025 46.4023-.6497.0095v-4.6257l.6497-.0059z" opacity=".3"/><path d="m75.1548 46.3852-.6478.0094v-4.6192l.6478-.0058z" opacity=".3"/><path d="m76.304 46.3687-.646.0094v-4.6127l.646-.0058z" opacity=".3"/><path d="m77.4498 46.3517-.6441.0094v-4.6063l.6441-.0058z" opacity=".3"/><path d="m78.5927 46.3347-.6424.0094v-4.5998l.6424-.0058z" opacity=".3"/><path d="m79.732 46.3183-.6406.0094v-4.5935l.6406-.0057z" opacity=".3"/><path d="m80.8684 46.3012-.6387.0094v-4.587l.6387-.0058z" opacity=".3"/><path d="m82.0016 46.285-.6371.0093v-4.5806l.6371-.0058z" opacity=".3"/><path d="m83.1316 46.2686-.6353.0093v-4.5743l.6353-.0057z" opacity=".3"/><path d="m84.2585 46.2522-.6335.0093v-4.568l.6335-.0056z" opacity=".3"/><path d="m85.3825 46.2353-.6318.0092v-4.5615l.6318-.0058z" opacity=".3"/><path d="m86.5028 46.2189-.6299.0093v-4.5553l.6299-.0056z" opacity=".3"/><path d="m87.6205 46.2027-.6283.0092v-4.549l.6283-.0056z" opacity=".3"/><path d="m88.7351 46.1864-.6265.0092v-4.5427l.6265-.0056z" opacity=".3"/></g><g opacity=".69"><path d="m70.5261 46.4524-.6552.0096v-3.9528l.6552-.0064z" fill="url(#aC)" opacity=".69"/><path d="m71.6883 46.4353-.6533.0095v-.4751l.6533-.0093z" fill="url(#aD)" opacity=".69"/><path d="m72.8469 46.4179-.6514.0095v-2.698l.6514-.0074z" fill="url(#aE)" opacity=".69"/><path d="m74.0025 46.4014-.6497.0095v-1.1634l.6497-.0087z" fill="url(#aF)" opacity=".69"/><path d="m75.1549 46.3839-.6478.0095v-2.976l.6478-.0071z" fill="url(#aG)" opacity=".69"/><path d="m76.3041 46.3678-.646.0094v-2.0492l.646-.0079z" fill="url(#aH)" opacity=".69"/><path d="m77.4498 46.3509-.6441.0094v-3.5539l.6441-.0066z" fill="url(#aI)" opacity=".69"/><path d="m78.5927 46.3338-.6424.0094v-3.9141l.6424-.0063z" fill="url(#aJ)" opacity=".69"/><path d="m79.7321 46.317-.6406.0094v-1.9543l.6406-.0078z" fill="url(#aK)" opacity=".69"/><path d="m80.8684 46.3006-.6387.0094v-4.273l.6387-.0059z" fill="url(#aL)" opacity=".69"/><path d="m82.0016 46.284-.6371.0093v-3.634l.6371-.0065z" fill="url(#aM)" opacity=".69"/><path d="m83.1316 46.2676-.6352.0093v-.9731l.6352-.0085z" fill="url(#aN)" opacity=".69"/><path d="m84.2586 46.2512-.6335.0093v-2.284l.6335-.0075z" fill="url(#aO)" opacity=".69"/><path d="m85.3825 46.2344-.6318.0092v-3.2871l.6318-.0067z" fill="url(#aP)" opacity=".69"/><path d="m86.5029 46.2181-.63.0093v-2.3939l.63-.0074z" fill="url(#aQ)" opacity=".69"/><path d="m87.6206 46.2016-.6283.0092v-3.7081l.6283-.0064z" fill="url(#aR)" opacity=".69"/><path d="m88.7351 46.1851-.6265.0092v-4.1161l.6265-.0059z" fill="url(#aS)" opacity=".69"/></g><path d="m59.0313 56.1256v-5.4733c0-.8375.741-1.5295 1.6532-1.5456l29.5803-.5223c.8469-.0149 1.5322.6253 1.5322 1.43v5.2589c0 .8047-.6853 1.4761-1.5322 1.4997l-29.5803.8231c-.9122.0253-1.6532-.633-1.6532-1.4705z" fill="#fff"/><path d="m62.1128 51.0942c0 .386-.3407.7062-.7615.715-.4211.0088-.7629-.2976-.7629-.6844s.3418-.707.7629-.7151c.4208-.008.7615.2984.7615.6845z" fill="#d8dee8"/><path d="m64.5182 51.0456c0 .385-.3388.7042-.7571.713-.4187.0087-.7585-.2968-.7585-.6825s.3398-.7049.7585-.7129c.4183-.0081.7571.2975.7571.6824z" fill="#d8dee8"/><path d="m66.9098 50.998c0 .3838-.3369.702-.7528.7108-.4163.0087-.7542-.296-.7542-.6806s.3379-.7029.7542-.7108c.4159-.008.7528.2967.7528.6806z" fill="#d8dee8"/><path d="m90.1237 55.4585-21.7125.5686v-5.7534l21.7125-.4176z" fill="url(#aT)"/><g fill="#fff" opacity=".3"><path d="m70.5258 55.5666-.6551.0168v-4.6453l.6551-.0131z" opacity=".3"/><path d="m71.688 55.5371-.6533.0168v-4.6387l.6533-.0132z" opacity=".3"/><path d="m72.8468 55.5071-.6515.0167v-4.6322l.6515-.0131z" opacity=".3"/><path d="m74.0025 55.4776-.6497.0168v-4.6258l.6497-.013z" opacity=".3"/><path d="m75.1548 55.4477-.6478.0167v-4.6193l.6478-.013z" opacity=".3"/><path d="m76.3038 55.4188-.646.0166v-4.6127l.646-.013z" opacity=".3"/><path d="m77.4498 55.3888-.6442.0166v-4.6063l.6442-.0129z" opacity=".3"/><path d="m78.5925 55.3601-.6424.0165v-4.5999l.6424-.0128z" opacity=".3"/><path d="m79.732 55.3301-.6406.0165v-4.5935l.6406-.0128z" opacity=".3"/><path d="m80.8683 55.3014-.6387.0164v-4.5871l.6387-.0127z" opacity=".3"/><path d="m82.0015 55.272-.6371.0164v-4.5806l.6371-.0128z" opacity=".3"/><path d="m83.1316 55.2433-.6353.0164v-4.5743l.6353-.0127z" opacity=".3"/><path d="m84.2585 55.214-.6336.0163v-4.5679l.6336-.0127z" opacity=".3"/><path d="m85.3823 55.1854-.6318.0162v-4.5616l.6318-.0126z" opacity=".3"/><path d="m86.5028 55.1561-.6299.0162v-4.5552l.6299-.0127z" opacity=".3"/><path d="m87.6205 55.1281-.6283.0162v-4.549l.6283-.0126z" opacity=".3"/><path d="m88.7349 55.0989-.6265.0161v-4.5427l.6265-.0125z" opacity=".3"/></g><g opacity=".69"><path d="m70.526 55.5658-.6552.0168v-3.9527l.6552-.0137z" fill="url(#aU)" opacity=".69"/><path d="m71.6882 55.5363-.6533.0168v-.4752l.6533-.0164z" fill="url(#aV)" opacity=".69"/><path d="m72.8469 55.5066-.6514.0167v-2.698l.6514-.0146z" fill="url(#aW)" opacity=".69"/><path d="m74.0025 55.4765-.6497.0168v-1.1636l.6497-.0157z" fill="url(#aX)" opacity=".69"/><path d="m75.1548 55.4467-.6478.0167v-2.9761l.6478-.0142z" fill="url(#aY)" opacity=".69"/><path d="m76.304 55.4176-.646.0166v-2.0492l.646-.015z" fill="url(#aZ)" opacity=".69"/><path d="m77.4498 55.3885-.6441.0165v-3.5539l.6441-.0138z" fill="url(#a0)" opacity=".69"/><path d="m78.5927 55.359-.6424.0165v-3.914l.6424-.0135z" fill="url(#a1)" opacity=".69"/><path d="m79.732 55.3292-.6406.0165v-1.9543l.6406-.0149z" fill="url(#a2)" opacity=".69"/><path d="m80.8684 55.3-.6387.0164v-4.2729l.6387-.0131z" fill="url(#a3)" opacity=".69"/><path d="m82.0016 55.2709-.6371.0164v-3.6341l.6371-.0135z" fill="url(#a4)" opacity=".69"/><path d="m83.1316 55.2422-.6353.0163v-.973l.6353-.0156z" fill="url(#a5)" opacity=".69"/><path d="m84.2585 55.2134-.6335.0163v-2.2839l.6335-.0145z" fill="url(#a6)" opacity=".69"/><path d="m85.3825 55.1842-.6318.0163v-3.2872l.6318-.0136z" fill="url(#a7)" opacity=".69"/><path d="m86.5028 55.1557-.6299.0162v-2.3939l.6299-.0143z" fill="url(#a8)" opacity=".69"/><path d="m87.6205 55.1268-.6283.0162v-3.7082l.6283-.0133z" fill="url(#a9)" opacity=".69"/><path d="m88.7351 55.0979-.6265.0161v-4.116l.6265-.0129z" fill="url(#ba)" opacity=".69"/></g><path d="m59.0313 65.3674v-5.4733c0-.8375.741-1.5377 1.6532-1.5639l29.5803-.8491c.8469-.0243 1.5322.6084 1.5322 1.4131v5.2588c0 .8047-.6853 1.4838-1.5322 1.5167l-29.5803 1.1499c-.9122.0355-1.6532-.6147-1.6532-1.4522z" fill="#fff"/><path d="m62.1128 60.3012c0 .386-.3407.7099-.7615.7233-.4211.0135-.7629-.2891-.7629-.6759s.3418-.7107.7629-.7235c.4208-.0127.7615.29.7615.6761z" fill="#d8dee8"/><path d="m64.5182 60.2264c0 .385-.3388.7079-.7571.7213-.4187.0133-.7585-.2884-.7585-.6741s.3398-.7087.7585-.7213c.4183-.0127.7571.2891.7571.6741z" fill="#d8dee8"/><path d="m66.9098 60.1521c0 .3839-.3369.7059-.7528.7192-.4163.0133-.7542-.2877-.7542-.6723 0-.3845.3379-.7065.7542-.7191.4159-.0126.7528.2884.7528.6722z" fill="#d8dee8"/><path d="m90.1237 64.3567-21.7125.8086v-5.7535l21.7125-.6575z" fill="url(#bb)"/><g fill="#fff" opacity=".3"><path d="m70.5257 64.6816-.6552.024v-4.6453l.6552-.0203z" opacity=".3"/><path d="m71.6879 64.638-.6533.024v-4.6388l.6533-.0203z" opacity=".3"/><path d="m72.8466 64.5956-.6514.0239v-4.6322l.6514-.0203z" opacity=".3"/><path d="m74.0022 64.5532-.6497.0239v-4.6257l.6497-.0202z" opacity=".3"/><path d="m75.1545 64.5108-.6478.0238v-4.6192l.6478-.0201z" opacity=".3"/><path d="m76.3037 64.4691-.646.0238v-4.6128l.646-.0201z" opacity=".3"/><path d="m77.4496 64.4267-.6441.0237v-4.6063l.6441-.02z" opacity=".3"/><path d="m78.5924 64.385-.6424.0237v-4.5999l.6424-.02z" opacity=".3"/><path d="m79.7319 64.3434-.6406.0235v-4.5934l.6406-.02z" opacity=".3"/><path d="m80.8682 64.3011-.6387.0234v-4.5869l.6387-.0199z" opacity=".3"/><path d="m82.0012 64.2594-.6371.0233v-4.5806l.6371-.0197z" opacity=".3"/><path d="m83.1314 64.2177-.6352.0234v-4.5743l.6352-.0197z" opacity=".3"/><path d="m84.2582 64.1767-.6335.0233v-4.5679l.6335-.0197z" opacity=".3"/><path d="m85.3821 64.1357-.6317.0232v-4.5616l.6317-.0196z" opacity=".3"/><path d="m86.5027 64.0941-.63.0231v-4.5553l.63-.0195z" opacity=".3"/><path d="m87.6202 64.0531-.6283.0231v-4.5489l.6283-.0196z" opacity=".3"/><path d="m88.7349 64.0122-.6265.023v-4.5427l.6265-.0195z" opacity=".3"/></g><g opacity=".69"><path d="m70.5261 64.6814-.6552.024v-3.9527l.6552-.0209z" fill="url(#bc)" opacity=".69"/><path d="m71.6883 64.6384-.6533.024v-.4752l.6533-.0236z" fill="url(#bd)" opacity=".69"/><path d="m72.8469 64.5963-.6514.0239v-2.698l.6514-.0217z" fill="url(#be)" opacity=".69"/><path d="m74.0025 64.5534-.6497.0239v-1.1635l.6497-.023z" fill="url(#bf)" opacity=".69"/><path d="m75.1549 64.5111-.6478.0239v-2.976l.6478-.0215z" fill="url(#bg)" opacity=".69"/><path d="m76.3041 64.4686-.646.0238v-2.0493l.646-.0221z" fill="url(#bh)" opacity=".69"/><path d="m77.4498 64.4269-.6441.0237v-3.5539l.6441-.0208z" fill="url(#bi)" opacity=".69"/><path d="m78.5927 64.3851-.6424.0237v-3.9141l.6424-.0205z" fill="url(#bj)" opacity=".69"/><path d="m79.7321 64.3431-.6406.0236v-1.9544l.6406-.0219z" fill="url(#bk)" opacity=".69"/><path d="m80.8684 64.3015-.6387.0235v-4.273l.6387-.0201z" fill="url(#bl)" opacity=".69"/><path d="m82.0016 64.2595-.6371.0233v-3.6339l.6371-.0206z" fill="url(#bm)" opacity=".69"/><path d="m83.1316 64.2184-.6352.0233v-.9731l.6352-.0225z" fill="url(#bn)" opacity=".69"/><path d="m84.2586 64.1767-.6335.0233v-2.2839l.6335-.0216z" fill="url(#bo)" opacity=".69"/><path d="m85.3825 64.1358-.6318.0232v-3.2871l.6318-.0207z" fill="url(#bp)" opacity=".69"/><path d="m86.5029 64.0942-.63.0232v-2.3939l.63-.0213z" fill="url(#bq)" opacity=".69"/><path d="m87.6206 64.053-.6283.0231v-3.7081l.6283-.0203z" fill="url(#br)" opacity=".69"/><path d="m88.7351 64.0124-.6265.023v-4.1159l.6265-.0199z" fill="url(#bs)" opacity=".69"/></g><path d="m59.0313 74.6082v-5.4733c0-.8375.741-1.5459 1.6532-1.5822l29.5803-1.1759c.8469-.0337 1.5322.5914 1.5322 1.3961v5.2589c0 .8047-.6853 1.4913-1.5322 1.5335l-29.5803 1.4768c-.9122.0455-1.6532-.5964-1.6532-1.4339z" fill="#fff"/><path d="m62.1128 69.5094c0 .3861-.3407.7137-.7615.7319-.4211.0181-.7629-.2808-.7629-.6676s.3418-.7145.7629-.7319c.4208-.0174.7615.2815.7615.6676z" fill="#d8dee8"/><path d="m64.5182 69.4081c0 .385-.3388.7116-.7571.7297-.4187.018-.7585-.2801-.7585-.6657 0-.3857.3398-.7124.7585-.7297.4183-.0173.7571.2808.7571.6657z" fill="#d8dee8"/><path d="m66.9098 69.3069c0 .3838-.3369.7095-.7528.7274-.4163.0179-.7542-.2793-.7542-.6639 0-.3845.3379-.7103.7542-.7275.4159-.0172.7528.2801.7528.664z" fill="#d8dee8"/><path d="m90.1237 73.2548-21.7125 1.0484v-5.7534l21.7125-.8974z" fill="url(#bt)"/><g fill="#fff" opacity=".3"><path d="m70.526 73.7965-.6552.0313v-4.6453l.6552-.0276z" opacity=".3"/><path d="m71.6882 73.7406-.6533.0312v-4.6388l.6533-.0275z" opacity=".3"/><path d="m72.8469 73.6852-.6514.0312v-4.6322l.6514-.0275z" opacity=".3"/><path d="m74.0025 73.6305-.6497.031v-4.6256l.6497-.0275z" opacity=".3"/><path d="m75.1548 73.5752-.6478.031v-4.6192l.6478-.0273z" opacity=".3"/><path d="m76.304 73.52-.646.0308v-4.6128l.646-.0272z" opacity=".3"/><path d="m77.4498 73.4652-.6441.0309v-4.6063l.6441-.0272z" opacity=".3"/><path d="m78.5927 73.4111-.6424.0308v-4.5999l.6424-.0271z" opacity=".3"/><path d="m79.732 73.3565-.6406.0306v-4.5934l.6406-.027z" opacity=".3"/><path d="m80.8684 73.3019-.6387.0305v-4.587l.6387-.0269z" opacity=".3"/><path d="m82.0016 73.2479-.6371.0305v-4.5807l.6371-.0269z" opacity=".3"/><path d="m83.1316 73.1939-.6353.0303v-4.5742l.6353-.0268z" opacity=".3"/><path d="m84.2585 73.1399-.6335.0303v-4.5679l.6335-.0267z" opacity=".3"/><path d="m85.3825 73.0865-.6318.0302v-4.5616l.6318-.0266z" opacity=".3"/><path d="m86.5028 73.0326-.6299.0301v-4.5552l.6299-.0266z" opacity=".3"/><path d="m87.6205 72.9792-.6283.0301v-4.549l.6283-.0265z" opacity=".3"/><path d="m88.7351 72.9259-.6265.0299v-4.5426l.6265-.0264z" opacity=".3"/></g><g opacity=".69"><path d="m70.5258 73.7962-.6551.0313v-3.9528l.6551-.0281z" fill="url(#bu)" opacity=".69"/><path d="m71.688 73.7402-.6533.0313v-.4752l.6533-.0309z" fill="url(#bv)" opacity=".69"/><path d="m72.8468 73.6852-.6515.0311v-2.6979l.6515-.0291z" fill="url(#bw)" opacity=".69"/><path d="m74.0025 73.6293-.6497.031v-1.1634l.6497-.0302z" fill="url(#bx)" opacity=".69"/><path d="m75.1548 73.5747-.6478.031v-2.976l.6478-.0286z" fill="url(#by)" opacity=".69"/><path d="m76.3038 73.5193-.646.0308v-2.0492l.646-.0293z" fill="url(#bz)" opacity=".69"/><path d="m77.4498 73.4647-.6442.0308v-3.5538l.6442-.0281z" fill="url(#bA)" opacity=".69"/><path d="m78.5925 73.4105-.6424.0308v-3.9141l.6424-.0276z" fill="url(#bB)" opacity=".69"/><path d="m79.732 73.3561-.6406.0306v-1.9542l.6406-.0291z" fill="url(#bC)" opacity=".69"/><path d="m80.8683 73.3016-.6387.0305v-4.2729l.6387-.0272z" fill="url(#bD)" opacity=".69"/><path d="m82.0015 73.2473-.6371.0304v-3.634l.6371-.0277z" fill="url(#bE)" opacity=".69"/><path d="m83.1316 73.1932-.6353.0304v-.973l.6353-.0297z" fill="url(#bF)" opacity=".69"/><path d="m84.2585 73.1392-.6336.0302v-2.2839l.6336-.0285z" fill="url(#bG)" opacity=".69"/><path d="m85.3823 73.0858-.6318.0303v-3.2872l.6318-.0276z" fill="url(#bH)" opacity=".69"/><path d="m86.5028 73.0327-.6299.03v-2.3939l.6299-.0282z" fill="url(#bI)" opacity=".69"/><path d="m87.6205 72.979-.6283.0301v-3.7082l.6283-.0272z" fill="url(#bJ)" opacity=".69"/><path d="m88.7349 72.9254-.6265.0299v-4.116l.6265-.0267z" fill="url(#bK)" opacity=".69"/></g><path d="m88.6131 69.8306c-4.7953-6.1678-10.9687-5.991-12.7219-11.7827-1.876-6.1976 4.2433-8.8951 2.7011-15.6244-1.5674-6.8397-9.0894-6.8929-10.1813-13.8094-.8862-5.6138 3.8137-7.2298 2.2784-12.2665-1.571-5.154-7.2098-5.8637-8.3232-10.90927-.3455-1.56622-.1457-3.06794.3098-4.41714l-3.5636-.142711c-1.2855-.0515-2.3305.862021-2.3305 2.040401v77.34812c0 1.1784 1.045 2.0738 2.3305 2.0002l32.6095-1.8677c.3314-.019.6438-.1106.9236-.2542-.5993-4.8225-2.2869-8.0695-4.0324-10.3147z" fill="#fff" opacity=".35"/><path d="m122.375 104.494-115.49463-1.015v3.004c0 .815.50376 1.508 1.186 1.632l32.65843 5.914c.3876.071.7806.089 1.1717.056l79.2235-6.744c.707-.06 1.255-.755 1.255-1.593z" fill="url(#bM)"/><path d="m80.4623 99.6256-72.38766 5.4944c-1.29534.099-2.3485-.946-2.3485-2.334v-55.5835c0-1.3874 1.0532-2.5121 2.3485-2.5121h72.38766c1.0672 0 1.93 1.0167 1.93 2.2709v50.2469c0 1.2541-.8628 2.3364-1.93 2.4174z" fill="url(#bN)"/><path d="m81.6166 99.6254-72.38768 5.4946c-1.29538.099-2.34855-.946-2.34855-2.334v-55.5837c0-1.3874 1.05317-2.5121 2.34855-2.5121h72.38768c1.0672 0 1.93 1.0167 1.93 2.2709v50.247c0 1.2541-.8628 2.3364-1.93 2.4173z" fill="url(#bO)"/><path d="m79.3614 96.0835-67.4216 4.7725c-1.0541.075-1.9107-.782-1.9107-1.9151v-48.6639c0-1.1326.8566-2.0546 1.9107-2.0593l67.4216-.2997c.8804-.0039 1.5924.8292 1.5924 1.8608v44.3241c0 1.0316-.7121 1.9183-1.5924 1.9806z" fill="url(#bQ)"/><path d="m47.9792 46.2106c0 .5164-.3725.9363-.8326.9379-.4607.0015-.8345-.417-.8345-.9346s.3738-.9375.8345-.9378c.4601-.0004.8326.418.8326.9345z" fill="#fff"/><path d="m64.176 84.3807c-5.5805-3.2251-9.9684.8615-14.203-3.1705-2.5673-2.4445-1.3069-4.2674-4.4659-7.9203-3.4988-4.046-5.7768-2.686-9.293-6.3274-4.4461-4.6044-2.2225-8.1866-6.0522-11.4924-4.6461-4.0104-9.6566-.2985-14.0793-4.1446-1.9075-1.6588-2.9541-4.0705-3.5007-6.6353h-4.32742c-.75831 0-1.37411.6602-1.37411 1.4745v57.6173c0 .815.6158 1.428 1.37411 1.37l73.77492-5.6247c.362-.0276.6831-.2546.8891-.5838-5.4005-.2114-8.7184-2.156-10.8392-4.1663-4.1489-3.9326-3.4292-7.8108-7.9033-10.3965z" fill="#fff" opacity=".48"/><path d="m84.5018 99.3765-77.62143 5.7835 33.84443 6.13c.3876.07.7806.088 1.1717.055l80.4785-6.85-36.6384-5.0792c-.4098-.0568-.8231-.07-1.2348-.0393z" fill="url(#bR)"/><path d="m18.2065 105.305 64.6222-4.886 20.0003 2.75-64.0658 5.223z" fill="url(#bS)" opacity=".3"/><g fill="#fff" opacity=".75"><path d="m23.7849 52.039-7.4242.0259v-2.4025h7.4242z" opacity=".75"/><path d="m62.6847 51.9028-34.1839.1193v-2.3602h34.1839z" opacity=".75"/><path d="m35.6668 55.9865-7.166.0677v-2.3602l7.166-.0428z" opacity=".75"/><path d="m73.2579 55.6305-33.0379.3124v-2.3193l33.0379-.197z" opacity=".75"/><path d="m35.6668 59.9753-7.166.1105v-2.3602l7.166-.0855z" opacity=".75"/><path d="m73.2579 59.3958-33.0379.5094v-2.3193l33.0379-.394z" opacity=".75"/><path d="m23.785 64.2178-7.4242.1588v-2.4026l7.4242-.1329z" opacity=".75"/><path d="m62.6847 63.3863-34.1839.7309v-2.3602l34.1839-.6116z" opacity=".75"/><path d="m35.6668 67.9528-7.166.196v-2.3602l7.166-.171z" opacity=".75"/><path d="m73.2579 66.9252-33.0379.9035v-2.3193l33.0379-.7881z" opacity=".75"/><path d="m35.6668 71.9416-7.166.2387v-2.3603l7.166-.2136z" opacity=".75"/><path d="m73.2579 70.6893-33.0379 1.1005v-2.3192l33.0379-.9852z" opacity=".75"/><path d="m35.6668 75.9309-7.166.2815v-2.3602l7.166-.2564z" opacity=".75"/><path d="m73.2579 74.4546-33.0379 1.2976v-2.3193l33.0379-1.1822z" opacity=".75"/><path d="m47.2483 79.3953-6.9186.313v-2.319l6.9186-.2888z" opacity=".75"/><path d="m78.3028 77.9906-26.6573 1.2059v-2.2794l26.6573-1.1128z" opacity=".75"/><path d="m23.785 84.5163-7.4242.3802v-2.4026l7.4242-.3542z" opacity=".75"/><path d="m62.6847 82.525-34.1839 1.7503v-2.3602l34.1839-1.631z" opacity=".75"/><path d="m35.6668 87.8973-7.166.4096v-2.3602l7.166-.3846z" opacity=".75"/><path d="m73.2579 85.7487-33.0379 1.8886v-2.3192l33.0379-1.7733z" opacity=".75"/><path d="m35.6668 91.8861-7.166.4524v-2.3602l7.166-.4274z" opacity=".75"/><path d="m73.2579 89.5129-33.0379 2.0856v-2.3193l33.0379-1.9703z" opacity=".75"/><path d="m23.785 96.6957-7.4242.5129v-2.4025l7.4242-.4871z" opacity=".75"/><path d="m62.6847 94.0079-34.1839 2.3619v-2.3602l34.1839-2.2426z" opacity=".75"/></g><path d="m88.9634 86.6599c2.2804 1.1578 5.1453.0947 6.399-2.3745 1.2536-2.4691.4213-5.4094-1.8591-6.5672-.1182-.06-.2387-.1104-.3596-.1586.4236-1.3663.743-2.7433.9572-4.1208.1308-.0003.2619-.0025.3952-.0144 2.6017-.232 4.6665-2.6226 4.6121-5.34-.0544-2.7173-2.2077-4.7321-4.8094-4.5002-.1361.0122-.2696.0336-.4024.0572-.2717-1.3466-.6441-2.662-1.1139-3.9351.1197-.07.2388-.1424.3551-.2239 2.2258-1.5593 2.9375-4.6373 1.5895-6.8745-1.3481-2.2373-4.2453-2.7867-6.4712-1.2273-.1141.0799-.2214.1663-.3274.2539-.8792-.972-1.8434-1.8726-2.8866-2.6946.0733-.1202.1451-.2421.2101-.37 1.2536-2.4692 2.8918-5.1663.5936-6.2883-5.3165-2.5954-7.5979-.3736-8.8516 2.0956-.0649.1279-.1209.2577-.1747.3879-1.2792-.3572-2.5754-.6041-3.8788-.7404.0082-.1373.0145-.2748.0118-.4141-.0546-2.7172.7517-4.1877-1.8598-4.2385-5.6949-.1107-7.6163 2.3611-7.5618 5.0782.0028.1421.0147.281.0288.4189-1.3051.372-2.5867.8476-3.8343 1.4228-.0593-.1211-.1208-.2416-.1912-.3586-1.348-2.2373-4.2452-2.7867-6.4712-1.2271-2.2259 1.5595-2.9375 4.6372-1.5894 6.8745.069.1146.1447.2218.2215.3275-.9857.9858-1.9089 2.0563-2.7619 3.2046-.1103-.0692-.2222-.1368-.3403-.1968-2.2804-1.1578-5.1453-.0947-6.399 2.3745-1.2536 2.4692-.4213 5.4094 1.8591 6.5672.1181.06.2387.1104.3597.1586-.4237 1.3663-.7432 2.7432-.9573 4.1208-.1308.0004-.2619.0026-.3951.0143-2.6018.2321-4.6667 2.6227-4.6122 5.3401.0545 2.7173 2.2078 4.732 4.8095 4.5001.1359-.0121.2695-.0335.4023-.0572.2717 1.3467.6441 2.6621 1.1139 3.9352-.1197.07-.2388.1424-.3551.2238-2.2259 1.5594-2.9375 4.6373-1.5895 6.8746s5.8109 3.2767 8.0367 1.7172c.1141-.0799-1.3442-.6561-1.2382-.7437.8792.9719 1.8434 1.8726 2.8867 2.6945-.0733.1203-.1452.2421-.2101.37-1.2537 2.4692-.4213 5.4094 1.859 6.5672 2.2804 1.1577 5.1453.0948 6.399-2.3744.0649-.128.1208-.2579.1747-.388 1.2792.3572 2.5753.6041 3.8788.7404-.0082.1373-.0145.2748-.0118.4141.0545 2.7176 2.2078 4.7316 4.8095 4.5006 2.6016-.232 4.6666-2.6232 4.612-5.3404-.0028-.142-.0147-.2809-.0287-.4188 1.305-.372 2.5867-.8476 3.8342-1.4228.0593.1212.1208.2416.1913.3585 1.348 2.2372 4.2452 2.7868 6.4711 1.2273 2.226-1.5596 2.9375-4.6373 1.5895-6.8747-.0691-.1146-.1446-.2217-.2215-.3275.9857-.9858 1.9088-2.0562 2.7618-3.2045.1104.0692.2222.1368.3404.1968zm-28.427.3608c-8.2796-4.2037-11.3015-14.8791-6.7497-23.8441 4.5517-8.9651 14.9535-12.8249 23.233-8.6211 8.2795 4.2036 11.3014 14.879 6.7497 23.844s-14.9535 12.8249-23.233 8.6212z" fill="url(#bT)"/><path d="m94.4962 73.4243c2.6018-.232 4.6666-2.6227 4.6121-5.34-.0544-2.7173-2.2077-4.7322-4.8094-4.5001-.136.012-.2696.0336-.4024.0571-.2717-1.3466-.6441-2.662-1.1139-3.9351.1197-.0699.2388-.1424.3552-.2239 2.2257-1.5594 4.9796-5.3275 3.4092-7.4146-2.9806-3.9612-6.0651-2.2466-8.291-.6872-.114.0799-.2213.1662-.3273.2538-.8792-.9719-1.8434-1.8725-2.8867-2.6946.0733-.1202.1452-.242.2101-.3699.6823-1.3438.7425-2.8254.2919-4.0851-2.1499 3.784-4.2709 7.584-6.3538 11.4045 6.6051 4.8401 8.7079 14.3783 4.5793 22.5102-3.4986 6.8909-10.4533 10.7602-17.244 10.2754-.303.7856-.6004 1.5754-.9248 2.3534-.8803 2.1114-1.8802 4.1793-2.8815 6.2444.6297.1187 1.2622.2122 1.8964.2786-.0081.1373-.0144.2748-.0117.4141.0545 2.7177 1.7042 5.0257 6.4194 4.7757 2.6083-.138 3.0566-2.8982 3.0022-5.6155-.0029-.142-.0147-.2808-.0288-.4188 1.305-.3719 2.5867-.8476 3.8342-1.4228.0593.1212.1209.2416.1913.3585 1.348 2.2373 6.0245 3.1879 8.2504 1.6283 2.2259-1.5594 1.1582-5.0383-.1898-7.2757-.069-.1146-.1446-.2218-.2215-.3275.9857-.9858 1.9089-2.0562 2.7619-3.2045.1103.0693.2221.1369.3403.1967 2.2804 1.1579 5.1453.0947 6.399-2.3745 1.2536-2.469.4213-5.4094-1.8591-6.5671-.1182-.06-.2387-.1104-.3597-.1586.4237-1.3663.7431-2.7434.9573-4.1207.1308-.0004.262-.0027.3952-.0145z" fill="url(#bU)"/><path d="m91.4163 86.9385c2.2804 1.1578 5.1453.0947 6.399-2.3745 1.2536-2.4692.4213-5.4094-1.8591-6.5673-.1182-.06-.2387-.1103-.3597-.1586.4237-1.3663.7431-2.7432.9573-4.1207.1307-.0004.2619-.0026.3952-.0145 2.6017-.2319 4.667-2.6226 4.612-5.3399-.054-2.7173-2.2077-4.7321-4.8093-4.5002-.136.0122-.2695.0336-.4024.0572-.2717-1.3466-.6441-2.6621-1.1139-3.9351.1197-.07.2388-.1424.3551-.2239 2.2258-1.5594 2.9375-4.6373 1.5895-6.8746-1.3481-2.2372-4.2453-2.7867-6.4712-1.2273-.114.08-.2214.1663-.3273.2538-.8792-.9718-1.8435-1.8725-2.8867-2.6945.0733-.1203.1451-.2421.2101-.37 1.2536-2.4692.4214-5.4094-1.859-6.5672s-5.1453-.0947-6.399 2.3744c-.0649.128-.1209.2579-.1747.388-1.2793-.3572-2.5754-.6041-3.8787-.7404.008-.1373.0144-.2748.0117-.4141-.0546-2.7172-2.2078-4.732-4.8096-4.5001-2.6016.2319-4.6665 2.6227-4.612 5.3399.0028.142.0147.2808.0288.4188-1.3051.372-2.5867.8476-3.8343 1.4229-.0593-.1212-.1208-.2417-.1912-.3587-1.348-2.2372-4.2453-2.7867-6.4712-1.2272-2.2259 1.5596-2.9375 4.6374-1.5894 6.8746.069.1146.1446.2218.2215.3276-.9857.9858-1.9089 2.0562-2.7619 3.2045-.1103-.0692-.2222-.1368-.3404-.1967-2.2803-1.1579-5.1452-.0948-6.3988 2.3744-1.2537 2.4692-.4214 5.4094 1.859 6.5672.1181.06.2387.1104.3597.1587-.4237 1.3662-.7432 2.7432-.9574 4.1207-.1306.0004-.2619.0026-.3951.0144-2.6017.232-4.6666 2.6227-4.6121 5.34.0544 2.7173 2.2077 4.732 4.8094 4.5001.1359-.0121.2695-.0335.4023-.0571.2717 1.3466.6441 2.662 1.1139 3.9351-.1196.07-.2387.1424-.355.2239-2.2259 1.5594-2.9375 4.6373-1.5895 6.8745 1.348 2.2374 4.2453 2.7867 6.4711 1.2274.114-.08.2214-.1662.3274-.2539.8792.9719 1.8434 1.8726 2.8866 2.6946-.0732.1203-.1451.2421-.21.37-1.2537 2.4692-.4214 5.4094 1.859 6.5672 2.2804 1.1581 5.1453.0947 6.3989-2.3745.065-.1279.121-.2577.1748-.3879 1.2793.3571 2.5754.604 3.8788.7404-.0081.1373-.0145.2748-.0117.4141.0545 2.717 2.2078 4.732 4.8094 4.5 2.6017-.232 4.6667-2.623 4.6121-5.3398-.0028-.142-.0147-.2809-.0288-.4188 1.3051-.372 2.5868-.8476 3.8343-1.4228.0592.1211.1208.2416.1913.3585 1.348 2.2373 4.2451 2.7868 6.4711 1.2273 2.2259-1.5595 2.9375-4.6373 1.5896-6.8747-.0692-.1146-.1448-.2217-.2216-.3274.9857-.9858 1.9088-2.0563 2.7619-3.2046.1102.0692.2221.1367.3402.1968zm-28.427.3606c-8.2795-4.2037-11.3015-14.8789-6.7497-23.844 4.5518-8.965 14.9534-12.8248 23.233-8.6211 8.2795 4.2037 11.3014 14.879 6.7497 23.844-4.5517 8.9651-14.9534 12.8248-23.233 8.6211z" fill="url(#bV)"/><path d="m80.9059 46.7216s-.4727-.0659-.3253-.9687c.1155-.7076.028-.9456-.139-.8202-.1671.1255-.1907.5344-.1907.5344s-.6093-.5197-.8601-1.2007c-.2509-.6809-.4122-.1075-.466.233-.0537.3405.3585 1.3978.5914 1.595.233.1971.5735 1.0659.5735 1.0659z" fill="url(#bX)"/><path d="m99.6958 101.982s-3.1325 1.424-3.1836 1.651c-.0512.227 2.0145-.076 2.8577-.044.8431.033 1.5371-.216 1.4611-.573-.077-.357-.372-1.256-.372-1.256z" fill="url(#bZ)"/><path d="m99.5812 100.827.1905 1.41s.4963.177.8293-.032l.142-1.547z" fill="url(#b0)"/><path d="m114.333 100.86.364.585c.102.164.133.361.084.547-.128.487-.382 1.434-.493 1.682-.151.336-2.178.536-2.178.536s-.181-.254.24-.561c.421-.308.691-.356.84-.809.148-.454.247-1.736.247-1.736z" fill="url(#b1)"/><path d="m112.816 99.3739c.133.1061.784 2.0821.784 2.0821s.211.27.612-.128c.4-.398.181-.178.181-.178l-.075-1.9441z" fill="url(#b2)"/><path d="m97.8577 72.4915c-.1653 4.2069-.172 8.7777.0701 13.6607.2725 5.4986.8202 10.5807 1.5104 15.1878.2566.008.5263.009.8078.001.19-.005.375-.014.553-.026.358-.956.781-2.2119 1.16-3.7124.399-1.5778.639-2.9931.811-4.3464.603-4.7651-.104-5.1808.386-8.7122.433-3.1275 1.05-3.2496 1.774-7.69.785-4.818.2-5.5408-.084-5.802-1.21-1.1116-4.053-.3548-6.9883 1.4395z" fill="url(#b4)"/><path d="m104.846 71.0532c-1.155-1.0603-3.794-.4184-6.5827 1.1998 3.2077 3.4656 3.5577 5.7138 3.1727 7.1724-.434 1.6487-1.7558 2.1235-1.7508 3.9262.0062 2.2154 2.0058 2.8023 1.9628 5.1465-.028 1.5502-.906 1.5341-1.114 3.4487-.245 2.2654.903 3.046.531 4.7221-.16.721-.617 1.6633-1.9169 2.6339.0938.6882.1899 1.3692.2901 2.0382.2565.008.5262.009.8078.001.19-.005.375-.014.553-.026.358-.956.781-2.2119 1.16-3.7123.399-1.5778.639-2.9931.811-4.3464.603-4.765-.104-5.1808.386-8.7122.433-3.1275 1.05-3.2497 1.773-7.6901.786-4.818.201-5.5408-.083-5.8018z" fill="url(#b5)" opacity=".3"/><path d="m99.8444 72.4215c2.7616 4.0412 5.7406 9.0707 8.4056 15.0908 2.013 4.5494 3.473 8.8209 4.545 12.6277.145.067.487.201.925.143.596-.079.953-.4593 1.047-.5655.436-2.729.388-5.0402.24-6.7083-.095-1.0679-.263-2.8464-.943-5.042-.763-2.4595-1.287-2.5977-2.282-5.1996-1.032-2.7007-.782-3.3747-1.771-6.7545-.406-1.3884-1.086-3.4546-2.208-5.9261-2.653.7781-5.306 1.5563-7.9586 2.3345z" fill="url(#b6)"/><path d="m98.8103 49.5691s.0902 1.1832.4855 2.0592c.3573.7916 2.1212 1.2415 2.4812 1.4096.36.168-.642.7228-1.662.8573-1.0192.1345-3.9468-.0072-4.4852-.3786-.5385-.3713.412-.3716 1.1335-.6621.7216-.2906 1.0994-1.7312.9505-2.3751-.1489-.644 1.0965-.9103 1.0965-.9103z" fill="url(#b7)"/><path d="m97.3386 48.6642c-.5371-.7128-.3082-2.1119.171-2.2915.1369-.0513.2295.0211 1.5959 1.1395.6784.5555 1.0085.8413 1.0265 1.2237.011.2334-.091.5122-.2453.7083-.0798.101-.2097.2169-.4846.4299-.2438.1889-.2299.1843-.3035.2383-.1767.1299-.5046.3391-1.0452.5311.0144-.1309.024-.2958.012-.4829-.0046-.0719-.0256-.3541-.1176-.6151-.1582-.4493-.4349-.6499-.6092-.8813z" fill="url(#b8)"/><path d="m98.7138 50.4953s-.6654.5328-1.4762.1774c-.7258-.3183-.2296-2.025.3738-2.2065.2012-.0605.5363.0057.7681.1716.1369.098.1654.1801.3922.3359.2091.1437.2836.1417.3321.2257.0605.105.059.308-.2635.7427.194-.0922.3843-.0855.4842.0152.016.0161.0544.0693.064.1324.0348.2282-.2273.4083-.6747.4056z" fill="url(#b9)"/><path d="m111.08 73.907c-1.152 1.0435-3.148 1.1284-3.584 1.1469-2.051.0871-2.344-.8034-4.373-.7169-2.035.0868-2.571 1.0163-4.0138.6452-.2557-.0658-1.2542-.3562-2.3153-1.7428-3.0072-3.9296-.4935-8.2535-3.491-13.8123-.4518-.8379-.8493-1.575-1.6487-2.3655-2.587-2.5583-5.0537-1.3948-8.3136-3.4478-2.6745-1.6842-4.4696-5.0698-3.6932-6.5959.3517-.6917.6564-.6003 1.1289-.656.7939 1.3462 2.7586 2.988 5.0186 3.9439 2.1444.9069 3.7967.4734 7.0779.5194 2.0054.0281 5.448.0763 8.1782 1.0536 6.826 2.4439 9.354 10.7541 10.101 13.2112.653 2.1478 2.083 6.8652-.072 8.817z" fill="url(#ca)"/><path d="m105.489 72.0196c.744-.9602-3.096-3.6051-2.581-6.6905.434-2.598 3.514-2.8575 4.301-5.2567.34-1.0364.277-2.5458-1.171-4.7919 3.175 3.4434 4.587 8.0785 5.114 9.8097.653 2.1478 2.083 6.8652-.072 8.817-1.152 1.0435-3.148 1.1283-3.584 1.1469-2.051.087-2.344-.8034-4.373-.7169-2.035.0868-2.571 1.0163-4.0139.6452-.2556-.0658-1.2542-.3562-2.3152-1.7428-.0158-.0207-.0293-.0415-.0448-.0622.8011-.7635 1.7623-1.3793 2.9096-1.6358 2.8263-.6316 5.2273 1.2556 5.8303.478z" fill="url(#cb)" opacity=".3"/><path d="m116.24 39.1257c1.028.3543 2.172-.261 2.556-1.3742.384-1.1133-.139-2.3029-1.167-2.6571-.053-.0184-.107-.0326-.161-.0458.099-.6002.153-1.1988.162-1.7915.055-.0078.111-.0164.166-.0292 1.082-.2498 1.812-1.3774 1.63-2.5187s-1.206-1.8639-2.289-1.6141c-.056.0132-.111.03-.166.0477-.193-.5512-.427-1.0835-.699-1.5922.046-.0365.092-.0739.137-.115.846-.787.966-2.1248.267-2.9883-.699-.8634-1.951-.9253-2.797-.1384-.044.0403-.084.083-.123.126-.427-.3579-.886-.6808-1.374-.966.024-.055.047-.1105.067-.1681.384-1.1132.916-2.345-.118-2.6831-2.39-.7822-3.221.2869-3.605 1.4001-.02.0577-.036.1157-.051.1736-.559-.0755-1.12-.1038-1.677-.0849-.004-.0583-.01-.1166-.019-.1752-.182-1.1411.072-1.8076-1.031-1.6762-2.405.2864-3.07 1.4398-2.888 2.5809.01.0597.023.1175.037.1747-.528.233-1.04.5083-1.532.8235-.032-.0476-.065-.0947-.101-.1399-.699-.8634-1.9512-.9254-2.7975-.1384s-.966 2.1249-.2673 2.9883c.0358.0442.0738.0849.1124.125-.3575.4728-.6837.9776-.9758 1.5111-.0505-.0227-.1016-.0446-.1548-.0629-1.0281-.3543-2.1726.261-2.5562 1.3742s.1389 2.3029 1.1671 2.6572c.0532.0183.107.0325.1607.0457-.0986.6002-.1525 1.1988-.1622 1.7915-.055.0079-.1101.0164-.1656.0292-1.0822.2498-1.812 1.3775-1.6302 2.5187.1819 1.1412 1.2066 1.8638 2.2888 1.614.0566-.013.1115-.0299.1661-.0476.1932.5513.4269 1.0835.6992 1.5922-.0463.0365-.0922.0739-.1364.1151-.8463.7869-.966 2.1248-.2675 2.9882.6986.8634 2.6391 1.0402 3.4852.2532.043-.0403-.6045-.1977-.5649-.2408.4269.3579.8859.6808 1.3729.966-.023.0549-.047.1105-.066.1681-.384 1.1133.138 2.3029 1.167 2.6571 1.028.3543 2.172-.261 2.556-1.3742.02-.0577.036-.1157.051-.1736.559.0756 1.12.1038 1.676.085.005.0583.01.1165.02.1751.182 1.1411 1.206 1.8638 2.288 1.6139 1.083-.2498 1.812-1.3774 1.631-2.5186-.01-.0597-.023-.1175-.037-.1747.528-.233 1.04-.5083 1.532-.8235.032.0476.065.0947.101.1398.699.8634 1.951.9254 2.797.1384.847-.787.966-2.1248.268-2.9882-.036-.0442-.074-.085-.113-.125.358-.4728.684-.9776.976-1.5112.05.0228.102.0447.155.0631zm-11.951 1.8143c-3.733-1.2862-5.6303-5.6055-4.238-9.6474 1.393-4.0419 5.548-6.2758 9.281-4.9896 3.733 1.2863 5.63 5.6056 4.237 9.6475s-5.548 6.2758-9.28 4.9895z" fill="url(#cc)"/><path d="m117.796 33.2272c1.082-.2499 1.812-1.3776 1.63-2.5188s-1.207-1.8638-2.289-1.614c-.056.013-.111.0299-.166.0476-.193-.5512-.427-1.0834-.699-1.5922.046-.0364.092-.0739.136-.1151.847-.7868 1.786-2.5349 1.003-3.322-1.487-1.494-2.686-.5916-3.532.1954-.044.0403-.084.0829-.123.126-.428-.3579-.886-.6808-1.374-.966.024-.0549.047-.1104.067-.1681.209-.6058.148-1.2333-.116-1.7375-.684 1.7195-1.355 3.4438-2.009 5.1747 3.065 1.6522 4.508 5.5464 3.245 9.2126-1.07 3.1068-3.773 5.1431-6.661 5.336-.082.3486-.161.6986-.252 1.0453-.248.9407-.548 1.87-.849 2.7984.272.0131.544.0155.815.0064.005.0584.01.1166.02.1751.181 1.1412 1.011 2.0171 2.982 1.636 1.091-.2108 1.118-1.3994.936-2.5407-.009-.0596-.022-.1174-.036-.1747.528-.233 1.04-.5083 1.531-.8234.033.0475.066.0947.102.1398.699.8635 2.724.9903 3.57.2033s.193-2.1897-.505-3.0532c-.036-.0442-.074-.0849-.113-.125.358-.4727.684-.9776.976-1.5111.05.0228.101.0447.155.063 1.028.3543 2.172-.261 2.556-1.3743.383-1.1132-.139-2.3028-1.167-2.6571-.053-.0184-.107-.0325-.161-.0457.099-.6002.153-1.1988.162-1.7915.055-.0079.11-.0164.166-.0292z" fill="url(#cd)"/><path d="m118.846 33.2007c1.082-.2495 1.811-1.3769 1.629-2.5178-.181-1.1412-1.206-1.8649-2.289-1.614-.056.0128-.111.0291-.166.0478-.193-.5513-.427-1.0846-.698-1.5928.045-.0361.091-.0735.136-.1145.846-.7874.966-2.1254.268-2.9888-.7-.8632-1.951-.9251-2.798-.1388-.044.0408-.083.0836-.123.1263-.427-.3576-.885-.6811-1.373-.9658.024-.0553.047-.1107.066-.168.384-1.1141-.138-2.3033-1.166-2.6568-1.029-.3548-2.173.2606-2.557 1.3735-.019.0573-.036.1155-.05.1733-.56-.0749-1.121-.1036-1.677-.0848-.005-.0576-.011-.1163-.019-.1747-.182-1.1411-1.207-1.8635-2.289-1.614-1.083.2497-1.812 1.377-1.63 2.518.009.0607.022.1185.036.1748-.528.2334-1.039.5092-1.532.8244-.031-.0477-.065-.0952-.101-.1398-.439-.542-1.095-.7685-1.731-.6665-.379.0588-.751.2332-1.0661.5276-.846.7875-.9656 2.1242-.2674 2.9888.0359.0434.0737.0841.1129.1245-.3575.4727-.6845.9773-.9763 1.5116-.0503-.0228-.1019-.0454-.1551-.0629-1.0282-.3547-2.1723.2607-2.5562 1.3736-.3839 1.1128.1387 2.3033 1.1667 2.6569.0534.0186.1076.0334.1614.0458-.099.6006-.1524 1.1986-.1619 1.7917-.0559.0078-.1106.0166-.1659.0292-1.082.2495-1.8125 1.377-1.6304 2.5192.182 1.1411 1.2067 1.8636 2.2887 1.6141.0563-.0141.1112-.0303.1657-.0479.1932.5514.4271 1.0834.7 1.5914-.047.0376-.0926.0749-.1365.1157-.8462.7863-.9657 2.1243-.2676 2.9876.6982.8646 1.9513.9264 2.797.1389.043-.0407.084-.0824.123-.1262.427.3588.886.6809 1.374.9668-.024.0542-.047.1095-.068.1681-.382 1.1127.14 2.302 1.168 2.6568 1.028.3535 2.173-.2607 2.556-1.3748.02-.0573.035-.1153.051-.1733.56.0761 1.12.1038 1.677.0848.004.059.01.1165.019.1748.182 1.1422 1.207 1.8647 2.289 1.6152 1.082-.2508 1.812-1.3782 1.63-2.5193-.01-.0594-.022-.1172-.037-.1748.527-.2332 1.04-.5079 1.532-.8231.032.0477.064.0941.102.1398.698.8633 1.951.925 2.797.1376.663-.6156.88-1.5701.608-2.3685-.076-.2228-.189-.4316-.341-.6191-.036-.0446-.074-.0852-.113-.1245.358-.4739.683-.9782.977-1.5115.05.0228.1.0444.154.063 1.028.3536 2.173-.2609 2.556-1.3748.384-1.1129-.139-2.3021-1.167-2.6568-.054-.0187-.106-.0324-.16-.046.097-.6005.152-1.1986.162-1.7918.054-.0076.11-.0154.166-.0292zm-4.228 2.7235c-.944 2.7416-3.16 4.6511-5.652 5.1943-1.182.2585-2.426.2092-3.628-.2047-3.733-1.2868-5.6305-5.6053-4.238-9.6474.623-1.8073 1.797-3.252 3.24-4.1831 1.782-1.1533 3.977-1.5189 6.042-.8067 3.733 1.2856 5.629 5.6055 4.236 9.6476z" fill="url(#ce)"/><path d="m116.004 43.6599c-.846.7875-2.099.7257-2.797-.1376-.038-.0457-.07-.0921-.102-.1398-.492.3152-1.005.5899-1.532.8232.015.0576.027.1153.037.1748.182 1.141-.548 2.2684-1.63 2.5192-1.082.2495-2.107-.473-2.289-1.6152-.009-.0583-.015-.1158-.019-.1748-.557.0191-1.117-.0087-1.677-.0847-.016.0579-.031.1159-.051.1732-.383 1.1141-1.528 1.7284-2.556 1.3748-1.028-.3548-1.55-1.544-1.168-2.6567.021-.0587.044-.114.068-.1682-.488-.2859-.947-.608-1.374-.9668-.039.0438-.08.0855-.123.1262-.8457.7875-2.0988.7257-2.797-.1389-.6981-.8633-.5786-2.2012.2676-2.9875.0439-.0409.0895-.0783.1365-.1157-.2728-.508-.5068-1.0401-.7-1.5915-.0546.0176-.1094.0338-.1657.0479-1.082.2495-2.1067-.473-2.2887-1.614-.1821-1.1422.5484-2.2697 1.6304-2.5192.0553-.0127.11-.0215.1659-.0292.0095-.5932.0629-1.1912.1619-1.7918-.0538-.0124-.108-.0272-.1614-.0458-1.0281-.3536-1.5506-1.5441-1.1667-2.6569.3839-1.1129 1.528-1.7283 2.5562-1.3736.0532.0175.1048.0401.1551.0629.2919-.5343.6188-1.0388.9763-1.5115-.0392-.0405-.077-.0812-.1129-.1246-.6982-.8646-.5786-2.2013.2674-2.9887.3151-.2944.6871-.4689 1.0661-.5277 1.469 1.0156 2.894 2.376 3.558 4.0817-1.443.9311-2.617 2.3758-3.24 4.1831-1.3925 4.0421.505 8.3606 4.238 9.6474 1.202.4139 2.446.4632 3.628.2047 1.834 1.0493 4.331 1.2982 7.646.1729.272.7983.055 1.7529-.608 2.3684z" fill="#fff" opacity=".3"/></svg>